{"header": {"keySignatures": [{"key": "C", "scale": "major", "ticks": 0}], "meta": [{"text": "L.Quarantotto/F.Sartori -   Insieme Srl/Double marpot Ed.Musicali\n", "ticks": 0, "type": "text"}], "name": "Con te partiro ", "ppq": 120, "tempos": [{"bpm": 105.99995053335641, "ticks": 0}, {"bpm": 100, "ticks": 28320}, {"bpm": 89.9999550000225, "ticks": 28560}, {"bpm": 80, "ticks": 28800}, {"bpm": 105.99995053335641, "ticks": 29520}], "timeSignatures": [{"ticks": 0, "timeSignature": [2, 4], "measures": 0}, {"ticks": 38880, "timeSignature": [4, 4], "measures": 162}]}, "tracks": [{"channel": 0, "controlChanges": {}, "pitchBends": [], "instrument": {"family": "piano", "number": 0, "name": "acoustic grand piano"}, "name": "Soft Karaoke", "notes": [], "endOfTrackTicks": 0}, {"channel": 0, "controlChanges": {}, "pitchBends": [], "instrument": {"family": "piano", "number": 0, "name": "acoustic grand piano"}, "name": "Words", "notes": [], "endOfTrackTicks": 48720}, {"channel": 0, "controlChanges": {"0": [{"number": 0, "ticks": 120, "time": 0.566038, "value": 0}], "100": [{"number": 100, "ticks": 121, "time": 0.5707549833333334, "value": 0}], "121": [{"number": 121, "ticks": 117, "time": 0.55188705, "value": 0}]}, "pitchBends": [], "instrument": {"family": "piano", "number": 0, "name": "acoustic grand piano"}, "name": "Strings1", "notes": [], "endOfTrackTicks": 51840}, {"channel": 0, "controlChanges": {"6": [{"number": 6, "ticks": 124, "time": 0.5849059333333334, "value": 0.015748031496062992}, {"number": 6, "ticks": 238, "time": 1.1226420333333333, "value": 0.5433070866141733}, {"number": 6, "ticks": 48878, "time": 231.92966536666665, "value": 0.5511811023622047}], "7": [{"number": 7, "ticks": 123, "time": 0.58018895, "value": 0.7559055118110236}], "10": [{"number": 10, "ticks": 123, "time": 0.58018895, "value": 0.7086614173228346}], "11": [{"number": 11, "ticks": 13499, "time": 63.674558016666666, "value": 1}, {"number": 11, "ticks": 13514, "time": 63.745312766666665, "value": 0.9921259842519685}, {"number": 11, "ticks": 13529, "time": 63.81606751666667, "value": 0.984251968503937}, {"number": 11, "ticks": 13544, "time": 63.88682226666667, "value": 0.968503937007874}, {"number": 11, "ticks": 13559, "time": 63.95757701666667, "value": 0.9606299212598425}, {"number": 11, "ticks": 13574, "time": 64.02833176666667, "value": 0.952755905511811}, {"number": 11, "ticks": 13589, "time": 64.09908651666667, "value": 0.937007874015748}, {"number": 11, "ticks": 13604, "time": 64.16984126666667, "value": 0.9291338582677166}, {"number": 11, "ticks": 13619, "time": 64.24059601666667, "value": 0.9133858267716536}, {"number": 11, "ticks": 13634, "time": 64.31135076666666, "value": 0.905511811023622}, {"number": 11, "ticks": 13649, "time": 64.38210551666667, "value": 0.8976377952755905}, {"number": 11, "ticks": 13664, "time": 64.45286026666666, "value": 0.8818897637795275}, {"number": 11, "ticks": 13679, "time": 64.52361501666667, "value": 0.8740157480314961}, {"number": 11, "ticks": 13694, "time": 64.59436976666667, "value": 0.8582677165354331}, {"number": 11, "ticks": 13709, "time": 64.66512451666667, "value": 0.8503937007874016}, {"number": 11, "ticks": 13724, "time": 64.73587926666667, "value": 0.84251968503937}, {"number": 11, "ticks": 13739, "time": 64.80663401666666, "value": 0.8267716535433071}, {"number": 11, "ticks": 13754, "time": 64.87738876666667, "value": 0.8188976377952756}, {"number": 11, "ticks": 13769, "time": 64.94814351666666, "value": 0.8031496062992126}, {"number": 11, "ticks": 13784, "time": 65.01889826666667, "value": 0.7952755905511811}, {"number": 11, "ticks": 13799, "time": 65.08965301666667, "value": 0.7874015748031497}, {"number": 11, "ticks": 13814, "time": 65.16040776666667, "value": 0.7716535433070866}, {"number": 11, "ticks": 13829, "time": 65.23116251666667, "value": 0.7637795275590551}, {"number": 11, "ticks": 13844, "time": 65.30191726666666, "value": 0.7480314960629921}, {"number": 11, "ticks": 13859, "time": 65.37267201666667, "value": 0.7401574803149606}, {"number": 11, "ticks": 13874, "time": 65.44342676666666, "value": 0.7322834645669292}, {"number": 11, "ticks": 13889, "time": 65.51418151666667, "value": 0.7165354330708661}, {"number": 11, "ticks": 13904, "time": 65.58493626666667, "value": 0.7086614173228346}, {"number": 11, "ticks": 13919, "time": 65.65569101666667, "value": 0.6929133858267716}, {"number": 11, "ticks": 13934, "time": 65.72644576666667, "value": 0.6850393700787402}, {"number": 11, "ticks": 13949, "time": 65.79720051666666, "value": 0.6771653543307087}, {"number": 11, "ticks": 13964, "time": 65.86795526666667, "value": 0.6614173228346457}, {"number": 11, "ticks": 13979, "time": 65.93871001666666, "value": 0.6535433070866141}, {"number": 11, "ticks": 13994, "time": 66.00946476666667, "value": 0.6377952755905512}, {"number": 11, "ticks": 14009, "time": 66.08021951666667, "value": 0.6299212598425197}, {"number": 11, "ticks": 14024, "time": 66.15097426666667, "value": 0.6220472440944882}, {"number": 11, "ticks": 14039, "time": 66.22172901666667, "value": 0.6062992125984252}, {"number": 11, "ticks": 14054, "time": 66.29248376666666, "value": 0.5984251968503937}, {"number": 11, "ticks": 14069, "time": 66.36323851666667, "value": 0.5826771653543307}, {"number": 11, "ticks": 14084, "time": 66.43399326666666, "value": 0.5748031496062992}, {"number": 11, "ticks": 14099, "time": 66.50474801666667, "value": 0.5669291338582677}, {"number": 11, "ticks": 14114, "time": 66.57550276666667, "value": 0.5511811023622047}, {"number": 11, "ticks": 14129, "time": 66.64625751666667, "value": 0.5433070866141733}, {"number": 11, "ticks": 14144, "time": 66.71701226666667, "value": 0.5275590551181102}, {"number": 11, "ticks": 14159, "time": 66.78776701666666, "value": 0.5196850393700787}, {"number": 11, "ticks": 14174, "time": 66.85852176666667, "value": 0.5118110236220472}, {"number": 11, "ticks": 14189, "time": 66.92927651666666, "value": 0.49606299212598426}, {"number": 11, "ticks": 14204, "time": 67.00003126666667, "value": 0.4881889763779528}, {"number": 11, "ticks": 14219, "time": 67.07078601666667, "value": 0.47244094488188976}, {"number": 11, "ticks": 14234, "time": 67.14154076666667, "value": 0.4645669291338583}, {"number": 11, "ticks": 14249, "time": 67.21229551666667, "value": 0.4566929133858268}, {"number": 11, "ticks": 14264, "time": 67.28305026666666, "value": 0.4409448818897638}, {"number": 11, "ticks": 14279, "time": 67.35380501666667, "value": 0.4330708661417323}, {"number": 11, "ticks": 14294, "time": 67.42455976666666, "value": 0.41732283464566927}, {"number": 11, "ticks": 14309, "time": 67.49531451666667, "value": 0.4094488188976378}, {"number": 11, "ticks": 14324, "time": 67.56606926666667, "value": 0.4015748031496063}, {"number": 11, "ticks": 14384, "time": 67.84908826666667, "value": 1}, {"number": 11, "ticks": 29039, "time": 137.612052, "value": 1}, {"number": 11, "ticks": 29054, "time": 137.705802, "value": 0.984251968503937}, {"number": 11, "ticks": 29069, "time": 137.799552, "value": 0.9606299212598425}, {"number": 11, "ticks": 29084, "time": 137.893302, "value": 0.937007874015748}, {"number": 11, "ticks": 29099, "time": 137.987052, "value": 0.9133858267716536}, {"number": 11, "ticks": 29114, "time": 138.080802, "value": 0.8976377952755905}, {"number": 11, "ticks": 29129, "time": 138.174552, "value": 0.8740157480314961}, {"number": 11, "ticks": 29144, "time": 138.268302, "value": 0.8503937007874016}, {"number": 11, "ticks": 29159, "time": 138.362052, "value": 0.8267716535433071}, {"number": 11, "ticks": 29174, "time": 138.455802, "value": 0.8110236220472441}, {"number": 11, "ticks": 29189, "time": 138.549552, "value": 0.7874015748031497}, {"number": 11, "ticks": 29204, "time": 138.643302, "value": 0.7637795275590551}, {"number": 11, "ticks": 29219, "time": 138.737052, "value": 0.7401574803149606}, {"number": 11, "ticks": 29234, "time": 138.830802, "value": 0.7244094488188977}, {"number": 11, "ticks": 29249, "time": 138.924552, "value": 0.7007874015748031}, {"number": 11, "ticks": 29264, "time": 139.018302, "value": 0.6771653543307087}, {"number": 11, "ticks": 29279, "time": 139.112052, "value": 0.6535433070866141}, {"number": 11, "ticks": 29294, "time": 139.205802, "value": 0.6377952755905512}, {"number": 11, "ticks": 29309, "time": 139.299552, "value": 0.6141732283464567}, {"number": 11, "ticks": 29324, "time": 139.393302, "value": 0.5905511811023622}, {"number": 11, "ticks": 29339, "time": 139.487052, "value": 0.5669291338582677}, {"number": 11, "ticks": 29354, "time": 139.580802, "value": 0.5511811023622047}, {"number": 11, "ticks": 29369, "time": 139.674552, "value": 0.5275590551181102}, {"number": 11, "ticks": 29384, "time": 139.768302, "value": 0.5039370078740157}, {"number": 11, "ticks": 29399, "time": 139.862052, "value": 0.48031496062992124}, {"number": 11, "ticks": 29414, "time": 139.955802, "value": 0.4645669291338583}, {"number": 11, "ticks": 29429, "time": 140.049552, "value": 0.4409448818897638}, {"number": 11, "ticks": 29444, "time": 140.143302, "value": 0.41732283464566927}, {"number": 11, "ticks": 29459, "time": 140.237052, "value": 0.3937007874015748}, {"number": 11, "ticks": 29474, "time": 140.330802, "value": 0.3779527559055118}, {"number": 11, "ticks": 29489, "time": 140.424552, "value": 0.3543307086614173}, {"number": 11, "ticks": 29519, "time": 140.612052, "value": 1}], "72": [{"number": 72, "ticks": 235, "time": 1.1084910833333335, "value": 0.5433070866141733}, {"number": 72, "ticks": 48874, "time": 231.91079743333336, "value": 0.5511811023622047}], "91": [{"number": 91, "ticks": 125, "time": 0.5896229166666668, "value": 0.7874015748031497}], "93": [{"number": 93, "ticks": 126, "time": 0.5943399, "value": 0.47244094488188976}], "98": [{"number": 98, "ticks": 236, "time": 1.1132080666666666, "value": 0.8031496062992126}, {"number": 98, "ticks": 48876, "time": 231.92023140000003, "value": 0.8031496062992126}], "99": [{"number": 99, "ticks": 237, "time": 1.1179250500000002, "value": 0.007874015748031496}, {"number": 99, "ticks": 48877, "time": 231.92494838333334, "value": 0.007874015748031496}], "101": [{"number": 101, "ticks": 122, "time": 0.5754719666666667, "value": 0}]}, "pitchBends": [], "instrument": {"family": "ensemble", "number": 48, "name": "string ensemble 1"}, "name": "", "notes": [{"duration": 1.0990571166666663, "durationTicks": 233, "midi": 74, "name": "D5", "ticks": 720, "time": 3.3962280000000002, "velocity": 0.6377952755905512}, {"duration": 1.0990571166666667, "durationTicks": 233, "midi": 79, "name": "G5", "ticks": 953, "time": 4.4952851166666665, "velocity": 0.6377952755905512}, {"duration": 1.1367929833333328, "durationTicks": 241, "midi": 79, "name": "G5", "ticks": 1192, "time": 5.622644133333334, "velocity": 0.5748031496062992}, {"duration": 0.580188950000001, "durationTicks": 123, "midi": 78, "name": "F#5", "ticks": 1432, "time": 6.7547201333333335, "velocity": 0.6141732283464567}, {"duration": 0.5801889500000001, "durationTicks": 123, "midi": 81, "name": "A5", "ticks": 1554, "time": 7.3301921000000005, "velocity": 0.6614173228346457}, {"duration": 3.9056621999999983, "durationTicks": 828, "midi": 79, "name": "G5", "ticks": 1680, "time": 7.924532000000001, "velocity": 0.6141732283464567}, {"duration": 0.5094341999999994, "durationTicks": 108, "midi": 81, "name": "A5", "ticks": 2518, "time": 11.877364033333334, "velocity": 0.6614173228346457}, {"duration": 3.3443411833333325, "durationTicks": 709, "midi": 83, "name": "B5", "ticks": 2644, "time": 12.471703933333336, "velocity": 0.5275590551181102}, {"duration": 0.38679263333333225, "durationTicks": 82, "midi": 81, "name": "A5", "ticks": 3355, "time": 15.825479083333335, "velocity": 0.5905511811023622}, {"duration": 0.37735866666666595, "durationTicks": 80, "midi": 84, "name": "C6", "ticks": 3438, "time": 16.2169887, "velocity": 0.6377952755905512}, {"duration": 0.39622659999999854, "durationTicks": 84, "midi": 83, "name": "B5", "ticks": 3519, "time": 16.599064350000003, "velocity": 0.6062992125984252}, {"duration": 1.646227183333334, "durationTicks": 349, "midi": 79, "name": "G5", "ticks": 3605, "time": 17.004724916666667, "velocity": 0.5984251968503937}, {"duration": 0.5518870500000013, "durationTicks": 117, "midi": 91, "name": "G6", "ticks": 3952, "time": 18.64151813333333, "velocity": 0.6535433070866141}, {"duration": 0.4198115166666696, "durationTicks": 89, "midi": 90, "name": "F#6", "ticks": 4069, "time": 19.193405183333333, "velocity": 0.5275590551181102}, {"duration": 0.38679263333333225, "durationTicks": 82, "midi": 86, "name": "D6", "ticks": 4156, "time": 19.603782733333336, "velocity": 0.5984251968503937}, {"duration": 0.39150961666666717, "durationTicks": 83, "midi": 91, "name": "G6", "ticks": 4237, "time": 19.985858383333333, "velocity": 0.6456692913385826}, {"duration": 0.4009435833333299, "durationTicks": 85, "midi": 90, "name": "F#6", "ticks": 4315, "time": 20.353783083333337, "velocity": 0.5984251968503937}, {"duration": 0.3867926333333358, "durationTicks": 82, "midi": 86, "name": "D6", "ticks": 4398, "time": 20.7452927, "velocity": 0.6141732283464567}, {"duration": 0.3490567666666671, "durationTicks": 74, "midi": 83, "name": "B5", "ticks": 4482, "time": 21.141519300000002, "velocity": 0.5905511811023622}, {"duration": 2.2358501000000004, "durationTicks": 474, "midi": 86, "name": "D6", "ticks": 4560, "time": 21.509444000000002, "velocity": 0.5590551181102362}, {"duration": 0.3396228000000008, "durationTicks": 72, "midi": 69, "name": "A4", "ticks": 5045, "time": 23.79718091666667, "velocity": 0.5669291338582677}, {"duration": 0.3396228000000008, "durationTicks": 72, "midi": 72, "name": "C5", "ticks": 5120, "time": 24.150954666666667, "velocity": 0.5748031496062992}, {"duration": 0.38207565000000443, "durationTicks": 81, "midi": 71, "name": "B4", "ticks": 5197, "time": 24.514162383333332, "velocity": 0.5748031496062992}, {"duration": 0.39150961666666717, "durationTicks": 83, "midi": 69, "name": "A4", "ticks": 5275, "time": 24.882087083333335, "velocity": 0.5984251968503937}, {"duration": 0.43867944999999864, "durationTicks": 93, "midi": 67, "name": "G4", "ticks": 5357, "time": 25.268879716666667, "velocity": 0.5748031496062992}, {"duration": 2.5660389333333313, "durationTicks": 544, "midi": 66, "name": "F#4", "ticks": 5439, "time": 25.655672350000003, "velocity": 0.5118110236220472}, {"duration": 0.31132089999999835, "durationTicks": 66, "midi": 48, "name": "C3", "ticks": 6000, "time": 28.301900000000003, "velocity": 0.6456692913385826}, {"duration": 0.2547171000000006, "durationTicks": 54, "midi": 50, "name": "D3", "ticks": 6060, "time": 28.584919000000003, "velocity": 0.6535433070866141}, {"duration": 0.2688680500000018, "durationTicks": 57, "midi": 52, "name": "E3", "ticks": 6120, "time": 28.867938000000002, "velocity": 0.6614173228346457}, {"duration": 0.21698123333333186, "durationTicks": 46, "midi": 50, "name": "D3", "ticks": 6179, "time": 29.14624001666667, "velocity": 0.6692913385826772}, {"duration": 0.29716994999999713, "durationTicks": 63, "midi": 52, "name": "E3", "ticks": 6239, "time": 29.42925901666667, "velocity": 0.6771653543307087}, {"duration": 0.28301899999999947, "durationTicks": 60, "midi": 54, "name": "F#3", "ticks": 6299, "time": 29.71227801666667, "velocity": 0.6850393700787402}, {"duration": 0.306603916666667, "durationTicks": 65, "midi": 52, "name": "E3", "ticks": 6359, "time": 29.99529701666667, "velocity": 0.6929133858267716}, {"duration": 0.2783020166666681, "durationTicks": 59, "midi": 54, "name": "F#3", "ticks": 6419, "time": 30.27831601666667, "velocity": 0.7007874015748031}, {"duration": 2.1981142333333317, "durationTicks": 466, "midi": 62, "name": "D4", "ticks": 6480, "time": 30.566052000000003, "velocity": 0.5590551181102362}, {"duration": 2.1981142333333317, "durationTicks": 466, "midi": 55, "name": "G3", "ticks": 6480, "time": 30.566052000000003, "velocity": 0.7165354330708661}, {"duration": 0.283019000000003, "durationTicks": 60, "midi": 60, "name": "C4", "ticks": 7442, "time": 35.10378996666667, "velocity": 0.6850393700787402}, {"duration": 0.25943408333333906, "durationTicks": 55, "midi": 62, "name": "D4", "ticks": 7500, "time": 35.377375, "velocity": 0.6614173228346457}, {"duration": 0.29245296666666576, "durationTicks": 62, "midi": 64, "name": "E4", "ticks": 7561, "time": 35.665110983333335, "velocity": 0.6614173228346457}, {"duration": 0.29716995000000423, "durationTicks": 63, "midi": 62, "name": "D4", "ticks": 7620, "time": 35.943413, "velocity": 0.6141732283464567}, {"duration": 0.2877359833333344, "durationTicks": 61, "midi": 64, "name": "E4", "ticks": 7680, "time": 36.226432, "velocity": 0.7795275590551181}, {"duration": 0.29245296666666576, "durationTicks": 62, "midi": 66, "name": "F#4", "ticks": 7740, "time": 36.509451000000006, "velocity": 0.6377952755905512}, {"duration": 0.29245296666666576, "durationTicks": 62, "midi": 64, "name": "E4", "ticks": 7800, "time": 36.79247, "velocity": 0.6929133858267716}, {"duration": 0.27358503333333317, "durationTicks": 58, "midi": 66, "name": "F#4", "ticks": 7860, "time": 37.075489000000005, "velocity": 0.7165354330708661}, {"duration": 2.1886802666666654, "durationTicks": 464, "midi": 62, "name": "D4", "ticks": 7921, "time": 37.36322498333334, "velocity": 0.6377952755905512}, {"duration": 2.193397250000004, "durationTicks": 465, "midi": 67, "name": "G4", "ticks": 7921, "time": 37.36322498333334, "velocity": 0.6614173228346457}, {"duration": 1.1839628166666643, "durationTicks": 251, "midi": 60, "name": "C4", "ticks": 7922, "time": 37.36794196666667, "velocity": 0.5905511811023622}, {"duration": 0.9905664999999999, "durationTicks": 210, "midi": 59, "name": "B3", "ticks": 8165, "time": 38.51416891666667, "velocity": 0.5905511811023622}, {"duration": 1.1603779000000003, "durationTicks": 246, "midi": 67, "name": "G4", "ticks": 8403, "time": 39.636810950000005, "velocity": 0.5590551181102362}, {"duration": 2.2452840666666702, "durationTicks": 476, "midi": 62, "name": "D4", "ticks": 8404, "time": 39.641527933333336, "velocity": 0.5196850393700787}, {"duration": 2.2452840666666702, "durationTicks": 476, "midi": 57, "name": "A3", "ticks": 8404, "time": 39.641527933333336, "velocity": 0.5511811023622047}, {"duration": 2.2452840666666702, "durationTicks": 476, "midi": 50, "name": "D3", "ticks": 8404, "time": 39.641527933333336, "velocity": 0.5748031496062992}, {"duration": 1.0896231500000013, "durationTicks": 231, "midi": 66, "name": "F#4", "ticks": 8649, "time": 40.797188850000005, "velocity": 0.4881889763779528}, {"duration": 2.254718033333333, "durationTicks": 478, "midi": 52, "name": "E3", "ticks": 8880, "time": 41.886812000000006, "velocity": 0.6141732283464567}, {"duration": 1.1179250499999966, "durationTicks": 237, "midi": 60, "name": "C4", "ticks": 8880, "time": 41.886812000000006, "velocity": 0.5748031496062992}, {"duration": 2.3113218333333307, "durationTicks": 490, "midi": 67, "name": "G4", "ticks": 8880, "time": 41.886812000000006, "velocity": 0.5905511811023622}, {"duration": 2.2594350166666644, "durationTicks": 479, "midi": 64, "name": "E4", "ticks": 8881, "time": 41.89152898333334, "velocity": 0.6614173228346457}, {"duration": 1.1273590166666594, "durationTicks": 239, "midi": 59, "name": "B3", "ticks": 9120, "time": 43.018888000000004, "velocity": 0.5669291338582677}, {"duration": 1.1792458333333329, "durationTicks": 250, "midi": 55, "name": "G3", "ticks": 9360, "time": 44.150964, "velocity": 0.5196850393700787}, {"duration": 1.1839628166666714, "durationTicks": 251, "midi": 48, "name": "C3", "ticks": 9360, "time": 44.150964, "velocity": 0.5196850393700787}, {"duration": 1.155660916666669, "durationTicks": 245, "midi": 60, "name": "C4", "ticks": 9360, "time": 44.150964, "velocity": 0.5196850393700787}, {"duration": 1.146226949999999, "durationTicks": 243, "midi": 64, "name": "E4", "ticks": 9362, "time": 44.16039796666667, "velocity": 0.5196850393700787}, {"duration": 1.0660382333333374, "durationTicks": 226, "midi": 62, "name": "D4", "ticks": 9600, "time": 45.28304, "velocity": 0.4330708661417323}, {"duration": 1.037736333333335, "durationTicks": 220, "midi": 57, "name": "A3", "ticks": 9600, "time": 45.28304, "velocity": 0.4330708661417323}, {"duration": 1.061321250000006, "durationTicks": 225, "midi": 50, "name": "D3", "ticks": 9600, "time": 45.28304, "velocity": 0.4330708661417323}, {"duration": 0.5943398999999943, "durationTicks": 126, "midi": 43, "name": "G2", "ticks": 9845, "time": 46.438700916666676, "velocity": 0.5984251968503937}, {"duration": 0.5330191166666651, "durationTicks": 113, "midi": 59, "name": "B3", "ticks": 9846, "time": 46.4434179, "velocity": 0.41732283464566927}, {"duration": 0.5235851499999953, "durationTicks": 111, "midi": 57, "name": "A3", "ticks": 9848, "time": 46.45285186666667, "velocity": 0.3464566929133858}, {"duration": 0.5283021333333338, "durationTicks": 112, "midi": 62, "name": "D4", "ticks": 9848, "time": 46.45285186666667, "velocity": 0.41732283464566927}, {"duration": 0.5849059333333315, "durationTicks": 124, "midi": 59, "name": "B3", "ticks": 10088, "time": 47.58492786666667, "velocity": 0.49606299212598426}, {"duration": 0.5943398999999943, "durationTicks": 126, "midi": 57, "name": "A3", "ticks": 10089, "time": 47.589644850000006, "velocity": 0.4330708661417323}, {"duration": 0.5896229166666629, "durationTicks": 125, "midi": 62, "name": "D4", "ticks": 10089, "time": 47.589644850000006, "velocity": 0.3779527559055118}, {"duration": 0.6273587833333281, "durationTicks": 133, "midi": 57, "name": "A3", "ticks": 10321, "time": 48.68398498333334, "velocity": 0.2992125984251969}, {"duration": 0.6509436999999991, "durationTicks": 138, "midi": 42, "name": "F#2", "ticks": 10321, "time": 48.68398498333334, "velocity": 0.6141732283464567}, {"duration": 0.6132078333333268, "durationTicks": 130, "midi": 62, "name": "D4", "ticks": 10322, "time": 48.68870196666667, "velocity": 0.5118110236220472}, {"duration": 0.6084908500000026, "durationTicks": 129, "midi": 54, "name": "F#3", "ticks": 10326, "time": 48.7075699, "velocity": 0.48031496062992124}, {"duration": 0.5990568833333256, "durationTicks": 127, "midi": 62, "name": "D4", "ticks": 10561, "time": 49.816060983333344, "velocity": 0.49606299212598426}, {"duration": 0.580188949999993, "durationTicks": 123, "midi": 54, "name": "F#3", "ticks": 10561, "time": 49.816060983333344, "velocity": 0.4881889763779528}, {"duration": 0.6037738666666641, "durationTicks": 128, "midi": 57, "name": "A3", "ticks": 10561, "time": 49.816060983333344, "velocity": 0.30708661417322836}, {"duration": 0.6367927499999979, "durationTicks": 135, "midi": 40, "name": "E2", "ticks": 10800, "time": 50.94342, "velocity": 0.6535433070866141}, {"duration": 0.5990568833333327, "durationTicks": 127, "midi": 62, "name": "D4", "ticks": 10800, "time": 50.94342, "velocity": 0.5511811023622047}, {"duration": 0.613207833333334, "durationTicks": 130, "midi": 59, "name": "B3", "ticks": 10800, "time": 50.94342, "velocity": 0.4015748031496063}, {"duration": 0.6226417999999967, "durationTicks": 132, "midi": 52, "name": "E3", "ticks": 10800, "time": 50.94342, "velocity": 0.3779527559055118}, {"duration": 0.6273587833333352, "durationTicks": 133, "midi": 55, "name": "G3", "ticks": 10800, "time": 50.94342, "velocity": 0.4409448818897638}, {"duration": 0.6084908499999955, "durationTicks": 129, "midi": 59, "name": "B3", "ticks": 11041, "time": 52.08021298333334, "velocity": 0.4409448818897638}, {"duration": 0.5990568833333256, "durationTicks": 127, "midi": 62, "name": "D4", "ticks": 11041, "time": 52.08021298333334, "velocity": 0.5511811023622047}, {"duration": 0.6037738666666641, "durationTicks": 128, "midi": 55, "name": "G3", "ticks": 11041, "time": 52.08021298333334, "velocity": 0.5590551181102362}, {"duration": 0.5943399000000014, "durationTicks": 126, "midi": 52, "name": "E3", "ticks": 11041, "time": 52.08021298333334, "velocity": 0.4566929133858268}, {"duration": 0.6462267166666606, "durationTicks": 137, "midi": 48, "name": "C3", "ticks": 11280, "time": 53.207572000000006, "velocity": 0.3779527559055118}, {"duration": 0.6179248166666653, "durationTicks": 131, "midi": 36, "name": "C2", "ticks": 11280, "time": 53.207572000000006, "velocity": 0.6299212598425197}, {"duration": 0.6462267166666678, "durationTicks": 137, "midi": 52, "name": "E3", "ticks": 11281, "time": 53.21228898333334, "velocity": 0.3779527559055118}, {"duration": 0.636792750000005, "durationTicks": 135, "midi": 60, "name": "C4", "ticks": 11281, "time": 53.21228898333334, "velocity": 0.4566929133858268}, {"duration": 0.613207833333334, "durationTicks": 130, "midi": 55, "name": "G3", "ticks": 11281, "time": 53.21228898333334, "velocity": 0.5748031496062992}, {"duration": 0.613207833333334, "durationTicks": 130, "midi": 50, "name": "D3", "ticks": 11520, "time": 54.339648000000004, "velocity": 0.4409448818897638}, {"duration": 0.6226417999999967, "durationTicks": 132, "midi": 57, "name": "A3", "ticks": 11521, "time": 54.34436498333334, "velocity": 0.30708661417322836}, {"duration": 0.6037738666666641, "durationTicks": 128, "midi": 62, "name": "D4", "ticks": 11521, "time": 54.34436498333334, "velocity": 0.5905511811023622}, {"duration": 0.6132078333333268, "durationTicks": 130, "midi": 54, "name": "F#3", "ticks": 11521, "time": 54.34436498333334, "velocity": 0.5905511811023622}, {"duration": 0.5943399000000014, "durationTicks": 126, "midi": 43, "name": "G2", "ticks": 11765, "time": 55.49530891666667, "velocity": 0.5984251968503937}, {"duration": 0.5330191166666651, "durationTicks": 113, "midi": 59, "name": "B3", "ticks": 11766, "time": 55.500025900000004, "velocity": 0.41732283464566927}, {"duration": 0.5235851500000024, "durationTicks": 111, "midi": 57, "name": "A3", "ticks": 11768, "time": 55.50945986666667, "velocity": 0.3464566929133858}, {"duration": 0.5283021333333338, "durationTicks": 112, "midi": 62, "name": "D4", "ticks": 11768, "time": 55.50945986666667, "velocity": 0.41732283464566927}, {"duration": 0.5849059333333315, "durationTicks": 124, "midi": 59, "name": "B3", "ticks": 12008, "time": 56.64153586666667, "velocity": 0.49606299212598426}, {"duration": 0.5943399000000014, "durationTicks": 126, "midi": 57, "name": "A3", "ticks": 12009, "time": 56.64625285, "velocity": 0.4330708661417323}, {"duration": 0.5896229166666629, "durationTicks": 125, "midi": 62, "name": "D4", "ticks": 12009, "time": 56.64625285, "velocity": 0.3779527559055118}, {"duration": 0.627358783333321, "durationTicks": 133, "midi": 57, "name": "A3", "ticks": 12241, "time": 57.74059298333334, "velocity": 0.2992125984251969}, {"duration": 0.650943699999992, "durationTicks": 138, "midi": 42, "name": "F#2", "ticks": 12241, "time": 57.74059298333334, "velocity": 0.6141732283464567}, {"duration": 0.613207833333334, "durationTicks": 130, "midi": 62, "name": "D4", "ticks": 12242, "time": 57.74530996666667, "velocity": 0.5118110236220472}, {"duration": 0.6084908500000026, "durationTicks": 129, "midi": 54, "name": "F#3", "ticks": 12246, "time": 57.7641779, "velocity": 0.48031496062992124}, {"duration": 0.5990568833333256, "durationTicks": 127, "midi": 62, "name": "D4", "ticks": 12481, "time": 58.87266898333334, "velocity": 0.49606299212598426}, {"duration": 0.580188949999993, "durationTicks": 123, "midi": 54, "name": "F#3", "ticks": 12481, "time": 58.87266898333334, "velocity": 0.4881889763779528}, {"duration": 0.6037738666666641, "durationTicks": 128, "midi": 57, "name": "A3", "ticks": 12481, "time": 58.87266898333334, "velocity": 0.30708661417322836}, {"duration": 0.6367927499999979, "durationTicks": 135, "midi": 40, "name": "E2", "ticks": 12720, "time": 60.00002800000001, "velocity": 0.6535433070866141}, {"duration": 0.5990568833333327, "durationTicks": 127, "midi": 62, "name": "D4", "ticks": 12720, "time": 60.00002800000001, "velocity": 0.5511811023622047}, {"duration": 0.6132078333333268, "durationTicks": 130, "midi": 59, "name": "B3", "ticks": 12720, "time": 60.00002800000001, "velocity": 0.4015748031496063}, {"duration": 0.6226417999999967, "durationTicks": 132, "midi": 52, "name": "E3", "ticks": 12720, "time": 60.00002800000001, "velocity": 0.3779527559055118}, {"duration": 0.6273587833333281, "durationTicks": 133, "midi": 55, "name": "G3", "ticks": 12720, "time": 60.00002800000001, "velocity": 0.4409448818897638}, {"duration": 0.6084908499999884, "durationTicks": 129, "midi": 59, "name": "B3", "ticks": 12961, "time": 61.136820983333344, "velocity": 0.4409448818897638}, {"duration": 0.5990568833333256, "durationTicks": 127, "midi": 62, "name": "D4", "ticks": 12961, "time": 61.136820983333344, "velocity": 0.5511811023622047}, {"duration": 0.6037738666666641, "durationTicks": 128, "midi": 55, "name": "G3", "ticks": 12961, "time": 61.136820983333344, "velocity": 0.5590551181102362}, {"duration": 0.5943398999999943, "durationTicks": 126, "midi": 52, "name": "E3", "ticks": 12961, "time": 61.136820983333344, "velocity": 0.4566929133858268}, {"duration": 0.6462267166666678, "durationTicks": 137, "midi": 48, "name": "C3", "ticks": 13200, "time": 62.26418, "velocity": 0.3779527559055118}, {"duration": 0.6179248166666724, "durationTicks": 131, "midi": 36, "name": "C2", "ticks": 13200, "time": 62.26418, "velocity": 0.6299212598425197}, {"duration": 0.6462267166666678, "durationTicks": 137, "midi": 52, "name": "E3", "ticks": 13201, "time": 62.26889698333334, "velocity": 0.3779527559055118}, {"duration": 0.6367927499999979, "durationTicks": 135, "midi": 60, "name": "C4", "ticks": 13201, "time": 62.26889698333334, "velocity": 0.4566929133858268}, {"duration": 0.613207833333334, "durationTicks": 130, "midi": 55, "name": "G3", "ticks": 13201, "time": 62.26889698333334, "velocity": 0.5748031496062992}, {"duration": 0.613207833333334, "durationTicks": 130, "midi": 50, "name": "D3", "ticks": 13440, "time": 63.39625600000001, "velocity": 0.4409448818897638}, {"duration": 4.240568016666664, "durationTicks": 899, "midi": 57, "name": "A3", "ticks": 13441, "time": 63.40097298333334, "velocity": 0.30708661417322836}, {"duration": 0.6037738666666641, "durationTicks": 128, "midi": 62, "name": "D4", "ticks": 13441, "time": 63.40097298333334, "velocity": 0.5905511811023622}, {"duration": 4.235851033333326, "durationTicks": 898, "midi": 54, "name": "F#3", "ticks": 13441, "time": 63.40097298333334, "velocity": 0.5905511811023622}, {"duration": 1.0990571166666712, "durationTicks": 233, "midi": 74, "name": "D5", "ticks": 14400, "time": 67.92456, "velocity": 0.6377952755905512}, {"duration": 2.2971708833333366, "durationTicks": 487, "midi": 79, "name": "G5", "ticks": 14633, "time": 69.02361711666667, "velocity": 0.6377952755905512}, {"duration": 0.580188949999993, "durationTicks": 123, "midi": 78, "name": "F#5", "ticks": 15112, "time": 71.28305213333334, "velocity": 0.6141732283464567}, {"duration": 0.580188949999993, "durationTicks": 123, "midi": 81, "name": "A5", "ticks": 15234, "time": 71.85852410000001, "velocity": 0.6614173228346457}, {"duration": 3.905662200000009, "durationTicks": 828, "midi": 79, "name": "G5", "ticks": 15360, "time": 72.452864, "velocity": 0.6141732283464567}, {"duration": 0.5094342000000012, "durationTicks": 108, "midi": 81, "name": "A5", "ticks": 16198, "time": 76.40569603333333, "velocity": 0.6614173228346457}, {"duration": 3.344341183333327, "durationTicks": 709, "midi": 83, "name": "B5", "ticks": 16324, "time": 77.00003593333334, "velocity": 0.5275590551181102}, {"duration": 0.3867926333333429, "durationTicks": 82, "midi": 81, "name": "A5", "ticks": 17035, "time": 80.35381108333334, "velocity": 0.5905511811023622}, {"duration": 0.37735866666666595, "durationTicks": 80, "midi": 84, "name": "C6", "ticks": 17118, "time": 80.74532070000001, "velocity": 0.6377952755905512}, {"duration": 0.39622660000000565, "durationTicks": 84, "midi": 83, "name": "B5", "ticks": 17199, "time": 81.12739635, "velocity": 0.6062992125984252}, {"duration": 1.6462271833333375, "durationTicks": 349, "midi": 79, "name": "G5", "ticks": 17285, "time": 81.53305691666667, "velocity": 0.5984251968503937}, {"duration": 0.5518870499999906, "durationTicks": 117, "midi": 91, "name": "G6", "ticks": 17632, "time": 83.16985013333334, "velocity": 0.6535433070866141}, {"duration": 0.4198115166666838, "durationTicks": 89, "midi": 90, "name": "F#6", "ticks": 17749, "time": 83.72173718333333, "velocity": 0.5275590551181102}, {"duration": 0.3867926333333287, "durationTicks": 82, "midi": 86, "name": "D6", "ticks": 17836, "time": 84.13211473333334, "velocity": 0.5984251968503937}, {"duration": 0.39150961666666717, "durationTicks": 83, "midi": 91, "name": "G6", "ticks": 17917, "time": 84.51419038333334, "velocity": 0.6456692913385826}, {"duration": 0.4009435833333157, "durationTicks": 85, "midi": 90, "name": "F#6", "ticks": 17995, "time": 84.88211508333335, "velocity": 0.5984251968503937}, {"duration": 0.3867926333333287, "durationTicks": 82, "midi": 86, "name": "D6", "ticks": 18078, "time": 85.27362470000001, "velocity": 0.6141732283464567}, {"duration": 0.3490567666666635, "durationTicks": 74, "midi": 83, "name": "B5", "ticks": 18162, "time": 85.6698513, "velocity": 0.5905511811023622}, {"duration": 2.2358500999999933, "durationTicks": 474, "midi": 86, "name": "D6", "ticks": 18240, "time": 86.03777600000001, "velocity": 0.5590551181102362}, {"duration": 0.339622800000015, "durationTicks": 72, "midi": 81, "name": "A5", "ticks": 18725, "time": 88.32551291666667, "velocity": 0.5669291338582677}, {"duration": 0.339622800000015, "durationTicks": 72, "midi": 84, "name": "C6", "ticks": 18800, "time": 88.67928666666667, "velocity": 0.5748031496062992}, {"duration": 0.3820756499999902, "durationTicks": 81, "midi": 83, "name": "B5", "ticks": 18877, "time": 89.04249438333335, "velocity": 0.5748031496062992}, {"duration": 0.39150961666665296, "durationTicks": 83, "midi": 81, "name": "A5", "ticks": 18955, "time": 89.41041908333335, "velocity": 0.5984251968503937}, {"duration": 0.4386794499999809, "durationTicks": 93, "midi": 79, "name": "G5", "ticks": 19037, "time": 89.79721171666668, "velocity": 0.5748031496062992}, {"duration": 0.38207565000000443, "durationTicks": 81, "midi": 78, "name": "F#5", "ticks": 19119, "time": 90.18400435, "velocity": 0.5118110236220472}, {"duration": 1.0990571166666712, "durationTicks": 233, "midi": 74, "name": "D5", "ticks": 19200, "time": 90.56608, "velocity": 0.6377952755905512}, {"duration": 2.2971708833333366, "durationTicks": 487, "midi": 79, "name": "G5", "ticks": 19433, "time": 91.66513711666667, "velocity": 0.6377952755905512}, {"duration": 0.5801889500000073, "durationTicks": 123, "midi": 78, "name": "F#5", "ticks": 19912, "time": 93.92457213333334, "velocity": 0.6141732283464567}, {"duration": 0.5801889500000073, "durationTicks": 123, "midi": 81, "name": "A5", "ticks": 20034, "time": 94.5000441, "velocity": 0.6614173228346457}, {"duration": 3.905662200000009, "durationTicks": 828, "midi": 79, "name": "G5", "ticks": 20160, "time": 95.094384, "velocity": 0.6141732283464567}, {"duration": 0.5094342000000154, "durationTicks": 108, "midi": 81, "name": "A5", "ticks": 20998, "time": 99.04721603333333, "velocity": 0.6614173228346457}, {"duration": 3.3443411833333414, "durationTicks": 709, "midi": 83, "name": "B5", "ticks": 21124, "time": 99.64155593333334, "velocity": 0.5275590551181102}, {"duration": 0.3867926333333429, "durationTicks": 82, "midi": 81, "name": "A5", "ticks": 21835, "time": 102.99533108333334, "velocity": 0.5905511811023622}, {"duration": 0.37735866666666595, "durationTicks": 80, "midi": 84, "name": "C6", "ticks": 21918, "time": 103.38684070000001, "velocity": 0.6377952755905512}, {"duration": 0.39622660000001986, "durationTicks": 84, "midi": 83, "name": "B5", "ticks": 21999, "time": 103.76891635, "velocity": 0.6062992125984252}, {"duration": 1.6462271833333375, "durationTicks": 349, "midi": 79, "name": "G5", "ticks": 22085, "time": 104.17457691666667, "velocity": 0.5984251968503937}, {"duration": 0.5518870500000048, "durationTicks": 117, "midi": 91, "name": "G6", "ticks": 22432, "time": 105.81137013333334, "velocity": 0.6535433070866141}, {"duration": 0.4198115166666696, "durationTicks": 89, "midi": 90, "name": "F#6", "ticks": 22549, "time": 106.36325718333335, "velocity": 0.5275590551181102}, {"duration": 0.3867926333333287, "durationTicks": 82, "midi": 86, "name": "D6", "ticks": 22636, "time": 106.77363473333334, "velocity": 0.5984251968503937}, {"duration": 0.39150961666666717, "durationTicks": 83, "midi": 91, "name": "G6", "ticks": 22717, "time": 107.15571038333334, "velocity": 0.6456692913385826}, {"duration": 0.4009435833333299, "durationTicks": 85, "midi": 90, "name": "F#6", "ticks": 22795, "time": 107.52363508333335, "velocity": 0.5984251968503937}, {"duration": 0.3867926333333287, "durationTicks": 82, "midi": 86, "name": "D6", "ticks": 22878, "time": 107.91514470000001, "velocity": 0.6141732283464567}, {"duration": 0.34905676666667773, "durationTicks": 74, "midi": 83, "name": "B5", "ticks": 22962, "time": 108.3113713, "velocity": 0.5905511811023622}, {"duration": 2.2358500999999933, "durationTicks": 474, "midi": 86, "name": "D6", "ticks": 23040, "time": 108.67929600000001, "velocity": 0.5590551181102362}, {"duration": 0.339622800000015, "durationTicks": 72, "midi": 81, "name": "A5", "ticks": 23525, "time": 110.96703291666667, "velocity": 0.5669291338582677}, {"duration": 0.339622800000015, "durationTicks": 72, "midi": 84, "name": "C6", "ticks": 23600, "time": 111.32080666666667, "velocity": 0.5748031496062992}, {"duration": 0.3820756499999902, "durationTicks": 81, "midi": 83, "name": "B5", "ticks": 23677, "time": 111.68401438333335, "velocity": 0.5748031496062992}, {"duration": 0.39150961666665296, "durationTicks": 83, "midi": 81, "name": "A5", "ticks": 23755, "time": 112.05193908333335, "velocity": 0.5984251968503937}, {"duration": 0.41509453333333113, "durationTicks": 88, "midi": 79, "name": "G5", "ticks": 23837, "time": 112.43873171666668, "velocity": 0.5748031496062992}, {"duration": 1.4386799166666862, "durationTicks": 305, "midi": 78, "name": "F#5", "ticks": 23919, "time": 112.82552435, "velocity": 0.5118110236220472}, {"duration": 2.1886802666666654, "durationTicks": 464, "midi": 66, "name": "F#4", "ticks": 24240, "time": 114.33967600000001, "velocity": 0.5275590551181102}, {"duration": 0.31132090000001256, "durationTicks": 66, "midi": 60, "name": "C4", "ticks": 24720, "time": 116.60382800000001, "velocity": 0.6456692913385826}, {"duration": 0.2547170999999935, "durationTicks": 54, "midi": 62, "name": "D4", "ticks": 24780, "time": 116.886847, "velocity": 0.6535433070866141}, {"duration": 0.2688680499999947, "durationTicks": 57, "midi": 64, "name": "E4", "ticks": 24840, "time": 117.16986600000001, "velocity": 0.6614173228346457}, {"duration": 0.2169812333333283, "durationTicks": 46, "midi": 62, "name": "D4", "ticks": 24899, "time": 117.44816801666668, "velocity": 0.6692913385826772}, {"duration": 0.29716994999999713, "durationTicks": 63, "midi": 64, "name": "E4", "ticks": 24959, "time": 117.73118701666668, "velocity": 0.6771653543307087}, {"duration": 0.2830189999999959, "durationTicks": 60, "midi": 66, "name": "F#4", "ticks": 25019, "time": 118.01420601666668, "velocity": 0.6850393700787402}, {"duration": 0.3066039166666741, "durationTicks": 65, "midi": 64, "name": "E4", "ticks": 25079, "time": 118.29722501666667, "velocity": 0.6929133858267716}, {"duration": 0.27830201666665744, "durationTicks": 59, "midi": 66, "name": "F#4", "ticks": 25139, "time": 118.58024401666668, "velocity": 0.7007874015748031}, {"duration": 1.132076000000012, "durationTicks": 240, "midi": 60, "name": "C4", "ticks": 25200, "time": 118.86798, "velocity": 0.5590551181102362}, {"duration": 2.051887750000006, "durationTicks": 435, "midi": 67, "name": "G4", "ticks": 25200, "time": 118.86798, "velocity": 0.7165354330708661}, {"duration": 0.9198117499999938, "durationTicks": 195, "midi": 59, "name": "B3", "ticks": 25440, "time": 120.00005600000001, "velocity": 0.5590551181102362}, {"duration": 1.1320759999999979, "durationTicks": 240, "midi": 72, "name": "C5", "ticks": 25680, "time": 121.13213200000001, "velocity": 0.48031496062992124}, {"duration": 1.0943401333333327, "durationTicks": 232, "midi": 76, "name": "E5", "ticks": 25680, "time": 121.13213200000001, "velocity": 0.5669291338582677}, {"duration": 1.1273590166666736, "durationTicks": 239, "midi": 67, "name": "G4", "ticks": 25680, "time": 121.13213200000001, "velocity": 0.5748031496062992}, {"duration": 1.1320759999999979, "durationTicks": 240, "midi": 69, "name": "A4", "ticks": 25919, "time": 122.25949101666669, "velocity": 0.49606299212598426}, {"duration": 1.1509439333333233, "durationTicks": 244, "midi": 74, "name": "D5", "ticks": 25919, "time": 122.25949101666669, "velocity": 0.5748031496062992}, {"duration": 1.108491083333334, "durationTicks": 235, "midi": 66, "name": "F#4", "ticks": 25920, "time": 122.26420800000001, "velocity": 0.5748031496062992}, {"duration": 2.2122651833333435, "durationTicks": 469, "midi": 69, "name": "A4", "ticks": 26161, "time": 123.40100098333333, "velocity": 0.6377952755905512}, {"duration": 1.099057116666657, "durationTicks": 233, "midi": 60, "name": "C4", "ticks": 26162, "time": 123.40571796666669, "velocity": 0.5748031496062992}, {"duration": 1.1556609166666618, "durationTicks": 245, "midi": 64, "name": "E4", "ticks": 26162, "time": 123.40571796666669, "velocity": 0.5118110236220472}, {"duration": 1.0801891833333315, "durationTicks": 229, "midi": 62, "name": "D4", "ticks": 26402, "time": 124.53779396666668, "velocity": 0.5669291338582677}, {"duration": 1.0660382333333303, "durationTicks": 226, "midi": 66, "name": "F#4", "ticks": 26403, "time": 124.54251095000001, "velocity": 0.5748031496062992}, {"duration": 1.193396783333327, "durationTicks": 253, "midi": 55, "name": "G3", "ticks": 26640, "time": 125.660436, "velocity": 0.6535433070866141}, {"duration": 1.1745288500000015, "durationTicks": 249, "midi": 57, "name": "A3", "ticks": 26881, "time": 126.79722898333334, "velocity": 0.7007874015748031}, {"duration": 1.641510199999999, "durationTicks": 348, "midi": 59, "name": "B3", "ticks": 27122, "time": 127.93402196666668, "velocity": 0.6535433070866141}, {"duration": 0.5471700666666379, "durationTicks": 116, "midi": 71, "name": "B4", "ticks": 27242, "time": 128.5000599666667, "velocity": 0.6771653543307087}, {"duration": 0.5849059333333173, "durationTicks": 124, "midi": 67, "name": "G4", "ticks": 27242, "time": 128.5000599666667, "velocity": 0.6850393700787402}, {"duration": 0.5235851500000024, "durationTicks": 111, "midi": 66, "name": "F#4", "ticks": 27363, "time": 129.07081495, "velocity": 0.6377952755905512}, {"duration": 0.5424530833333279, "durationTicks": 115, "midi": 69, "name": "A4", "ticks": 27363, "time": 129.07081495, "velocity": 0.6299212598425197}, {"duration": 0.5330191166666509, "durationTicks": 113, "midi": 67, "name": "G4", "ticks": 27481, "time": 129.62741898333334, "velocity": 0.6456692913385826}, {"duration": 0.5235851500000024, "durationTicks": 111, "midi": 64, "name": "E4", "ticks": 27482, "time": 129.63213596666668, "velocity": 0.6377952755905512}, {"duration": 0.509434199999987, "durationTicks": 108, "midi": 59, "name": "B3", "ticks": 27483, "time": 129.63685295000002, "velocity": 0.6771653543307087}, {"duration": 1.0707552166666972, "durationTicks": 227, "midi": 71, "name": "B4", "ticks": 27600, "time": 130.18874, "velocity": 0.6299212598425197}, {"duration": 1.1509439333333376, "durationTicks": 244, "midi": 76, "name": "E5", "ticks": 27600, "time": 130.18874, "velocity": 0.6456692913385826}, {"duration": 1.0990571166666712, "durationTicks": 233, "midi": 79, "name": "G5", "ticks": 27600, "time": 130.18874, "velocity": 0.6456692913385826}, {"duration": 1.0377363333333278, "durationTicks": 220, "midi": 69, "name": "A4", "ticks": 27839, "time": 131.31609901666667, "velocity": 0.5905511811023622}, {"duration": 1.1367929833333505, "durationTicks": 241, "midi": 78, "name": "F#5", "ticks": 27839, "time": 131.31609901666667, "velocity": 0.5511811023622047}, {"duration": 1.0235853833333408, "durationTicks": 217, "midi": 74, "name": "D5", "ticks": 27839, "time": 131.31609901666667, "velocity": 0.5984251968503937}, {"duration": 1.1367929833333505, "durationTicks": 241, "midi": 76, "name": "E5", "ticks": 28078, "time": 132.44345803333334, "velocity": 0.5748031496062992}, {"duration": 1.0424533166666663, "durationTicks": 221, "midi": 72, "name": "C5", "ticks": 28079, "time": 132.44817501666668, "velocity": 0.5354330708661418}, {"duration": 2.353459658333321, "durationTicks": 484, "midi": 69, "name": "A4", "ticks": 28079, "time": 132.44817501666668, "velocity": 0.5669291338582677}, {"duration": 1.1750000000000114, "durationTicks": 235, "midi": 78, "name": "F#5", "ticks": 28320, "time": 133.584968, "velocity": 0.5196850393700787}, {"duration": 1.1699999999999875, "durationTicks": 234, "midi": 74, "name": "D5", "ticks": 28320, "time": 133.584968, "velocity": 0.5511811023622047}, {"duration": 1.3383340000000032, "durationTicks": 241, "midi": 76, "name": "E5", "ticks": 28559, "time": 134.779968, "velocity": 0.49606299212598426}, {"duration": 1.3383340000000032, "durationTicks": 241, "midi": 72, "name": "C5", "ticks": 28559, "time": 134.779968, "velocity": 0.4251968503937008}, {"duration": 1.3520840000000192, "durationTicks": 243, "midi": 79, "name": "G5", "ticks": 28560, "time": 134.784968, "velocity": 0.4409448818897638}, {"duration": 4.456250000000011, "durationTicks": 713, "midi": 81, "name": "A5", "ticks": 28802, "time": 136.130802, "velocity": 0.31496062992125984}, {"duration": 4.425000000000011, "durationTicks": 708, "midi": 78, "name": "F#5", "ticks": 28802, "time": 136.130802, "velocity": 0.3464566929133858}, {"duration": 4.431249999999977, "durationTicks": 709, "midi": 74, "name": "D5", "ticks": 28803, "time": 136.137052, "velocity": 0.49606299212598426}, {"duration": 1.0990571166666712, "durationTicks": 233, "midi": 74, "name": "D5", "ticks": 29520, "time": 140.618302, "velocity": 0.5590551181102362}, {"duration": 2.2971708833333366, "durationTicks": 487, "midi": 79, "name": "G5", "ticks": 29753, "time": 141.71735911666667, "velocity": 0.5590551181102362}, {"duration": 0.5801889500000073, "durationTicks": 123, "midi": 78, "name": "F#5", "ticks": 30232, "time": 143.97679413333333, "velocity": 0.5354330708661418}, {"duration": 0.5801889500000073, "durationTicks": 123, "midi": 81, "name": "A5", "ticks": 30354, "time": 144.5522661, "velocity": 0.5826771653543307}, {"duration": 3.905662200000023, "durationTicks": 828, "midi": 79, "name": "G5", "ticks": 30480, "time": 145.146606, "velocity": 0.5669291338582677}, {"duration": 0.509434199999987, "durationTicks": 108, "midi": 81, "name": "A5", "ticks": 31318, "time": 149.09943803333334, "velocity": 0.5826771653543307}, {"duration": 3.3443411833333414, "durationTicks": 709, "midi": 83, "name": "B5", "ticks": 31444, "time": 149.69377793333334, "velocity": 0.49606299212598426}, {"duration": 0.3867926333333287, "durationTicks": 82, "midi": 81, "name": "A5", "ticks": 32155, "time": 153.04755308333333, "velocity": 0.5354330708661418}, {"duration": 0.37735866666668016, "durationTicks": 80, "midi": 84, "name": "C6", "ticks": 32238, "time": 153.4390627, "velocity": 0.5590551181102362}, {"duration": 0.3962265999999772, "durationTicks": 84, "midi": 83, "name": "B5", "ticks": 32319, "time": 153.82113835, "velocity": 0.5275590551181102}, {"duration": 1.6462271833333375, "durationTicks": 349, "midi": 79, "name": "G5", "ticks": 32405, "time": 154.22679891666667, "velocity": 0.5196850393700787}, {"duration": 0.5518870500000048, "durationTicks": 117, "midi": 91, "name": "G6", "ticks": 32752, "time": 155.86359213333333, "velocity": 0.5748031496062992}, {"duration": 0.4198115166666696, "durationTicks": 89, "midi": 90, "name": "F#6", "ticks": 32869, "time": 156.41547918333333, "velocity": 0.5669291338582677}, {"duration": 0.3867926333333287, "durationTicks": 82, "midi": 86, "name": "D6", "ticks": 32956, "time": 156.82585673333332, "velocity": 0.5196850393700787}, {"duration": 0.39150961666666717, "durationTicks": 83, "midi": 91, "name": "G6", "ticks": 33037, "time": 157.20793238333334, "velocity": 0.5669291338582677}, {"duration": 0.4009435833333157, "durationTicks": 85, "midi": 90, "name": "F#6", "ticks": 33115, "time": 157.57585708333335, "velocity": 0.5196850393700787}, {"duration": 0.3867926333333287, "durationTicks": 82, "midi": 86, "name": "D6", "ticks": 33198, "time": 157.9673667, "velocity": 0.5354330708661418}, {"duration": 0.34905676666667773, "durationTicks": 74, "midi": 83, "name": "B5", "ticks": 33282, "time": 158.3635933, "velocity": 0.5118110236220472}, {"duration": 2.2358500999999933, "durationTicks": 474, "midi": 86, "name": "D6", "ticks": 33360, "time": 158.731518, "velocity": 0.5196850393700787}, {"duration": 0.33962279999997236, "durationTicks": 72, "midi": 81, "name": "A5", "ticks": 33845, "time": 161.01925491666668, "velocity": 0.5118110236220472}, {"duration": 0.3396228000000008, "durationTicks": 72, "midi": 84, "name": "C6", "ticks": 33920, "time": 161.37302866666667, "velocity": 0.49606299212598426}, {"duration": 0.3820756499999902, "durationTicks": 81, "midi": 83, "name": "B5", "ticks": 33997, "time": 161.73623638333333, "velocity": 0.49606299212598426}, {"duration": 0.39150961666666717, "durationTicks": 83, "midi": 81, "name": "A5", "ticks": 34075, "time": 162.10416108333334, "velocity": 0.5196850393700787}, {"duration": 0.41509453333333113, "durationTicks": 88, "midi": 79, "name": "G5", "ticks": 34157, "time": 162.49095371666667, "velocity": 0.49606299212598426}, {"duration": 0.3820756499999902, "durationTicks": 81, "midi": 78, "name": "F#5", "ticks": 34239, "time": 162.87774635, "velocity": 0.4330708661417323}, {"duration": 1.0990571166666996, "durationTicks": 233, "midi": 74, "name": "D5", "ticks": 34320, "time": 163.25982199999999, "velocity": 0.6377952755905512}, {"duration": 2.297170883333308, "durationTicks": 487, "midi": 79, "name": "G5", "ticks": 34553, "time": 164.35887911666669, "velocity": 0.6377952755905512}, {"duration": 0.5801889499999788, "durationTicks": 123, "midi": 78, "name": "F#5", "ticks": 35032, "time": 166.61831413333334, "velocity": 0.6141732283464567}, {"duration": 0.5801889499999788, "durationTicks": 123, "midi": 81, "name": "A5", "ticks": 35154, "time": 167.1937861, "velocity": 0.6614173228346457}, {"duration": 3.9056621999999948, "durationTicks": 828, "midi": 79, "name": "G5", "ticks": 35280, "time": 167.788126, "velocity": 0.6141732283464567}, {"duration": 0.5094342000000154, "durationTicks": 108, "midi": 81, "name": "A5", "ticks": 36118, "time": 171.74095803333333, "velocity": 0.6614173228346457}, {"duration": 3.3443411833333414, "durationTicks": 709, "midi": 83, "name": "B5", "ticks": 36244, "time": 172.33529793333332, "velocity": 0.5275590551181102}, {"duration": 0.3867926333333287, "durationTicks": 82, "midi": 81, "name": "A5", "ticks": 36955, "time": 175.68907308333334, "velocity": 0.5905511811023622}, {"duration": 0.37735866666665174, "durationTicks": 80, "midi": 84, "name": "C6", "ticks": 37038, "time": 176.0805827, "velocity": 0.6377952755905512}, {"duration": 0.39622660000000565, "durationTicks": 84, "midi": 83, "name": "B5", "ticks": 37119, "time": 176.46265835, "velocity": 0.6062992125984252}, {"duration": 1.6462271833333375, "durationTicks": 349, "midi": 79, "name": "G5", "ticks": 37205, "time": 176.86831891666668, "velocity": 0.5984251968503937}, {"duration": 0.5518870500000048, "durationTicks": 117, "midi": 91, "name": "G6", "ticks": 37552, "time": 178.50511213333334, "velocity": 0.6535433070866141}, {"duration": 0.4198115166666696, "durationTicks": 89, "midi": 90, "name": "F#6", "ticks": 37669, "time": 179.05699918333335, "velocity": 0.5275590551181102}, {"duration": 0.3867926333333287, "durationTicks": 82, "midi": 86, "name": "D6", "ticks": 37756, "time": 179.46737673333334, "velocity": 0.5984251968503937}, {"duration": 0.39150961666666717, "durationTicks": 83, "midi": 91, "name": "G6", "ticks": 37837, "time": 179.84945238333333, "velocity": 0.6456692913385826}, {"duration": 0.4009435833333441, "durationTicks": 85, "midi": 90, "name": "F#6", "ticks": 37915, "time": 180.21737708333333, "velocity": 0.5984251968503937}, {"duration": 0.3867926333333287, "durationTicks": 82, "midi": 86, "name": "D6", "ticks": 37998, "time": 180.6088867, "velocity": 0.6141732283464567}, {"duration": 0.3490567666666493, "durationTicks": 74, "midi": 83, "name": "B5", "ticks": 38082, "time": 181.0051133, "velocity": 0.5905511811023622}, {"duration": 2.2358500999999933, "durationTicks": 474, "midi": 86, "name": "D6", "ticks": 38160, "time": 181.373038, "velocity": 0.5590551181102362}, {"duration": 0.3396228000000008, "durationTicks": 72, "midi": 81, "name": "A5", "ticks": 38645, "time": 183.66077491666667, "velocity": 0.5669291338582677}, {"duration": 0.3396228000000292, "durationTicks": 72, "midi": 84, "name": "C6", "ticks": 38720, "time": 184.01454866666666, "velocity": 0.5748031496062992}, {"duration": 0.3820756499999902, "durationTicks": 81, "midi": 83, "name": "B5", "ticks": 38797, "time": 184.37775638333335, "velocity": 0.5748031496062992}, {"duration": 0.3915096166666956, "durationTicks": 83, "midi": 81, "name": "A5", "ticks": 38875, "time": 184.74568108333332, "velocity": 0.5984251968503937}, {"duration": 0.41509453333335955, "durationTicks": 88, "midi": 79, "name": "G5", "ticks": 38957, "time": 185.13247371666665, "velocity": 0.5748031496062992}, {"duration": 0.36320771666666474, "durationTicks": 77, "midi": 78, "name": "F#5", "ticks": 39039, "time": 185.51926635, "velocity": 0.5118110236220472}, {"duration": 1.0990571166666712, "durationTicks": 233, "midi": 76, "name": "E5", "ticks": 39120, "time": 185.901342, "velocity": 0.6377952755905512}, {"duration": 2.2971708833333366, "durationTicks": 487, "midi": 81, "name": "A5", "ticks": 39353, "time": 187.00039911666667, "velocity": 0.6377952755905512}, {"duration": 0.5801889499999788, "durationTicks": 123, "midi": 80, "name": "G#5", "ticks": 39832, "time": 189.25983413333336, "velocity": 0.6141732283464567}, {"duration": 0.5801889500000073, "durationTicks": 123, "midi": 83, "name": "B5", "ticks": 39954, "time": 189.8353061, "velocity": 0.6614173228346457}, {"duration": 3.905662200000023, "durationTicks": 828, "midi": 81, "name": "A5", "ticks": 40080, "time": 190.429646, "velocity": 0.6141732283464567}, {"duration": 0.5094342000000154, "durationTicks": 108, "midi": 83, "name": "B5", "ticks": 40918, "time": 194.38247803333334, "velocity": 0.6614173228346457}, {"duration": 3.3443411833333414, "durationTicks": 709, "midi": 85, "name": "C#6", "ticks": 41044, "time": 194.97681793333334, "velocity": 0.5275590551181102}, {"duration": 0.3867926333333571, "durationTicks": 82, "midi": 83, "name": "B5", "ticks": 41755, "time": 198.33059308333333, "velocity": 0.5905511811023622}, {"duration": 0.37735866666668016, "durationTicks": 80, "midi": 86, "name": "D6", "ticks": 41838, "time": 198.7221027, "velocity": 0.6377952755905512}, {"duration": 0.39622660000000565, "durationTicks": 84, "midi": 85, "name": "C#6", "ticks": 41919, "time": 199.10417835, "velocity": 0.6062992125984252}, {"duration": 1.6462271833333375, "durationTicks": 349, "midi": 81, "name": "A5", "ticks": 42005, "time": 199.50983891666667, "velocity": 0.5984251968503937}, {"duration": 0.5518870499999764, "durationTicks": 117, "midi": 93, "name": "A6", "ticks": 42352, "time": 201.14663213333336, "velocity": 0.6535433070866141}, {"duration": 0.4198115166666696, "durationTicks": 89, "midi": 92, "name": "G#6", "ticks": 42469, "time": 201.69851918333333, "velocity": 0.5275590551181102}, {"duration": 0.3867926333333571, "durationTicks": 82, "midi": 88, "name": "E6", "ticks": 42556, "time": 202.10889673333332, "velocity": 0.5984251968503937}, {"duration": 0.39150961666666717, "durationTicks": 83, "midi": 93, "name": "A6", "ticks": 42637, "time": 202.49097238333334, "velocity": 0.6456692913385826}, {"duration": 0.4009435833333441, "durationTicks": 85, "midi": 92, "name": "G#6", "ticks": 42715, "time": 202.85889708333332, "velocity": 0.5984251968503937}, {"duration": 0.3867926333333287, "durationTicks": 82, "midi": 88, "name": "E6", "ticks": 42798, "time": 203.2504067, "velocity": 0.6141732283464567}, {"duration": 0.34905676666667773, "durationTicks": 74, "midi": 85, "name": "C#6", "ticks": 42882, "time": 203.6466333, "velocity": 0.5905511811023622}, {"duration": 2.2358500999999933, "durationTicks": 474, "midi": 88, "name": "E6", "ticks": 42960, "time": 204.01455800000002, "velocity": 0.5590551181102362}, {"duration": 0.3396228000000292, "durationTicks": 72, "midi": 83, "name": "B5", "ticks": 43445, "time": 206.30229491666665, "velocity": 0.5669291338582677}, {"duration": 0.3396228000000008, "durationTicks": 72, "midi": 86, "name": "D6", "ticks": 43520, "time": 206.65606866666667, "velocity": 0.5748031496062992}, {"duration": 0.38207565000001864, "durationTicks": 81, "midi": 85, "name": "C#6", "ticks": 43597, "time": 207.01927638333333, "velocity": 0.5748031496062992}, {"duration": 0.39150961666666717, "durationTicks": 83, "midi": 83, "name": "B5", "ticks": 43675, "time": 207.38720108333334, "velocity": 0.5984251968503937}, {"duration": 0.41509453333333113, "durationTicks": 88, "midi": 81, "name": "A5", "ticks": 43757, "time": 207.77399371666667, "velocity": 0.5748031496062992}, {"duration": 0.3632077166666363, "durationTicks": 77, "midi": 80, "name": "G#5", "ticks": 43839, "time": 208.16078635000002, "velocity": 0.5118110236220472}, {"duration": 1.0990571166666427, "durationTicks": 233, "midi": 76, "name": "E5", "ticks": 43920, "time": 208.542862, "velocity": 0.7165354330708661}, {"duration": 2.297170883333365, "durationTicks": 487, "midi": 81, "name": "A5", "ticks": 44153, "time": 209.64191911666666, "velocity": 0.7165354330708661}, {"duration": 0.5801889500000073, "durationTicks": 123, "midi": 80, "name": "G#5", "ticks": 44632, "time": 211.90135413333334, "velocity": 0.6929133858267716}, {"duration": 0.5801889500000073, "durationTicks": 123, "midi": 83, "name": "B5", "ticks": 44754, "time": 212.4768261, "velocity": 0.7401574803149606}, {"duration": 3.9056621999999948, "durationTicks": 828, "midi": 81, "name": "A5", "ticks": 44880, "time": 213.071166, "velocity": 0.6929133858267716}, {"duration": 0.509434199999987, "durationTicks": 108, "midi": 83, "name": "B5", "ticks": 45718, "time": 217.02399803333333, "velocity": 0.7401574803149606}, {"duration": 3.344341183333313, "durationTicks": 709, "midi": 85, "name": "C#6", "ticks": 45844, "time": 217.61833793333335, "velocity": 0.6062992125984252}, {"duration": 0.3867926333333571, "durationTicks": 82, "midi": 83, "name": "B5", "ticks": 46555, "time": 220.97211308333334, "velocity": 0.6692913385826772}, {"duration": 0.37735866666668016, "durationTicks": 80, "midi": 86, "name": "D6", "ticks": 46638, "time": 221.3636227, "velocity": 0.7165354330708661}, {"duration": 0.39622660000000565, "durationTicks": 84, "midi": 85, "name": "C#6", "ticks": 46719, "time": 221.74569835, "velocity": 0.6850393700787402}, {"duration": 1.6462271833333375, "durationTicks": 349, "midi": 81, "name": "A5", "ticks": 46805, "time": 222.15135891666665, "velocity": 0.6771653543307087}, {"duration": 0.5518870499999764, "durationTicks": 117, "midi": 93, "name": "A6", "ticks": 47152, "time": 223.78815213333334, "velocity": 0.7322834645669292}, {"duration": 0.419811516666698, "durationTicks": 89, "midi": 92, "name": "G#6", "ticks": 47269, "time": 224.34003918333332, "velocity": 0.6062992125984252}, {"duration": 0.3867926333333287, "durationTicks": 82, "midi": 88, "name": "E6", "ticks": 47356, "time": 224.75041673333334, "velocity": 0.6771653543307087}, {"duration": 0.39150961666666717, "durationTicks": 83, "midi": 93, "name": "A6", "ticks": 47437, "time": 225.13249238333333, "velocity": 0.7244094488188977}, {"duration": 0.4009435833333441, "durationTicks": 85, "midi": 92, "name": "G#6", "ticks": 47515, "time": 225.50041708333333, "velocity": 0.6771653543307087}, {"duration": 0.3867926333333571, "durationTicks": 82, "midi": 88, "name": "E6", "ticks": 47598, "time": 225.8919267, "velocity": 0.6929133858267716}, {"duration": 0.34905676666667773, "durationTicks": 74, "midi": 85, "name": "C#6", "ticks": 47682, "time": 226.2881533, "velocity": 0.6692913385826772}, {"duration": 0.8207550999999853, "durationTicks": 174, "midi": 88, "name": "E6", "ticks": 47760, "time": 226.656078, "velocity": 0.6377952755905512}, {"duration": 0.2547170999999935, "durationTicks": 54, "midi": 88, "name": "E6", "ticks": 47940, "time": 227.505135, "velocity": 0.6771653543307087}, {"duration": 1.1320759999999837, "durationTicks": 240, "midi": 88, "name": "E6", "ticks": 48000, "time": 227.78815400000002, "velocity": 0.6377952755905512}, {"duration": 1.1320759999999837, "durationTicks": 240, "midi": 90, "name": "F#6", "ticks": 48240, "time": 228.92023, "velocity": 0.7165354330708661}, {"duration": 0.3396228000000292, "durationTicks": 72, "midi": 83, "name": "B5", "ticks": 48245, "time": 228.94381491666667, "velocity": 0.6456692913385826}, {"duration": 0.3396228000000008, "durationTicks": 72, "midi": 86, "name": "D6", "ticks": 48320, "time": 229.29758866666668, "velocity": 0.6535433070866141}, {"duration": 0.3820756499999902, "durationTicks": 81, "midi": 85, "name": "C#6", "ticks": 48397, "time": 229.66079638333335, "velocity": 0.6535433070866141}, {"duration": 0.39150961666663875, "durationTicks": 83, "midi": 83, "name": "B5", "ticks": 48475, "time": 230.02872108333335, "velocity": 0.6771653543307087}, {"duration": 1.132076000000012, "durationTicks": 240, "midi": 92, "name": "G#6", "ticks": 48480, "time": 230.052306, "velocity": 0.7165354330708661}, {"duration": 0.41509453333333113, "durationTicks": 88, "midi": 81, "name": "A5", "ticks": 48557, "time": 230.41551371666668, "velocity": 0.6535433070866141}, {"duration": 0.36320771666669316, "durationTicks": 77, "midi": 80, "name": "G#5", "ticks": 48639, "time": 230.80230634999998, "velocity": 0.5905511811023622}, {"duration": 1.1320759999999837, "durationTicks": 240, "midi": 41, "name": "F2", "ticks": 48958, "time": 232.30702403333333, "velocity": 0.7244094488188977}, {"duration": 1.1320759999999837, "durationTicks": 240, "midi": 65, "name": "F4", "ticks": 48958, "time": 232.30702403333333, "velocity": 0.7244094488188977}, {"duration": 1.1320759999999837, "durationTicks": 240, "midi": 69, "name": "A4", "ticks": 48958, "time": 232.30702403333333, "velocity": 0.7244094488188977}, {"duration": 1.1320759999999837, "durationTicks": 240, "midi": 53, "name": "F3", "ticks": 48958, "time": 232.30702403333333, "velocity": 0.7244094488188977}, {"duration": 1.1320759999999837, "durationTicks": 240, "midi": 74, "name": "D5", "ticks": 48958, "time": 232.30702403333333, "velocity": 0.7244094488188977}, {"duration": 1.0754722000000356, "durationTicks": 228, "midi": 43, "name": "G2", "ticks": 49198, "time": 233.43910003333332, "velocity": 0.6771653543307087}, {"duration": 1.0754722000000356, "durationTicks": 228, "midi": 67, "name": "G4", "ticks": 49198, "time": 233.43910003333332, "velocity": 0.6771653543307087}, {"duration": 1.0943401333333327, "durationTicks": 232, "midi": 71, "name": "B4", "ticks": 49198, "time": 233.43910003333332, "velocity": 0.6062992125984252}, {"duration": 1.0754722000000356, "durationTicks": 228, "midi": 55, "name": "G3", "ticks": 49198, "time": 233.43910003333332, "velocity": 0.6771653543307087}, {"duration": 1.0943401333333327, "durationTicks": 232, "midi": 76, "name": "E5", "ticks": 49198, "time": 233.43910003333332, "velocity": 0.6062992125984252}, {"duration": 1.132076000000012, "durationTicks": 240, "midi": 36, "name": "C2", "ticks": 49918, "time": 236.83532803333333, "velocity": 0.7244094488188977}, {"duration": 1.132076000000012, "durationTicks": 240, "midi": 57, "name": "A3", "ticks": 49918, "time": 236.83532803333333, "velocity": 0.7244094488188977}, {"duration": 1.132076000000012, "durationTicks": 240, "midi": 64, "name": "E4", "ticks": 49918, "time": 236.83532803333333, "velocity": 0.7244094488188977}, {"duration": 1.132076000000012, "durationTicks": 240, "midi": 48, "name": "C3", "ticks": 49918, "time": 236.83532803333333, "velocity": 0.7244094488188977}, {"duration": 1.132076000000012, "durationTicks": 240, "midi": 72, "name": "C5", "ticks": 49918, "time": 236.83532803333333, "velocity": 0.7244094488188977}, {"duration": 1.0754722000000072, "durationTicks": 228, "midi": 38, "name": "D2", "ticks": 50158, "time": 237.96740403333334, "velocity": 0.6771653543307087}, {"duration": 1.0754722000000072, "durationTicks": 228, "midi": 59, "name": "B3", "ticks": 50158, "time": 237.96740403333334, "velocity": 0.6771653543307087}, {"duration": 1.0754722000000072, "durationTicks": 228, "midi": 66, "name": "F#4", "ticks": 50158, "time": 237.96740403333334, "velocity": 0.6771653543307087}, {"duration": 1.0754722000000072, "durationTicks": 228, "midi": 50, "name": "D3", "ticks": 50158, "time": 237.96740403333334, "velocity": 0.6771653543307087}, {"duration": 1.0943401333333327, "durationTicks": 232, "midi": 74, "name": "D5", "ticks": 50158, "time": 237.96740403333334, "velocity": 0.6062992125984252}]}, {"channel": 0, "controlChanges": {"0": [{"number": 0, "ticks": 125, "time": 0.5896229166666668, "value": 0}]}, "pitchBends": [], "instrument": {"family": "piano", "number": 0, "name": "acoustic grand piano"}, "name": "PizzStr", "notes": [], "endOfTrackTicks": 50789}, {"channel": 1, "controlChanges": {"6": [{"number": 6, "ticks": 152, "time": 0.7169814666666667, "value": 0.015748031496062992}, {"number": 6, "ticks": 161, "time": 0.7594343166666666, "value": 0.6141732283464567}], "7": [{"number": 7, "ticks": 128, "time": 0.6037738666666667, "value": 0.8661417322834646}], "10": [{"number": 10, "ticks": 128, "time": 0.6037738666666667, "value": 0.5039370078740157}], "71": [{"number": 71, "ticks": 157, "time": 0.7405663833333334, "value": 0.6141732283464567}], "74": [{"number": 74, "ticks": 162, "time": 0.7641513000000001, "value": 0.7086614173228346}], "91": [{"number": 91, "ticks": 153, "time": 0.72169845, "value": 0.7874015748031497}], "93": [{"number": 93, "ticks": 154, "time": 0.7264154333333335, "value": 0.23622047244094488}], "98": [{"number": 98, "ticks": 159, "time": 0.75000035, "value": 0.25984251968503935}], "99": [{"number": 99, "ticks": 160, "time": 0.7547173333333334, "value": 0.007874015748031496}], "100": [{"number": 100, "ticks": 149, "time": 0.7028305166666667, "value": 0}], "101": [{"number": 101, "ticks": 151, "time": 0.7122644833333334, "value": 0}], "121": [{"number": 121, "ticks": 146, "time": 0.6886795666666666, "value": 0}]}, "pitchBends": [], "instrument": {"family": "strings", "number": 45, "name": "pizzicato strings"}, "name": "", "notes": [{"duration": 0.19339631666666657, "durationTicks": 41, "midi": 31, "name": "G1", "ticks": 720, "time": 3.3962280000000002, "velocity": 0.84251968503937}, {"duration": 0.22641520000000037, "durationTicks": 48, "midi": 43, "name": "G2", "ticks": 720, "time": 3.3962280000000002, "velocity": 0.8346456692913385}, {"duration": 0.11792458333333311, "durationTicks": 25, "midi": 62, "name": "D4", "ticks": 959, "time": 4.523587016666667, "velocity": 0.8031496062992126}, {"duration": 0.10849061666666682, "durationTicks": 23, "midi": 59, "name": "B3", "ticks": 959, "time": 4.523587016666667, "velocity": 0.8188976377952756}, {"duration": 0.19339631666666612, "durationTicks": 41, "midi": 26, "name": "D1", "ticks": 1199, "time": 5.655663016666668, "velocity": 0.8188976377952756}, {"duration": 0.23113218333333307, "durationTicks": 49, "midi": 38, "name": "D2", "ticks": 1199, "time": 5.655663016666668, "velocity": 0.7716535433070866}, {"duration": 0.14622648333333288, "durationTicks": 31, "midi": 62, "name": "D4", "ticks": 1439, "time": 6.787739016666667, "velocity": 0.7952755905511811}, {"duration": 0.11320759999999996, "durationTicks": 24, "midi": 57, "name": "A3", "ticks": 1440, "time": 6.7924560000000005, "velocity": 0.8188976377952756}, {"duration": 0.24528313333333251, "durationTicks": 52, "midi": 28, "name": "E1", "ticks": 1679, "time": 7.919815016666668, "velocity": 0.8110236220472441}, {"duration": 0.31603788333333327, "durationTicks": 67, "midi": 40, "name": "E2", "ticks": 1680, "time": 7.924532000000001, "velocity": 0.8110236220472441}, {"duration": 0.1273585500000003, "durationTicks": 27, "midi": 59, "name": "B3", "ticks": 1920, "time": 9.056608, "velocity": 0.7716535433070866}, {"duration": 0.13207553333333344, "durationTicks": 28, "midi": 55, "name": "G3", "ticks": 1920, "time": 9.056608, "velocity": 0.7716535433070866}, {"duration": 0.2641510666666669, "durationTicks": 56, "midi": 24, "name": "C1", "ticks": 2159, "time": 10.183967016666667, "velocity": 0.7874015748031497}, {"duration": 0.27358503333333495, "durationTicks": 58, "midi": 36, "name": "C2", "ticks": 2159, "time": 10.183967016666667, "velocity": 0.7322834645669292}, {"duration": 0.12264156666666537, "durationTicks": 26, "midi": 60, "name": "C4", "ticks": 2399, "time": 11.316043016666669, "velocity": 0.7480314960629921}, {"duration": 0.13207553333333522, "durationTicks": 28, "midi": 55, "name": "G3", "ticks": 2400, "time": 11.32076, "velocity": 0.7007874015748031}, {"duration": 0.19339631666666612, "durationTicks": 41, "midi": 31, "name": "G1", "ticks": 2640, "time": 12.452836000000001, "velocity": 0.84251968503937}, {"duration": 0.22641519999999815, "durationTicks": 48, "midi": 43, "name": "G2", "ticks": 2640, "time": 12.452836000000001, "velocity": 0.8346456692913385}, {"duration": 0.11792458333333222, "durationTicks": 25, "midi": 62, "name": "D4", "ticks": 2879, "time": 13.580195016666668, "velocity": 0.8031496062992126}, {"duration": 0.10849061666666593, "durationTicks": 23, "midi": 59, "name": "B3", "ticks": 2879, "time": 13.580195016666668, "velocity": 0.8188976377952756}, {"duration": 0.19339631666666612, "durationTicks": 41, "midi": 26, "name": "D1", "ticks": 3119, "time": 14.712271016666667, "velocity": 0.8188976377952756}, {"duration": 0.23113218333333307, "durationTicks": 49, "midi": 38, "name": "D2", "ticks": 3119, "time": 14.712271016666667, "velocity": 0.7716535433070866}, {"duration": 0.14622648333333288, "durationTicks": 31, "midi": 62, "name": "D4", "ticks": 3359, "time": 15.844347016666669, "velocity": 0.7952755905511811}, {"duration": 0.11320759999999908, "durationTicks": 24, "midi": 57, "name": "A3", "ticks": 3360, "time": 15.849064000000002, "velocity": 0.8188976377952756}, {"duration": 0.2452831333333343, "durationTicks": 52, "midi": 28, "name": "E1", "ticks": 3599, "time": 16.97642301666667, "velocity": 0.8110236220472441}, {"duration": 0.31603788333333327, "durationTicks": 67, "midi": 40, "name": "E2", "ticks": 3600, "time": 16.98114, "velocity": 0.8110236220472441}, {"duration": 0.1273585500000003, "durationTicks": 27, "midi": 59, "name": "B3", "ticks": 3840, "time": 18.113216, "velocity": 0.7716535433070866}, {"duration": 0.13207553333333522, "durationTicks": 28, "midi": 55, "name": "G3", "ticks": 3840, "time": 18.113216, "velocity": 0.7716535433070866}, {"duration": 0.2641510666666669, "durationTicks": 56, "midi": 24, "name": "C1", "ticks": 4079, "time": 19.240575016666668, "velocity": 0.7874015748031497}, {"duration": 0.27358503333333317, "durationTicks": 58, "midi": 36, "name": "C2", "ticks": 4079, "time": 19.240575016666668, "velocity": 0.7322834645669292}, {"duration": 0.12264156666666537, "durationTicks": 26, "midi": 60, "name": "C4", "ticks": 4319, "time": 20.37265101666667, "velocity": 0.7480314960629921}, {"duration": 0.13207553333333522, "durationTicks": 28, "midi": 55, "name": "G3", "ticks": 4320, "time": 20.377368, "velocity": 0.7007874015748031}, {"duration": 0.1933963166666679, "durationTicks": 41, "midi": 31, "name": "G1", "ticks": 4560, "time": 21.509444000000002, "velocity": 0.84251968503937}, {"duration": 0.22641519999999815, "durationTicks": 48, "midi": 43, "name": "G2", "ticks": 4560, "time": 21.509444000000002, "velocity": 0.8346456692913385}, {"duration": 0.117924583333334, "durationTicks": 25, "midi": 62, "name": "D4", "ticks": 4799, "time": 22.63680301666667, "velocity": 0.8031496062992126}, {"duration": 0.10849061666666415, "durationTicks": 23, "midi": 59, "name": "B3", "ticks": 4799, "time": 22.63680301666667, "velocity": 0.8188976377952756}, {"duration": 0.1839623500000016, "durationTicks": 39, "midi": 24, "name": "C1", "ticks": 5040, "time": 23.773596, "velocity": 0.8818897637795275}, {"duration": 0.22641519999999815, "durationTicks": 48, "midi": 36, "name": "C2", "ticks": 5040, "time": 23.773596, "velocity": 0.7795275590551181}, {"duration": 0.13679251666666659, "durationTicks": 29, "midi": 62, "name": "D4", "ticks": 5280, "time": 24.905672000000003, "velocity": 0.7795275590551181}, {"duration": 0.12264156666666537, "durationTicks": 26, "midi": 57, "name": "A3", "ticks": 5280, "time": 24.905672000000003, "velocity": 0.7952755905511811}, {"duration": 0.15566044999999917, "durationTicks": 33, "midi": 26, "name": "D1", "ticks": 5281, "time": 24.910388983333334, "velocity": 0.6062992125984252}, {"duration": 0.1933963166666679, "durationTicks": 41, "midi": 38, "name": "D2", "ticks": 5281, "time": 24.910388983333334, "velocity": 0.5984251968503937}, {"duration": 0.19339631666667856, "durationTicks": 41, "midi": 31, "name": "G1", "ticks": 14400, "time": 67.92456, "velocity": 0.84251968503937}, {"duration": 0.22641520000000526, "durationTicks": 48, "midi": 43, "name": "G2", "ticks": 14400, "time": 67.92456, "velocity": 0.8346456692913385}, {"duration": 0.117924583333334, "durationTicks": 25, "midi": 62, "name": "D4", "ticks": 14639, "time": 69.05191901666667, "velocity": 0.8031496062992126}, {"duration": 0.10849061666667126, "durationTicks": 23, "midi": 59, "name": "B3", "ticks": 14639, "time": 69.05191901666667, "velocity": 0.8188976377952756}, {"duration": 0.19339631666666435, "durationTicks": 41, "midi": 26, "name": "D1", "ticks": 14879, "time": 70.18399501666667, "velocity": 0.8188976377952756}, {"duration": 0.23113218333334373, "durationTicks": 49, "midi": 38, "name": "D2", "ticks": 14879, "time": 70.18399501666667, "velocity": 0.7716535433070866}, {"duration": 0.14622648333333643, "durationTicks": 31, "midi": 62, "name": "D4", "ticks": 15119, "time": 71.31607101666667, "velocity": 0.7952755905511811}, {"duration": 0.11320759999999552, "durationTicks": 24, "midi": 57, "name": "A3", "ticks": 15120, "time": 71.32078800000001, "velocity": 0.8188976377952756}, {"duration": 0.24528313333334495, "durationTicks": 52, "midi": 28, "name": "E1", "ticks": 15359, "time": 72.44814701666667, "velocity": 0.8110236220472441}, {"duration": 0.3160378833333368, "durationTicks": 67, "midi": 40, "name": "E2", "ticks": 15360, "time": 72.452864, "velocity": 0.8110236220472441}, {"duration": 0.12735854999999674, "durationTicks": 27, "midi": 59, "name": "B3", "ticks": 15600, "time": 73.58494, "velocity": 0.7716535433070866}, {"duration": 0.132075533333321, "durationTicks": 28, "midi": 55, "name": "G3", "ticks": 15600, "time": 73.58494, "velocity": 0.7716535433070866}, {"duration": 0.26415106666667043, "durationTicks": 56, "midi": 24, "name": "C1", "ticks": 15839, "time": 74.71229901666668, "velocity": 0.7874015748031497}, {"duration": 0.27358503333331896, "durationTicks": 58, "midi": 36, "name": "C2", "ticks": 15839, "time": 74.71229901666668, "velocity": 0.7322834645669292}, {"duration": 0.12264156666667247, "durationTicks": 26, "midi": 60, "name": "C4", "ticks": 16079, "time": 75.84437501666667, "velocity": 0.7480314960629921}, {"duration": 0.13207553333333522, "durationTicks": 28, "midi": 55, "name": "G3", "ticks": 16080, "time": 75.849092, "velocity": 0.7007874015748031}, {"duration": 0.19339631666666435, "durationTicks": 41, "midi": 31, "name": "G1", "ticks": 16320, "time": 76.98116800000001, "velocity": 0.84251968503937}, {"duration": 0.22641519999999105, "durationTicks": 48, "midi": 43, "name": "G2", "ticks": 16320, "time": 76.98116800000001, "velocity": 0.8346456692913385}, {"duration": 0.117924583333334, "durationTicks": 25, "midi": 62, "name": "D4", "ticks": 16559, "time": 78.10852701666667, "velocity": 0.8031496062992126}, {"duration": 0.10849061666667126, "durationTicks": 23, "midi": 59, "name": "B3", "ticks": 16559, "time": 78.10852701666667, "velocity": 0.8188976377952756}, {"duration": 0.19339631666666435, "durationTicks": 41, "midi": 26, "name": "D1", "ticks": 16799, "time": 79.24060301666668, "velocity": 0.8188976377952756}, {"duration": 0.23113218333332952, "durationTicks": 49, "midi": 38, "name": "D2", "ticks": 16799, "time": 79.24060301666668, "velocity": 0.7716535433070866}, {"duration": 0.14622648333332222, "durationTicks": 31, "midi": 62, "name": "D4", "ticks": 17039, "time": 80.37267901666668, "velocity": 0.7952755905511811}, {"duration": 0.11320759999999552, "durationTicks": 24, "midi": 57, "name": "A3", "ticks": 17040, "time": 80.377396, "velocity": 0.8188976377952756}, {"duration": 0.24528313333333074, "durationTicks": 52, "midi": 28, "name": "E1", "ticks": 17279, "time": 81.50475501666668, "velocity": 0.8110236220472441}, {"duration": 0.3160378833333368, "durationTicks": 67, "midi": 40, "name": "E2", "ticks": 17280, "time": 81.509472, "velocity": 0.8110236220472441}, {"duration": 0.12735854999999674, "durationTicks": 27, "midi": 59, "name": "B3", "ticks": 17520, "time": 82.641548, "velocity": 0.7716535433070866}, {"duration": 0.13207553333333522, "durationTicks": 28, "midi": 55, "name": "G3", "ticks": 17520, "time": 82.641548, "velocity": 0.7716535433070866}, {"duration": 0.26415106666667043, "durationTicks": 56, "midi": 24, "name": "C1", "ticks": 17759, "time": 83.76890701666667, "velocity": 0.7874015748031497}, {"duration": 0.27358503333333317, "durationTicks": 58, "midi": 36, "name": "C2", "ticks": 17759, "time": 83.76890701666667, "velocity": 0.7322834645669292}, {"duration": 0.12264156666667247, "durationTicks": 26, "midi": 60, "name": "C4", "ticks": 17999, "time": 84.90098301666667, "velocity": 0.7480314960629921}, {"duration": 0.132075533333321, "durationTicks": 28, "midi": 55, "name": "G3", "ticks": 18000, "time": 84.90570000000001, "velocity": 0.7007874015748031}, {"duration": 0.19339631666666435, "durationTicks": 41, "midi": 31, "name": "G1", "ticks": 18240, "time": 86.03777600000001, "velocity": 0.84251968503937}, {"duration": 0.22641520000000526, "durationTicks": 48, "midi": 43, "name": "G2", "ticks": 18240, "time": 86.03777600000001, "velocity": 0.8346456692913385}, {"duration": 0.11792458333331979, "durationTicks": 25, "midi": 62, "name": "D4", "ticks": 18479, "time": 87.16513501666668, "velocity": 0.8031496062992126}, {"duration": 0.10849061666665705, "durationTicks": 23, "midi": 59, "name": "B3", "ticks": 18479, "time": 87.16513501666668, "velocity": 0.8188976377952756}, {"duration": 0.1839623500000016, "durationTicks": 39, "midi": 24, "name": "C1", "ticks": 18720, "time": 88.301928, "velocity": 0.8818897637795275}, {"duration": 0.22641520000000526, "durationTicks": 48, "midi": 36, "name": "C2", "ticks": 18720, "time": 88.301928, "velocity": 0.7795275590551181}, {"duration": 0.1367925166666737, "durationTicks": 29, "midi": 62, "name": "D4", "ticks": 18960, "time": 89.434004, "velocity": 0.7795275590551181}, {"duration": 0.12264156666667247, "durationTicks": 26, "midi": 57, "name": "A3", "ticks": 18960, "time": 89.434004, "velocity": 0.7952755905511811}, {"duration": 0.15566044999999917, "durationTicks": 33, "midi": 26, "name": "D1", "ticks": 18961, "time": 89.43872098333334, "velocity": 0.6062992125984252}, {"duration": 0.19339631666666435, "durationTicks": 41, "midi": 38, "name": "D2", "ticks": 18961, "time": 89.43872098333334, "velocity": 0.5984251968503937}, {"duration": 0.15566044999999917, "durationTicks": 33, "midi": 30, "name": "F#1", "ticks": 19080, "time": 90.00004200000001, "velocity": 0.6062992125984252}, {"duration": 0.19339631666666435, "durationTicks": 41, "midi": 42, "name": "F#2", "ticks": 19080, "time": 90.00004200000001, "velocity": 0.5984251968503937}, {"duration": 0.19339631666667856, "durationTicks": 41, "midi": 31, "name": "G1", "ticks": 19200, "time": 90.56608, "velocity": 0.84251968503937}, {"duration": 0.22641520000000526, "durationTicks": 48, "midi": 43, "name": "G2", "ticks": 19200, "time": 90.56608, "velocity": 0.8346456692913385}, {"duration": 0.117924583333334, "durationTicks": 25, "midi": 62, "name": "D4", "ticks": 19439, "time": 91.69343901666667, "velocity": 0.8031496062992126}, {"duration": 0.10849061666667126, "durationTicks": 23, "midi": 59, "name": "B3", "ticks": 19439, "time": 91.69343901666667, "velocity": 0.8188976377952756}, {"duration": 0.19339631666667856, "durationTicks": 41, "midi": 26, "name": "D1", "ticks": 19679, "time": 92.82551501666667, "velocity": 0.8188976377952756}, {"duration": 0.23113218333334373, "durationTicks": 49, "midi": 38, "name": "D2", "ticks": 19679, "time": 92.82551501666667, "velocity": 0.7716535433070866}, {"duration": 0.14622648333332222, "durationTicks": 31, "midi": 62, "name": "D4", "ticks": 19919, "time": 93.95759101666668, "velocity": 0.7952755905511811}, {"duration": 0.11320759999999552, "durationTicks": 24, "midi": 57, "name": "A3", "ticks": 19920, "time": 93.96230800000001, "velocity": 0.8188976377952756}, {"duration": 0.24528313333333074, "durationTicks": 52, "midi": 28, "name": "E1", "ticks": 20159, "time": 95.08966701666668, "velocity": 0.8110236220472441}, {"duration": 0.3160378833333368, "durationTicks": 67, "midi": 40, "name": "E2", "ticks": 20160, "time": 95.094384, "velocity": 0.8110236220472441}, {"duration": 0.12735854999999674, "durationTicks": 27, "midi": 59, "name": "B3", "ticks": 20400, "time": 96.22646, "velocity": 0.7716535433070866}, {"duration": 0.13207553333333522, "durationTicks": 28, "midi": 55, "name": "G3", "ticks": 20400, "time": 96.22646, "velocity": 0.7716535433070866}, {"duration": 0.26415106666667043, "durationTicks": 56, "midi": 24, "name": "C1", "ticks": 20639, "time": 97.35381901666668, "velocity": 0.7874015748031497}, {"duration": 0.27358503333333317, "durationTicks": 58, "midi": 36, "name": "C2", "ticks": 20639, "time": 97.35381901666668, "velocity": 0.7322834645669292}, {"duration": 0.12264156666667247, "durationTicks": 26, "midi": 60, "name": "C4", "ticks": 20879, "time": 98.48589501666667, "velocity": 0.7480314960629921}, {"duration": 0.132075533333321, "durationTicks": 28, "midi": 55, "name": "G3", "ticks": 20880, "time": 98.49061200000001, "velocity": 0.7007874015748031}, {"duration": 0.19339631666666435, "durationTicks": 41, "midi": 31, "name": "G1", "ticks": 21120, "time": 99.62268800000001, "velocity": 0.84251968503937}, {"duration": 0.22641520000000526, "durationTicks": 48, "midi": 43, "name": "G2", "ticks": 21120, "time": 99.62268800000001, "velocity": 0.8346456692913385}, {"duration": 0.11792458333331979, "durationTicks": 25, "midi": 62, "name": "D4", "ticks": 21359, "time": 100.75004701666668, "velocity": 0.8031496062992126}, {"duration": 0.10849061666665705, "durationTicks": 23, "midi": 59, "name": "B3", "ticks": 21359, "time": 100.75004701666668, "velocity": 0.8188976377952756}, {"duration": 0.19339631666666435, "durationTicks": 41, "midi": 26, "name": "D1", "ticks": 21599, "time": 101.88212301666668, "velocity": 0.8188976377952756}, {"duration": 0.23113218333332952, "durationTicks": 49, "midi": 38, "name": "D2", "ticks": 21599, "time": 101.88212301666668, "velocity": 0.7716535433070866}, {"duration": 0.14622648333332222, "durationTicks": 31, "midi": 62, "name": "D4", "ticks": 21839, "time": 103.01419901666668, "velocity": 0.7952755905511811}, {"duration": 0.11320759999999552, "durationTicks": 24, "midi": 57, "name": "A3", "ticks": 21840, "time": 103.018916, "velocity": 0.8188976377952756}, {"duration": 0.24528313333333074, "durationTicks": 52, "midi": 28, "name": "E1", "ticks": 22079, "time": 104.14627501666668, "velocity": 0.8110236220472441}, {"duration": 0.3160378833333368, "durationTicks": 67, "midi": 40, "name": "E2", "ticks": 22080, "time": 104.150992, "velocity": 0.8110236220472441}, {"duration": 0.12735854999999674, "durationTicks": 27, "midi": 59, "name": "B3", "ticks": 22320, "time": 105.28306800000001, "velocity": 0.7716535433070866}, {"duration": 0.132075533333321, "durationTicks": 28, "midi": 55, "name": "G3", "ticks": 22320, "time": 105.28306800000001, "velocity": 0.7716535433070866}, {"duration": 0.26415106666667043, "durationTicks": 56, "midi": 24, "name": "C1", "ticks": 22559, "time": 106.41042701666667, "velocity": 0.7874015748031497}, {"duration": 0.27358503333333317, "durationTicks": 58, "midi": 36, "name": "C2", "ticks": 22559, "time": 106.41042701666667, "velocity": 0.7322834645669292}, {"duration": 0.12264156666665826, "durationTicks": 26, "midi": 60, "name": "C4", "ticks": 22799, "time": 107.54250301666669, "velocity": 0.7480314960629921}, {"duration": 0.132075533333321, "durationTicks": 28, "midi": 55, "name": "G3", "ticks": 22800, "time": 107.54722000000001, "velocity": 0.7007874015748031}, {"duration": 0.19339631666666435, "durationTicks": 41, "midi": 31, "name": "G1", "ticks": 23040, "time": 108.67929600000001, "velocity": 0.84251968503937}, {"duration": 0.22641520000000526, "durationTicks": 48, "midi": 43, "name": "G2", "ticks": 23040, "time": 108.67929600000001, "velocity": 0.8346456692913385}, {"duration": 0.11792458333331979, "durationTicks": 25, "midi": 62, "name": "D4", "ticks": 23279, "time": 109.80665501666668, "velocity": 0.8031496062992126}, {"duration": 0.10849061666665705, "durationTicks": 23, "midi": 59, "name": "B3", "ticks": 23279, "time": 109.80665501666668, "velocity": 0.8188976377952756}, {"duration": 0.1839623500000016, "durationTicks": 39, "midi": 24, "name": "C1", "ticks": 23520, "time": 110.943448, "velocity": 0.8818897637795275}, {"duration": 0.22641520000000526, "durationTicks": 48, "midi": 36, "name": "C2", "ticks": 23520, "time": 110.943448, "velocity": 0.7795275590551181}, {"duration": 0.1367925166666737, "durationTicks": 29, "midi": 62, "name": "D4", "ticks": 23760, "time": 112.075524, "velocity": 0.7795275590551181}, {"duration": 0.12264156666667247, "durationTicks": 26, "midi": 57, "name": "A3", "ticks": 23760, "time": 112.075524, "velocity": 0.7952755905511811}, {"duration": 0.15566044999999917, "durationTicks": 33, "midi": 26, "name": "D1", "ticks": 23761, "time": 112.08024098333334, "velocity": 0.6062992125984252}, {"duration": 0.19339631666666435, "durationTicks": 41, "midi": 38, "name": "D2", "ticks": 23761, "time": 112.08024098333334, "velocity": 0.5984251968503937}, {"duration": 0.19339631666667856, "durationTicks": 41, "midi": 31, "name": "G1", "ticks": 29520, "time": 140.618302, "velocity": 0.84251968503937}, {"duration": 0.22641519999999105, "durationTicks": 48, "midi": 43, "name": "G2", "ticks": 29520, "time": 140.618302, "velocity": 0.8346456692913385}, {"duration": 0.11792458333331979, "durationTicks": 25, "midi": 62, "name": "D4", "ticks": 29759, "time": 141.74566101666667, "velocity": 0.8031496062992126}, {"duration": 0.10849061666667126, "durationTicks": 23, "midi": 59, "name": "B3", "ticks": 29759, "time": 141.74566101666667, "velocity": 0.8188976377952756}, {"duration": 0.19339631666667856, "durationTicks": 41, "midi": 26, "name": "D1", "ticks": 29999, "time": 142.87773701666666, "velocity": 0.8188976377952756}, {"duration": 0.23113218333332952, "durationTicks": 49, "midi": 38, "name": "D2", "ticks": 29999, "time": 142.87773701666666, "velocity": 0.7716535433070866}, {"duration": 0.14622648333332222, "durationTicks": 31, "midi": 62, "name": "D4", "ticks": 30239, "time": 144.00981301666667, "velocity": 0.7952755905511811}, {"duration": 0.11320759999998131, "durationTicks": 24, "midi": 57, "name": "A3", "ticks": 30240, "time": 144.01453, "velocity": 0.8188976377952756}, {"duration": 0.24528313333334495, "durationTicks": 52, "midi": 28, "name": "E1", "ticks": 30479, "time": 145.14188901666665, "velocity": 0.8110236220472441}, {"duration": 0.3160378833333368, "durationTicks": 67, "midi": 40, "name": "E2", "ticks": 30480, "time": 145.146606, "velocity": 0.8110236220472441}, {"duration": 0.12735854999999674, "durationTicks": 27, "midi": 59, "name": "B3", "ticks": 30720, "time": 146.278682, "velocity": 0.7716535433070866}, {"duration": 0.13207553333333522, "durationTicks": 28, "midi": 55, "name": "G3", "ticks": 30720, "time": 146.278682, "velocity": 0.7716535433070866}, {"duration": 0.26415106666667043, "durationTicks": 56, "midi": 24, "name": "C1", "ticks": 30959, "time": 147.40604101666668, "velocity": 0.7874015748031497}, {"duration": 0.27358503333331896, "durationTicks": 58, "midi": 36, "name": "C2", "ticks": 30959, "time": 147.40604101666668, "velocity": 0.7322834645669292}, {"duration": 0.12264156666668669, "durationTicks": 26, "midi": 60, "name": "C4", "ticks": 31199, "time": 148.53811701666666, "velocity": 0.7480314960629921}, {"duration": 0.13207553333333522, "durationTicks": 28, "midi": 55, "name": "G3", "ticks": 31200, "time": 148.542834, "velocity": 0.7007874015748031}, {"duration": 0.19339631666665014, "durationTicks": 41, "midi": 31, "name": "G1", "ticks": 31440, "time": 149.67491, "velocity": 0.84251968503937}, {"duration": 0.22641519999999105, "durationTicks": 48, "midi": 43, "name": "G2", "ticks": 31440, "time": 149.67491, "velocity": 0.8346456692913385}, {"duration": 0.11792458333334821, "durationTicks": 25, "midi": 62, "name": "D4", "ticks": 31679, "time": 150.80226901666666, "velocity": 0.8031496062992126}, {"duration": 0.10849061666667126, "durationTicks": 23, "midi": 59, "name": "B3", "ticks": 31679, "time": 150.80226901666666, "velocity": 0.8188976377952756}, {"duration": 0.19339631666667856, "durationTicks": 41, "midi": 26, "name": "D1", "ticks": 31919, "time": 151.93434501666667, "velocity": 0.8188976377952756}, {"duration": 0.23113218333332952, "durationTicks": 49, "midi": 38, "name": "D2", "ticks": 31919, "time": 151.93434501666667, "velocity": 0.7716535433070866}, {"duration": 0.14622648333332222, "durationTicks": 31, "midi": 62, "name": "D4", "ticks": 32159, "time": 153.06642101666668, "velocity": 0.7952755905511811}, {"duration": 0.11320760000000973, "durationTicks": 24, "midi": 57, "name": "A3", "ticks": 32160, "time": 153.071138, "velocity": 0.8188976377952756}, {"duration": 0.24528313333334495, "durationTicks": 52, "midi": 28, "name": "E1", "ticks": 32399, "time": 154.19849701666666, "velocity": 0.8110236220472441}, {"duration": 0.3160378833333368, "durationTicks": 67, "midi": 40, "name": "E2", "ticks": 32400, "time": 154.203214, "velocity": 0.8110236220472441}, {"duration": 0.12735855000002516, "durationTicks": 27, "midi": 59, "name": "B3", "ticks": 32640, "time": 155.33529, "velocity": 0.7716535433070866}, {"duration": 0.13207553333333522, "durationTicks": 28, "midi": 55, "name": "G3", "ticks": 32640, "time": 155.33529, "velocity": 0.7716535433070866}, {"duration": 0.26415106666667043, "durationTicks": 56, "midi": 24, "name": "C1", "ticks": 32879, "time": 156.46264901666666, "velocity": 0.7874015748031497}, {"duration": 0.2735850333333474, "durationTicks": 58, "midi": 36, "name": "C2", "ticks": 32879, "time": 156.46264901666666, "velocity": 0.7322834645669292}, {"duration": 0.12264156666665826, "durationTicks": 26, "midi": 60, "name": "C4", "ticks": 33119, "time": 157.59472501666667, "velocity": 0.7480314960629921}, {"duration": 0.13207553333333522, "durationTicks": 28, "midi": 55, "name": "G3", "ticks": 33120, "time": 157.599442, "velocity": 0.7007874015748031}, {"duration": 0.19339631666667856, "durationTicks": 41, "midi": 31, "name": "G1", "ticks": 33360, "time": 158.731518, "velocity": 0.84251968503937}, {"duration": 0.22641520000001947, "durationTicks": 48, "midi": 43, "name": "G2", "ticks": 33360, "time": 158.731518, "velocity": 0.8346456692913385}, {"duration": 0.11792458333331979, "durationTicks": 25, "midi": 62, "name": "D4", "ticks": 33599, "time": 159.85887701666667, "velocity": 0.8031496062992126}, {"duration": 0.10849061666667126, "durationTicks": 23, "midi": 59, "name": "B3", "ticks": 33599, "time": 159.85887701666667, "velocity": 0.8188976377952756}, {"duration": 0.1839623500000016, "durationTicks": 39, "midi": 24, "name": "C1", "ticks": 33840, "time": 160.99567, "velocity": 0.8818897637795275}, {"duration": 0.22641520000001947, "durationTicks": 48, "midi": 36, "name": "C2", "ticks": 33840, "time": 160.99567, "velocity": 0.7795275590551181}, {"duration": 0.1367925166666737, "durationTicks": 29, "midi": 62, "name": "D4", "ticks": 34080, "time": 162.127746, "velocity": 0.7795275590551181}, {"duration": 0.12264156666665826, "durationTicks": 26, "midi": 57, "name": "A3", "ticks": 34080, "time": 162.127746, "velocity": 0.7952755905511811}, {"duration": 0.15566044999999917, "durationTicks": 33, "midi": 26, "name": "D1", "ticks": 34081, "time": 162.13246298333334, "velocity": 0.6062992125984252}, {"duration": 0.19339631666665014, "durationTicks": 41, "midi": 38, "name": "D2", "ticks": 34081, "time": 162.13246298333334, "velocity": 0.5984251968503937}, {"duration": 0.15566044999999917, "durationTicks": 33, "midi": 30, "name": "F#1", "ticks": 34200, "time": 162.693784, "velocity": 0.6062992125984252}, {"duration": 0.19339631666667856, "durationTicks": 41, "midi": 42, "name": "F#2", "ticks": 34200, "time": 162.693784, "velocity": 0.5984251968503937}, {"duration": 0.19339631666667856, "durationTicks": 41, "midi": 31, "name": "G1", "ticks": 34320, "time": 163.25982199999999, "velocity": 0.84251968503937}, {"duration": 0.22641520000001947, "durationTicks": 48, "midi": 43, "name": "G2", "ticks": 34320, "time": 163.25982199999999, "velocity": 0.8346456692913385}, {"duration": 0.11792458333334821, "durationTicks": 25, "midi": 62, "name": "D4", "ticks": 34559, "time": 164.38718101666666, "velocity": 0.8031496062992126}, {"duration": 0.10849061666667126, "durationTicks": 23, "midi": 59, "name": "B3", "ticks": 34559, "time": 164.38718101666666, "velocity": 0.8188976377952756}, {"duration": 0.19339631666665014, "durationTicks": 41, "midi": 26, "name": "D1", "ticks": 34799, "time": 165.51925701666667, "velocity": 0.8188976377952756}, {"duration": 0.23113218333332952, "durationTicks": 49, "midi": 38, "name": "D2", "ticks": 34799, "time": 165.51925701666667, "velocity": 0.7716535433070866}, {"duration": 0.14622648333332222, "durationTicks": 31, "midi": 62, "name": "D4", "ticks": 35039, "time": 166.65133301666668, "velocity": 0.7952755905511811}, {"duration": 0.11320760000000973, "durationTicks": 24, "midi": 57, "name": "A3", "ticks": 35040, "time": 166.65605, "velocity": 0.8188976377952756}, {"duration": 0.24528313333334495, "durationTicks": 52, "midi": 28, "name": "E1", "ticks": 35279, "time": 167.78340901666667, "velocity": 0.8110236220472441}, {"duration": 0.3160378833333368, "durationTicks": 67, "midi": 40, "name": "E2", "ticks": 35280, "time": 167.788126, "velocity": 0.8110236220472441}, {"duration": 0.12735854999999674, "durationTicks": 27, "midi": 59, "name": "B3", "ticks": 35520, "time": 168.92020200000002, "velocity": 0.7716535433070866}, {"duration": 0.1320755333333068, "durationTicks": 28, "midi": 55, "name": "G3", "ticks": 35520, "time": 168.92020200000002, "velocity": 0.7716535433070866}, {"duration": 0.26415106666667043, "durationTicks": 56, "midi": 24, "name": "C1", "ticks": 35759, "time": 170.04756101666666, "velocity": 0.7874015748031497}, {"duration": 0.2735850333333474, "durationTicks": 58, "midi": 36, "name": "C2", "ticks": 35759, "time": 170.04756101666666, "velocity": 0.7322834645669292}, {"duration": 0.12264156666665826, "durationTicks": 26, "midi": 60, "name": "C4", "ticks": 35999, "time": 171.17963701666667, "velocity": 0.7480314960629921}, {"duration": 0.13207553333333522, "durationTicks": 28, "midi": 55, "name": "G3", "ticks": 36000, "time": 171.184354, "velocity": 0.7007874015748031}, {"duration": 0.19339631666667856, "durationTicks": 41, "midi": 31, "name": "G1", "ticks": 36240, "time": 172.31643, "velocity": 0.84251968503937}, {"duration": 0.22641519999999105, "durationTicks": 48, "midi": 43, "name": "G2", "ticks": 36240, "time": 172.31643, "velocity": 0.8346456692913385}, {"duration": 0.11792458333334821, "durationTicks": 25, "midi": 62, "name": "D4", "ticks": 36479, "time": 173.44378901666667, "velocity": 0.8031496062992126}, {"duration": 0.10849061666667126, "durationTicks": 23, "midi": 59, "name": "B3", "ticks": 36479, "time": 173.44378901666667, "velocity": 0.8188976377952756}, {"duration": 0.19339631666665014, "durationTicks": 41, "midi": 26, "name": "D1", "ticks": 36719, "time": 174.57586501666668, "velocity": 0.8188976377952756}, {"duration": 0.23113218333332952, "durationTicks": 49, "midi": 38, "name": "D2", "ticks": 36719, "time": 174.57586501666668, "velocity": 0.7716535433070866}, {"duration": 0.14622648333335064, "durationTicks": 31, "midi": 62, "name": "D4", "ticks": 36959, "time": 175.70794101666667, "velocity": 0.7952755905511811}, {"duration": 0.11320760000000973, "durationTicks": 24, "midi": 57, "name": "A3", "ticks": 36960, "time": 175.712658, "velocity": 0.8188976377952756}, {"duration": 0.24528313333331653, "durationTicks": 52, "midi": 28, "name": "E1", "ticks": 37199, "time": 176.84001701666668, "velocity": 0.8110236220472441}, {"duration": 0.3160378833333084, "durationTicks": 67, "midi": 40, "name": "E2", "ticks": 37200, "time": 176.84473400000002, "velocity": 0.8110236220472441}, {"duration": 0.12735854999999674, "durationTicks": 27, "midi": 59, "name": "B3", "ticks": 37440, "time": 177.97681, "velocity": 0.7716535433070866}, {"duration": 0.13207553333333522, "durationTicks": 28, "midi": 55, "name": "G3", "ticks": 37440, "time": 177.97681, "velocity": 0.7716535433070866}, {"duration": 0.26415106666667043, "durationTicks": 56, "midi": 24, "name": "C1", "ticks": 37679, "time": 179.10416901666667, "velocity": 0.7874015748031497}, {"duration": 0.27358503333331896, "durationTicks": 58, "midi": 36, "name": "C2", "ticks": 37679, "time": 179.10416901666667, "velocity": 0.7322834645669292}, {"duration": 0.12264156666668669, "durationTicks": 26, "midi": 60, "name": "C4", "ticks": 37919, "time": 180.23624501666666, "velocity": 0.7480314960629921}, {"duration": 0.13207553333333522, "durationTicks": 28, "midi": 55, "name": "G3", "ticks": 37920, "time": 180.240962, "velocity": 0.7007874015748031}, {"duration": 0.19339631666667856, "durationTicks": 41, "midi": 31, "name": "G1", "ticks": 38160, "time": 181.373038, "velocity": 0.84251968503937}, {"duration": 0.22641519999999105, "durationTicks": 48, "midi": 43, "name": "G2", "ticks": 38160, "time": 181.373038, "velocity": 0.8346456692913385}, {"duration": 0.11792458333331979, "durationTicks": 25, "midi": 62, "name": "D4", "ticks": 38399, "time": 182.50039701666668, "velocity": 0.8031496062992126}, {"duration": 0.10849061666664284, "durationTicks": 23, "midi": 59, "name": "B3", "ticks": 38399, "time": 182.50039701666668, "velocity": 0.8188976377952756}, {"duration": 0.1839623500000016, "durationTicks": 39, "midi": 24, "name": "C1", "ticks": 38640, "time": 183.63719, "velocity": 0.8818897637795275}, {"duration": 0.22641519999999105, "durationTicks": 48, "midi": 36, "name": "C2", "ticks": 38640, "time": 183.63719, "velocity": 0.7795275590551181}, {"duration": 0.13679251666664527, "durationTicks": 29, "midi": 62, "name": "D4", "ticks": 38880, "time": 184.76926600000002, "velocity": 0.7795275590551181}, {"duration": 0.12264156666665826, "durationTicks": 26, "midi": 57, "name": "A3", "ticks": 38880, "time": 184.76926600000002, "velocity": 0.7952755905511811}, {"duration": 0.15566044999999917, "durationTicks": 33, "midi": 26, "name": "D1", "ticks": 38881, "time": 184.77398298333333, "velocity": 0.6062992125984252}, {"duration": 0.19339631666667856, "durationTicks": 41, "midi": 38, "name": "D2", "ticks": 38881, "time": 184.77398298333333, "velocity": 0.5984251968503937}, {"duration": 0.19339631666667856, "durationTicks": 41, "midi": 33, "name": "A1", "ticks": 39120, "time": 185.901342, "velocity": 0.84251968503937}, {"duration": 0.22641520000001947, "durationTicks": 48, "midi": 45, "name": "A2", "ticks": 39120, "time": 185.901342, "velocity": 0.8346456692913385}, {"duration": 0.11792458333331979, "durationTicks": 25, "midi": 64, "name": "E4", "ticks": 39359, "time": 187.02870101666667, "velocity": 0.8031496062992126}, {"duration": 0.10849061666667126, "durationTicks": 23, "midi": 61, "name": "C#4", "ticks": 39359, "time": 187.02870101666667, "velocity": 0.8188976377952756}, {"duration": 0.19339631666667856, "durationTicks": 41, "midi": 28, "name": "E1", "ticks": 39599, "time": 188.16077701666666, "velocity": 0.8188976377952756}, {"duration": 0.23113218333335794, "durationTicks": 49, "midi": 40, "name": "E2", "ticks": 39599, "time": 188.16077701666666, "velocity": 0.7716535433070866}, {"duration": 0.14622648333332222, "durationTicks": 31, "midi": 64, "name": "E4", "ticks": 39839, "time": 189.29285301666667, "velocity": 0.7952755905511811}, {"duration": 0.11320760000000973, "durationTicks": 24, "midi": 59, "name": "B3", "ticks": 39840, "time": 189.29757, "velocity": 0.8188976377952756}, {"duration": 0.24528313333331653, "durationTicks": 52, "midi": 30, "name": "F#1", "ticks": 40079, "time": 190.42492901666668, "velocity": 0.8110236220472441}, {"duration": 0.31603788333336524, "durationTicks": 67, "midi": 42, "name": "F#2", "ticks": 40080, "time": 190.429646, "velocity": 0.8110236220472441}, {"duration": 0.12735854999999674, "durationTicks": 27, "midi": 61, "name": "C#4", "ticks": 40320, "time": 191.561722, "velocity": 0.7716535433070866}, {"duration": 0.13207553333333522, "durationTicks": 28, "midi": 57, "name": "A3", "ticks": 40320, "time": 191.561722, "velocity": 0.7716535433070866}, {"duration": 0.264151066666642, "durationTicks": 56, "midi": 26, "name": "D1", "ticks": 40559, "time": 192.68908101666668, "velocity": 0.7874015748031497}, {"duration": 0.27358503333331896, "durationTicks": 58, "midi": 38, "name": "D2", "ticks": 40559, "time": 192.68908101666668, "velocity": 0.7322834645669292}, {"duration": 0.12264156666665826, "durationTicks": 26, "midi": 62, "name": "D4", "ticks": 40799, "time": 193.82115701666666, "velocity": 0.7480314960629921}, {"duration": 0.13207553333333522, "durationTicks": 28, "midi": 57, "name": "A3", "ticks": 40800, "time": 193.825874, "velocity": 0.7007874015748031}, {"duration": 0.19339631666665014, "durationTicks": 41, "midi": 33, "name": "A1", "ticks": 41040, "time": 194.95795, "velocity": 0.84251968503937}, {"duration": 0.22641519999999105, "durationTicks": 48, "midi": 45, "name": "A2", "ticks": 41040, "time": 194.95795, "velocity": 0.8346456692913385}, {"duration": 0.11792458333334821, "durationTicks": 25, "midi": 64, "name": "E4", "ticks": 41279, "time": 196.08530901666666, "velocity": 0.8031496062992126}, {"duration": 0.10849061666669968, "durationTicks": 23, "midi": 61, "name": "C#4", "ticks": 41279, "time": 196.08530901666666, "velocity": 0.8188976377952756}, {"duration": 0.19339631666665014, "durationTicks": 41, "midi": 28, "name": "E1", "ticks": 41519, "time": 197.21738501666667, "velocity": 0.8188976377952756}, {"duration": 0.23113218333332952, "durationTicks": 49, "midi": 40, "name": "E2", "ticks": 41519, "time": 197.21738501666667, "velocity": 0.7716535433070866}, {"duration": 0.14622648333332222, "durationTicks": 31, "midi": 64, "name": "E4", "ticks": 41759, "time": 198.34946101666668, "velocity": 0.7952755905511811}, {"duration": 0.11320760000000973, "durationTicks": 24, "midi": 59, "name": "B3", "ticks": 41760, "time": 198.354178, "velocity": 0.8188976377952756}, {"duration": 0.24528313333334495, "durationTicks": 52, "midi": 30, "name": "F#1", "ticks": 41999, "time": 199.48153701666666, "velocity": 0.8110236220472441}, {"duration": 0.3160378833333368, "durationTicks": 67, "midi": 42, "name": "F#2", "ticks": 42000, "time": 199.486254, "velocity": 0.8110236220472441}, {"duration": 0.12735854999999674, "durationTicks": 27, "midi": 61, "name": "C#4", "ticks": 42240, "time": 200.61833000000001, "velocity": 0.7716535433070866}, {"duration": 0.1320755333333068, "durationTicks": 28, "midi": 57, "name": "A3", "ticks": 42240, "time": 200.61833000000001, "velocity": 0.7716535433070866}, {"duration": 0.26415106666667043, "durationTicks": 56, "midi": 26, "name": "D1", "ticks": 42479, "time": 201.74568901666666, "velocity": 0.7874015748031497}, {"duration": 0.2735850333333474, "durationTicks": 58, "midi": 38, "name": "D2", "ticks": 42479, "time": 201.74568901666666, "velocity": 0.7322834645669292}, {"duration": 0.12264156666665826, "durationTicks": 26, "midi": 62, "name": "D4", "ticks": 42719, "time": 202.87776501666667, "velocity": 0.7480314960629921}, {"duration": 0.13207553333333522, "durationTicks": 28, "midi": 57, "name": "A3", "ticks": 42720, "time": 202.882482, "velocity": 0.7007874015748031}, {"duration": 0.19339631666665014, "durationTicks": 41, "midi": 33, "name": "A1", "ticks": 42960, "time": 204.01455800000002, "velocity": 0.84251968503937}, {"duration": 0.22641519999999105, "durationTicks": 48, "midi": 45, "name": "A2", "ticks": 42960, "time": 204.01455800000002, "velocity": 0.8346456692913385}, {"duration": 0.11792458333334821, "durationTicks": 25, "midi": 64, "name": "E4", "ticks": 43199, "time": 205.14191701666667, "velocity": 0.8031496062992126}, {"duration": 0.10849061666667126, "durationTicks": 23, "midi": 61, "name": "C#4", "ticks": 43199, "time": 205.14191701666667, "velocity": 0.8188976377952756}, {"duration": 0.1839623500000016, "durationTicks": 39, "midi": 26, "name": "D1", "ticks": 43440, "time": 206.27871, "velocity": 0.8818897637795275}, {"duration": 0.22641520000001947, "durationTicks": 48, "midi": 38, "name": "D2", "ticks": 43440, "time": 206.27871, "velocity": 0.7795275590551181}, {"duration": 0.13679251666664527, "durationTicks": 29, "midi": 64, "name": "E4", "ticks": 43680, "time": 207.410786, "velocity": 0.7795275590551181}, {"duration": 0.12264156666665826, "durationTicks": 26, "midi": 59, "name": "B3", "ticks": 43680, "time": 207.410786, "velocity": 0.7952755905511811}, {"duration": 0.15566044999999917, "durationTicks": 33, "midi": 28, "name": "E1", "ticks": 43681, "time": 207.41550298333334, "velocity": 0.6062992125984252}, {"duration": 0.19339631666667856, "durationTicks": 41, "midi": 40, "name": "E2", "ticks": 43681, "time": 207.41550298333334, "velocity": 0.5984251968503937}, {"duration": 0.19339631666667856, "durationTicks": 41, "midi": 33, "name": "A1", "ticks": 43920, "time": 208.542862, "velocity": 0.84251968503937}, {"duration": 0.22641519999999105, "durationTicks": 48, "midi": 45, "name": "A2", "ticks": 43920, "time": 208.542862, "velocity": 0.8346456692913385}, {"duration": 0.11792458333331979, "durationTicks": 25, "midi": 64, "name": "E4", "ticks": 44159, "time": 209.6702210166667, "velocity": 0.8031496062992126}, {"duration": 0.10849061666664284, "durationTicks": 23, "midi": 61, "name": "C#4", "ticks": 44159, "time": 209.6702210166667, "velocity": 0.8188976377952756}, {"duration": 0.19339631666667856, "durationTicks": 41, "midi": 28, "name": "E1", "ticks": 44399, "time": 210.80229701666667, "velocity": 0.8188976377952756}, {"duration": 0.23113218333332952, "durationTicks": 49, "midi": 40, "name": "E2", "ticks": 44399, "time": 210.80229701666667, "velocity": 0.7716535433070866}, {"duration": 0.14622648333335064, "durationTicks": 31, "midi": 64, "name": "E4", "ticks": 44639, "time": 211.93437301666665, "velocity": 0.7952755905511811}, {"duration": 0.11320759999998131, "durationTicks": 24, "midi": 59, "name": "B3", "ticks": 44640, "time": 211.93909000000002, "velocity": 0.8188976377952756}, {"duration": 0.24528313333334495, "durationTicks": 52, "midi": 30, "name": "F#1", "ticks": 44879, "time": 213.06644901666667, "velocity": 0.8110236220472441}, {"duration": 0.3160378833333368, "durationTicks": 67, "midi": 42, "name": "F#2", "ticks": 44880, "time": 213.071166, "velocity": 0.8110236220472441}, {"duration": 0.12735854999999674, "durationTicks": 27, "midi": 61, "name": "C#4", "ticks": 45120, "time": 214.203242, "velocity": 0.7716535433070866}, {"duration": 0.13207553333333522, "durationTicks": 28, "midi": 57, "name": "A3", "ticks": 45120, "time": 214.203242, "velocity": 0.7716535433070866}, {"duration": 0.26415106666667043, "durationTicks": 56, "midi": 26, "name": "D1", "ticks": 45359, "time": 215.33060101666666, "velocity": 0.7874015748031497}, {"duration": 0.2735850333333474, "durationTicks": 58, "midi": 38, "name": "D2", "ticks": 45359, "time": 215.33060101666666, "velocity": 0.7322834645669292}, {"duration": 0.12264156666665826, "durationTicks": 26, "midi": 62, "name": "D4", "ticks": 45599, "time": 216.46267701666667, "velocity": 0.7480314960629921}, {"duration": 0.1320755333333068, "durationTicks": 28, "midi": 57, "name": "A3", "ticks": 45600, "time": 216.467394, "velocity": 0.7007874015748031}, {"duration": 0.19339631666667856, "durationTicks": 41, "midi": 33, "name": "A1", "ticks": 45840, "time": 217.59947, "velocity": 0.84251968503937}, {"duration": 0.22641520000001947, "durationTicks": 48, "midi": 45, "name": "A2", "ticks": 45840, "time": 217.59947, "velocity": 0.8346456692913385}, {"duration": 0.11792458333331979, "durationTicks": 25, "midi": 64, "name": "E4", "ticks": 46079, "time": 218.72682901666667, "velocity": 0.8031496062992126}, {"duration": 0.10849061666667126, "durationTicks": 23, "midi": 61, "name": "C#4", "ticks": 46079, "time": 218.72682901666667, "velocity": 0.8188976377952756}, {"duration": 0.19339631666665014, "durationTicks": 41, "midi": 28, "name": "E1", "ticks": 46319, "time": 219.85890501666668, "velocity": 0.8188976377952756}, {"duration": 0.23113218333332952, "durationTicks": 49, "midi": 40, "name": "E2", "ticks": 46319, "time": 219.85890501666668, "velocity": 0.7716535433070866}, {"duration": 0.1462264833332938, "durationTicks": 31, "midi": 64, "name": "E4", "ticks": 46559, "time": 220.9909810166667, "velocity": 0.7952755905511811}, {"duration": 0.11320760000000973, "durationTicks": 24, "midi": 59, "name": "B3", "ticks": 46560, "time": 220.995698, "velocity": 0.8188976377952756}, {"duration": 0.24528313333331653, "durationTicks": 52, "midi": 30, "name": "F#1", "ticks": 46799, "time": 222.12305701666668, "velocity": 0.8110236220472441}, {"duration": 0.31603788333336524, "durationTicks": 67, "midi": 42, "name": "F#2", "ticks": 46800, "time": 222.127774, "velocity": 0.8110236220472441}, {"duration": 0.12735854999999674, "durationTicks": 27, "midi": 61, "name": "C#4", "ticks": 47040, "time": 223.25985, "velocity": 0.7716535433070866}, {"duration": 0.13207553333333522, "durationTicks": 28, "midi": 57, "name": "A3", "ticks": 47040, "time": 223.25985, "velocity": 0.7716535433070866}, {"duration": 0.26415106666667043, "durationTicks": 56, "midi": 26, "name": "D1", "ticks": 47279, "time": 224.38720901666667, "velocity": 0.7874015748031497}, {"duration": 0.27358503333331896, "durationTicks": 58, "midi": 38, "name": "D2", "ticks": 47279, "time": 224.38720901666667, "velocity": 0.7322834645669292}, {"duration": 0.12264156666665826, "durationTicks": 26, "midi": 62, "name": "D4", "ticks": 47519, "time": 225.5192850166667, "velocity": 0.7480314960629921}, {"duration": 0.13207553333333522, "durationTicks": 28, "midi": 57, "name": "A3", "ticks": 47520, "time": 225.524002, "velocity": 0.7007874015748031}, {"duration": 0.19339631666665014, "durationTicks": 41, "midi": 33, "name": "A1", "ticks": 47760, "time": 226.656078, "velocity": 0.84251968503937}, {"duration": 0.22641519999999105, "durationTicks": 48, "midi": 45, "name": "A2", "ticks": 47760, "time": 226.656078, "velocity": 0.8346456692913385}, {"duration": 0.11792458333331979, "durationTicks": 25, "midi": 64, "name": "E4", "ticks": 47999, "time": 227.78343701666668, "velocity": 0.8031496062992126}, {"duration": 0.10849061666667126, "durationTicks": 23, "midi": 61, "name": "C#4", "ticks": 47999, "time": 227.78343701666668, "velocity": 0.8188976377952756}, {"duration": 0.1839623500000016, "durationTicks": 39, "midi": 26, "name": "D1", "ticks": 48240, "time": 228.92023, "velocity": 0.8818897637795275}, {"duration": 0.22641520000001947, "durationTicks": 48, "midi": 38, "name": "D2", "ticks": 48240, "time": 228.92023, "velocity": 0.7795275590551181}, {"duration": 0.1367925166666737, "durationTicks": 29, "midi": 64, "name": "E4", "ticks": 48480, "time": 230.052306, "velocity": 0.7795275590551181}, {"duration": 0.12264156666668669, "durationTicks": 26, "midi": 59, "name": "B3", "ticks": 48480, "time": 230.052306, "velocity": 0.7952755905511811}, {"duration": 0.15566044999997075, "durationTicks": 33, "midi": 28, "name": "E1", "ticks": 48481, "time": 230.05702298333335, "velocity": 0.6062992125984252}, {"duration": 0.19339631666665014, "durationTicks": 41, "midi": 40, "name": "E2", "ticks": 48481, "time": 230.05702298333335, "velocity": 0.5984251968503937}, {"duration": 0.1367925166666737, "durationTicks": 29, "midi": 45, "name": "A2", "ticks": 50760, "time": 240.807028, "velocity": 0.7874015748031497}, {"duration": 0.09433966666665583, "durationTicks": 20, "midi": 57, "name": "A3", "ticks": 50760, "time": 240.807028, "velocity": 0.8346456692913385}, {"duration": 0.08962268333334578, "durationTicks": 19, "midi": 69, "name": "A4", "ticks": 50760, "time": 240.807028, "velocity": 0.8346456692913385}]}, {"channel": 0, "controlChanges": {"0": [{"number": 0, "ticks": 130, "time": 0.6132078333333333, "value": 0}]}, "pitchBends": [], "instrument": {"family": "piano", "number": 0, "name": "acoustic grand piano"}, "name": "Strings2", "notes": [], "endOfTrackTicks": 49440}, {"channel": 2, "controlChanges": {"6": [{"number": 6, "ticks": 165, "time": 0.7783022500000001, "value": 0.015748031496062992}, {"number": 6, "ticks": 176, "time": 0.8301890666666667, "value": 0.5433070866141733}], "7": [{"number": 7, "ticks": 133, "time": 0.6273587833333334, "value": 0.7086614173228346}], "10": [{"number": 10, "ticks": 133, "time": 0.6273587833333334, "value": 0.31496062992125984}], "11": [{"number": 11, "ticks": 13557, "time": 63.94814305, "value": 1}, {"number": 11, "ticks": 13602, "time": 64.1604073, "value": 0.9921259842519685}, {"number": 11, "ticks": 13617, "time": 64.23116205, "value": 0.9763779527559056}, {"number": 11, "ticks": 13632, "time": 64.3019168, "value": 0.968503937007874}, {"number": 11, "ticks": 13647, "time": 64.37267155, "value": 0.952755905511811}, {"number": 11, "ticks": 13662, "time": 64.4434263, "value": 0.937007874015748}, {"number": 11, "ticks": 13677, "time": 64.51418105, "value": 0.9291338582677166}, {"number": 11, "ticks": 13692, "time": 64.5849358, "value": 0.9133858267716536}, {"number": 11, "ticks": 13707, "time": 64.65569055, "value": 0.905511811023622}, {"number": 11, "ticks": 13722, "time": 64.7264453, "value": 0.889763779527559}, {"number": 11, "ticks": 13737, "time": 64.79720005, "value": 0.8818897637795275}, {"number": 11, "ticks": 13752, "time": 64.8679548, "value": 0.8661417322834646}, {"number": 11, "ticks": 13767, "time": 64.93870955, "value": 0.8503937007874016}, {"number": 11, "ticks": 13782, "time": 65.0094643, "value": 0.84251968503937}, {"number": 11, "ticks": 13797, "time": 65.08021905, "value": 0.8267716535433071}, {"number": 11, "ticks": 13812, "time": 65.1509738, "value": 0.8188976377952756}, {"number": 11, "ticks": 13827, "time": 65.22172855, "value": 0.8031496062992126}, {"number": 11, "ticks": 13842, "time": 65.2924833, "value": 0.7952755905511811}, {"number": 11, "ticks": 13857, "time": 65.36323805, "value": 0.7795275590551181}, {"number": 11, "ticks": 13872, "time": 65.4339928, "value": 0.7637795275590551}, {"number": 11, "ticks": 13887, "time": 65.50474755, "value": 0.7559055118110236}, {"number": 11, "ticks": 13902, "time": 65.5755023, "value": 0.7401574803149606}, {"number": 11, "ticks": 13917, "time": 65.64625705, "value": 0.7322834645669292}, {"number": 11, "ticks": 13932, "time": 65.7170118, "value": 0.7165354330708661}, {"number": 11, "ticks": 13947, "time": 65.78776655, "value": 0.7086614173228346}, {"number": 11, "ticks": 13962, "time": 65.8585213, "value": 0.6929133858267716}, {"number": 11, "ticks": 13977, "time": 65.92927605, "value": 0.6850393700787402}, {"number": 11, "ticks": 13992, "time": 66.0000308, "value": 0.6692913385826772}, {"number": 11, "ticks": 14007, "time": 66.07078555, "value": 0.6535433070866141}, {"number": 11, "ticks": 14022, "time": 66.1415403, "value": 0.6456692913385826}, {"number": 11, "ticks": 14037, "time": 66.21229505, "value": 0.6299212598425197}, {"number": 11, "ticks": 14052, "time": 66.2830498, "value": 0.6220472440944882}, {"number": 11, "ticks": 14067, "time": 66.35380455, "value": 0.6062992125984252}, {"number": 11, "ticks": 14082, "time": 66.4245593, "value": 0.5984251968503937}, {"number": 11, "ticks": 14097, "time": 66.49531405, "value": 0.5826771653543307}, {"number": 11, "ticks": 14112, "time": 66.5660688, "value": 0.5669291338582677}, {"number": 11, "ticks": 14127, "time": 66.63682355, "value": 0.5590551181102362}, {"number": 11, "ticks": 14142, "time": 66.70757830000001, "value": 0.5433070866141733}, {"number": 11, "ticks": 14157, "time": 66.77833305, "value": 0.5354330708661418}, {"number": 11, "ticks": 14172, "time": 66.8490878, "value": 0.5196850393700787}, {"number": 11, "ticks": 14187, "time": 66.91984255, "value": 0.5118110236220472}, {"number": 11, "ticks": 14202, "time": 66.9905973, "value": 0.49606299212598426}, {"number": 11, "ticks": 14217, "time": 67.06135205, "value": 0.48031496062992124}, {"number": 11, "ticks": 14232, "time": 67.1321068, "value": 0.47244094488188976}, {"number": 11, "ticks": 14247, "time": 67.20286155000001, "value": 0.4566929133858268}, {"number": 11, "ticks": 14262, "time": 67.2736163, "value": 0.44881889763779526}, {"number": 11, "ticks": 14277, "time": 67.34437105, "value": 0.4330708661417323}, {"number": 11, "ticks": 14292, "time": 67.4151258, "value": 0.4251968503937008}, {"number": 11, "ticks": 14307, "time": 67.48588055, "value": 0.4094488188976378}, {"number": 11, "ticks": 14322, "time": 67.5566353, "value": 0.3937007874015748}, {"number": 11, "ticks": 14337, "time": 67.62739005, "value": 0.3858267716535433}, {"number": 11, "ticks": 14352, "time": 67.69814480000001, "value": 0.3700787401574803}, {"number": 11, "ticks": 14382, "time": 67.8396543, "value": 1}, {"number": 11, "ticks": 29037, "time": 137.599552, "value": 1}, {"number": 11, "ticks": 29052, "time": 137.693302, "value": 0.984251968503937}, {"number": 11, "ticks": 29067, "time": 137.787052, "value": 0.9606299212598425}, {"number": 11, "ticks": 29082, "time": 137.880802, "value": 0.937007874015748}, {"number": 11, "ticks": 29097, "time": 137.974552, "value": 0.9212598425196851}, {"number": 11, "ticks": 29112, "time": 138.068302, "value": 0.8976377952755905}, {"number": 11, "ticks": 29127, "time": 138.162052, "value": 0.8740157480314961}, {"number": 11, "ticks": 29142, "time": 138.255802, "value": 0.8503937007874016}, {"number": 11, "ticks": 29157, "time": 138.349552, "value": 0.8346456692913385}, {"number": 11, "ticks": 29172, "time": 138.443302, "value": 0.8110236220472441}, {"number": 11, "ticks": 29187, "time": 138.537052, "value": 0.7874015748031497}, {"number": 11, "ticks": 29202, "time": 138.630802, "value": 0.7716535433070866}, {"number": 11, "ticks": 29217, "time": 138.724552, "value": 0.7480314960629921}, {"number": 11, "ticks": 29232, "time": 138.818302, "value": 0.7244094488188977}, {"number": 11, "ticks": 29247, "time": 138.912052, "value": 0.7007874015748031}, {"number": 11, "ticks": 29262, "time": 139.005802, "value": 0.6850393700787402}, {"number": 11, "ticks": 29277, "time": 139.099552, "value": 0.6614173228346457}, {"number": 11, "ticks": 29292, "time": 139.193302, "value": 0.6377952755905512}, {"number": 11, "ticks": 29307, "time": 139.287052, "value": 0.6220472440944882}, {"number": 11, "ticks": 29322, "time": 139.380802, "value": 0.5984251968503937}, {"number": 11, "ticks": 29337, "time": 139.474552, "value": 0.5748031496062992}, {"number": 11, "ticks": 29352, "time": 139.568302, "value": 0.5511811023622047}, {"number": 11, "ticks": 29367, "time": 139.662052, "value": 0.5354330708661418}, {"number": 11, "ticks": 29382, "time": 139.755802, "value": 0.5118110236220472}, {"number": 11, "ticks": 29397, "time": 139.849552, "value": 0.4881889763779528}, {"number": 11, "ticks": 29412, "time": 139.943302, "value": 0.4645669291338583}, {"number": 11, "ticks": 29427, "time": 140.037052, "value": 0.44881889763779526}, {"number": 11, "ticks": 29442, "time": 140.130802, "value": 0.4251968503937008}, {"number": 11, "ticks": 29457, "time": 140.224552, "value": 0.4015748031496063}, {"number": 11, "ticks": 29472, "time": 140.318302, "value": 0.3858267716535433}, {"number": 11, "ticks": 29487, "time": 140.412052, "value": 0.36220472440944884}, {"number": 11, "ticks": 29502, "time": 140.505802, "value": 0.33858267716535434}, {"number": 11, "ticks": 29517, "time": 140.599552, "value": 1}], "72": [{"number": 72, "ticks": 172, "time": 0.8113211333333334, "value": 0.5433070866141733}], "91": [{"number": 91, "ticks": 166, "time": 0.7830192333333333, "value": 0.6299212598425197}], "93": [{"number": 93, "ticks": 167, "time": 0.7877362166666667, "value": 0.31496062992125984}], "98": [{"number": 98, "ticks": 174, "time": 0.8207551000000001, "value": 0.8031496062992126}], "99": [{"number": 99, "ticks": 175, "time": 0.8254720833333333, "value": 0.007874015748031496}], "100": [{"number": 100, "ticks": 163, "time": 0.7688682833333335, "value": 0}], "101": [{"number": 101, "ticks": 164, "time": 0.7735852666666667, "value": 0}], "121": [{"number": 121, "ticks": 160, "time": 0.7547173333333334, "value": 0}]}, "pitchBends": [], "instrument": {"family": "ensemble", "number": 49, "name": "string ensemble 2"}, "name": "", "notes": [{"duration": 2.3018878666666667, "durationTicks": 488, "midi": 43, "name": "G2", "ticks": 717, "time": 3.38207705, "velocity": 0.5748031496062992}, {"duration": 2.1650953500000005, "durationTicks": 459, "midi": 55, "name": "G3", "ticks": 718, "time": 3.3867940333333335, "velocity": 0.47244094488188976}, {"duration": 2.2500010500000007, "durationTicks": 477, "midi": 59, "name": "B3", "ticks": 718, "time": 3.3867940333333335, "velocity": 0.48031496062992124}, {"duration": 2.1886802666666663, "durationTicks": 464, "midi": 62, "name": "D4", "ticks": 718, "time": 3.3867940333333335, "velocity": 0.5590551181102362}, {"duration": 4.476417183333334, "durationTicks": 949, "midi": 62, "name": "D4", "ticks": 1197, "time": 5.6462290500000005, "velocity": 0.4566929133858268}, {"duration": 1.0801891833333332, "durationTicks": 229, "midi": 55, "name": "G3", "ticks": 1197, "time": 5.6462290500000005, "velocity": 0.5275590551181102}, {"duration": 2.1933972499999994, "durationTicks": 465, "midi": 57, "name": "A3", "ticks": 1198, "time": 5.650946033333334, "velocity": 0.5590551181102362}, {"duration": 2.2452840666666667, "durationTicks": 476, "midi": 50, "name": "D3", "ticks": 1198, "time": 5.650946033333334, "velocity": 0.5748031496062992}, {"duration": 1.1273590166666674, "durationTicks": 239, "midi": 54, "name": "F#3", "ticks": 1436, "time": 6.773588066666667, "velocity": 0.47244094488188976}, {"duration": 2.250001049999999, "durationTicks": 477, "midi": 52, "name": "E3", "ticks": 1676, "time": 7.9056640666666675, "velocity": 0.5984251968503937}, {"duration": 2.146227416666666, "durationTicks": 455, "midi": 55, "name": "G3", "ticks": 1677, "time": 7.910381050000001, "velocity": 0.48031496062992124}, {"duration": 2.264152, "durationTicks": 480, "midi": 59, "name": "B3", "ticks": 1677, "time": 7.910381050000001, "velocity": 0.5511811023622047}, {"duration": 2.2452840666666667, "durationTicks": 476, "midi": 60, "name": "C4", "ticks": 2158, "time": 10.179250033333334, "velocity": 0.49606299212598426}, {"duration": 2.226416133333334, "durationTicks": 472, "midi": 52, "name": "E3", "ticks": 2158, "time": 10.179250033333334, "velocity": 0.5669291338582677}, {"duration": 2.2311331166666672, "durationTicks": 473, "midi": 55, "name": "G3", "ticks": 2158, "time": 10.179250033333334, "velocity": 0.48031496062992124}, {"duration": 2.2405670833333335, "durationTicks": 475, "midi": 48, "name": "C3", "ticks": 2159, "time": 10.183967016666667, "velocity": 0.5511811023622047}, {"duration": 2.3018878666666662, "durationTicks": 488, "midi": 43, "name": "G2", "ticks": 2637, "time": 12.438685050000002, "velocity": 0.5748031496062992}, {"duration": 2.1650953499999996, "durationTicks": 459, "midi": 55, "name": "G3", "ticks": 2638, "time": 12.443402033333335, "velocity": 0.47244094488188976}, {"duration": 2.250001049999998, "durationTicks": 477, "midi": 59, "name": "B3", "ticks": 2638, "time": 12.443402033333335, "velocity": 0.48031496062992124}, {"duration": 2.188680266666667, "durationTicks": 464, "midi": 62, "name": "D4", "ticks": 2638, "time": 12.443402033333335, "velocity": 0.5590551181102362}, {"duration": 4.476417183333334, "durationTicks": 949, "midi": 62, "name": "D4", "ticks": 3117, "time": 14.702837050000001, "velocity": 0.4566929133858268}, {"duration": 1.0801891833333332, "durationTicks": 229, "midi": 55, "name": "G3", "ticks": 3117, "time": 14.702837050000001, "velocity": 0.5275590551181102}, {"duration": 2.1933972500000003, "durationTicks": 465, "midi": 57, "name": "A3", "ticks": 3118, "time": 14.707554033333334, "velocity": 0.5590551181102362}, {"duration": 2.2452840666666667, "durationTicks": 476, "midi": 50, "name": "D3", "ticks": 3118, "time": 14.707554033333334, "velocity": 0.5748031496062992}, {"duration": 1.1273590166666647, "durationTicks": 239, "midi": 54, "name": "F#3", "ticks": 3356, "time": 15.830196066666668, "velocity": 0.47244094488188976}, {"duration": 2.2500010500000016, "durationTicks": 477, "midi": 52, "name": "E3", "ticks": 3596, "time": 16.962272066666667, "velocity": 0.5984251968503937}, {"duration": 2.1462274166666653, "durationTicks": 455, "midi": 55, "name": "G3", "ticks": 3597, "time": 16.966989050000002, "velocity": 0.48031496062992124}, {"duration": 2.2641519999999993, "durationTicks": 480, "midi": 59, "name": "B3", "ticks": 3597, "time": 16.966989050000002, "velocity": 0.5511811023622047}, {"duration": 2.2452840666666667, "durationTicks": 476, "midi": 60, "name": "C4", "ticks": 4078, "time": 19.235858033333336, "velocity": 0.49606299212598426}, {"duration": 2.2264161333333305, "durationTicks": 472, "midi": 52, "name": "E3", "ticks": 4078, "time": 19.235858033333336, "velocity": 0.5669291338582677}, {"duration": 2.231133116666662, "durationTicks": 473, "midi": 55, "name": "G3", "ticks": 4078, "time": 19.235858033333336, "velocity": 0.48031496062992124}, {"duration": 2.2405670833333353, "durationTicks": 475, "midi": 48, "name": "C3", "ticks": 4079, "time": 19.240575016666668, "velocity": 0.5511811023622047}, {"duration": 2.2500010500000016, "durationTicks": 477, "midi": 43, "name": "G2", "ticks": 4557, "time": 21.49529305, "velocity": 0.5590551181102362}, {"duration": 2.188680266666669, "durationTicks": 464, "midi": 55, "name": "G3", "ticks": 4557, "time": 21.49529305, "velocity": 0.4094488188976378}, {"duration": 2.2500010500000016, "durationTicks": 477, "midi": 50, "name": "D3", "ticks": 4557, "time": 21.49529305, "velocity": 0.5590551181102362}, {"duration": 2.2358501000000004, "durationTicks": 474, "midi": 62, "name": "D4", "ticks": 4557, "time": 21.49529305, "velocity": 0.3937007874015748}, {"duration": 2.2830199333333354, "durationTicks": 484, "midi": 59, "name": "B3", "ticks": 4557, "time": 21.49529305, "velocity": 0.5118110236220472}, {"duration": 1.146226949999999, "durationTicks": 243, "midi": 36, "name": "C2", "ticks": 5037, "time": 23.759445050000004, "velocity": 0.4015748031496063}, {"duration": 1.146226949999999, "durationTicks": 243, "midi": 52, "name": "E3", "ticks": 5040, "time": 23.773596, "velocity": 0.5275590551181102}, {"duration": 1.0896231499999978, "durationTicks": 231, "midi": 60, "name": "C4", "ticks": 5040, "time": 23.773596, "velocity": 0.47244094488188976}, {"duration": 1.146226949999999, "durationTicks": 243, "midi": 48, "name": "C3", "ticks": 5040, "time": 23.773596, "velocity": 0.4015748031496063}, {"duration": 1.0896231499999978, "durationTicks": 231, "midi": 55, "name": "G3", "ticks": 5040, "time": 23.773596, "velocity": 0.4566929133858268}, {"duration": 1.0754722, "durationTicks": 228, "midi": 38, "name": "D2", "ticks": 5277, "time": 24.89152105, "velocity": 0.5196850393700787}, {"duration": 1.0943401333333291, "durationTicks": 232, "midi": 62, "name": "D4", "ticks": 5280, "time": 24.905672000000003, "velocity": 0.31496062992125984}, {"duration": 1.0896231499999978, "durationTicks": 231, "midi": 57, "name": "A3", "ticks": 5280, "time": 24.905672000000003, "velocity": 0.31496062992125984}, {"duration": 1.0896231499999978, "durationTicks": 231, "midi": 54, "name": "F#3", "ticks": 5280, "time": 24.905672000000003, "velocity": 0.3543307086614173}, {"duration": 1.0754722, "durationTicks": 228, "midi": 50, "name": "D3", "ticks": 5280, "time": 24.905672000000003, "velocity": 0.5196850393700787}, {"duration": 4.561322883333332, "durationTicks": 967, "midi": 38, "name": "D2", "ticks": 5517, "time": 26.023597050000003, "velocity": 0.5590551181102362}, {"duration": 4.500002099999996, "durationTicks": 954, "midi": 62, "name": "D4", "ticks": 5517, "time": 26.023597050000003, "velocity": 0.5590551181102362}, {"duration": 4.537737966666665, "durationTicks": 962, "midi": 54, "name": "F#3", "ticks": 5517, "time": 26.023597050000003, "velocity": 0.5590551181102362}, {"duration": 4.5283039999999986, "durationTicks": 960, "midi": 57, "name": "A3", "ticks": 5517, "time": 26.023597050000003, "velocity": 0.5590551181102362}, {"duration": 4.528304000000002, "durationTicks": 960, "midi": 50, "name": "D3", "ticks": 5518, "time": 26.028314033333334, "velocity": 0.5590551181102362}, {"duration": 2.2216991499999956, "durationTicks": 471, "midi": 31, "name": "G1", "ticks": 6480, "time": 30.566052000000003, "velocity": 0.5984251968503937}, {"duration": 2.212265183333333, "durationTicks": 469, "midi": 62, "name": "D4", "ticks": 6480, "time": 30.566052000000003, "velocity": 0.5905511811023622}, {"duration": 2.2169821666666643, "durationTicks": 470, "midi": 55, "name": "G3", "ticks": 6480, "time": 30.566052000000003, "velocity": 0.5984251968503937}, {"duration": 2.2075482000000015, "durationTicks": 468, "midi": 43, "name": "G2", "ticks": 6480, "time": 30.566052000000003, "velocity": 0.5905511811023622}, {"duration": 2.2075482000000015, "durationTicks": 468, "midi": 59, "name": "B3", "ticks": 6480, "time": 30.566052000000003, "velocity": 0.5905511811023622}, {"duration": 1.0707552166666687, "durationTicks": 227, "midi": 48, "name": "C3", "ticks": 6961, "time": 32.83492098333333, "velocity": 0.6377952755905512}, {"duration": 1.08490616666667, "durationTicks": 230, "midi": 36, "name": "C2", "ticks": 6964, "time": 32.849071933333335, "velocity": 0.6850393700787402}, {"duration": 1.155660916666669, "durationTicks": 245, "midi": 38, "name": "D2", "ticks": 7196, "time": 33.94341206666667, "velocity": 0.6614173228346457}, {"duration": 1.099057116666664, "durationTicks": 233, "midi": 50, "name": "D3", "ticks": 7196, "time": 33.94341206666667, "velocity": 0.6456692913385826}, {"duration": 1.1415099666666606, "durationTicks": 242, "midi": 54, "name": "F#3", "ticks": 7197, "time": 33.948129050000006, "velocity": 0.5669291338582677}, {"duration": 1.0754722, "durationTicks": 228, "midi": 52, "name": "E3", "ticks": 7438, "time": 35.084922033333335, "velocity": 0.6456692913385826}, {"duration": 1.108491083333334, "durationTicks": 235, "midi": 55, "name": "G3", "ticks": 7438, "time": 35.084922033333335, "velocity": 0.6377952755905512}, {"duration": 1.1839628166666714, "durationTicks": 251, "midi": 40, "name": "E2", "ticks": 7438, "time": 35.084922033333335, "velocity": 0.6456692913385826}, {"duration": 1.1084910833333268, "durationTicks": 235, "midi": 57, "name": "A3", "ticks": 7678, "time": 36.21699803333334, "velocity": 0.6614173228346457}, {"duration": 1.0707552166666687, "durationTicks": 227, "midi": 54, "name": "F#3", "ticks": 7679, "time": 36.22171501666667, "velocity": 0.5511811023622047}, {"duration": 1.1320759999999979, "durationTicks": 240, "midi": 42, "name": "F#2", "ticks": 7679, "time": 36.22171501666667, "velocity": 0.6299212598425197}, {"duration": 1.1886797999999956, "durationTicks": 252, "midi": 60, "name": "C4", "ticks": 7918, "time": 37.34907403333334, "velocity": 0.5984251968503937}, {"duration": 2.254718033333333, "durationTicks": 478, "midi": 43, "name": "G2", "ticks": 7919, "time": 37.35379101666667, "velocity": 0.6456692913385826}, {"duration": 2.2500010500000016, "durationTicks": 477, "midi": 50, "name": "D3", "ticks": 7919, "time": 37.35379101666667, "velocity": 0.6456692913385826}, {"duration": 2.2452840666666702, "durationTicks": 476, "midi": 55, "name": "G3", "ticks": 7920, "time": 37.358508, "velocity": 0.6614173228346457}, {"duration": 1.0849061666666628, "durationTicks": 230, "midi": 59, "name": "B3", "ticks": 8163, "time": 38.50473495000001, "velocity": 0.6141732283464567}, {"duration": 2.207548199999998, "durationTicks": 468, "midi": 38, "name": "D2", "ticks": 8403, "time": 39.636810950000005, "velocity": 0.5748031496062992}, {"duration": 2.193397250000004, "durationTicks": 465, "midi": 62, "name": "D4", "ticks": 8403, "time": 39.636810950000005, "velocity": 0.6141732283464567}, {"duration": 2.183963283333334, "durationTicks": 463, "midi": 57, "name": "A3", "ticks": 8404, "time": 39.641527933333336, "velocity": 0.6456692913385826}, {"duration": 1.1084910833333268, "durationTicks": 235, "midi": 55, "name": "G3", "ticks": 8404, "time": 39.641527933333336, "velocity": 0.5354330708661418}, {"duration": 1.0754722, "durationTicks": 228, "midi": 54, "name": "F#3", "ticks": 8638, "time": 40.74530203333334, "velocity": 0.5590551181102362}, {"duration": 2.07547266666667, "durationTicks": 440, "midi": 55, "name": "G3", "ticks": 8879, "time": 41.88209501666667, "velocity": 0.4881889763779528}, {"duration": 1.051887283333329, "durationTicks": 223, "midi": 60, "name": "C4", "ticks": 8879, "time": 41.88209501666667, "velocity": 0.5511811023622047}, {"duration": 2.2641519999999957, "durationTicks": 480, "midi": 40, "name": "E2", "ticks": 8879, "time": 41.88209501666667, "velocity": 0.6062992125984252}, {"duration": 2.136793449999999, "durationTicks": 453, "midi": 64, "name": "E4", "ticks": 8879, "time": 41.88209501666667, "velocity": 0.5511811023622047}, {"duration": 1.155660916666669, "durationTicks": 245, "midi": 59, "name": "B3", "ticks": 9115, "time": 42.99530308333333, "velocity": 0.5905511811023622}, {"duration": 1.1415099666666677, "durationTicks": 242, "midi": 60, "name": "C4", "ticks": 9355, "time": 44.12737908333333, "velocity": 0.47244094488188976}, {"duration": 1.028302366666665, "durationTicks": 218, "midi": 55, "name": "G3", "ticks": 9358, "time": 44.14153003333334, "velocity": 0.47244094488188976}, {"duration": 1.1320759999999979, "durationTicks": 240, "midi": 52, "name": "E3", "ticks": 9358, "time": 44.14153003333334, "velocity": 0.47244094488188976}, {"duration": 1.1273590166666594, "durationTicks": 239, "midi": 36, "name": "C2", "ticks": 9358, "time": 44.14153003333334, "velocity": 0.4881889763779528}, {"duration": 1.0990571166666712, "durationTicks": 233, "midi": 62, "name": "D4", "ticks": 9599, "time": 45.27832301666667, "velocity": 0.4015748031496063}, {"duration": 1.0896231500000013, "durationTicks": 231, "midi": 57, "name": "A3", "ticks": 9600, "time": 45.28304, "velocity": 0.4015748031496063}, {"duration": 1.0801891833333386, "durationTicks": 229, "midi": 54, "name": "F#3", "ticks": 9600, "time": 45.28304, "velocity": 0.4015748031496063}, {"duration": 1.0566042666666675, "durationTicks": 224, "midi": 38, "name": "D2", "ticks": 9601, "time": 45.28775698333334, "velocity": 0.41732283464566927}, {"duration": 0.5518870499999906, "durationTicks": 117, "midi": 43, "name": "G2", "ticks": 9841, "time": 46.41983298333334, "velocity": 0.6299212598425197}, {"duration": 0.5424530833333279, "durationTicks": 115, "midi": 31, "name": "G1", "ticks": 9841, "time": 46.41983298333334, "velocity": 0.6299212598425197}, {"duration": 0.6933965500000028, "durationTicks": 147, "midi": 30, "name": "F#1", "ticks": 10317, "time": 48.66511705, "velocity": 0.5905511811023622}, {"duration": 0.7028305166666726, "durationTicks": 149, "midi": 42, "name": "F#2", "ticks": 10317, "time": 48.66511705, "velocity": 0.6062992125984252}, {"duration": 0.6037738666666712, "durationTicks": 128, "midi": 28, "name": "E1", "ticks": 10799, "time": 50.938703016666665, "velocity": 0.6614173228346457}, {"duration": 0.6084908500000026, "durationTicks": 129, "midi": 40, "name": "E2", "ticks": 10799, "time": 50.938703016666665, "velocity": 0.6535433070866141}, {"duration": 0.6698116333333317, "durationTicks": 142, "midi": 36, "name": "C2", "ticks": 11280, "time": 53.207572000000006, "velocity": 0.6535433070866141}, {"duration": 0.6320757666666594, "durationTicks": 134, "midi": 24, "name": "C1", "ticks": 11304, "time": 53.32077960000001, "velocity": 0.7007874015748031}, {"duration": 2.264152000000003, "durationTicks": 480, "midi": 59, "name": "B3", "ticks": 11757, "time": 55.45757305, "velocity": 0.49606299212598426}, {"duration": 2.2028312166666666, "durationTicks": 467, "midi": 50, "name": "D3", "ticks": 11758, "time": 55.46229003333334, "velocity": 0.3543307086614173}, {"duration": 2.2641519999999957, "durationTicks": 480, "midi": 55, "name": "G3", "ticks": 11758, "time": 55.46229003333334, "velocity": 0.4094488188976378}, {"duration": 0.5518870499999977, "durationTicks": 117, "midi": 43, "name": "G2", "ticks": 11758, "time": 55.46229003333334, "velocity": 0.6299212598425197}, {"duration": 0.542453083333335, "durationTicks": 115, "midi": 31, "name": "G1", "ticks": 11759, "time": 55.46700701666667, "velocity": 0.6299212598425197}, {"duration": 0.6933965500000028, "durationTicks": 147, "midi": 30, "name": "F#1", "ticks": 12237, "time": 57.72172505, "velocity": 0.5905511811023622}, {"duration": 0.7028305166666655, "durationTicks": 149, "midi": 42, "name": "F#2", "ticks": 12237, "time": 57.72172505, "velocity": 0.6062992125984252}, {"duration": 2.240567083333339, "durationTicks": 475, "midi": 57, "name": "A3", "ticks": 12239, "time": 57.731159016666666, "velocity": 0.4881889763779528}, {"duration": 2.1556613833333387, "durationTicks": 457, "midi": 54, "name": "F#3", "ticks": 12240, "time": 57.735876000000005, "velocity": 0.5196850393700787}, {"duration": 2.1273594833333362, "durationTicks": 451, "midi": 50, "name": "D3", "ticks": 12240, "time": 57.735876000000005, "velocity": 0.4251968503937008}, {"duration": 2.169812333333333, "durationTicks": 460, "midi": 55, "name": "G3", "ticks": 12718, "time": 59.99059403333334, "velocity": 0.5669291338582677}, {"duration": 0.6037738666666641, "durationTicks": 128, "midi": 28, "name": "E1", "ticks": 12718, "time": 59.99059403333334, "velocity": 0.6614173228346457}, {"duration": 0.6084908500000026, "durationTicks": 129, "midi": 40, "name": "E2", "ticks": 12718, "time": 59.99059403333334, "velocity": 0.6535433070866141}, {"duration": 2.1556613833333316, "durationTicks": 457, "midi": 52, "name": "E3", "ticks": 12719, "time": 59.99531101666667, "velocity": 0.5118110236220472}, {"duration": 2.240567083333339, "durationTicks": 475, "midi": 59, "name": "B3", "ticks": 12719, "time": 59.99531101666667, "velocity": 0.41732283464566927}, {"duration": 1.0235853833333337, "durationTicks": 217, "midi": 55, "name": "G3", "ticks": 13198, "time": 62.25474603333334, "velocity": 0.5590551181102362}, {"duration": 0.6698116333333317, "durationTicks": 142, "midi": 36, "name": "C2", "ticks": 13198, "time": 62.25474603333334, "velocity": 0.6535433070866141}, {"duration": 1.132076000000005, "durationTicks": 240, "midi": 60, "name": "C4", "ticks": 13199, "time": 62.259463016666665, "velocity": 0.5354330708661418}, {"duration": 1.0188684000000094, "durationTicks": 216, "midi": 52, "name": "E3", "ticks": 13199, "time": 62.259463016666665, "velocity": 0.5511811023622047}, {"duration": 0.6320757666666736, "durationTicks": 134, "midi": 24, "name": "C1", "ticks": 13204, "time": 62.283047933333336, "velocity": 0.7007874015748031}, {"duration": 4.311322766666663, "durationTicks": 914, "midi": 54, "name": "F#3", "ticks": 13439, "time": 63.39153901666667, "velocity": 0.5748031496062992}, {"duration": 4.306605783333339, "durationTicks": 913, "midi": 57, "name": "A3", "ticks": 13439, "time": 63.39153901666667, "velocity": 0.5748031496062992}, {"duration": 4.306605783333339, "durationTicks": 913, "midi": 50, "name": "D3", "ticks": 13439, "time": 63.39153901666667, "velocity": 0.5748031496062992}, {"duration": 2.301887866666675, "durationTicks": 488, "midi": 43, "name": "G2", "ticks": 14397, "time": 67.91040905, "velocity": 0.5748031496062992}, {"duration": 2.1650953500000014, "durationTicks": 459, "midi": 55, "name": "G3", "ticks": 14398, "time": 67.91512603333334, "velocity": 0.47244094488188976}, {"duration": 2.2500010499999945, "durationTicks": 477, "midi": 59, "name": "B3", "ticks": 14398, "time": 67.91512603333334, "velocity": 0.48031496062992124}, {"duration": 2.1886802666666654, "durationTicks": 464, "midi": 62, "name": "D4", "ticks": 14398, "time": 67.91512603333334, "velocity": 0.5590551181102362}, {"duration": 4.476417183333325, "durationTicks": 949, "midi": 62, "name": "D4", "ticks": 14877, "time": 70.17456105000001, "velocity": 0.4566929133858268}, {"duration": 1.0801891833333315, "durationTicks": 229, "midi": 55, "name": "G3", "ticks": 14877, "time": 70.17456105000001, "velocity": 0.5275590551181102}, {"duration": 2.193397250000004, "durationTicks": 465, "midi": 57, "name": "A3", "ticks": 14878, "time": 70.17927803333333, "velocity": 0.5590551181102362}, {"duration": 2.2452840666666702, "durationTicks": 476, "midi": 50, "name": "D3", "ticks": 14878, "time": 70.17927803333333, "velocity": 0.5748031496062992}, {"duration": 1.1273590166666736, "durationTicks": 239, "midi": 54, "name": "F#3", "ticks": 15116, "time": 71.30192006666667, "velocity": 0.47244094488188976}, {"duration": 2.2500010499999945, "durationTicks": 477, "midi": 52, "name": "E3", "ticks": 15356, "time": 72.43399606666668, "velocity": 0.5984251968503937}, {"duration": 2.146227416666676, "durationTicks": 455, "midi": 55, "name": "G3", "ticks": 15357, "time": 72.43871305, "velocity": 0.48031496062992124}, {"duration": 2.2641519999999957, "durationTicks": 480, "midi": 59, "name": "B3", "ticks": 15357, "time": 72.43871305, "velocity": 0.5511811023622047}, {"duration": 2.245284066666656, "durationTicks": 476, "midi": 60, "name": "C4", "ticks": 15838, "time": 74.70758203333334, "velocity": 0.49606299212598426}, {"duration": 2.2264161333333305, "durationTicks": 472, "midi": 52, "name": "E3", "ticks": 15838, "time": 74.70758203333334, "velocity": 0.5669291338582677}, {"duration": 2.231133116666669, "durationTicks": 473, "midi": 55, "name": "G3", "ticks": 15838, "time": 74.70758203333334, "velocity": 0.48031496062992124}, {"duration": 2.2405670833333176, "durationTicks": 475, "midi": 48, "name": "C3", "ticks": 15839, "time": 74.71229901666668, "velocity": 0.5511811023622047}, {"duration": 2.301887866666675, "durationTicks": 488, "midi": 43, "name": "G2", "ticks": 16317, "time": 76.96701705, "velocity": 0.5748031496062992}, {"duration": 2.1650953500000014, "durationTicks": 459, "midi": 55, "name": "G3", "ticks": 16318, "time": 76.97173403333333, "velocity": 0.47244094488188976}, {"duration": 2.2500010500000087, "durationTicks": 477, "midi": 59, "name": "B3", "ticks": 16318, "time": 76.97173403333333, "velocity": 0.48031496062992124}, {"duration": 2.1886802666666654, "durationTicks": 464, "midi": 62, "name": "D4", "ticks": 16318, "time": 76.97173403333333, "velocity": 0.5590551181102362}, {"duration": 4.476417183333325, "durationTicks": 949, "midi": 62, "name": "D4", "ticks": 16797, "time": 79.23116905, "velocity": 0.4566929133858268}, {"duration": 1.0801891833333315, "durationTicks": 229, "midi": 55, "name": "G3", "ticks": 16797, "time": 79.23116905, "velocity": 0.5275590551181102}, {"duration": 2.193397250000004, "durationTicks": 465, "midi": 57, "name": "A3", "ticks": 16798, "time": 79.23588603333333, "velocity": 0.5590551181102362}, {"duration": 2.2452840666666702, "durationTicks": 476, "midi": 50, "name": "D3", "ticks": 16798, "time": 79.23588603333333, "velocity": 0.5748031496062992}, {"duration": 1.1273590166666594, "durationTicks": 239, "midi": 54, "name": "F#3", "ticks": 17036, "time": 80.35852806666668, "velocity": 0.47244094488188976}, {"duration": 2.2500010499999945, "durationTicks": 477, "midi": 52, "name": "E3", "ticks": 17276, "time": 81.49060406666668, "velocity": 0.5984251968503937}, {"duration": 2.146227416666676, "durationTicks": 455, "midi": 55, "name": "G3", "ticks": 17277, "time": 81.49532105, "velocity": 0.48031496062992124}, {"duration": 2.2641519999999957, "durationTicks": 480, "midi": 59, "name": "B3", "ticks": 17277, "time": 81.49532105, "velocity": 0.5511811023622047}, {"duration": 2.2452840666666702, "durationTicks": 476, "midi": 60, "name": "C4", "ticks": 17758, "time": 83.76419003333334, "velocity": 0.49606299212598426}, {"duration": 2.2264161333333305, "durationTicks": 472, "midi": 52, "name": "E3", "ticks": 17758, "time": 83.76419003333334, "velocity": 0.5669291338582677}, {"duration": 2.2311331166666832, "durationTicks": 473, "midi": 55, "name": "G3", "ticks": 17758, "time": 83.76419003333334, "velocity": 0.48031496062992124}, {"duration": 2.2405670833333318, "durationTicks": 475, "midi": 48, "name": "C3", "ticks": 17759, "time": 83.76890701666667, "velocity": 0.5511811023622047}, {"duration": 2.2500010499999945, "durationTicks": 477, "midi": 43, "name": "G2", "ticks": 18237, "time": 86.02362505, "velocity": 0.5590551181102362}, {"duration": 2.1886802666666654, "durationTicks": 464, "midi": 55, "name": "G3", "ticks": 18237, "time": 86.02362505, "velocity": 0.4094488188976378}, {"duration": 2.2500010499999945, "durationTicks": 477, "midi": 50, "name": "D3", "ticks": 18237, "time": 86.02362505, "velocity": 0.5590551181102362}, {"duration": 2.2358501000000075, "durationTicks": 474, "midi": 62, "name": "D4", "ticks": 18237, "time": 86.02362505, "velocity": 0.3937007874015748}, {"duration": 2.2830199333333354, "durationTicks": 484, "midi": 59, "name": "B3", "ticks": 18237, "time": 86.02362505, "velocity": 0.5118110236220472}, {"duration": 1.146226949999999, "durationTicks": 243, "midi": 36, "name": "C2", "ticks": 18717, "time": 88.28777705, "velocity": 0.4015748031496063}, {"duration": 1.146226949999999, "durationTicks": 243, "midi": 52, "name": "E3", "ticks": 18720, "time": 88.301928, "velocity": 0.5275590551181102}, {"duration": 1.0896231500000084, "durationTicks": 231, "midi": 60, "name": "C4", "ticks": 18720, "time": 88.301928, "velocity": 0.47244094488188976}, {"duration": 1.146226949999999, "durationTicks": 243, "midi": 48, "name": "C3", "ticks": 18720, "time": 88.301928, "velocity": 0.4015748031496063}, {"duration": 1.0896231500000084, "durationTicks": 231, "midi": 55, "name": "G3", "ticks": 18720, "time": 88.301928, "velocity": 0.4566929133858268}, {"duration": 1.0754722000000072, "durationTicks": 228, "midi": 38, "name": "D2", "ticks": 18957, "time": 89.41985305, "velocity": 0.5196850393700787}, {"duration": 1.094340133333347, "durationTicks": 232, "midi": 62, "name": "D4", "ticks": 18960, "time": 89.434004, "velocity": 0.31496062992125984}, {"duration": 1.0896231500000084, "durationTicks": 231, "midi": 57, "name": "A3", "ticks": 18960, "time": 89.434004, "velocity": 0.31496062992125984}, {"duration": 1.0896231500000084, "durationTicks": 231, "midi": 54, "name": "F#3", "ticks": 18960, "time": 89.434004, "velocity": 0.3543307086614173}, {"duration": 1.0754722000000072, "durationTicks": 228, "midi": 50, "name": "D3", "ticks": 18960, "time": 89.434004, "velocity": 0.5196850393700787}, {"duration": 2.301887866666675, "durationTicks": 488, "midi": 43, "name": "G2", "ticks": 19197, "time": 90.55192905, "velocity": 0.5748031496062992}, {"duration": 2.1650953500000014, "durationTicks": 459, "midi": 55, "name": "G3", "ticks": 19198, "time": 90.55664603333334, "velocity": 0.47244094488188976}, {"duration": 2.2500010500000087, "durationTicks": 477, "midi": 59, "name": "B3", "ticks": 19198, "time": 90.55664603333334, "velocity": 0.48031496062992124}, {"duration": 2.1886802666666654, "durationTicks": 464, "midi": 62, "name": "D4", "ticks": 19198, "time": 90.55664603333334, "velocity": 0.5590551181102362}, {"duration": 4.476417183333325, "durationTicks": 949, "midi": 62, "name": "D4", "ticks": 19677, "time": 92.81608105000001, "velocity": 0.4566929133858268}, {"duration": 1.0801891833333315, "durationTicks": 229, "midi": 55, "name": "G3", "ticks": 19677, "time": 92.81608105000001, "velocity": 0.5275590551181102}, {"duration": 2.193397250000004, "durationTicks": 465, "midi": 57, "name": "A3", "ticks": 19678, "time": 92.82079803333333, "velocity": 0.5590551181102362}, {"duration": 2.2452840666666702, "durationTicks": 476, "midi": 50, "name": "D3", "ticks": 19678, "time": 92.82079803333333, "velocity": 0.5748031496062992}, {"duration": 1.1273590166666736, "durationTicks": 239, "midi": 54, "name": "F#3", "ticks": 19916, "time": 93.94344006666667, "velocity": 0.47244094488188976}, {"duration": 2.2500010499999945, "durationTicks": 477, "midi": 52, "name": "E3", "ticks": 20156, "time": 95.07551606666668, "velocity": 0.5984251968503937}, {"duration": 2.146227416666676, "durationTicks": 455, "midi": 55, "name": "G3", "ticks": 20157, "time": 95.08023305, "velocity": 0.48031496062992124}, {"duration": 2.2641519999999957, "durationTicks": 480, "midi": 59, "name": "B3", "ticks": 20157, "time": 95.08023305, "velocity": 0.5511811023622047}, {"duration": 2.245284066666656, "durationTicks": 476, "midi": 60, "name": "C4", "ticks": 20638, "time": 97.34910203333334, "velocity": 0.49606299212598426}, {"duration": 2.2264161333333305, "durationTicks": 472, "midi": 52, "name": "E3", "ticks": 20638, "time": 97.34910203333334, "velocity": 0.5669291338582677}, {"duration": 2.231133116666669, "durationTicks": 473, "midi": 55, "name": "G3", "ticks": 20638, "time": 97.34910203333334, "velocity": 0.48031496062992124}, {"duration": 2.2405670833333176, "durationTicks": 475, "midi": 48, "name": "C3", "ticks": 20639, "time": 97.35381901666668, "velocity": 0.5511811023622047}, {"duration": 2.301887866666661, "durationTicks": 488, "midi": 43, "name": "G2", "ticks": 21117, "time": 99.60853705000001, "velocity": 0.5748031496062992}, {"duration": 2.1650953500000156, "durationTicks": 459, "midi": 55, "name": "G3", "ticks": 21118, "time": 99.61325403333333, "velocity": 0.47244094488188976}, {"duration": 2.2500010500000087, "durationTicks": 477, "midi": 59, "name": "B3", "ticks": 21118, "time": 99.61325403333333, "velocity": 0.48031496062992124}, {"duration": 2.1886802666666654, "durationTicks": 464, "midi": 62, "name": "D4", "ticks": 21118, "time": 99.61325403333333, "velocity": 0.5590551181102362}, {"duration": 4.476417183333325, "durationTicks": 949, "midi": 62, "name": "D4", "ticks": 21597, "time": 101.87268905, "velocity": 0.4566929133858268}, {"duration": 1.0801891833333315, "durationTicks": 229, "midi": 54, "name": "F#3", "ticks": 21597, "time": 101.87268905, "velocity": 0.5275590551181102}, {"duration": 2.193397250000004, "durationTicks": 465, "midi": 57, "name": "A3", "ticks": 21598, "time": 101.87740603333333, "velocity": 0.5590551181102362}, {"duration": 2.2452840666666702, "durationTicks": 476, "midi": 50, "name": "D3", "ticks": 21598, "time": 101.87740603333333, "velocity": 0.5748031496062992}, {"duration": 1.1273590166666736, "durationTicks": 239, "midi": 54, "name": "F#3", "ticks": 21836, "time": 103.00004806666668, "velocity": 0.47244094488188976}, {"duration": 2.2500010499999945, "durationTicks": 477, "midi": 52, "name": "E3", "ticks": 22076, "time": 104.13212406666668, "velocity": 0.5984251968503937}, {"duration": 2.146227416666676, "durationTicks": 455, "midi": 55, "name": "G3", "ticks": 22077, "time": 104.13684105, "velocity": 0.48031496062992124}, {"duration": 2.26415200000001, "durationTicks": 480, "midi": 59, "name": "B3", "ticks": 22077, "time": 104.13684105, "velocity": 0.5511811023622047}, {"duration": 2.2452840666666702, "durationTicks": 476, "midi": 60, "name": "C4", "ticks": 22558, "time": 106.40571003333334, "velocity": 0.49606299212598426}, {"duration": 2.2264161333333305, "durationTicks": 472, "midi": 52, "name": "E3", "ticks": 22558, "time": 106.40571003333334, "velocity": 0.5669291338582677}, {"duration": 2.2311331166666832, "durationTicks": 473, "midi": 55, "name": "G3", "ticks": 22558, "time": 106.40571003333334, "velocity": 0.48031496062992124}, {"duration": 2.2405670833333318, "durationTicks": 475, "midi": 48, "name": "C3", "ticks": 22559, "time": 106.41042701666667, "velocity": 0.5511811023622047}, {"duration": 2.2500010499999945, "durationTicks": 477, "midi": 43, "name": "G2", "ticks": 23037, "time": 108.66514505, "velocity": 0.5590551181102362}, {"duration": 2.1886802666666654, "durationTicks": 464, "midi": 55, "name": "G3", "ticks": 23037, "time": 108.66514505, "velocity": 0.4094488188976378}, {"duration": 2.2500010499999945, "durationTicks": 477, "midi": 50, "name": "D3", "ticks": 23037, "time": 108.66514505, "velocity": 0.5590551181102362}, {"duration": 2.2358501000000075, "durationTicks": 474, "midi": 62, "name": "D4", "ticks": 23037, "time": 108.66514505, "velocity": 0.3937007874015748}, {"duration": 2.2830199333333354, "durationTicks": 484, "midi": 59, "name": "B3", "ticks": 23037, "time": 108.66514505, "velocity": 0.5118110236220472}, {"duration": 1.146226949999999, "durationTicks": 243, "midi": 36, "name": "C2", "ticks": 23517, "time": 110.92929705, "velocity": 0.4015748031496063}, {"duration": 1.1226420333333351, "durationTicks": 238, "midi": 52, "name": "E3", "ticks": 23520, "time": 110.943448, "velocity": 0.5275590551181102}, {"duration": 1.0896231500000084, "durationTicks": 231, "midi": 60, "name": "C4", "ticks": 23520, "time": 110.943448, "velocity": 0.47244094488188976}, {"duration": 1.1462269500000133, "durationTicks": 243, "midi": 48, "name": "C3", "ticks": 23520, "time": 110.943448, "velocity": 0.4015748031496063}, {"duration": 1.0896231500000084, "durationTicks": 231, "midi": 55, "name": "G3", "ticks": 23520, "time": 110.943448, "velocity": 0.4566929133858268}, {"duration": 2.183963283333341, "durationTicks": 463, "midi": 60, "name": "C4", "ticks": 23757, "time": 112.06137305, "velocity": 0.31496062992125984}, {"duration": 2.193397250000004, "durationTicks": 465, "midi": 38, "name": "D2", "ticks": 23757, "time": 112.06137305, "velocity": 0.5196850393700787}, {"duration": 2.183963283333327, "durationTicks": 463, "midi": 57, "name": "A3", "ticks": 23760, "time": 112.075524, "velocity": 0.31496062992125984}, {"duration": 2.183963283333327, "durationTicks": 463, "midi": 54, "name": "F#3", "ticks": 23760, "time": 112.075524, "velocity": 0.3543307086614173}, {"duration": 2.1792463000000026, "durationTicks": 462, "midi": 50, "name": "D3", "ticks": 23760, "time": 112.075524, "velocity": 0.5196850393700787}, {"duration": 4.561322883333332, "durationTicks": 967, "midi": 38, "name": "D2", "ticks": 24237, "time": 114.32552505000001, "velocity": 0.5590551181102362}, {"duration": 4.500002100000003, "durationTicks": 954, "midi": 62, "name": "D4", "ticks": 24237, "time": 114.32552505000001, "velocity": 0.5590551181102362}, {"duration": 4.537737966666668, "durationTicks": 962, "midi": 54, "name": "F#3", "ticks": 24237, "time": 114.32552505000001, "velocity": 0.5590551181102362}, {"duration": 4.5283039999999914, "durationTicks": 960, "midi": 57, "name": "A3", "ticks": 24237, "time": 114.32552505000001, "velocity": 0.5590551181102362}, {"duration": 4.528304000000006, "durationTicks": 960, "midi": 50, "name": "D3", "ticks": 24238, "time": 114.33024203333333, "velocity": 0.5590551181102362}, {"duration": 2.2216991500000063, "durationTicks": 471, "midi": 31, "name": "G1", "ticks": 25200, "time": 118.86798, "velocity": 0.5984251968503937}, {"duration": 2.2122651833333435, "durationTicks": 469, "midi": 62, "name": "D4", "ticks": 25200, "time": 118.86798, "velocity": 0.5905511811023622}, {"duration": 2.216982166666668, "durationTicks": 470, "midi": 55, "name": "G3", "ticks": 25200, "time": 118.86798, "velocity": 0.5984251968503937}, {"duration": 2.207548200000005, "durationTicks": 468, "midi": 43, "name": "G2", "ticks": 25200, "time": 118.86798, "velocity": 0.5905511811023622}, {"duration": 2.207548200000005, "durationTicks": 468, "midi": 59, "name": "B3", "ticks": 25200, "time": 118.86798, "velocity": 0.5905511811023622}, {"duration": 1.1226420333333351, "durationTicks": 238, "midi": 36, "name": "C2", "ticks": 25678, "time": 121.12269803333334, "velocity": 0.5984251968503937}, {"duration": 1.1509439333333518, "durationTicks": 244, "midi": 48, "name": "C3", "ticks": 25678, "time": 121.12269803333334, "velocity": 0.4251968503937008}, {"duration": 1.099057116666657, "durationTicks": 233, "midi": 64, "name": "E4", "ticks": 25680, "time": 121.13213200000001, "velocity": 0.5984251968503937}, {"duration": 1.0047174500000011, "durationTicks": 213, "midi": 67, "name": "G4", "ticks": 25680, "time": 121.13213200000001, "velocity": 0.5905511811023622}, {"duration": 1.0660382333333303, "durationTicks": 226, "midi": 60, "name": "C4", "ticks": 25680, "time": 121.13213200000001, "velocity": 0.5748031496062992}, {"duration": 1.1462269500000133, "durationTicks": 243, "midi": 62, "name": "D4", "ticks": 25916, "time": 122.24534006666667, "velocity": 0.5590551181102362}, {"duration": 1.1509439333333376, "durationTicks": 244, "midi": 66, "name": "F#4", "ticks": 25916, "time": 122.24534006666667, "velocity": 0.48031496062992124}, {"duration": 1.0566042666666675, "durationTicks": 224, "midi": 57, "name": "A3", "ticks": 25917, "time": 122.25005705000001, "velocity": 0.5984251968503937}, {"duration": 1.108491083333334, "durationTicks": 235, "midi": 50, "name": "D3", "ticks": 25918, "time": 122.25477403333333, "velocity": 0.5590551181102362}, {"duration": 1.0990571166666854, "durationTicks": 233, "midi": 38, "name": "D2", "ticks": 25918, "time": 122.25477403333333, "velocity": 0.5354330708661418}, {"duration": 1.061321250000006, "durationTicks": 225, "midi": 48, "name": "C3", "ticks": 26158, "time": 123.38685003333333, "velocity": 0.5748031496062992}, {"duration": 1.1320759999999979, "durationTicks": 240, "midi": 36, "name": "C2", "ticks": 26158, "time": 123.38685003333333, "velocity": 0.5748031496062992}, {"duration": 1.155660916666676, "durationTicks": 245, "midi": 60, "name": "C4", "ticks": 26158, "time": 123.38685003333333, "velocity": 0.5748031496062992}, {"duration": 1.1132080666666582, "durationTicks": 236, "midi": 55, "name": "G3", "ticks": 26159, "time": 123.39156701666668, "velocity": 0.5984251968503937}, {"duration": 1.099057116666657, "durationTicks": 233, "midi": 52, "name": "E3", "ticks": 26159, "time": 123.39156701666668, "velocity": 0.5984251968503937}, {"duration": 1.0896231500000084, "durationTicks": 231, "midi": 38, "name": "D2", "ticks": 26398, "time": 124.51892603333333, "velocity": 0.5905511811023622}, {"duration": 1.037736333333342, "durationTicks": 220, "midi": 50, "name": "D3", "ticks": 26398, "time": 124.51892603333333, "velocity": 0.5511811023622047}, {"duration": 1.0613212499999918, "durationTicks": 225, "midi": 62, "name": "D4", "ticks": 26399, "time": 124.52364301666668, "velocity": 0.5511811023622047}, {"duration": 1.051887283333329, "durationTicks": 223, "midi": 54, "name": "F#3", "ticks": 26399, "time": 124.52364301666668, "velocity": 0.4881889763779528}, {"duration": 1.0330193499999893, "durationTicks": 219, "midi": 57, "name": "A3", "ticks": 26400, "time": 124.52836, "velocity": 0.49606299212598426}, {"duration": 1.0896231499999942, "durationTicks": 231, "midi": 55, "name": "G3", "ticks": 26638, "time": 125.65100203333334, "velocity": 0.5354330708661418}, {"duration": 1.051887283333329, "durationTicks": 223, "midi": 52, "name": "E3", "ticks": 26638, "time": 125.65100203333334, "velocity": 0.47244094488188976}, {"duration": 0.981132533333323, "durationTicks": 208, "midi": 48, "name": "C3", "ticks": 26639, "time": 125.65571901666668, "velocity": 0.36220472440944884}, {"duration": 1.1132080666666724, "durationTicks": 236, "midi": 36, "name": "C2", "ticks": 26639, "time": 125.65571901666668, "velocity": 0.5984251968503937}, {"duration": 1.1179250500000109, "durationTicks": 237, "midi": 38, "name": "D2", "ticks": 26878, "time": 126.78307803333334, "velocity": 0.5984251968503937}, {"duration": 0.9811325333333372, "durationTicks": 208, "midi": 50, "name": "D3", "ticks": 26878, "time": 126.78307803333334, "velocity": 0.5590551181102362}, {"duration": 1.0613212499999918, "durationTicks": 225, "midi": 57, "name": "A3", "ticks": 26878, "time": 126.78307803333334, "velocity": 0.5590551181102362}, {"duration": 1.0518872833333432, "durationTicks": 223, "midi": 54, "name": "F#3", "ticks": 26878, "time": 126.78307803333334, "velocity": 0.4409448818897638}, {"duration": 2.2405670833333318, "durationTicks": 475, "midi": 55, "name": "G3", "ticks": 27117, "time": 127.91043705000001, "velocity": 0.3700787401574803}, {"duration": 2.2594350166666572, "durationTicks": 479, "midi": 59, "name": "B3", "ticks": 27117, "time": 127.91043705000001, "velocity": 0.49606299212598426}, {"duration": 2.207548200000005, "durationTicks": 468, "midi": 52, "name": "E3", "ticks": 27118, "time": 127.91515403333334, "velocity": 0.5118110236220472}, {"duration": 2.254718033333333, "durationTicks": 478, "midi": 40, "name": "E2", "ticks": 27118, "time": 127.91515403333334, "velocity": 0.5748031496062992}, {"duration": 1.1509439333333376, "durationTicks": 244, "midi": 52, "name": "E3", "ticks": 27597, "time": 130.17458905, "velocity": 0.6062992125984252}, {"duration": 1.1226420333333351, "durationTicks": 238, "midi": 40, "name": "E2", "ticks": 27597, "time": 130.17458905, "velocity": 0.5748031496062992}, {"duration": 1.0754722000000072, "durationTicks": 228, "midi": 38, "name": "D2", "ticks": 27838, "time": 131.31138203333333, "velocity": 0.5905511811023622}, {"duration": 1.0660382333333587, "durationTicks": 226, "midi": 50, "name": "D3", "ticks": 27838, "time": 131.31138203333333, "velocity": 0.6299212598425197}, {"duration": 1.1273590166666736, "durationTicks": 239, "midi": 36, "name": "C2", "ticks": 28076, "time": 132.43402406666667, "velocity": 0.6614173228346457}, {"duration": 1.1179250499999966, "durationTicks": 237, "midi": 48, "name": "C3", "ticks": 28076, "time": 132.43402406666667, "velocity": 0.6062992125984252}, {"duration": 1.2299790499999688, "durationTicks": 246, "midi": 50, "name": "D3", "ticks": 28316, "time": 133.56610006666668, "velocity": 0.7165354330708661}, {"duration": 1.2038679333333278, "durationTicks": 241, "midi": 38, "name": "D2", "ticks": 28316, "time": 133.56610006666668, "velocity": 0.6614173228346457}, {"duration": 1.3272228833333202, "durationTicks": 239, "midi": 40, "name": "E2", "ticks": 28559, "time": 134.779968, "velocity": 0.6535433070866141}, {"duration": 1.3050006499999824, "durationTicks": 235, "midi": 52, "name": "E3", "ticks": 28559, "time": 134.779968, "velocity": 0.6535433070866141}, {"duration": 4.455555558333316, "durationTicks": 713, "midi": 42, "name": "F#2", "ticks": 28799, "time": 136.11274644166667, "velocity": 0.5590551181102362}, {"duration": 4.430555558333339, "durationTicks": 709, "midi": 54, "name": "F#3", "ticks": 28799, "time": 136.11274644166667, "velocity": 0.5905511811023622}, {"duration": 2.306486916666671, "durationTicks": 488, "midi": 43, "name": "G2", "ticks": 29517, "time": 140.599552, "velocity": 0.5748031496062992}, {"duration": 2.191746299999977, "durationTicks": 464, "midi": 62, "name": "D4", "ticks": 29518, "time": 140.605802, "velocity": 0.5590551181102362}, {"duration": 2.2530670833333204, "durationTicks": 477, "midi": 59, "name": "B3", "ticks": 29518, "time": 140.605802, "velocity": 0.48031496062992124}, {"duration": 2.168161383333313, "durationTicks": 459, "midi": 55, "name": "G3", "ticks": 29518, "time": 140.605802, "velocity": 0.47244094488188976}, {"duration": 4.476417183333325, "durationTicks": 949, "midi": 62, "name": "D4", "ticks": 29997, "time": 142.86830305, "velocity": 0.4566929133858268}, {"duration": 1.0801891833333173, "durationTicks": 229, "midi": 55, "name": "G3", "ticks": 29997, "time": 142.86830305, "velocity": 0.5275590551181102}, {"duration": 2.1933972499999754, "durationTicks": 465, "midi": 57, "name": "A3", "ticks": 29998, "time": 142.87302003333335, "velocity": 0.5590551181102362}, {"duration": 2.245284066666642, "durationTicks": 476, "midi": 50, "name": "D3", "ticks": 29998, "time": 142.87302003333335, "velocity": 0.5748031496062992}, {"duration": 1.1273590166666736, "durationTicks": 239, "midi": 54, "name": "F#3", "ticks": 30236, "time": 143.99566206666665, "velocity": 0.47244094488188976}, {"duration": 2.2500010500000087, "durationTicks": 477, "midi": 52, "name": "E3", "ticks": 30476, "time": 145.12773806666667, "velocity": 0.5984251968503937}, {"duration": 2.146227416666676, "durationTicks": 455, "midi": 55, "name": "G3", "ticks": 30477, "time": 145.13245505, "velocity": 0.48031496062992124}, {"duration": 2.2641519999999957, "durationTicks": 480, "midi": 59, "name": "B3", "ticks": 30477, "time": 145.13245505, "velocity": 0.5511811023622047}, {"duration": 2.2452840666666702, "durationTicks": 476, "midi": 60, "name": "C4", "ticks": 30958, "time": 147.40132403333334, "velocity": 0.49606299212598426}, {"duration": 2.2264161333333163, "durationTicks": 472, "midi": 52, "name": "E3", "ticks": 30958, "time": 147.40132403333334, "velocity": 0.5669291338582677}, {"duration": 2.231133116666655, "durationTicks": 473, "midi": 55, "name": "G3", "ticks": 30958, "time": 147.40132403333334, "velocity": 0.48031496062992124}, {"duration": 2.2405670833333318, "durationTicks": 475, "midi": 48, "name": "C3", "ticks": 30959, "time": 147.40604101666668, "velocity": 0.5511811023622047}, {"duration": 2.301887866666675, "durationTicks": 488, "midi": 43, "name": "G2", "ticks": 31437, "time": 149.66075905, "velocity": 0.5748031496062992}, {"duration": 2.1650953500000014, "durationTicks": 459, "midi": 55, "name": "G3", "ticks": 31438, "time": 149.66547603333333, "velocity": 0.47244094488188976}, {"duration": 2.2500010500000087, "durationTicks": 477, "midi": 59, "name": "B3", "ticks": 31438, "time": 149.66547603333333, "velocity": 0.48031496062992124}, {"duration": 2.1886802666666654, "durationTicks": 464, "midi": 62, "name": "D4", "ticks": 31438, "time": 149.66547603333333, "velocity": 0.5590551181102362}, {"duration": 4.4764171833333535, "durationTicks": 949, "midi": 62, "name": "D4", "ticks": 31917, "time": 151.92491105, "velocity": 0.4566929133858268}, {"duration": 1.0801891833333457, "durationTicks": 229, "midi": 55, "name": "G3", "ticks": 31917, "time": 151.92491105, "velocity": 0.5275590551181102}, {"duration": 2.193397250000004, "durationTicks": 465, "midi": 57, "name": "A3", "ticks": 31918, "time": 151.92962803333333, "velocity": 0.5590551181102362}, {"duration": 2.2452840666666702, "durationTicks": 476, "midi": 50, "name": "D3", "ticks": 31918, "time": 151.92962803333333, "velocity": 0.5748031496062992}, {"duration": 1.1273590166666736, "durationTicks": 239, "midi": 54, "name": "F#3", "ticks": 32156, "time": 153.05227006666667, "velocity": 0.47244094488188976}, {"duration": 2.2500010499999803, "durationTicks": 477, "midi": 52, "name": "E3", "ticks": 32396, "time": 154.18434606666668, "velocity": 0.5984251968503937}, {"duration": 2.1462274166666475, "durationTicks": 455, "midi": 55, "name": "G3", "ticks": 32397, "time": 154.18906305000002, "velocity": 0.48031496062992124}, {"duration": 2.2641519999999957, "durationTicks": 480, "midi": 59, "name": "B3", "ticks": 32397, "time": 154.18906305000002, "velocity": 0.5511811023622047}, {"duration": 2.245284066666642, "durationTicks": 476, "midi": 60, "name": "C4", "ticks": 32878, "time": 156.45793203333335, "velocity": 0.49606299212598426}, {"duration": 2.2264161333333163, "durationTicks": 472, "midi": 52, "name": "E3", "ticks": 32878, "time": 156.45793203333335, "velocity": 0.5669291338582677}, {"duration": 2.231133116666655, "durationTicks": 473, "midi": 55, "name": "G3", "ticks": 32878, "time": 156.45793203333335, "velocity": 0.48031496062992124}, {"duration": 2.2405670833333318, "durationTicks": 475, "midi": 48, "name": "C3", "ticks": 32879, "time": 156.46264901666666, "velocity": 0.5511811023622047}, {"duration": 2.2500010499999803, "durationTicks": 477, "midi": 43, "name": "G2", "ticks": 33357, "time": 158.71736705, "velocity": 0.5590551181102362}, {"duration": 2.1886802666666654, "durationTicks": 464, "midi": 55, "name": "G3", "ticks": 33357, "time": 158.71736705, "velocity": 0.4094488188976378}, {"duration": 2.2500010499999803, "durationTicks": 477, "midi": 50, "name": "D3", "ticks": 33357, "time": 158.71736705, "velocity": 0.5590551181102362}, {"duration": 2.2358500999999933, "durationTicks": 474, "midi": 62, "name": "D4", "ticks": 33357, "time": 158.71736705, "velocity": 0.3937007874015748}, {"duration": 2.283019933333321, "durationTicks": 484, "midi": 59, "name": "B3", "ticks": 33357, "time": 158.71736705, "velocity": 0.5118110236220472}, {"duration": 1.146226949999999, "durationTicks": 243, "midi": 36, "name": "C2", "ticks": 33837, "time": 160.98151905, "velocity": 0.4015748031496063}, {"duration": 1.146226949999999, "durationTicks": 243, "midi": 52, "name": "E3", "ticks": 33840, "time": 160.99567, "velocity": 0.5275590551181102}, {"duration": 1.0896231499999942, "durationTicks": 231, "midi": 60, "name": "C4", "ticks": 33840, "time": 160.99567, "velocity": 0.47244094488188976}, {"duration": 1.146226949999999, "durationTicks": 243, "midi": 48, "name": "C3", "ticks": 33840, "time": 160.99567, "velocity": 0.4015748031496063}, {"duration": 1.0896231499999942, "durationTicks": 231, "midi": 55, "name": "G3", "ticks": 33840, "time": 160.99567, "velocity": 0.4566929133858268}, {"duration": 1.0754721999999788, "durationTicks": 228, "midi": 38, "name": "D2", "ticks": 34077, "time": 162.11359505000001, "velocity": 0.5196850393700787}, {"duration": 1.0943401333333327, "durationTicks": 232, "midi": 62, "name": "D4", "ticks": 34080, "time": 162.127746, "velocity": 0.31496062992125984}, {"duration": 1.0896231499999942, "durationTicks": 231, "midi": 57, "name": "A3", "ticks": 34080, "time": 162.127746, "velocity": 0.31496062992125984}, {"duration": 1.0896231499999942, "durationTicks": 231, "midi": 54, "name": "F#3", "ticks": 34080, "time": 162.127746, "velocity": 0.3543307086614173}, {"duration": 1.0754722000000072, "durationTicks": 228, "midi": 50, "name": "D3", "ticks": 34080, "time": 162.127746, "velocity": 0.5196850393700787}, {"duration": 2.301887866666675, "durationTicks": 488, "midi": 43, "name": "G2", "ticks": 34317, "time": 163.24567105, "velocity": 0.5748031496062992}, {"duration": 2.1650953500000014, "durationTicks": 459, "midi": 55, "name": "G3", "ticks": 34318, "time": 163.25038803333334, "velocity": 0.47244094488188976}, {"duration": 2.2500010500000087, "durationTicks": 477, "midi": 59, "name": "B3", "ticks": 34318, "time": 163.25038803333334, "velocity": 0.48031496062992124}, {"duration": 2.1886802666666654, "durationTicks": 464, "midi": 62, "name": "D4", "ticks": 34318, "time": 163.25038803333334, "velocity": 0.5590551181102362}, {"duration": 4.476417183333325, "durationTicks": 949, "midi": 62, "name": "D4", "ticks": 34797, "time": 165.50982305, "velocity": 0.4566929133858268}, {"duration": 1.0801891833333457, "durationTicks": 229, "midi": 55, "name": "G3", "ticks": 34797, "time": 165.50982305, "velocity": 0.5275590551181102}, {"duration": 2.193397250000004, "durationTicks": 465, "midi": 57, "name": "A3", "ticks": 34798, "time": 165.51454003333333, "velocity": 0.5590551181102362}, {"duration": 2.2452840666666702, "durationTicks": 476, "midi": 50, "name": "D3", "ticks": 34798, "time": 165.51454003333333, "velocity": 0.5748031496062992}, {"duration": 1.1273590166666736, "durationTicks": 239, "midi": 54, "name": "F#3", "ticks": 35036, "time": 166.63718206666667, "velocity": 0.47244094488188976}, {"duration": 2.2500010499999803, "durationTicks": 477, "midi": 52, "name": "E3", "ticks": 35276, "time": 167.76925806666668, "velocity": 0.5984251968503937}, {"duration": 2.146227416666676, "durationTicks": 455, "midi": 55, "name": "G3", "ticks": 35277, "time": 167.77397505, "velocity": 0.48031496062992124}, {"duration": 2.264152000000024, "durationTicks": 480, "midi": 59, "name": "B3", "ticks": 35277, "time": 167.77397505, "velocity": 0.5511811023622047}, {"duration": 2.2452840666666702, "durationTicks": 476, "midi": 60, "name": "C4", "ticks": 35758, "time": 170.04284403333332, "velocity": 0.49606299212598426}, {"duration": 2.2264161333333448, "durationTicks": 472, "midi": 52, "name": "E3", "ticks": 35758, "time": 170.04284403333332, "velocity": 0.5669291338582677}, {"duration": 2.2311331166666832, "durationTicks": 473, "midi": 55, "name": "G3", "ticks": 35758, "time": 170.04284403333332, "velocity": 0.48031496062992124}, {"duration": 2.2405670833333318, "durationTicks": 475, "midi": 48, "name": "C3", "ticks": 35759, "time": 170.04756101666666, "velocity": 0.5511811023622047}, {"duration": 2.3018878666666467, "durationTicks": 488, "midi": 43, "name": "G2", "ticks": 36237, "time": 172.30227905, "velocity": 0.5748031496062992}, {"duration": 2.1650953500000014, "durationTicks": 459, "midi": 55, "name": "G3", "ticks": 36238, "time": 172.30699603333335, "velocity": 0.47244094488188976}, {"duration": 2.2500010499999803, "durationTicks": 477, "midi": 59, "name": "B3", "ticks": 36238, "time": 172.30699603333335, "velocity": 0.48031496062992124}, {"duration": 2.1886802666666654, "durationTicks": 464, "midi": 62, "name": "D4", "ticks": 36238, "time": 172.30699603333335, "velocity": 0.5590551181102362}, {"duration": 4.476417183333325, "durationTicks": 949, "midi": 62, "name": "D4", "ticks": 36717, "time": 174.56643105, "velocity": 0.4566929133858268}, {"duration": 1.0801891833333457, "durationTicks": 229, "midi": 54, "name": "F#3", "ticks": 36717, "time": 174.56643105, "velocity": 0.5275590551181102}, {"duration": 2.193397250000004, "durationTicks": 465, "midi": 57, "name": "A3", "ticks": 36718, "time": 174.57114803333334, "velocity": 0.5590551181102362}, {"duration": 2.2452840666666702, "durationTicks": 476, "midi": 50, "name": "D3", "ticks": 36718, "time": 174.57114803333334, "velocity": 0.5748031496062992}, {"duration": 1.1273590166666736, "durationTicks": 239, "midi": 54, "name": "F#3", "ticks": 36956, "time": 175.69379006666668, "velocity": 0.47244094488188976}, {"duration": 2.2500010500000087, "durationTicks": 477, "midi": 52, "name": "E3", "ticks": 37196, "time": 176.82586606666666, "velocity": 0.5984251968503937}, {"duration": 2.146227416666676, "durationTicks": 455, "midi": 55, "name": "G3", "ticks": 37197, "time": 176.83058305, "velocity": 0.48031496062992124}, {"duration": 2.2641519999999957, "durationTicks": 480, "midi": 59, "name": "B3", "ticks": 37197, "time": 176.83058305, "velocity": 0.5511811023622047}, {"duration": 2.2452840666666702, "durationTicks": 476, "midi": 60, "name": "C4", "ticks": 37678, "time": 179.09945203333334, "velocity": 0.49606299212598426}, {"duration": 2.2264161333333448, "durationTicks": 472, "midi": 52, "name": "E3", "ticks": 37678, "time": 179.09945203333334, "velocity": 0.5669291338582677}, {"duration": 2.231133116666655, "durationTicks": 473, "midi": 55, "name": "G3", "ticks": 37678, "time": 179.09945203333334, "velocity": 0.48031496062992124}, {"duration": 2.2405670833333318, "durationTicks": 475, "midi": 48, "name": "C3", "ticks": 37679, "time": 179.10416901666667, "velocity": 0.5511811023622047}, {"duration": 2.2500010500000087, "durationTicks": 477, "midi": 43, "name": "G2", "ticks": 38157, "time": 181.35888705, "velocity": 0.5590551181102362}, {"duration": 2.188680266666694, "durationTicks": 464, "midi": 55, "name": "G3", "ticks": 38157, "time": 181.35888705, "velocity": 0.4094488188976378}, {"duration": 2.2500010500000087, "durationTicks": 477, "midi": 50, "name": "D3", "ticks": 38157, "time": 181.35888705, "velocity": 0.5590551181102362}, {"duration": 2.2358501000000217, "durationTicks": 474, "midi": 62, "name": "D4", "ticks": 38157, "time": 181.35888705, "velocity": 0.3937007874015748}, {"duration": 2.2830199333333496, "durationTicks": 484, "midi": 59, "name": "B3", "ticks": 38157, "time": 181.35888705, "velocity": 0.5118110236220472}, {"duration": 1.1462269500000275, "durationTicks": 243, "midi": 36, "name": "C2", "ticks": 38637, "time": 183.62303905, "velocity": 0.4015748031496063}, {"duration": 1.1226420333333351, "durationTicks": 238, "midi": 52, "name": "E3", "ticks": 38640, "time": 183.63719, "velocity": 0.5275590551181102}, {"duration": 1.0896231499999942, "durationTicks": 231, "midi": 60, "name": "C4", "ticks": 38640, "time": 183.63719, "velocity": 0.47244094488188976}, {"duration": 1.146226949999999, "durationTicks": 243, "midi": 48, "name": "C3", "ticks": 38640, "time": 183.63719, "velocity": 0.4015748031496063}, {"duration": 1.0896231499999942, "durationTicks": 231, "midi": 55, "name": "G3", "ticks": 38640, "time": 183.63719, "velocity": 0.4566929133858268}, {"duration": 1.1179250499999966, "durationTicks": 237, "midi": 60, "name": "C4", "ticks": 38877, "time": 184.75511505, "velocity": 0.31496062992125984}, {"duration": 1.1179250499999966, "durationTicks": 237, "midi": 38, "name": "D2", "ticks": 38877, "time": 184.75511505, "velocity": 0.5196850393700787}, {"duration": 1.1037740999999812, "durationTicks": 234, "midi": 57, "name": "A3", "ticks": 38880, "time": 184.76926600000002, "velocity": 0.31496062992125984}, {"duration": 1.1037740999999812, "durationTicks": 234, "midi": 54, "name": "F#3", "ticks": 38880, "time": 184.76926600000002, "velocity": 0.3543307086614173}, {"duration": 1.1037740999999812, "durationTicks": 234, "midi": 50, "name": "D3", "ticks": 38880, "time": 184.76926600000002, "velocity": 0.5196850393700787}, {"duration": 2.301887866666675, "durationTicks": 488, "midi": 45, "name": "A2", "ticks": 39117, "time": 185.88719105, "velocity": 0.5748031496062992}, {"duration": 2.1650953500000014, "durationTicks": 459, "midi": 57, "name": "A3", "ticks": 39118, "time": 185.89190803333332, "velocity": 0.47244094488188976}, {"duration": 2.2500010500000087, "durationTicks": 477, "midi": 61, "name": "C#4", "ticks": 39118, "time": 185.89190803333332, "velocity": 0.48031496062992124}, {"duration": 2.1886802666666654, "durationTicks": 464, "midi": 64, "name": "E4", "ticks": 39118, "time": 185.89190803333332, "velocity": 0.5590551181102362}, {"duration": 4.476417183333325, "durationTicks": 949, "midi": 64, "name": "E4", "ticks": 39597, "time": 188.15134305, "velocity": 0.4566929133858268}, {"duration": 1.0801891833333173, "durationTicks": 229, "midi": 57, "name": "A3", "ticks": 39597, "time": 188.15134305, "velocity": 0.5275590551181102}, {"duration": 2.1933972499999754, "durationTicks": 465, "midi": 59, "name": "B3", "ticks": 39598, "time": 188.15606003333335, "velocity": 0.5590551181102362}, {"duration": 2.2452840666666702, "durationTicks": 476, "midi": 52, "name": "E3", "ticks": 39598, "time": 188.15606003333335, "velocity": 0.5748031496062992}, {"duration": 1.1273590166666736, "durationTicks": 239, "midi": 56, "name": "G#3", "ticks": 39836, "time": 189.27870206666665, "velocity": 0.47244094488188976}, {"duration": 2.2500010500000087, "durationTicks": 477, "midi": 54, "name": "F#3", "ticks": 40076, "time": 190.41077806666667, "velocity": 0.5984251968503937}, {"duration": 2.146227416666676, "durationTicks": 455, "midi": 57, "name": "A3", "ticks": 40077, "time": 190.41549505, "velocity": 0.48031496062992124}, {"duration": 2.2641519999999957, "durationTicks": 480, "midi": 61, "name": "C#4", "ticks": 40077, "time": 190.41549505, "velocity": 0.5511811023622047}, {"duration": 2.2264161333333448, "durationTicks": 472, "midi": 54, "name": "F#3", "ticks": 40558, "time": 192.68436403333334, "velocity": 0.5669291338582677}, {"duration": 2.231133116666655, "durationTicks": 473, "midi": 57, "name": "A3", "ticks": 40558, "time": 192.68436403333334, "velocity": 0.48031496062992124}, {"duration": 2.2452840666666702, "durationTicks": 476, "midi": 62, "name": "D4", "ticks": 40558, "time": 192.68436403333334, "velocity": 0.49606299212598426}, {"duration": 2.2405670833333318, "durationTicks": 475, "midi": 50, "name": "D3", "ticks": 40559, "time": 192.68908101666668, "velocity": 0.5511811023622047}, {"duration": 2.301887866666675, "durationTicks": 488, "midi": 45, "name": "A2", "ticks": 41037, "time": 194.94379905, "velocity": 0.5748031496062992}, {"duration": 2.1650953500000014, "durationTicks": 459, "midi": 57, "name": "A3", "ticks": 41038, "time": 194.94851603333333, "velocity": 0.47244094488188976}, {"duration": 2.2500010500000087, "durationTicks": 477, "midi": 61, "name": "C#4", "ticks": 41038, "time": 194.94851603333333, "velocity": 0.48031496062992124}, {"duration": 2.1886802666666654, "durationTicks": 464, "midi": 64, "name": "E4", "ticks": 41038, "time": 194.94851603333333, "velocity": 0.5590551181102362}, {"duration": 4.4764171833333535, "durationTicks": 949, "midi": 64, "name": "E4", "ticks": 41517, "time": 197.20795105, "velocity": 0.4566929133858268}, {"duration": 1.0801891833333457, "durationTicks": 229, "midi": 56, "name": "G#3", "ticks": 41517, "time": 197.20795105, "velocity": 0.5275590551181102}, {"duration": 2.193397250000004, "durationTicks": 465, "midi": 59, "name": "B3", "ticks": 41518, "time": 197.21266803333333, "velocity": 0.5590551181102362}, {"duration": 2.2452840666666702, "durationTicks": 476, "midi": 52, "name": "E3", "ticks": 41518, "time": 197.21266803333333, "velocity": 0.5748031496062992}, {"duration": 1.1273590166666736, "durationTicks": 239, "midi": 56, "name": "G#3", "ticks": 41756, "time": 198.33531006666666, "velocity": 0.47244094488188976}, {"duration": 2.2500010499999803, "durationTicks": 477, "midi": 54, "name": "F#3", "ticks": 41996, "time": 199.46738606666668, "velocity": 0.5984251968503937}, {"duration": 2.146227416666676, "durationTicks": 455, "midi": 57, "name": "A3", "ticks": 41997, "time": 199.47210305, "velocity": 0.48031496062992124}, {"duration": 2.264152000000024, "durationTicks": 480, "midi": 61, "name": "C#4", "ticks": 41997, "time": 199.47210305, "velocity": 0.5511811023622047}, {"duration": 2.2264161333333448, "durationTicks": 472, "midi": 54, "name": "F#3", "ticks": 42478, "time": 201.74097203333332, "velocity": 0.5669291338582677}, {"duration": 2.2311331166666832, "durationTicks": 473, "midi": 57, "name": "A3", "ticks": 42478, "time": 201.74097203333332, "velocity": 0.48031496062992124}, {"duration": 2.2452840666666702, "durationTicks": 476, "midi": 62, "name": "D4", "ticks": 42478, "time": 201.74097203333332, "velocity": 0.49606299212598426}, {"duration": 2.2405670833333318, "durationTicks": 475, "midi": 50, "name": "D3", "ticks": 42479, "time": 201.74568901666666, "velocity": 0.5511811023622047}, {"duration": 2.2500010500000087, "durationTicks": 477, "midi": 45, "name": "A2", "ticks": 42957, "time": 204.00040705, "velocity": 0.5590551181102362}, {"duration": 2.2500010500000087, "durationTicks": 477, "midi": 52, "name": "E3", "ticks": 42957, "time": 204.00040705, "velocity": 0.5590551181102362}, {"duration": 2.1886802666666654, "durationTicks": 464, "midi": 57, "name": "A3", "ticks": 42957, "time": 204.00040705, "velocity": 0.4094488188976378}, {"duration": 2.2830199333333496, "durationTicks": 484, "midi": 61, "name": "C#4", "ticks": 42957, "time": 204.00040705, "velocity": 0.5118110236220472}, {"duration": 2.2358500999999933, "durationTicks": 474, "midi": 64, "name": "E4", "ticks": 42957, "time": 204.00040705, "velocity": 0.3937007874015748}, {"duration": 1.146226949999999, "durationTicks": 243, "midi": 38, "name": "D2", "ticks": 43437, "time": 206.26455905, "velocity": 0.4015748031496063}, {"duration": 1.1226420333333635, "durationTicks": 238, "midi": 54, "name": "F#3", "ticks": 43440, "time": 206.27871, "velocity": 0.5275590551181102}, {"duration": 1.0896231500000226, "durationTicks": 231, "midi": 62, "name": "D4", "ticks": 43440, "time": 206.27871, "velocity": 0.47244094488188976}, {"duration": 1.1462269500000275, "durationTicks": 243, "midi": 50, "name": "D3", "ticks": 43440, "time": 206.27871, "velocity": 0.4015748031496063}, {"duration": 1.0896231500000226, "durationTicks": 231, "midi": 57, "name": "A3", "ticks": 43440, "time": 206.27871, "velocity": 0.4566929133858268}, {"duration": 1.117925050000025, "durationTicks": 237, "midi": 40, "name": "E2", "ticks": 43677, "time": 207.39663505, "velocity": 0.5196850393700787}, {"duration": 1.117925050000025, "durationTicks": 237, "midi": 62, "name": "D4", "ticks": 43677, "time": 207.39663505, "velocity": 0.31496062992125984}, {"duration": 1.1037741000000096, "durationTicks": 234, "midi": 56, "name": "G#3", "ticks": 43680, "time": 207.410786, "velocity": 0.3543307086614173}, {"duration": 1.1037741000000096, "durationTicks": 234, "midi": 59, "name": "B3", "ticks": 43680, "time": 207.410786, "velocity": 0.31496062992125984}, {"duration": 1.1037741000000096, "durationTicks": 234, "midi": 52, "name": "E3", "ticks": 43680, "time": 207.410786, "velocity": 0.5196850393700787}, {"duration": 2.301887866666675, "durationTicks": 488, "midi": 45, "name": "A2", "ticks": 43917, "time": 208.52871105, "velocity": 0.5748031496062992}, {"duration": 2.1650953500000014, "durationTicks": 459, "midi": 57, "name": "A3", "ticks": 43918, "time": 208.53342803333334, "velocity": 0.47244094488188976}, {"duration": 2.2500010499999803, "durationTicks": 477, "midi": 61, "name": "C#4", "ticks": 43918, "time": 208.53342803333334, "velocity": 0.48031496062992124}, {"duration": 2.1886802666666654, "durationTicks": 464, "midi": 64, "name": "E4", "ticks": 43918, "time": 208.53342803333334, "velocity": 0.5590551181102362}, {"duration": 4.4764171833333535, "durationTicks": 949, "midi": 64, "name": "E4", "ticks": 44397, "time": 210.79286305, "velocity": 0.4566929133858268}, {"duration": 1.0801891833333457, "durationTicks": 229, "midi": 57, "name": "A3", "ticks": 44397, "time": 210.79286305, "velocity": 0.5275590551181102}, {"duration": 2.193397250000004, "durationTicks": 465, "midi": 59, "name": "B3", "ticks": 44398, "time": 210.79758003333333, "velocity": 0.5590551181102362}, {"duration": 2.2452840666666702, "durationTicks": 476, "midi": 52, "name": "E3", "ticks": 44398, "time": 210.79758003333333, "velocity": 0.5748031496062992}, {"duration": 1.1273590166666736, "durationTicks": 239, "midi": 56, "name": "G#3", "ticks": 44636, "time": 211.92022206666667, "velocity": 0.47244094488188976}, {"duration": 2.2500010500000087, "durationTicks": 477, "midi": 54, "name": "F#3", "ticks": 44876, "time": 213.05229806666668, "velocity": 0.5984251968503937}, {"duration": 2.1462274166666475, "durationTicks": 455, "midi": 57, "name": "A3", "ticks": 44877, "time": 213.05701505000002, "velocity": 0.48031496062992124}, {"duration": 2.2641519999999673, "durationTicks": 480, "midi": 61, "name": "C#4", "ticks": 44877, "time": 213.05701505000002, "velocity": 0.5511811023622047}, {"duration": 2.2264161333333163, "durationTicks": 472, "midi": 54, "name": "F#3", "ticks": 45358, "time": 215.32588403333335, "velocity": 0.5669291338582677}, {"duration": 2.231133116666655, "durationTicks": 473, "midi": 57, "name": "A3", "ticks": 45358, "time": 215.32588403333335, "velocity": 0.48031496062992124}, {"duration": 2.245284066666642, "durationTicks": 476, "midi": 62, "name": "D4", "ticks": 45358, "time": 215.32588403333335, "velocity": 0.49606299212598426}, {"duration": 2.2405670833333318, "durationTicks": 475, "midi": 50, "name": "D3", "ticks": 45359, "time": 215.33060101666666, "velocity": 0.5511811023622047}, {"duration": 2.301887866666675, "durationTicks": 488, "midi": 45, "name": "A2", "ticks": 45837, "time": 217.58531905, "velocity": 0.5748031496062992}, {"duration": 2.1650953500000014, "durationTicks": 459, "midi": 57, "name": "A3", "ticks": 45838, "time": 217.59003603333332, "velocity": 0.47244094488188976}, {"duration": 2.250001050000037, "durationTicks": 477, "midi": 61, "name": "C#4", "ticks": 45838, "time": 217.59003603333332, "velocity": 0.48031496062992124}, {"duration": 2.1886802666666654, "durationTicks": 464, "midi": 64, "name": "E4", "ticks": 45838, "time": 217.59003603333332, "velocity": 0.5590551181102362}, {"duration": 4.476417183333325, "durationTicks": 949, "midi": 64, "name": "E4", "ticks": 46317, "time": 219.84947105, "velocity": 0.4566929133858268}, {"duration": 1.0801891833333173, "durationTicks": 229, "midi": 56, "name": "G#3", "ticks": 46317, "time": 219.84947105, "velocity": 0.5275590551181102}, {"duration": 2.1933972499999754, "durationTicks": 465, "midi": 59, "name": "B3", "ticks": 46318, "time": 219.85418803333334, "velocity": 0.5590551181102362}, {"duration": 2.2452840666666702, "durationTicks": 476, "midi": 52, "name": "E3", "ticks": 46318, "time": 219.85418803333334, "velocity": 0.5748031496062992}, {"duration": 1.1273590166666452, "durationTicks": 239, "midi": 56, "name": "G#3", "ticks": 46556, "time": 220.97683006666668, "velocity": 0.47244094488188976}, {"duration": 2.2500010499999803, "durationTicks": 477, "midi": 54, "name": "F#3", "ticks": 46796, "time": 222.1089060666667, "velocity": 0.5984251968503937}, {"duration": 2.146227416666676, "durationTicks": 455, "midi": 57, "name": "A3", "ticks": 46797, "time": 222.11362305, "velocity": 0.48031496062992124}, {"duration": 2.2641519999999957, "durationTicks": 480, "midi": 61, "name": "C#4", "ticks": 46797, "time": 222.11362305, "velocity": 0.5511811023622047}, {"duration": 2.2264161333333163, "durationTicks": 472, "midi": 54, "name": "F#3", "ticks": 47278, "time": 224.38249203333334, "velocity": 0.5669291338582677}, {"duration": 2.2311331166666832, "durationTicks": 473, "midi": 57, "name": "A3", "ticks": 47278, "time": 224.38249203333334, "velocity": 0.48031496062992124}, {"duration": 2.2452840666666702, "durationTicks": 476, "midi": 62, "name": "D4", "ticks": 47278, "time": 224.38249203333334, "velocity": 0.49606299212598426}, {"duration": 2.2405670833333318, "durationTicks": 475, "midi": 50, "name": "D3", "ticks": 47279, "time": 224.38720901666667, "velocity": 0.5511811023622047}, {"duration": 2.2500010500000087, "durationTicks": 477, "midi": 45, "name": "A2", "ticks": 47757, "time": 226.64192705, "velocity": 0.5590551181102362}, {"duration": 2.2500010500000087, "durationTicks": 477, "midi": 52, "name": "E3", "ticks": 47757, "time": 226.64192705, "velocity": 0.5590551181102362}, {"duration": 2.1886802666666654, "durationTicks": 464, "midi": 57, "name": "A3", "ticks": 47757, "time": 226.64192705, "velocity": 0.4094488188976378}, {"duration": 2.2830199333333496, "durationTicks": 484, "midi": 61, "name": "C#4", "ticks": 47757, "time": 226.64192705, "velocity": 0.5118110236220472}, {"duration": 2.2358501000000217, "durationTicks": 474, "midi": 64, "name": "E4", "ticks": 47757, "time": 226.64192705, "velocity": 0.3937007874015748}, {"duration": 1.1462269499999707, "durationTicks": 243, "midi": 38, "name": "D2", "ticks": 48237, "time": 228.90607905000002, "velocity": 0.4015748031496063}, {"duration": 1.1226420333333351, "durationTicks": 238, "midi": 54, "name": "F#3", "ticks": 48240, "time": 228.92023, "velocity": 0.5275590551181102}, {"duration": 1.0896231500000226, "durationTicks": 231, "midi": 62, "name": "D4", "ticks": 48240, "time": 228.92023, "velocity": 0.47244094488188976}, {"duration": 1.146226949999999, "durationTicks": 243, "midi": 50, "name": "D3", "ticks": 48240, "time": 228.92023, "velocity": 0.4015748031496063}, {"duration": 1.0896231500000226, "durationTicks": 231, "midi": 57, "name": "A3", "ticks": 48240, "time": 228.92023, "velocity": 0.4566929133858268}, {"duration": 1.1179250499999966, "durationTicks": 237, "midi": 40, "name": "E2", "ticks": 48477, "time": 230.03815505, "velocity": 0.5196850393700787}, {"duration": 1.1179250499999966, "durationTicks": 237, "midi": 62, "name": "D4", "ticks": 48477, "time": 230.03815505, "velocity": 0.31496062992125984}, {"duration": 1.1037741000000096, "durationTicks": 234, "midi": 56, "name": "G#3", "ticks": 48480, "time": 230.052306, "velocity": 0.3543307086614173}, {"duration": 1.1037741000000096, "durationTicks": 234, "midi": 59, "name": "B3", "ticks": 48480, "time": 230.052306, "velocity": 0.31496062992125984}, {"duration": 1.1037741000000096, "durationTicks": 234, "midi": 52, "name": "E3", "ticks": 48480, "time": 230.052306, "velocity": 0.5196850393700787}, {"duration": 1.1320759999999837, "durationTicks": 240, "midi": 41, "name": "F2", "ticks": 48960, "time": 232.316458, "velocity": 0.7244094488188977}, {"duration": 1.132076000000012, "durationTicks": 240, "midi": 43, "name": "G2", "ticks": 49200, "time": 233.448534, "velocity": 0.7244094488188977}]}, {"channel": 0, "controlChanges": {"0": [{"number": 0, "ticks": 135, "time": 0.63679275, "value": 0}], "6": [{"number": 6, "ticks": 110, "time": 0.5188681666666667, "value": 0.015748031496062992}], "91": [{"number": 91, "ticks": 111, "time": 0.52358515, "value": 0.905511811023622}], "93": [{"number": 93, "ticks": 112, "time": 0.5283021333333334, "value": 0.6692913385826772}], "100": [{"number": 100, "ticks": 107, "time": 0.5047172166666667, "value": 0}], "101": [{"number": 101, "ticks": 109, "time": 0.5141511833333333, "value": 0}], "121": [{"number": 121, "ticks": 103, "time": 0.4858492833333333, "value": 0}]}, "pitchBends": [], "instrument": {"family": "piano", "number": 0, "name": "acoustic grand piano"}, "name": "Chant", "notes": [], "endOfTrackTicks": 50760}, {"channel": 3, "controlChanges": {"1": [{"number": 1, "ticks": 6531, "time": 30.806618150000002, "value": 0.031496062992125984}, {"number": 1, "ticks": 6540, "time": 30.849071000000002, "value": 0.06299212598425197}, {"number": 1, "ticks": 6551, "time": 30.90095781666667, "value": 0.09448818897637795}, {"number": 1, "ticks": 6561, "time": 30.94812765, "value": 0.12598425196850394}, {"number": 1, "ticks": 6570, "time": 30.990580500000004, "value": 0.15748031496062992}, {"number": 1, "ticks": 6588, "time": 31.0754862, "value": 0.1889763779527559}, {"number": 1, "ticks": 6597, "time": 31.117939050000004, "value": 0.2204724409448819}, {"number": 1, "ticks": 6610, "time": 31.179259833333337, "value": 0.25196850393700787}, {"number": 1, "ticks": 6624, "time": 31.245297600000004, "value": 0.28346456692913385}, {"number": 1, "ticks": 6635, "time": 31.297184416666667, "value": 0.31496062992125984}, {"number": 1, "ticks": 6650, "time": 31.367939166666666, "value": 0.3464566929133858}, {"number": 1, "ticks": 6661, "time": 31.419825983333336, "value": 0.3779527559055118}, {"number": 1, "ticks": 6674, "time": 31.48114676666667, "value": 0.4094488188976378}, {"number": 1, "ticks": 6728, "time": 31.73586386666667, "value": 0.4251968503937008}, {"number": 1, "ticks": 6733, "time": 31.759448783333337, "value": 0.3858267716535433}, {"number": 1, "ticks": 6737, "time": 31.77831671666667, "value": 0.33070866141732286}, {"number": 1, "ticks": 6742, "time": 31.801901633333333, "value": 0.2440944881889764}, {"number": 1, "ticks": 6746, "time": 31.82076956666667, "value": 0.14173228346456693}, {"number": 1, "ticks": 6751, "time": 31.844354483333337, "value": 0.047244094488188976}, {"number": 1, "ticks": 6754, "time": 31.858505433333335, "value": 0}, {"number": 1, "ticks": 6857, "time": 32.34435471666667, "value": 0.023622047244094488}, {"number": 1, "ticks": 6870, "time": 32.4056755, "value": 0.05511811023622047}, {"number": 1, "ticks": 6882, "time": 32.462279300000006, "value": 0.08661417322834646}, {"number": 1, "ticks": 6893, "time": 32.51416611666667, "value": 0.11811023622047244}, {"number": 1, "ticks": 6934, "time": 32.70756243333334, "value": 0.13385826771653545}, {"number": 1, "ticks": 6949, "time": 32.778317183333336, "value": 0.10236220472440945}, {"number": 1, "ticks": 6955, "time": 32.80661908333334, "value": 0.06299212598425197}, {"number": 1, "ticks": 7959, "time": 37.54247035, "value": 0.007874015748031496}, {"number": 1, "ticks": 7973, "time": 37.60850811666667, "value": 0.03937007874015748}, {"number": 1, "ticks": 7982, "time": 37.650960966666666, "value": 0.07086614173228346}, {"number": 1, "ticks": 7993, "time": 37.70284778333334, "value": 0.10236220472440945}, {"number": 1, "ticks": 8005, "time": 37.75945158333333, "value": 0.13385826771653545}, {"number": 1, "ticks": 8015, "time": 37.80662141666667, "value": 0.16535433070866143}, {"number": 1, "ticks": 8031, "time": 37.88209315, "value": 0.1968503937007874}, {"number": 1, "ticks": 8039, "time": 37.91982901666667, "value": 0.2283464566929134}, {"number": 1, "ticks": 8054, "time": 37.99058376666667, "value": 0.25984251968503935}, {"number": 1, "ticks": 8067, "time": 38.051904549999996, "value": 0.29133858267716534}, {"number": 1, "ticks": 8078, "time": 38.10379136666667, "value": 0.3228346456692913}, {"number": 1, "ticks": 8094, "time": 38.17926310000001, "value": 0.3543307086614173}, {"number": 1, "ticks": 8105, "time": 38.23114991666667, "value": 0.3858267716535433}, {"number": 1, "ticks": 8118, "time": 38.2924707, "value": 0.41732283464566927}, {"number": 1, "ticks": 8170, "time": 38.53775383333333, "value": 0.41732283464566927}, {"number": 1, "ticks": 8174, "time": 38.556621766666666, "value": 0.3779527559055118}, {"number": 1, "ticks": 8179, "time": 38.58020668333334, "value": 0.31496062992125984}, {"number": 1, "ticks": 8183, "time": 38.59907461666667, "value": 0.2204724409448819}, {"number": 1, "ticks": 8187, "time": 38.61794255, "value": 0.11811023622047244}, {"number": 1, "ticks": 8192, "time": 38.641527466666666, "value": 0.023622047244094488}, {"number": 1, "ticks": 8194, "time": 38.650961433333336, "value": 0}, {"number": 1, "ticks": 8294, "time": 39.122659766666665, "value": 0.015748031496062992}, {"number": 1, "ticks": 8307, "time": 39.18398055, "value": 0.047244094488188976}, {"number": 1, "ticks": 8320, "time": 39.24530133333333, "value": 0.07874015748031496}, {"number": 1, "ticks": 8330, "time": 39.29247116666667, "value": 0.11023622047244094}, {"number": 1, "ticks": 8353, "time": 39.40096178333334, "value": 0.14173228346456693}, {"number": 1, "ticks": 8387, "time": 39.56133921666667, "value": 0.11023622047244094}, {"number": 1, "ticks": 8394, "time": 39.59435810000001, "value": 0.07874015748031496}, {"number": 1, "ticks": 8399, "time": 39.617943016666665, "value": 0.03937007874015748}, {"number": 1, "ticks": 8464, "time": 39.92454693333333, "value": 0.031496062992125984}, {"number": 1, "ticks": 8476, "time": 39.98115073333334, "value": 0.06299212598425197}, {"number": 1, "ticks": 8483, "time": 40.01416961666667, "value": 0.09448818897637795}, {"number": 1, "ticks": 8491, "time": 40.05190548333334, "value": 0.12598425196850394}, {"number": 1, "ticks": 8501, "time": 40.09907531666667, "value": 0.16535433070866143}, {"number": 1, "ticks": 8512, "time": 40.15096213333334, "value": 0.1968503937007874}, {"number": 1, "ticks": 8527, "time": 40.221716883333336, "value": 0.11811023622047244}, {"number": 1, "ticks": 8531, "time": 40.24058481666667, "value": 0}, {"number": 1, "ticks": 8719, "time": 41.127377683333336, "value": 0.031496062992125984}, {"number": 1, "ticks": 8739, "time": 41.221717350000006, "value": 0.06299212598425197}, {"number": 1, "ticks": 8772, "time": 41.3773778, "value": 0.09448818897637795}, {"number": 1, "ticks": 8815, "time": 41.58020808333333, "value": 0.07874015748031496}, {"number": 1, "ticks": 8820, "time": 41.603793, "value": 0}, {"number": 1, "ticks": 8934, "time": 42.14152910000001, "value": 0.031496062992125984}, {"number": 1, "ticks": 8945, "time": 42.19341591666667, "value": 0.06299212598425197}, {"number": 1, "ticks": 8958, "time": 42.25473670000001, "value": 0.09448818897637795}, {"number": 1, "ticks": 8975, "time": 42.33492541666667, "value": 0.12598425196850394}, {"number": 1, "ticks": 8984, "time": 42.37737826666667, "value": 0.16535433070866143}, {"number": 1, "ticks": 8993, "time": 42.419831116666664, "value": 0.1968503937007874}, {"number": 1, "ticks": 9002, "time": 42.46228396666667, "value": 0.2283464566929134}, {"number": 1, "ticks": 9012, "time": 42.5094538, "value": 0.25984251968503935}, {"number": 1, "ticks": 9024, "time": 42.56605760000001, "value": 0.29133858267716534}, {"number": 1, "ticks": 9070, "time": 42.783038833333336, "value": 0.29133858267716534}, {"number": 1, "ticks": 9074, "time": 42.80190676666667, "value": 0.2440944881889764}, {"number": 1, "ticks": 9079, "time": 42.82549168333333, "value": 0.1732283464566929}, {"number": 1, "ticks": 9084, "time": 42.849076600000004, "value": 0.07874015748031496}, {"number": 1, "ticks": 9088, "time": 42.867944533333336, "value": 0}, {"number": 1, "ticks": 9203, "time": 43.41039761666667, "value": 0.031496062992125984}, {"number": 1, "ticks": 9212, "time": 43.45285046666667, "value": 0.06299212598425197}, {"number": 1, "ticks": 9220, "time": 43.49058633333333, "value": 0.09448818897637795}, {"number": 1, "ticks": 9242, "time": 43.59435996666667, "value": 0.12598425196850394}, {"number": 1, "ticks": 9255, "time": 43.65568075, "value": 0.15748031496062992}, {"number": 1, "ticks": 9270, "time": 43.7264355, "value": 0.1889763779527559}, {"number": 1, "ticks": 9285, "time": 43.79719025, "value": 0.2204724409448819}, {"number": 1, "ticks": 9310, "time": 43.915114833333334, "value": 0.18110236220472442}, {"number": 1, "ticks": 9315, "time": 43.938699750000005, "value": 0.14173228346456693}, {"number": 1, "ticks": 9319, "time": 43.95756768333334, "value": 0.07874015748031496}, {"number": 1, "ticks": 9323, "time": 43.97643561666667, "value": 0.015748031496062992}, {"number": 1, "ticks": 9324, "time": 43.9811526, "value": 0}, {"number": 1, "ticks": 9631, "time": 45.42926648333334, "value": 0.007874015748031496}, {"number": 1, "ticks": 9641, "time": 45.47643631666667, "value": 0.03937007874015748}, {"number": 1, "ticks": 9668, "time": 45.60379486666667, "value": 0.07086614173228346}, {"number": 1, "ticks": 9680, "time": 45.66039866666667, "value": 0.10236220472440945}, {"number": 1, "ticks": 9709, "time": 45.79719118333333, "value": 0.13385826771653545}, {"number": 1, "ticks": 9724, "time": 45.86794593333334, "value": 0.16535433070866143}, {"number": 1, "ticks": 9762, "time": 46.0471913, "value": 0.1968503937007874}, {"number": 1, "ticks": 9770, "time": 46.084927166666674, "value": 0.2283464566929134}, {"number": 1, "ticks": 9778, "time": 46.12266303333334, "value": 0.25984251968503935}, {"number": 1, "ticks": 9792, "time": 46.1887008, "value": 0.2440944881889764}, {"number": 1, "ticks": 9797, "time": 46.21228571666667, "value": 0.06299212598425197}, {"number": 1, "ticks": 9799, "time": 46.22171968333333, "value": 0}, {"number": 1, "ticks": 10390, "time": 49.00945683333333, "value": 0.015748031496062992}, {"number": 1, "ticks": 10400, "time": 49.05662666666667, "value": 0.047244094488188976}, {"number": 1, "ticks": 10410, "time": 49.1037965, "value": 0.07874015748031496}, {"number": 1, "ticks": 10428, "time": 49.18870220000001, "value": 0.11023622047244094}, {"number": 1, "ticks": 10566, "time": 49.8396459, "value": 0.16535433070866143}, {"number": 1, "ticks": 10571, "time": 49.86323081666667, "value": 0.007874015748031496}, {"number": 1, "ticks": 10572, "time": 49.8679478, "value": 0}, {"number": 1, "ticks": 11260, "time": 53.113232333333336, "value": 0.007874015748031496}, {"number": 1, "ticks": 11267, "time": 53.14625121666667, "value": 0.03937007874015748}, {"number": 1, "ticks": 11273, "time": 53.174553116666665, "value": 0.07086614173228346}, {"number": 1, "ticks": 11280, "time": 53.207572000000006, "value": 0.10236220472440945}, {"number": 1, "ticks": 11290, "time": 53.254741833333334, "value": 0.13385826771653545}, {"number": 1, "ticks": 11299, "time": 53.29719468333334, "value": 0.16535433070866143}, {"number": 1, "ticks": 11360, "time": 53.58493066666667, "value": 0.14173228346456693}, {"number": 1, "ticks": 11365, "time": 53.608515583333336, "value": 0.06299212598425197}, {"number": 1, "ticks": 11368, "time": 53.62266653333334, "value": 0}, {"number": 1, "ticks": 11625, "time": 54.834931250000004, "value": 0.023622047244094488}, {"number": 1, "ticks": 11630, "time": 54.858516166666675, "value": 0.05511811023622047}, {"number": 1, "ticks": 11637, "time": 54.89153505, "value": 0.09448818897637795}, {"number": 1, "ticks": 11646, "time": 54.933987900000005, "value": 0.12598425196850394}, {"number": 1, "ticks": 11660, "time": 55.00002566666667, "value": 0.15748031496062992}, {"number": 1, "ticks": 11680, "time": 55.094365333333336, "value": 0.1889763779527559}, {"number": 1, "ticks": 11709, "time": 55.23115785, "value": 0.13385826771653545}, {"number": 1, "ticks": 11714, "time": 55.254742766666666, "value": 0.015748031496062992}, {"number": 1, "ticks": 11715, "time": 55.259459750000005, "value": 0}, {"number": 1, "ticks": 12307, "time": 58.05191388333334, "value": 0.007874015748031496}, {"number": 1, "ticks": 12317, "time": 58.09908371666667, "value": 0.03937007874015748}, {"number": 1, "ticks": 12327, "time": 58.146253550000004, "value": 0.07086614173228346}, {"number": 1, "ticks": 12346, "time": 58.23587623333334, "value": 0.10236220472440945}, {"number": 1, "ticks": 12485, "time": 58.891536916666674, "value": 0.13385826771653545}, {"number": 1, "ticks": 12490, "time": 58.91512183333334, "value": 0.05511811023622047}, {"number": 1, "ticks": 12492, "time": 58.9245558, "value": 0}, {"number": 1, "ticks": 13181, "time": 62.17455731666667, "value": 0.015748031496062992}, {"number": 1, "ticks": 13189, "time": 62.21229318333334, "value": 0.047244094488188976}, {"number": 1, "ticks": 13193, "time": 62.23116111666667, "value": 0.07874015748031496}, {"number": 1, "ticks": 13203, "time": 62.278330950000004, "value": 0.11023622047244094}, {"number": 1, "ticks": 13212, "time": 62.3207838, "value": 0.14173228346456693}, {"number": 1, "ticks": 13224, "time": 62.377387600000006, "value": 0.1732283464566929}, {"number": 1, "ticks": 13281, "time": 62.64625565, "value": 0.12598425196850394}, {"number": 1, "ticks": 13285, "time": 62.66512358333333, "value": 0.03937007874015748}, {"number": 1, "ticks": 13288, "time": 62.67927453333334, "value": 0}, {"number": 1, "ticks": 13544, "time": 63.88682226666667, "value": 0.015748031496062992}, {"number": 1, "ticks": 13549, "time": 63.910407183333334, "value": 0.047244094488188976}, {"number": 1, "ticks": 13555, "time": 63.938709083333336, "value": 0.07874015748031496}, {"number": 1, "ticks": 13564, "time": 63.98116193333334, "value": 0.11811023622047244}, {"number": 1, "ticks": 13579, "time": 64.05191668333333, "value": 0.14960629921259844}, {"number": 1, "ticks": 13593, "time": 64.11795445000001, "value": 0.18110236220472442}, {"number": 1, "ticks": 13628, "time": 64.28304886666668, "value": 0.15748031496062992}, {"number": 1, "ticks": 13633, "time": 64.30663378333334, "value": 0.047244094488188976}, {"number": 1, "ticks": 13635, "time": 64.31606775, "value": 0}, {"number": 1, "ticks": 14775, "time": 69.69342875000001, "value": 0.015748031496062992}, {"number": 1, "ticks": 14789, "time": 69.75946651666666, "value": 0.047244094488188976}, {"number": 1, "ticks": 14811, "time": 69.86324015000001, "value": 0.07874015748031496}, {"number": 1, "ticks": 14825, "time": 69.92927791666668, "value": 0.11023622047244094}, {"number": 1, "ticks": 14840, "time": 70.00003266666667, "value": 0.14173228346456693}, {"number": 1, "ticks": 14848, "time": 70.03776853333333, "value": 0.1732283464566929}, {"number": 1, "ticks": 14864, "time": 70.11324026666666, "value": 0.2047244094488189}, {"number": 1, "ticks": 14879, "time": 70.18399501666667, "value": 0.23622047244094488}, {"number": 1, "ticks": 14893, "time": 70.25003278333334, "value": 0.2677165354330709}, {"number": 1, "ticks": 14919, "time": 70.37267435000001, "value": 0.2992125984251969}, {"number": 1, "ticks": 14939, "time": 70.46701401666667, "value": 0.33070866141732286}, {"number": 1, "ticks": 14963, "time": 70.58022161666668, "value": 0.36220472440944884}, {"number": 1, "ticks": 15002, "time": 70.76418396666668, "value": 0.3937007874015748}, {"number": 1, "ticks": 15036, "time": 70.9245614, "value": 0.4251968503937008}, {"number": 1, "ticks": 15101, "time": 71.23116531666668, "value": 0.4251968503937008}, {"number": 1, "ticks": 15105, "time": 71.25003325, "value": 0.33070866141732286}, {"number": 1, "ticks": 15110, "time": 71.27361816666668, "value": 0.15748031496062992}, {"number": 1, "ticks": 15114, "time": 71.2924861, "value": 0}, {"number": 1, "ticks": 15457, "time": 72.91041138333334, "value": 0.031496062992125984}, {"number": 1, "ticks": 15466, "time": 72.95286423333333, "value": 0.06299212598425197}, {"number": 1, "ticks": 15487, "time": 73.05192088333334, "value": 0.09448818897637795}, {"number": 1, "ticks": 15500, "time": 73.11324166666667, "value": 0.12598425196850394}, {"number": 1, "ticks": 15581, "time": 73.49531731666667, "value": 0.15748031496062992}, {"number": 1, "ticks": 15593, "time": 73.55192111666668, "value": 0.1889763779527559}, {"number": 1, "ticks": 15712, "time": 74.11324213333334, "value": 0.1732283464566929}, {"number": 1, "ticks": 15716, "time": 74.13211006666667, "value": 0.11811023622047244}, {"number": 1, "ticks": 15721, "time": 74.15569498333333, "value": 0.015748031496062992}, {"number": 1, "ticks": 15723, "time": 74.16512895000001, "value": 0}, {"number": 1, "ticks": 16418, "time": 77.44343236666667, "value": 0.007874015748031496}, {"number": 1, "ticks": 16437, "time": 77.53305505, "value": 0.03937007874015748}, {"number": 1, "ticks": 16450, "time": 77.59437583333334, "value": 0.07086614173228346}, {"number": 1, "ticks": 16471, "time": 77.69343248333334, "value": 0.10236220472440945}, {"number": 1, "ticks": 16491, "time": 77.78777215000001, "value": 0.13385826771653545}, {"number": 1, "ticks": 16526, "time": 77.95286656666667, "value": 0.16535433070866143}, {"number": 1, "ticks": 16560, "time": 78.11324400000001, "value": 0.1968503937007874}, {"number": 1, "ticks": 16580, "time": 78.20758366666666, "value": 0.2283464566929134}, {"number": 1, "ticks": 16785, "time": 79.17456525, "value": 0.2440944881889764}, {"number": 1, "ticks": 16790, "time": 79.19815016666666, "value": 0.14960629921259844}, {"number": 1, "ticks": 16795, "time": 79.22173508333334, "value": 0}, {"number": 1, "ticks": 17323, "time": 81.71230228333333, "value": 0.031496062992125984}, {"number": 1, "ticks": 17345, "time": 81.81607591666666, "value": 0.06299212598425197}, {"number": 1, "ticks": 17371, "time": 81.93871748333333, "value": 0.09448818897637795}, {"number": 1, "ticks": 17417, "time": 82.15569871666668, "value": 0.12598425196850394}, {"number": 1, "ticks": 17445, "time": 82.28777425000001, "value": 0.15748031496062992}, {"number": 1, "ticks": 17554, "time": 82.80192543333334, "value": 0.11023622047244094}, {"number": 1, "ticks": 17558, "time": 82.82079336666668, "value": 0.023622047244094488}, {"number": 1, "ticks": 17560, "time": 82.83022733333334, "value": 0}, {"number": 1, "ticks": 18352, "time": 86.56607813333333, "value": 0.015748031496062992}, {"number": 1, "ticks": 18375, "time": 86.67456875, "value": 0.047244094488188976}, {"number": 1, "ticks": 18392, "time": 86.75475746666667, "value": 0.07874015748031496}, {"number": 1, "ticks": 18434, "time": 86.95287076666668, "value": 0.11023622047244094}, {"number": 1, "ticks": 18464, "time": 87.09438026666668, "value": 0.14173228346456693}, {"number": 1, "ticks": 18481, "time": 87.17456898333333, "value": 0.1732283464566929}, {"number": 1, "ticks": 18503, "time": 87.27834261666668, "value": 0.2047244094488189}, {"number": 1, "ticks": 18523, "time": 87.37268228333333, "value": 0.23622047244094488}, {"number": 1, "ticks": 18545, "time": 87.47645591666667, "value": 0.2677165354330709}, {"number": 1, "ticks": 18555, "time": 87.52362575000001, "value": 0.2992125984251969}, {"number": 1, "ticks": 18568, "time": 87.58494653333334, "value": 0.33070866141732286}, {"number": 1, "ticks": 18580, "time": 87.64155033333334, "value": 0.36220472440944884}, {"number": 1, "ticks": 18611, "time": 87.78777681666668, "value": 0.3937007874015748}, {"number": 1, "ticks": 18706, "time": 88.23589023333334, "value": 0.4094488188976378}, {"number": 1, "ticks": 18711, "time": 88.25947515000001, "value": 0.3779527559055118}, {"number": 1, "ticks": 18715, "time": 88.27834308333334, "value": 0.2992125984251969}, {"number": 1, "ticks": 18720, "time": 88.301928, "value": 0.15748031496062992}, {"number": 1, "ticks": 18724, "time": 88.32079593333334, "value": 0}, {"number": 1, "ticks": 19583, "time": 92.37268461666667, "value": 0.031496062992125984}, {"number": 1, "ticks": 19604, "time": 92.47174126666668, "value": 0.06299212598425197}, {"number": 1, "ticks": 19617, "time": 92.53306205, "value": 0.09448818897637795}, {"number": 1, "ticks": 19633, "time": 92.60853378333333, "value": 0.12598425196850394}, {"number": 1, "ticks": 19645, "time": 92.66513758333335, "value": 0.15748031496062992}, {"number": 1, "ticks": 19655, "time": 92.71230741666666, "value": 0.1889763779527559}, {"number": 1, "ticks": 19671, "time": 92.78777915000002, "value": 0.2204724409448819}, {"number": 1, "ticks": 19685, "time": 92.85381691666667, "value": 0.25196850393700787}, {"number": 1, "ticks": 19708, "time": 92.96230753333333, "value": 0.28346456692913385}, {"number": 1, "ticks": 19734, "time": 93.0849491, "value": 0.31496062992125984}, {"number": 1, "ticks": 19751, "time": 93.16513781666667, "value": 0.3464566929133858}, {"number": 1, "ticks": 19771, "time": 93.25947748333334, "value": 0.3779527559055118}, {"number": 1, "ticks": 19811, "time": 93.44815681666667, "value": 0.4094488188976378}, {"number": 1, "ticks": 19872, "time": 93.7358928, "value": 0.4409448818897638}, {"number": 1, "ticks": 19904, "time": 93.88683626666668, "value": 0.3858267716535433}, {"number": 1, "ticks": 19908, "time": 93.90570420000002, "value": 0.25984251968503935}, {"number": 1, "ticks": 19912, "time": 93.92457213333334, "value": 0.07086614173228346}, {"number": 1, "ticks": 19914, "time": 93.9340061, "value": 0}, {"number": 1, "ticks": 20250, "time": 95.51891250000001, "value": 0.015748031496062992}, {"number": 1, "ticks": 20261, "time": 95.57079931666668, "value": 0.047244094488188976}, {"number": 1, "ticks": 20280, "time": 95.66042200000001, "value": 0.07874015748031496}, {"number": 1, "ticks": 20292, "time": 95.7170258, "value": 0.11023622047244094}, {"number": 1, "ticks": 20366, "time": 96.06608256666668, "value": 0.14173228346456693}, {"number": 1, "ticks": 20386, "time": 96.16042223333334, "value": 0.1732283464566929}, {"number": 1, "ticks": 20508, "time": 96.7358942, "value": 0.1889763779527559}, {"number": 1, "ticks": 20514, "time": 96.7641961, "value": 0.14960629921259844}, {"number": 1, "ticks": 20519, "time": 96.78778101666668, "value": 0.07086614173228346}, {"number": 1, "ticks": 20523, "time": 96.80664895000001, "value": 0}, {"number": 1, "ticks": 21228, "time": 100.13212220000001, "value": 0.023622047244094488}, {"number": 1, "ticks": 21244, "time": 100.20759393333334, "value": 0.05511811023622047}, {"number": 1, "ticks": 21255, "time": 100.25948075000001, "value": 0.08661417322834646}, {"number": 1, "ticks": 21282, "time": 100.3868393, "value": 0.11811023622047244}, {"number": 1, "ticks": 21308, "time": 100.50948086666668, "value": 0.14960629921259844}, {"number": 1, "ticks": 21345, "time": 100.68400925, "value": 0.18110236220472442}, {"number": 1, "ticks": 21374, "time": 100.82080176666668, "value": 0.2125984251968504}, {"number": 1, "ticks": 21414, "time": 101.0094811, "value": 0.2440944881889764}, {"number": 1, "ticks": 21516, "time": 101.49061340000002, "value": 0.023622047244094488}, {"number": 1, "ticks": 21537, "time": 101.58967005000001, "value": 0.05511811023622047}, {"number": 1, "ticks": 21556, "time": 101.67929273333334, "value": 0.08661417322834646}, {"number": 1, "ticks": 21577, "time": 101.77834938333335, "value": 0.11811023622047244}, {"number": 1, "ticks": 21587, "time": 101.82551921666668, "value": 0.13385826771653545}, {"number": 1, "ticks": 21591, "time": 101.84438715000002, "value": 0.14173228346456693}, {"number": 1, "ticks": 21595, "time": 101.86325508333334, "value": 0.14960629921259844}, {"number": 1, "ticks": 21595, "time": 101.86325508333334, "value": 0}, {"number": 1, "ticks": 21597, "time": 101.87268905, "value": 0.15748031496062992}, {"number": 1, "ticks": 21609, "time": 101.92929285, "value": 0.1889763779527559}, {"number": 1, "ticks": 21623, "time": 101.99533061666668, "value": 0.2204724409448819}, {"number": 1, "ticks": 21705, "time": 102.38212325, "value": 0.2204724409448819}, {"number": 1, "ticks": 21710, "time": 102.40570816666667, "value": 0.14173228346456693}, {"number": 1, "ticks": 21715, "time": 102.42929308333335, "value": 0.007874015748031496}, {"number": 1, "ticks": 21715, "time": 102.42929308333335, "value": 0}, {"number": 1, "ticks": 22115, "time": 104.31608641666666, "value": 0.007874015748031496}, {"number": 1, "ticks": 22126, "time": 104.36797323333333, "value": 0.03937007874015748}, {"number": 1, "ticks": 22158, "time": 104.5189167, "value": 0.07086614173228346}, {"number": 1, "ticks": 22178, "time": 104.61325636666668, "value": 0.10236220472440945}, {"number": 1, "ticks": 22229, "time": 104.85382251666668, "value": 0.13385826771653545}, {"number": 1, "ticks": 22350, "time": 105.42457750000001, "value": 0.14960629921259844}, {"number": 1, "ticks": 22355, "time": 105.44816241666666, "value": 0.08661417322834646}, {"number": 1, "ticks": 22359, "time": 105.46703035, "value": 0.007874015748031496}, {"number": 1, "ticks": 22360, "time": 105.47174733333334, "value": 0}, {"number": 1, "ticks": 23146, "time": 109.17929623333333, "value": 0.007874015748031496}, {"number": 1, "ticks": 23168, "time": 109.28306986666668, "value": 0.03937007874015748}, {"number": 1, "ticks": 23188, "time": 109.37740953333333, "value": 0.07086614173228346}, {"number": 1, "ticks": 23225, "time": 109.55193791666667, "value": 0.10236220472440945}, {"number": 1, "ticks": 23258, "time": 109.70759836666667, "value": 0.13385826771653545}, {"number": 1, "ticks": 23277, "time": 109.79722105, "value": 0.16535433070866143}, {"number": 1, "ticks": 23291, "time": 109.86325881666667, "value": 0.1968503937007874}, {"number": 1, "ticks": 23320, "time": 110.00005133333335, "value": 0.2283464566929134}, {"number": 1, "ticks": 23342, "time": 110.10382496666668, "value": 0.25984251968503935}, {"number": 1, "ticks": 23354, "time": 110.16042876666668, "value": 0.29133858267716534}, {"number": 1, "ticks": 23365, "time": 110.21231558333335, "value": 0.3228346456692913}, {"number": 1, "ticks": 23378, "time": 110.27363636666668, "value": 0.3543307086614173}, {"number": 1, "ticks": 23401, "time": 110.38212698333334, "value": 0.3858267716535433}, {"number": 1, "ticks": 23462, "time": 110.66986296666668, "value": 0.41732283464566927}, {"number": 1, "ticks": 23510, "time": 110.89627816666668, "value": 0.3858267716535433}, {"number": 1, "ticks": 23514, "time": 110.9151461, "value": 0.3228346456692913}, {"number": 1, "ticks": 23518, "time": 110.93401403333334, "value": 0.1968503937007874}, {"number": 1, "ticks": 23523, "time": 110.95759895, "value": 0.007874015748031496}, {"number": 1, "ticks": 23524, "time": 110.96231593333334, "value": 0}, {"number": 1, "ticks": 25239, "time": 119.05194235, "value": 0.007874015748031496}, {"number": 1, "ticks": 25253, "time": 119.11798011666667, "value": 0.03937007874015748}, {"number": 1, "ticks": 25262, "time": 119.16043296666668, "value": 0.07086614173228346}, {"number": 1, "ticks": 25273, "time": 119.21231978333333, "value": 0.10236220472440945}, {"number": 1, "ticks": 25285, "time": 119.26892358333335, "value": 0.13385826771653545}, {"number": 1, "ticks": 25295, "time": 119.31609341666667, "value": 0.16535433070866143}, {"number": 1, "ticks": 25311, "time": 119.39156515000002, "value": 0.1968503937007874}, {"number": 1, "ticks": 25319, "time": 119.42930101666668, "value": 0.2283464566929134}, {"number": 1, "ticks": 25334, "time": 119.50005576666668, "value": 0.25984251968503935}, {"number": 1, "ticks": 25347, "time": 119.56137655, "value": 0.29133858267716534}, {"number": 1, "ticks": 25358, "time": 119.61326336666667, "value": 0.3228346456692913}, {"number": 1, "ticks": 25374, "time": 119.6887351, "value": 0.3543307086614173}, {"number": 1, "ticks": 25385, "time": 119.74062191666667, "value": 0.3858267716535433}, {"number": 1, "ticks": 25398, "time": 119.80194270000001, "value": 0.41732283464566927}, {"number": 1, "ticks": 25450, "time": 120.04722583333334, "value": 0.41732283464566927}, {"number": 1, "ticks": 25454, "time": 120.06609376666668, "value": 0.3779527559055118}, {"number": 1, "ticks": 25459, "time": 120.08967868333335, "value": 0.31496062992125984}, {"number": 1, "ticks": 25463, "time": 120.10854661666667, "value": 0.2204724409448819}, {"number": 1, "ticks": 25467, "time": 120.12741455000001, "value": 0.11811023622047244}, {"number": 1, "ticks": 25472, "time": 120.15099946666669, "value": 0.023622047244094488}, {"number": 1, "ticks": 25474, "time": 120.16043343333334, "value": 0}, {"number": 1, "ticks": 25574, "time": 120.63213176666667, "value": 0.015748031496062992}, {"number": 1, "ticks": 25587, "time": 120.69345255, "value": 0.047244094488188976}, {"number": 1, "ticks": 25600, "time": 120.75477333333335, "value": 0.07874015748031496}, {"number": 1, "ticks": 25610, "time": 120.80194316666667, "value": 0.11023622047244094}, {"number": 1, "ticks": 25633, "time": 120.91043378333333, "value": 0.14173228346456693}, {"number": 1, "ticks": 25667, "time": 121.07081121666668, "value": 0.11023622047244094}, {"number": 1, "ticks": 25674, "time": 121.1038301, "value": 0.07874015748031496}, {"number": 1, "ticks": 25679, "time": 121.12741501666667, "value": 0.03937007874015748}, {"number": 1, "ticks": 26523, "time": 125.10854895000001, "value": 0.031496062992125984}, {"number": 1, "ticks": 26552, "time": 125.24534146666669, "value": 0.06299212598425197}, {"number": 1, "ticks": 26558, "time": 125.27364336666668, "value": 0.10236220472440945}, {"number": 1, "ticks": 26563, "time": 125.29722828333334, "value": 0.13385826771653545}, {"number": 1, "ticks": 26569, "time": 125.32553018333334, "value": 0.16535433070866143}, {"number": 1, "ticks": 26579, "time": 125.37270001666668, "value": 0.1968503937007874}, {"number": 1, "ticks": 26593, "time": 125.43873778333334, "value": 0.13385826771653545}, {"number": 1, "ticks": 26598, "time": 125.46232270000002, "value": 0.007874015748031496}, {"number": 1, "ticks": 26599, "time": 125.46703968333334, "value": 0}, {"number": 1, "ticks": 27201, "time": 128.30666365000002, "value": 0.007874015748031496}, {"number": 1, "ticks": 27213, "time": 128.36326745000002, "value": 0.03937007874015748}, {"number": 1, "ticks": 27222, "time": 128.4057203, "value": 0.07086614173228346}, {"number": 1, "ticks": 27229, "time": 128.43873918333335, "value": 0.10236220472440945}, {"number": 1, "ticks": 27240, "time": 128.49062600000002, "value": 0.14173228346456693}, {"number": 1, "ticks": 27246, "time": 128.51892790000002, "value": 0.1732283464566929}, {"number": 1, "ticks": 27253, "time": 128.55194678333334, "value": 0.2047244094488189}, {"number": 1, "ticks": 27262, "time": 128.59439963333335, "value": 0.23622047244094488}, {"number": 1, "ticks": 27270, "time": 128.6321355, "value": 0.2677165354330709}, {"number": 1, "ticks": 27279, "time": 128.67458835, "value": 0.2992125984251969}, {"number": 1, "ticks": 27290, "time": 128.72647516666666, "value": 0.33070866141732286}, {"number": 1, "ticks": 27345, "time": 128.98590925000002, "value": 0.33070866141732286}, {"number": 1, "ticks": 27350, "time": 129.00949416666668, "value": 0.25984251968503935}, {"number": 1, "ticks": 27355, "time": 129.03307908333335, "value": 0.09448818897637795}, {"number": 1, "ticks": 27358, "time": 129.04723003333334, "value": 0}, {"number": 1, "ticks": 28120, "time": 132.64157133333336, "value": 0.023622047244094488}, {"number": 1, "ticks": 28128, "time": 132.6793072, "value": 0.05511811023622047}, {"number": 1, "ticks": 28137, "time": 132.72176005, "value": 0.08661417322834646}, {"number": 1, "ticks": 28156, "time": 132.81138273333335, "value": 0.11811023622047244}, {"number": 1, "ticks": 28177, "time": 132.91043938333334, "value": 0.14960629921259844}, {"number": 1, "ticks": 28190, "time": 132.97176016666668, "value": 0.18110236220472442}, {"number": 1, "ticks": 28200, "time": 133.01893, "value": 0.2125984251968504}, {"number": 1, "ticks": 28207, "time": 133.05194888333335, "value": 0.25196850393700787}, {"number": 1, "ticks": 28213, "time": 133.08025078333333, "value": 0.28346456692913385}, {"number": 1, "ticks": 28217, "time": 133.09911871666668, "value": 0.31496062992125984}, {"number": 1, "ticks": 28229, "time": 133.15572251666669, "value": 0.33858267716535434}, {"number": 1, "ticks": 28233, "time": 133.17459045, "value": 0.25196850393700787}, {"number": 1, "ticks": 28237, "time": 133.19345838333334, "value": 0.06299212598425197}, {"number": 1, "ticks": 28239, "time": 133.20289235, "value": 0}, {"number": 1, "ticks": 28343, "time": 133.699968, "value": 0.015748031496062992}, {"number": 1, "ticks": 28350, "time": 133.734968, "value": 0.05511811023622047}, {"number": 1, "ticks": 28358, "time": 133.774968, "value": 0.08661417322834646}, {"number": 1, "ticks": 28364, "time": 133.804968, "value": 0.12598425196850394}, {"number": 1, "ticks": 28370, "time": 133.834968, "value": 0.16535433070866143}, {"number": 1, "ticks": 28376, "time": 133.864968, "value": 0.2047244094488189}, {"number": 1, "ticks": 28380, "time": 133.88496800000001, "value": 0.23622047244094488}, {"number": 1, "ticks": 28388, "time": 133.924968, "value": 0.28346456692913385}, {"number": 1, "ticks": 28395, "time": 133.959968, "value": 0.31496062992125984}, {"number": 1, "ticks": 28401, "time": 133.989968, "value": 0.3464566929133858}, {"number": 1, "ticks": 28408, "time": 134.024968, "value": 0.3779527559055118}, {"number": 1, "ticks": 28417, "time": 134.06996800000002, "value": 0.4094488188976378}, {"number": 1, "ticks": 28435, "time": 134.159968, "value": 0.4094488188976378}, {"number": 1, "ticks": 28439, "time": 134.179968, "value": 0.30708661417322836}, {"number": 1, "ticks": 28443, "time": 134.199968, "value": 0.14960629921259844}, {"number": 1, "ticks": 28447, "time": 134.219968, "value": 0.015748031496062992}, {"number": 1, "ticks": 28449, "time": 134.229968, "value": 0}, {"number": 1, "ticks": 28563, "time": 134.801634675, "value": 0.007874015748031496}, {"number": 1, "ticks": 28568, "time": 134.82941246666667, "value": 0.05511811023622047}, {"number": 1, "ticks": 28573, "time": 134.85719025833333, "value": 0.09448818897637795}, {"number": 1, "ticks": 28578, "time": 134.88496805, "value": 0.13385826771653545}, {"number": 1, "ticks": 28583, "time": 134.91274584166666, "value": 0.16535433070866143}, {"number": 1, "ticks": 28590, "time": 134.95163474999998, "value": 0.1968503937007874}, {"number": 1, "ticks": 28595, "time": 134.97941254166665, "value": 0.23622047244094488}, {"number": 1, "ticks": 28604, "time": 135.02941256666665, "value": 0.2677165354330709}, {"number": 1, "ticks": 28615, "time": 135.09052370833334, "value": 0.2992125984251969}, {"number": 1, "ticks": 28623, "time": 135.13496817499998, "value": 0.33070866141732286}, {"number": 1, "ticks": 28634, "time": 135.19607931666667, "value": 0.36220472440944884}, {"number": 1, "ticks": 28645, "time": 135.25719045833333, "value": 0.3937007874015748}, {"number": 1, "ticks": 28661, "time": 135.34607939166665, "value": 0.3543307086614173}, {"number": 1, "ticks": 28665, "time": 135.368301625, "value": 0.31496062992125984}, {"number": 1, "ticks": 28670, "time": 135.39607941666665, "value": 0.25984251968503935}, {"number": 1, "ticks": 28674, "time": 135.41830165, "value": 0.14173228346456693}, {"number": 1, "ticks": 28678, "time": 135.44052388333333, "value": 0}, {"number": 1, "ticks": 28881, "time": 136.624552, "value": 0.031496062992125984}, {"number": 1, "ticks": 28890, "time": 136.680802, "value": 0.06299212598425197}, {"number": 1, "ticks": 28898, "time": 136.730802, "value": 0.09448818897637795}, {"number": 1, "ticks": 28907, "time": 136.787052, "value": 0.12598425196850394}, {"number": 1, "ticks": 28916, "time": 136.843302, "value": 0.15748031496062992}, {"number": 1, "ticks": 28926, "time": 136.905802, "value": 0.1889763779527559}, {"number": 1, "ticks": 28936, "time": 136.968302, "value": 0.2204724409448819}, {"number": 1, "ticks": 28949, "time": 137.049552, "value": 0.25196850393700787}, {"number": 1, "ticks": 28960, "time": 137.118302, "value": 0.28346456692913385}, {"number": 1, "ticks": 29004, "time": 137.393302, "value": 0.31496062992125984}, {"number": 1, "ticks": 29025, "time": 137.524552, "value": 0.3464566929133858}, {"number": 1, "ticks": 29037, "time": 137.599552, "value": 0.3779527559055118}, {"number": 1, "ticks": 29051, "time": 137.687052, "value": 0.4094488188976378}, {"number": 1, "ticks": 29063, "time": 137.762052, "value": 0.4409448818897638}, {"number": 1, "ticks": 29073, "time": 137.824552, "value": 0.47244094488188976}, {"number": 1, "ticks": 29110, "time": 138.055802, "value": 0.47244094488188976}, {"number": 1, "ticks": 29126, "time": 138.155802, "value": 0.4409448818897638}, {"number": 1, "ticks": 29138, "time": 138.230802, "value": 0.4094488188976378}, {"number": 1, "ticks": 29147, "time": 138.287052, "value": 0.3779527559055118}, {"number": 1, "ticks": 29155, "time": 138.337052, "value": 0.3464566929133858}, {"number": 1, "ticks": 29163, "time": 138.387052, "value": 0.31496062992125984}, {"number": 1, "ticks": 29171, "time": 138.437052, "value": 0.28346456692913385}, {"number": 1, "ticks": 29179, "time": 138.487052, "value": 0.2440944881889764}, {"number": 1, "ticks": 29186, "time": 138.530802, "value": 0.2047244094488189}, {"number": 1, "ticks": 29191, "time": 138.562052, "value": 0.1732283464566929}, {"number": 1, "ticks": 29196, "time": 138.593302, "value": 0.14173228346456693}, {"number": 1, "ticks": 29201, "time": 138.624552, "value": 0.11023622047244094}, {"number": 1, "ticks": 29206, "time": 138.655802, "value": 0.07874015748031496}, {"number": 1, "ticks": 29210, "time": 138.680802, "value": 0.047244094488188976}, {"number": 1, "ticks": 29218, "time": 138.730802, "value": 0.015748031496062992}, {"number": 1, "ticks": 29223, "time": 138.762052, "value": 0}, {"number": 1, "ticks": 29895, "time": 142.38717075, "value": 0.015748031496062992}, {"number": 1, "ticks": 29909, "time": 142.45320851666668, "value": 0.047244094488188976}, {"number": 1, "ticks": 29931, "time": 142.55698215, "value": 0.07874015748031496}, {"number": 1, "ticks": 29945, "time": 142.62301991666666, "value": 0.11023622047244094}, {"number": 1, "ticks": 29960, "time": 142.69377466666666, "value": 0.14173228346456693}, {"number": 1, "ticks": 29968, "time": 142.73151053333333, "value": 0.1732283464566929}, {"number": 1, "ticks": 29984, "time": 142.80698226666667, "value": 0.2047244094488189}, {"number": 1, "ticks": 29999, "time": 142.87773701666666, "value": 0.23622047244094488}, {"number": 1, "ticks": 30013, "time": 142.94377478333334, "value": 0.2677165354330709}, {"number": 1, "ticks": 30039, "time": 143.06641635, "value": 0.2992125984251969}, {"number": 1, "ticks": 30059, "time": 143.16075601666665, "value": 0.33070866141732286}, {"number": 1, "ticks": 30083, "time": 143.27396361666666, "value": 0.36220472440944884}, {"number": 1, "ticks": 30122, "time": 143.45792596666666, "value": 0.3937007874015748}, {"number": 1, "ticks": 30156, "time": 143.6183034, "value": 0.4251968503937008}, {"number": 1, "ticks": 30221, "time": 143.92490731666666, "value": 0.4251968503937008}, {"number": 1, "ticks": 30225, "time": 143.94377525, "value": 0.33070866141732286}, {"number": 1, "ticks": 30230, "time": 143.96736016666668, "value": 0.15748031496062992}, {"number": 1, "ticks": 30234, "time": 143.9862281, "value": 0}, {"number": 1, "ticks": 30577, "time": 145.60415338333334, "value": 0.031496062992125984}, {"number": 1, "ticks": 30586, "time": 145.64660623333333, "value": 0.06299212598425197}, {"number": 1, "ticks": 30607, "time": 145.74566288333332, "value": 0.09448818897637795}, {"number": 1, "ticks": 30620, "time": 145.80698366666667, "value": 0.12598425196850394}, {"number": 1, "ticks": 30701, "time": 146.18905931666666, "value": 0.15748031496062992}, {"number": 1, "ticks": 30713, "time": 146.24566311666666, "value": 0.1889763779527559}, {"number": 1, "ticks": 30832, "time": 146.80698413333334, "value": 0.1732283464566929}, {"number": 1, "ticks": 30836, "time": 146.82585206666667, "value": 0.11811023622047244}, {"number": 1, "ticks": 30841, "time": 146.84943698333333, "value": 0.015748031496062992}, {"number": 1, "ticks": 30843, "time": 146.85887095, "value": 0}, {"number": 1, "ticks": 31538, "time": 150.13717436666667, "value": 0.007874015748031496}, {"number": 1, "ticks": 31557, "time": 150.22679705000002, "value": 0.03937007874015748}, {"number": 1, "ticks": 31570, "time": 150.28811783333333, "value": 0.07086614173228346}, {"number": 1, "ticks": 31591, "time": 150.38717448333333, "value": 0.10236220472440945}, {"number": 1, "ticks": 31611, "time": 150.48151415, "value": 0.13385826771653545}, {"number": 1, "ticks": 31646, "time": 150.64660856666666, "value": 0.16535433070866143}, {"number": 1, "ticks": 31680, "time": 150.806986, "value": 0.1968503937007874}, {"number": 1, "ticks": 31700, "time": 150.90132566666668, "value": 0.2283464566929134}, {"number": 1, "ticks": 31905, "time": 151.86830725, "value": 0.2440944881889764}, {"number": 1, "ticks": 31910, "time": 151.89189216666668, "value": 0.14960629921259844}, {"number": 1, "ticks": 31915, "time": 151.91547708333334, "value": 0}, {"number": 1, "ticks": 32443, "time": 154.40604428333333, "value": 0.031496062992125984}, {"number": 1, "ticks": 32465, "time": 154.50981791666666, "value": 0.06299212598425197}, {"number": 1, "ticks": 32491, "time": 154.63245948333332, "value": 0.09448818897637795}, {"number": 1, "ticks": 32537, "time": 154.84944071666666, "value": 0.12598425196850394}, {"number": 1, "ticks": 32565, "time": 154.98151625, "value": 0.15748031496062992}, {"number": 1, "ticks": 32674, "time": 155.49566743333332, "value": 0.11023622047244094}, {"number": 1, "ticks": 32678, "time": 155.51453536666668, "value": 0.023622047244094488}, {"number": 1, "ticks": 32680, "time": 155.52396933333333, "value": 0}, {"number": 1, "ticks": 33472, "time": 159.25982013333333, "value": 0.015748031496062992}, {"number": 1, "ticks": 33495, "time": 159.36831075, "value": 0.047244094488188976}, {"number": 1, "ticks": 33512, "time": 159.44849946666668, "value": 0.07874015748031496}, {"number": 1, "ticks": 33554, "time": 159.64661276666666, "value": 0.11023622047244094}, {"number": 1, "ticks": 33584, "time": 159.78812226666668, "value": 0.14173228346456693}, {"number": 1, "ticks": 33601, "time": 159.86831098333334, "value": 0.1732283464566929}, {"number": 1, "ticks": 33623, "time": 159.97208461666668, "value": 0.2047244094488189}, {"number": 1, "ticks": 33643, "time": 160.06642428333333, "value": 0.23622047244094488}, {"number": 1, "ticks": 33665, "time": 160.17019791666667, "value": 0.2677165354330709}, {"number": 1, "ticks": 33675, "time": 160.21736775, "value": 0.2992125984251969}, {"number": 1, "ticks": 33688, "time": 160.27868853333334, "value": 0.33070866141732286}, {"number": 1, "ticks": 33700, "time": 160.33529233333334, "value": 0.36220472440944884}, {"number": 1, "ticks": 33731, "time": 160.48151881666666, "value": 0.3937007874015748}, {"number": 1, "ticks": 33826, "time": 160.92963223333334, "value": 0.4094488188976378}, {"number": 1, "ticks": 33831, "time": 160.95321715, "value": 0.3779527559055118}, {"number": 1, "ticks": 33835, "time": 160.97208508333333, "value": 0.2992125984251969}, {"number": 1, "ticks": 33840, "time": 160.99567, "value": 0.15748031496062992}, {"number": 1, "ticks": 33844, "time": 161.01453793333334, "value": 0}, {"number": 1, "ticks": 34703, "time": 165.06642661666666, "value": 0.031496062992125984}, {"number": 1, "ticks": 34724, "time": 165.16548326666668, "value": 0.06299212598425197}, {"number": 1, "ticks": 34737, "time": 165.22680405, "value": 0.09448818897637795}, {"number": 1, "ticks": 34753, "time": 165.30227578333333, "value": 0.12598425196850394}, {"number": 1, "ticks": 34765, "time": 165.35887958333333, "value": 0.15748031496062992}, {"number": 1, "ticks": 34775, "time": 165.40604941666666, "value": 0.1889763779527559}, {"number": 1, "ticks": 34791, "time": 165.48152115, "value": 0.2204724409448819}, {"number": 1, "ticks": 34805, "time": 165.54755891666667, "value": 0.25196850393700787}, {"number": 1, "ticks": 34828, "time": 165.65604953333334, "value": 0.28346456692913385}, {"number": 1, "ticks": 34854, "time": 165.7786911, "value": 0.31496062992125984}, {"number": 1, "ticks": 34871, "time": 165.85887981666667, "value": 0.3464566929133858}, {"number": 1, "ticks": 34891, "time": 165.95321948333333, "value": 0.3779527559055118}, {"number": 1, "ticks": 34931, "time": 166.14189881666667, "value": 0.4094488188976378}, {"number": 1, "ticks": 34992, "time": 166.4296348, "value": 0.4409448818897638}, {"number": 1, "ticks": 35024, "time": 166.58057826666666, "value": 0.3858267716535433}, {"number": 1, "ticks": 35028, "time": 166.5994462, "value": 0.25984251968503935}, {"number": 1, "ticks": 35032, "time": 166.61831413333334, "value": 0.07086614173228346}, {"number": 1, "ticks": 35034, "time": 166.62774810000002, "value": 0}, {"number": 1, "ticks": 35370, "time": 168.2126545, "value": 0.015748031496062992}, {"number": 1, "ticks": 35381, "time": 168.26454131666668, "value": 0.047244094488188976}, {"number": 1, "ticks": 35400, "time": 168.354164, "value": 0.07874015748031496}, {"number": 1, "ticks": 35412, "time": 168.4107678, "value": 0.11023622047244094}, {"number": 1, "ticks": 35486, "time": 168.75982456666668, "value": 0.14173228346456693}, {"number": 1, "ticks": 35506, "time": 168.85416423333334, "value": 0.1732283464566929}, {"number": 1, "ticks": 35628, "time": 169.4296362, "value": 0.1889763779527559}, {"number": 1, "ticks": 35634, "time": 169.4579381, "value": 0.14960629921259844}, {"number": 1, "ticks": 35639, "time": 169.48152301666667, "value": 0.07086614173228346}, {"number": 1, "ticks": 35643, "time": 169.50039095, "value": 0}, {"number": 1, "ticks": 36348, "time": 172.8258642, "value": 0.023622047244094488}, {"number": 1, "ticks": 36364, "time": 172.90133593333334, "value": 0.05511811023622047}, {"number": 1, "ticks": 36375, "time": 172.95322275, "value": 0.08661417322834646}, {"number": 1, "ticks": 36402, "time": 173.0805813, "value": 0.11811023622047244}, {"number": 1, "ticks": 36428, "time": 173.20322286666666, "value": 0.14960629921259844}, {"number": 1, "ticks": 36465, "time": 173.37775125000002, "value": 0.18110236220472442}, {"number": 1, "ticks": 36494, "time": 173.51454376666666, "value": 0.2125984251968504}, {"number": 1, "ticks": 36534, "time": 173.7032231, "value": 0.2440944881889764}, {"number": 1, "ticks": 36636, "time": 174.18435540000002, "value": 0.023622047244094488}, {"number": 1, "ticks": 36657, "time": 174.28341205, "value": 0.05511811023622047}, {"number": 1, "ticks": 36676, "time": 174.37303473333333, "value": 0.08661417322834646}, {"number": 1, "ticks": 36697, "time": 174.47209138333335, "value": 0.11811023622047244}, {"number": 1, "ticks": 36707, "time": 174.51926121666668, "value": 0.13385826771653545}, {"number": 1, "ticks": 36711, "time": 174.53812915, "value": 0.14173228346456693}, {"number": 1, "ticks": 36715, "time": 174.55699708333333, "value": 0.14960629921259844}, {"number": 1, "ticks": 36715, "time": 174.55699708333333, "value": 0}, {"number": 1, "ticks": 36717, "time": 174.56643105, "value": 0.15748031496062992}, {"number": 1, "ticks": 36729, "time": 174.62303485, "value": 0.1889763779527559}, {"number": 1, "ticks": 36743, "time": 174.68907261666666, "value": 0.2204724409448819}, {"number": 1, "ticks": 36825, "time": 175.07586525, "value": 0.2204724409448819}, {"number": 1, "ticks": 36830, "time": 175.09945016666666, "value": 0.14173228346456693}, {"number": 1, "ticks": 36835, "time": 175.12303508333332, "value": 0.007874015748031496}, {"number": 1, "ticks": 36835, "time": 175.12303508333332, "value": 0}, {"number": 1, "ticks": 37235, "time": 177.00982841666666, "value": 0.007874015748031496}, {"number": 1, "ticks": 37246, "time": 177.06171523333333, "value": 0.03937007874015748}, {"number": 1, "ticks": 37278, "time": 177.21265870000002, "value": 0.07086614173228346}, {"number": 1, "ticks": 37298, "time": 177.30699836666668, "value": 0.10236220472440945}, {"number": 1, "ticks": 37349, "time": 177.54756451666668, "value": 0.13385826771653545}, {"number": 1, "ticks": 37470, "time": 178.1183195, "value": 0.14960629921259844}, {"number": 1, "ticks": 37475, "time": 178.14190441666668, "value": 0.08661417322834646}, {"number": 1, "ticks": 37479, "time": 178.16077235, "value": 0.007874015748031496}, {"number": 1, "ticks": 37480, "time": 178.16548933333334, "value": 0}, {"number": 1, "ticks": 38266, "time": 181.87303823333335, "value": 0.007874015748031496}, {"number": 1, "ticks": 38288, "time": 181.97681186666665, "value": 0.03937007874015748}, {"number": 1, "ticks": 38308, "time": 182.07115153333334, "value": 0.07086614173228346}, {"number": 1, "ticks": 38345, "time": 182.2456799166667, "value": 0.10236220472440945}, {"number": 1, "ticks": 38378, "time": 182.40134036666666, "value": 0.13385826771653545}, {"number": 1, "ticks": 38397, "time": 182.49096305, "value": 0.16535433070866143}, {"number": 1, "ticks": 38411, "time": 182.5570008166667, "value": 0.1968503937007874}, {"number": 1, "ticks": 38440, "time": 182.69379333333333, "value": 0.2283464566929134}, {"number": 1, "ticks": 38462, "time": 182.79756696666666, "value": 0.25984251968503935}, {"number": 1, "ticks": 38474, "time": 182.85417076666667, "value": 0.29133858267716534}, {"number": 1, "ticks": 38485, "time": 182.90605758333334, "value": 0.3228346456692913}, {"number": 1, "ticks": 38498, "time": 182.96737836666665, "value": 0.3543307086614173}, {"number": 1, "ticks": 38521, "time": 183.07586898333335, "value": 0.3858267716535433}, {"number": 1, "ticks": 38582, "time": 183.36360496666668, "value": 0.41732283464566927}, {"number": 1, "ticks": 38630, "time": 183.59002016666668, "value": 0.3858267716535433}, {"number": 1, "ticks": 38634, "time": 183.6088881, "value": 0.3228346456692913}, {"number": 1, "ticks": 38638, "time": 183.62775603333333, "value": 0.1968503937007874}, {"number": 1, "ticks": 38643, "time": 183.65134095000002, "value": 0.007874015748031496}, {"number": 1, "ticks": 38644, "time": 183.65605793333333, "value": 0}, {"number": 1, "ticks": 39483, "time": 187.61360695000002, "value": 0.007874015748031496}, {"number": 1, "ticks": 39505, "time": 187.71738058333332, "value": 0.03937007874015748}, {"number": 1, "ticks": 39526, "time": 187.81643723333335, "value": 0.07086614173228346}, {"number": 1, "ticks": 39540, "time": 187.882475, "value": 0.10236220472440945}, {"number": 1, "ticks": 39557, "time": 187.96266371666667, "value": 0.13385826771653545}, {"number": 1, "ticks": 39566, "time": 188.0051165666667, "value": 0.16535433070866143}, {"number": 1, "ticks": 39580, "time": 188.07115433333334, "value": 0.1968503937007874}, {"number": 1, "ticks": 39595, "time": 188.14190908333333, "value": 0.2283464566929134}, {"number": 1, "ticks": 39609, "time": 188.20794685, "value": 0.25984251968503935}, {"number": 1, "ticks": 39633, "time": 188.32115445, "value": 0.29133858267716534}, {"number": 1, "ticks": 39657, "time": 188.43436205, "value": 0.3228346456692913}, {"number": 1, "ticks": 39679, "time": 188.53813568333334, "value": 0.3543307086614173}, {"number": 1, "ticks": 39702, "time": 188.6466263, "value": 0.3858267716535433}, {"number": 1, "ticks": 39739, "time": 188.82115468333333, "value": 0.41732283464566927}, {"number": 1, "ticks": 39820, "time": 189.20323033333335, "value": 0.4330708661417323}, {"number": 1, "ticks": 39825, "time": 189.22681525000002, "value": 0.36220472440944884}, {"number": 1, "ticks": 39829, "time": 189.24568318333334, "value": 0.2047244094488189}, {"number": 1, "ticks": 39833, "time": 189.26455111666667, "value": 0.031496062992125984}, {"number": 1, "ticks": 39834, "time": 189.2692681, "value": 0}, {"number": 1, "ticks": 40164, "time": 190.8258726, "value": 0.007874015748031496}, {"number": 1, "ticks": 40180, "time": 190.90134433333333, "value": 0.03937007874015748}, {"number": 1, "ticks": 40190, "time": 190.94851416666668, "value": 0.07086614173228346}, {"number": 1, "ticks": 40210, "time": 191.04285383333334, "value": 0.10236220472440945}, {"number": 1, "ticks": 40271, "time": 191.33058981666667, "value": 0.13385826771653545}, {"number": 1, "ticks": 40304, "time": 191.48625026666667, "value": 0.16535433070866143}, {"number": 1, "ticks": 40316, "time": 191.54285406666668, "value": 0.1968503937007874}, {"number": 1, "ticks": 40433, "time": 192.09474111666668, "value": 0.16535433070866143}, {"number": 1, "ticks": 40437, "time": 192.11360905, "value": 0.09448818897637795}, {"number": 1, "ticks": 40443, "time": 192.14191095, "value": 0}, {"number": 1, "ticks": 41154, "time": 195.4956861, "value": 0.031496062992125984}, {"number": 1, "ticks": 41167, "time": 195.55700688333334, "value": 0.06299212598425197}, {"number": 1, "ticks": 41183, "time": 195.63247861666667, "value": 0.09448818897637795}, {"number": 1, "ticks": 41203, "time": 195.72681828333333, "value": 0.12598425196850394}, {"number": 1, "ticks": 41235, "time": 195.87776175, "value": 0.15748031496062992}, {"number": 1, "ticks": 41269, "time": 196.03813918333333, "value": 0.1889763779527559}, {"number": 1, "ticks": 41297, "time": 196.17021471666666, "value": 0.2204724409448819}, {"number": 1, "ticks": 41340, "time": 196.373045, "value": 0.25196850393700787}, {"number": 1, "ticks": 41442, "time": 196.8541773, "value": 0.031496062992125984}, {"number": 1, "ticks": 41461, "time": 196.94379998333335, "value": 0.06299212598425197}, {"number": 1, "ticks": 41483, "time": 197.04757361666668, "value": 0.09448818897637795}, {"number": 1, "ticks": 41502, "time": 197.1371963, "value": 0.12598425196850394}, {"number": 1, "ticks": 41508, "time": 197.1654982, "value": 0.2047244094488189}, {"number": 1, "ticks": 41511, "time": 197.17964915, "value": 0.11023622047244094}, {"number": 1, "ticks": 41515, "time": 197.19851708333334, "value": 0}, {"number": 1, "ticks": 41525, "time": 197.24568691666667, "value": 0.18110236220472442}, {"number": 1, "ticks": 41538, "time": 197.3070077, "value": 0.2125984251968504}, {"number": 1, "ticks": 41624, "time": 197.71266826666667, "value": 0.2283464566929134}, {"number": 1, "ticks": 41629, "time": 197.73625318333333, "value": 0.1732283464566929}, {"number": 1, "ticks": 41633, "time": 197.75512111666666, "value": 0.03937007874015748}, {"number": 1, "ticks": 41635, "time": 197.76455508333333, "value": 0}, {"number": 1, "ticks": 42037, "time": 199.66078238333336, "value": 0.015748031496062992}, {"number": 1, "ticks": 42055, "time": 199.74568808333333, "value": 0.047244094488188976}, {"number": 1, "ticks": 42084, "time": 199.8824806, "value": 0.07874015748031496}, {"number": 1, "ticks": 42130, "time": 200.09946183333335, "value": 0.11023622047244094}, {"number": 1, "ticks": 42158, "time": 200.23153736666666, "value": 0.14173228346456693}, {"number": 1, "ticks": 42271, "time": 200.76455648333334, "value": 0.13385826771653545}, {"number": 1, "ticks": 42276, "time": 200.7881414, "value": 0.07086614173228346}, {"number": 1, "ticks": 42280, "time": 200.80700933333333, "value": 0}, {"number": 1, "ticks": 43084, "time": 204.59946393333334, "value": 0.031496062992125984}, {"number": 1, "ticks": 43102, "time": 204.68436963333335, "value": 0.06299212598425197}, {"number": 1, "ticks": 43125, "time": 204.79286025, "value": 0.09448818897637795}, {"number": 1, "ticks": 43173, "time": 205.01927545, "value": 0.12598425196850394}, {"number": 1, "ticks": 43193, "time": 205.11361511666667, "value": 0.15748031496062992}, {"number": 1, "ticks": 43209, "time": 205.18908685000002, "value": 0.1889763779527559}, {"number": 1, "ticks": 43236, "time": 205.31644540000002, "value": 0.2204724409448819}, {"number": 1, "ticks": 43256, "time": 205.41078506666668, "value": 0.25196850393700787}, {"number": 1, "ticks": 43270, "time": 205.47682283333333, "value": 0.28346456692913385}, {"number": 1, "ticks": 43281, "time": 205.52870965, "value": 0.31496062992125984}, {"number": 1, "ticks": 43294, "time": 205.59003043333334, "value": 0.3464566929133858}, {"number": 1, "ticks": 43311, "time": 205.67021915, "value": 0.3779527559055118}, {"number": 1, "ticks": 43353, "time": 205.86833245000003, "value": 0.4094488188976378}, {"number": 1, "ticks": 43429, "time": 206.22682318333335, "value": 0.3937007874015748}, {"number": 1, "ticks": 43433, "time": 206.24569111666665, "value": 0.3464566929133858}, {"number": 1, "ticks": 43437, "time": 206.26455905, "value": 0.23622047244094488}, {"number": 1, "ticks": 43442, "time": 206.28814396666667, "value": 0.047244094488188976}, {"number": 1, "ticks": 43444, "time": 206.29757793333334, "value": 0}, {"number": 1, "ticks": 44295, "time": 210.31173075, "value": 0.015748031496062992}, {"number": 1, "ticks": 44309, "time": 210.37776851666666, "value": 0.047244094488188976}, {"number": 1, "ticks": 44331, "time": 210.48154215, "value": 0.07874015748031496}, {"number": 1, "ticks": 44345, "time": 210.54757991666668, "value": 0.11023622047244094}, {"number": 1, "ticks": 44360, "time": 210.61833466666667, "value": 0.14173228346456693}, {"number": 1, "ticks": 44368, "time": 210.65607053333332, "value": 0.1732283464566929}, {"number": 1, "ticks": 44384, "time": 210.73154226666668, "value": 0.2047244094488189}, {"number": 1, "ticks": 44399, "time": 210.80229701666667, "value": 0.23622047244094488}, {"number": 1, "ticks": 44413, "time": 210.86833478333335, "value": 0.2677165354330709}, {"number": 1, "ticks": 44439, "time": 210.99097635, "value": 0.2992125984251969}, {"number": 1, "ticks": 44459, "time": 211.08531601666667, "value": 0.33070866141732286}, {"number": 1, "ticks": 44483, "time": 211.19852361666668, "value": 0.36220472440944884}, {"number": 1, "ticks": 44522, "time": 211.38248596666668, "value": 0.3937007874015748}, {"number": 1, "ticks": 44556, "time": 211.5428634, "value": 0.4251968503937008}, {"number": 1, "ticks": 44621, "time": 211.84946731666668, "value": 0.4251968503937008}, {"number": 1, "ticks": 44625, "time": 211.86833525, "value": 0.33070866141732286}, {"number": 1, "ticks": 44630, "time": 211.8919201666667, "value": 0.15748031496062992}, {"number": 1, "ticks": 44634, "time": 211.9107881, "value": 0}, {"number": 1, "ticks": 44977, "time": 213.52871338333335, "value": 0.031496062992125984}, {"number": 1, "ticks": 44986, "time": 213.57116623333332, "value": 0.06299212598425197}, {"number": 1, "ticks": 45007, "time": 213.67022288333334, "value": 0.09448818897637795}, {"number": 1, "ticks": 45020, "time": 213.73154366666665, "value": 0.12598425196850394}, {"number": 1, "ticks": 45101, "time": 214.11361931666667, "value": 0.15748031496062992}, {"number": 1, "ticks": 45113, "time": 214.17022311666668, "value": 0.1889763779527559}, {"number": 1, "ticks": 45232, "time": 214.73154413333333, "value": 0.1732283464566929}, {"number": 1, "ticks": 45236, "time": 214.75041206666668, "value": 0.11811023622047244}, {"number": 1, "ticks": 45241, "time": 214.77399698333335, "value": 0.015748031496062992}, {"number": 1, "ticks": 45243, "time": 214.78343095000002, "value": 0}, {"number": 1, "ticks": 48236, "time": 228.90136206666668, "value": 0.2755905511811024}, {"number": 1, "ticks": 48240, "time": 228.92023, "value": 0.11023622047244094}, {"number": 1, "ticks": 48244, "time": 228.93909793333336, "value": 0}, {"number": 1, "ticks": 48512, "time": 230.20324946666668, "value": 0.023622047244094488}, {"number": 1, "ticks": 48520, "time": 230.24098533333336, "value": 0.07086614173228346}, {"number": 1, "ticks": 48527, "time": 230.2740042166667, "value": 0.11023622047244094}, {"number": 1, "ticks": 48555, "time": 230.40607975, "value": 0.14173228346456693}, {"number": 1, "ticks": 48563, "time": 230.44381561666665, "value": 0.1732283464566929}, {"number": 1, "ticks": 48574, "time": 230.49570243333335, "value": 0.2047244094488189}, {"number": 1, "ticks": 48593, "time": 230.58532511666667, "value": 0.23622047244094488}, {"number": 1, "ticks": 48609, "time": 230.66079685, "value": 0.2677165354330709}, {"number": 1, "ticks": 48637, "time": 230.79287238333336, "value": 0.2992125984251969}, {"number": 1, "ticks": 48705, "time": 231.11362725, "value": 0.31496062992125984}, {"number": 1, "ticks": 48708, "time": 231.12777820000002, "value": 0.2677165354330709}, {"number": 1, "ticks": 48713, "time": 231.1513631166667, "value": 0.1732283464566929}, {"number": 1, "ticks": 48716, "time": 231.16551406666667, "value": 0.023622047244094488}, {"number": 1, "ticks": 48720, "time": 231.184382, "value": 0}, {"number": 1, "ticks": 48854, "time": 231.81645776666667, "value": 0.007874015748031496}, {"number": 1, "ticks": 48898, "time": 232.02400503333334, "value": 0.03937007874015748}, {"number": 1, "ticks": 48988, "time": 232.44853353333332, "value": 0.07086614173228346}, {"number": 1, "ticks": 49038, "time": 232.68438270000001, "value": 0.10236220472440945}, {"number": 1, "ticks": 49074, "time": 232.8541941, "value": 0.13385826771653545}, {"number": 1, "ticks": 49136, "time": 233.14664706666667, "value": 0.16535433070866143}, {"number": 1, "ticks": 49210, "time": 233.49570383333335, "value": 0.1968503937007874}, {"number": 1, "ticks": 49285, "time": 233.84947758333334, "value": 0.2283464566929134}, {"number": 1, "ticks": 49344, "time": 234.1277796, "value": 0.25984251968503935}, {"number": 1, "ticks": 49397, "time": 234.37777971666668, "value": 0.29133858267716534}, {"number": 1, "ticks": 49480, "time": 234.76928933333335, "value": 0.3228346456692913}, {"number": 1, "ticks": 49685, "time": 235.73627091666668, "value": 0.3543307086614173}, {"number": 1, "ticks": 50189, "time": 238.11363051666666, "value": 0.33858267716535434}, {"number": 1, "ticks": 50228, "time": 238.29759286666666, "value": 0.30708661417322836}, {"number": 1, "ticks": 50390, "time": 239.06174416666667, "value": 0.2755905511811024}, {"number": 1, "ticks": 50430, "time": 239.2504235, "value": 0.2440944881889764}, {"number": 1, "ticks": 50464, "time": 239.41080093333335, "value": 0.2125984251968504}, {"number": 1, "ticks": 50529, "time": 239.71740484999998, "value": 0.18110236220472442}, {"number": 1, "ticks": 50557, "time": 239.84948038333334, "value": 0.14960629921259844}, {"number": 1, "ticks": 50570, "time": 239.91080116666666, "value": 0.11811023622047244}, {"number": 1, "ticks": 50577, "time": 239.94382005, "value": 0.07874015748031496}, {"number": 1, "ticks": 50582, "time": 239.96740496666666, "value": 0.03937007874015748}, {"number": 1, "ticks": 50587, "time": 239.99098988333333, "value": 0.007874015748031496}, {"number": 1, "ticks": 50589, "time": 240.00042385, "value": 0}], "7": [{"number": 7, "ticks": 138, "time": 0.6509437, "value": 0.7086614173228346}], "10": [{"number": 10, "ticks": 138, "time": 0.6509437, "value": 0.5039370078740157}]}, "pitchBends": [], "instrument": {"family": "pipe", "number": 73, "name": "flute"}, "name": "", "notes": [{"duration": 0.2783020166666681, "durationTicks": 59, "midi": 72, "name": "C5", "ticks": 5524, "time": 26.056615933333333, "velocity": 0.6692913385826772}, {"duration": 0.23584916666667155, "durationTicks": 50, "midi": 74, "name": "D5", "ticks": 5584, "time": 26.339634933333333, "velocity": 0.7637795275590551}, {"duration": 0.27358503333333317, "durationTicks": 58, "midi": 76, "name": "E5", "ticks": 5645, "time": 26.627370916666667, "velocity": 0.8031496062992126}, {"duration": 0.2641510666666669, "durationTicks": 56, "midi": 74, "name": "D5", "ticks": 5704, "time": 26.905672933333335, "velocity": 0.7322834645669292}, {"duration": 0.2688680500000018, "durationTicks": 57, "midi": 76, "name": "E5", "ticks": 5764, "time": 27.188691933333335, "velocity": 0.7559055118110236}, {"duration": 0.27358503333333317, "durationTicks": 58, "midi": 78, "name": "F#5", "ticks": 5824, "time": 27.471710933333334, "velocity": 0.7244094488188977}, {"duration": 0.26886804999999825, "durationTicks": 57, "midi": 76, "name": "E5", "ticks": 5883, "time": 27.750012950000002, "velocity": 0.7716535433070866}, {"duration": 0.2877359833333344, "durationTicks": 61, "midi": 78, "name": "F#5", "ticks": 5943, "time": 28.03303195, "velocity": 0.7874015748031497}, {"duration": 0.2877359833333344, "durationTicks": 61, "midi": 79, "name": "G5", "ticks": 6003, "time": 28.31605095, "velocity": 0.8110236220472441}, {"duration": 0.2783020166666681, "durationTicks": 59, "midi": 78, "name": "F#5", "ticks": 6063, "time": 28.59906995, "velocity": 0.8031496062992126}, {"duration": 0.2547171000000006, "durationTicks": 54, "midi": 79, "name": "G5", "ticks": 6124, "time": 28.886805933333335, "velocity": 0.7952755905511811}, {"duration": 0.2641510666666669, "durationTicks": 56, "midi": 81, "name": "A5", "ticks": 6183, "time": 29.165107950000003, "velocity": 0.7952755905511811}, {"duration": 0.2641510666666669, "durationTicks": 56, "midi": 79, "name": "G5", "ticks": 6244, "time": 29.452843933333334, "velocity": 0.8188976377952756}, {"duration": 0.2594340833333355, "durationTicks": 55, "midi": 76, "name": "E5", "ticks": 6304, "time": 29.735862933333333, "velocity": 0.7952755905511811}, {"duration": 0.2594340833333355, "durationTicks": 55, "midi": 81, "name": "A5", "ticks": 6363, "time": 30.01416495, "velocity": 0.8740157480314961}, {"duration": 0.3254718500000031, "durationTicks": 69, "midi": 83, "name": "B5", "ticks": 6423, "time": 30.29718395, "velocity": 0.8188976377952756}, {"duration": 1.0801891833333386, "durationTicks": 229, "midi": 84, "name": "C6", "ticks": 6485, "time": 30.589636916666667, "velocity": 0.7716535433070866}, {"duration": 0.9292457166666637, "durationTicks": 197, "midi": 83, "name": "B5", "ticks": 6720, "time": 31.698128000000004, "velocity": 0.6692913385826772}, {"duration": 0.27830201666666454, "durationTicks": 59, "midi": 72, "name": "C5", "ticks": 6964, "time": 32.849071933333335, "velocity": 0.6692913385826772}, {"duration": 0.235849166666668, "durationTicks": 50, "midi": 74, "name": "D5", "ticks": 7024, "time": 33.13209093333334, "velocity": 0.7637795275590551}, {"duration": 0.2735850333333403, "durationTicks": 58, "midi": 76, "name": "E5", "ticks": 7085, "time": 33.419826916666665, "velocity": 0.8031496062992126}, {"duration": 0.2641510666666633, "durationTicks": 56, "midi": 74, "name": "D5", "ticks": 7144, "time": 33.69812893333334, "velocity": 0.7322834645669292}, {"duration": 0.2688680500000018, "durationTicks": 57, "midi": 76, "name": "E5", "ticks": 7204, "time": 33.98114793333333, "velocity": 0.7559055118110236}, {"duration": 0.27358503333333317, "durationTicks": 58, "midi": 78, "name": "F#5", "ticks": 7264, "time": 34.264166933333335, "velocity": 0.7244094488188977}, {"duration": 0.2688680500000018, "durationTicks": 57, "midi": 76, "name": "E5", "ticks": 7323, "time": 34.54246895, "velocity": 0.7716535433070866}, {"duration": 0.2877359833333344, "durationTicks": 61, "midi": 78, "name": "F#5", "ticks": 7383, "time": 34.82548795, "velocity": 0.7874015748031497}, {"duration": 0.2877359833333344, "durationTicks": 61, "midi": 79, "name": "G5", "ticks": 7443, "time": 35.10850695, "velocity": 0.8110236220472441}, {"duration": 0.27830201666666454, "durationTicks": 59, "midi": 78, "name": "F#5", "ticks": 7503, "time": 35.39152595, "velocity": 0.8031496062992126}, {"duration": 0.2547171000000006, "durationTicks": 54, "midi": 79, "name": "G5", "ticks": 7564, "time": 35.679261933333336, "velocity": 0.7952755905511811}, {"duration": 0.26415106666667043, "durationTicks": 56, "midi": 81, "name": "A5", "ticks": 7623, "time": 35.95756395, "velocity": 0.7952755905511811}, {"duration": 0.26415106666667043, "durationTicks": 56, "midi": 79, "name": "G5", "ticks": 7684, "time": 36.245299933333335, "velocity": 0.8188976377952756}, {"duration": 0.25943408333332485, "durationTicks": 55, "midi": 76, "name": "E5", "ticks": 7744, "time": 36.52831893333334, "velocity": 0.7952755905511811}, {"duration": 0.25943408333333196, "durationTicks": 55, "midi": 81, "name": "A5", "ticks": 7803, "time": 36.80662095, "velocity": 0.8740157480314961}, {"duration": 0.32547184999999246, "durationTicks": 69, "midi": 83, "name": "B5", "ticks": 7863, "time": 37.089639950000006, "velocity": 0.8188976377952756}, {"duration": 1.0801891833333315, "durationTicks": 229, "midi": 84, "name": "C6", "ticks": 7925, "time": 37.38209291666667, "velocity": 0.7716535433070866}, {"duration": 0.9292457166666637, "durationTicks": 197, "midi": 83, "name": "B5", "ticks": 8160, "time": 38.490584000000005, "velocity": 0.6692913385826772}, {"duration": 0.8018871666666598, "durationTicks": 170, "midi": 79, "name": "G5", "ticks": 8409, "time": 39.66511285000001, "velocity": 0.7244094488188977}, {"duration": 0.1839623500000016, "durationTicks": 39, "midi": 78, "name": "F#5", "ticks": 8574, "time": 40.4434151, "velocity": 0.6850393700787402}, {"duration": 0.22169821666666678, "durationTicks": 47, "midi": 76, "name": "E5", "ticks": 8613, "time": 40.627377450000004, "velocity": 0.7480314960629921}, {"duration": 0.9528306333333347, "durationTicks": 202, "midi": 78, "name": "F#5", "ticks": 8659, "time": 40.84435868333333, "velocity": 0.6456692913385826}, {"duration": 1.1745288500000015, "durationTicks": 249, "midi": 84, "name": "C6", "ticks": 8884, "time": 41.90567993333334, "velocity": 0.7559055118110236}, {"duration": 1.1273590166666665, "durationTicks": 239, "midi": 83, "name": "B5", "ticks": 9127, "time": 43.05190688333334, "velocity": 0.7322834645669292}, {"duration": 0.6792456000000016, "durationTicks": 144, "midi": 76, "name": "E5", "ticks": 9368, "time": 44.18869986666667, "velocity": 0.6771653543307087}, {"duration": 0.37735866666666595, "durationTicks": 80, "midi": 76, "name": "E5", "ticks": 9525, "time": 44.929266250000005, "velocity": 0.8031496062992126}, {"duration": 0.9103777833333311, "durationTicks": 193, "midi": 78, "name": "F#5", "ticks": 9610, "time": 45.330209833333335, "velocity": 0.5039370078740157}, {"duration": 0.5518870500000048, "durationTicks": 117, "midi": 74, "name": "D5", "ticks": 9844, "time": 46.43398393333334, "velocity": 0.8188976377952756}, {"duration": 0.13207553333333522, "durationTicks": 28, "midi": 76, "name": "E5", "ticks": 10248, "time": 48.33964520000001, "velocity": 0.7165354330708661}, {"duration": 0.14622648333333643, "durationTicks": 31, "midi": 74, "name": "D5", "ticks": 10285, "time": 48.51417358333333, "velocity": 0.7322834645669292}, {"duration": 0.47641531666666737, "durationTicks": 101, "midi": 74, "name": "D5", "ticks": 10331, "time": 48.731154816666674, "velocity": 0.7322834645669292}, {"duration": 0.16981139999999328, "durationTicks": 36, "midi": 74, "name": "D5", "ticks": 10440, "time": 49.24530600000001, "velocity": 0.7322834645669292}, {"duration": 0.3207548666666611, "durationTicks": 68, "midi": 79, "name": "G5", "ticks": 10637, "time": 50.17455171666667, "velocity": 0.84251968503937}, {"duration": 0.32547184999999956, "durationTicks": 69, "midi": 78, "name": "F#5", "ticks": 10720, "time": 50.56606133333334, "velocity": 0.8188976377952756}, {"duration": 0.3207548666666611, "durationTicks": 68, "midi": 74, "name": "D5", "ticks": 10805, "time": 50.967004916666674, "velocity": 0.7559055118110236}, {"duration": 0.29716994999999713, "durationTicks": 63, "midi": 74, "name": "D5", "ticks": 10884, "time": 51.3396466, "velocity": 0.7165354330708661}, {"duration": 0.3160378833333368, "durationTicks": 67, "midi": 74, "name": "D5", "ticks": 10963, "time": 51.712288283333336, "velocity": 0.7322834645669292}, {"duration": 0.2877359833333415, "durationTicks": 61, "midi": 74, "name": "D5", "ticks": 11040, "time": 52.075496, "velocity": 0.7244094488188977}, {"duration": 0.353773750000002, "durationTicks": 75, "midi": 74, "name": "D5", "ticks": 11118, "time": 52.443420700000004, "velocity": 0.7716535433070866}, {"duration": 0.306603916666667, "durationTicks": 65, "midi": 83, "name": "B5", "ticks": 11194, "time": 52.80191143333334, "velocity": 0.8740157480314961}, {"duration": 0.7028305166666726, "durationTicks": 149, "midi": 84, "name": "C6", "ticks": 11260, "time": 53.113232333333336, "velocity": 0.7952755905511811}, {"duration": 0.46226436666666615, "durationTicks": 98, "midi": 79, "name": "G5", "ticks": 11406, "time": 53.8019119, "velocity": 0.7165354330708661}, {"duration": 0.3820756499999973, "durationTicks": 81, "midi": 79, "name": "G5", "ticks": 11514, "time": 54.31134610000001, "velocity": 0.7559055118110236}, {"duration": 0.6273587833333352, "durationTicks": 133, "midi": 78, "name": "F#5", "ticks": 11595, "time": 54.693421750000006, "velocity": 0.5748031496062992}, {"duration": 0.23113218333333663, "durationTicks": 49, "midi": 74, "name": "D5", "ticks": 11764, "time": 55.490591933333334, "velocity": 0.8188976377952756}, {"duration": 0.23113218333332952, "durationTicks": 49, "midi": 74, "name": "D5", "ticks": 11833, "time": 55.81606378333334, "velocity": 0.8188976377952756}, {"duration": 0.13207553333333522, "durationTicks": 28, "midi": 76, "name": "E5", "ticks": 12168, "time": 57.396253200000004, "velocity": 0.7165354330708661}, {"duration": 0.14622648333333643, "durationTicks": 31, "midi": 74, "name": "D5", "ticks": 12205, "time": 57.570781583333336, "velocity": 0.7322834645669292}, {"duration": 0.6792456000000016, "durationTicks": 144, "midi": 74, "name": "D5", "ticks": 12251, "time": 57.78776281666667, "velocity": 0.7322834645669292}, {"duration": 0.3207548666666682, "durationTicks": 68, "midi": 79, "name": "G5", "ticks": 12557, "time": 59.23115971666667, "velocity": 0.84251968503937}, {"duration": 0.32547184999999956, "durationTicks": 69, "midi": 78, "name": "F#5", "ticks": 12640, "time": 59.622669333333334, "velocity": 0.8188976377952756}, {"duration": 0.3207548666666682, "durationTicks": 68, "midi": 74, "name": "D5", "ticks": 12725, "time": 60.02361291666667, "velocity": 0.7559055118110236}, {"duration": 0.29716994999999713, "durationTicks": 63, "midi": 74, "name": "D5", "ticks": 12804, "time": 60.396254600000006, "velocity": 0.7165354330708661}, {"duration": 0.3160378833333297, "durationTicks": 67, "midi": 74, "name": "D5", "ticks": 12883, "time": 60.76889628333334, "velocity": 0.7322834645669292}, {"duration": 0.2877359833333344, "durationTicks": 61, "midi": 74, "name": "D5", "ticks": 12960, "time": 61.132104000000005, "velocity": 0.7244094488188977}, {"duration": 0.353773750000002, "durationTicks": 75, "midi": 74, "name": "D5", "ticks": 13038, "time": 61.50002870000001, "velocity": 0.7716535433070866}, {"duration": 0.3066039166666741, "durationTicks": 65, "midi": 83, "name": "B5", "ticks": 13114, "time": 61.858519433333335, "velocity": 0.8740157480314961}, {"duration": 0.7028305166666726, "durationTicks": 149, "midi": 84, "name": "C6", "ticks": 13180, "time": 62.16984033333333, "velocity": 0.7952755905511811}, {"duration": 0.46226436666666615, "durationTicks": 98, "midi": 79, "name": "G5", "ticks": 13326, "time": 62.858519900000005, "velocity": 0.7165354330708661}, {"duration": 0.3820756499999973, "durationTicks": 81, "midi": 79, "name": "G5", "ticks": 13434, "time": 63.367954100000006, "velocity": 0.7559055118110236}, {"duration": 0.6273587833333423, "durationTicks": 133, "midi": 78, "name": "F#5", "ticks": 13515, "time": 63.75002975, "velocity": 0.5748031496062992}, {"duration": 1.1273590166666736, "durationTicks": 239, "midi": 74, "name": "D5", "ticks": 14414, "time": 67.99059776666667, "velocity": 0.7086614173228346}, {"duration": 2.2358500999999933, "durationTicks": 474, "midi": 79, "name": "G5", "ticks": 14651, "time": 69.10852281666668, "velocity": 0.7559055118110236}, {"duration": 0.47641531666667447, "durationTicks": 101, "midi": 78, "name": "F#5", "ticks": 15135, "time": 71.39154275, "velocity": 0.6692913385826772}, {"duration": 0.5943399000000085, "durationTicks": 126, "midi": 81, "name": "A5", "ticks": 15248, "time": 71.92456186666666, "velocity": 0.8031496062992126}, {"duration": 1.7216989166666679, "durationTicks": 365, "midi": 79, "name": "G5", "ticks": 15364, "time": 72.47173193333333, "velocity": 0.6456692913385826}, {"duration": 0.5990568833333327, "durationTicks": 127, "midi": 81, "name": "A5", "ticks": 16210, "time": 76.46229983333335, "velocity": 0.7952755905511811}, {"duration": 0.4858492833333372, "durationTicks": 103, "midi": 83, "name": "B5", "ticks": 16332, "time": 77.0377718, "velocity": 0.6692913385826772}, {"duration": 1.5990573500000096, "durationTicks": 339, "midi": 83, "name": "B5", "ticks": 16445, "time": 77.57079091666667, "velocity": 0.6692913385826772}, {"duration": 0.29716994999999713, "durationTicks": 63, "midi": 81, "name": "A5", "ticks": 17045, "time": 80.40098091666667, "velocity": 0.8582677165354331}, {"duration": 0.3254718500000138, "durationTicks": 69, "midi": 84, "name": "C6", "ticks": 17123, "time": 80.76890561666667, "velocity": 0.8110236220472441}, {"duration": 0.37735866666665174, "durationTicks": 80, "midi": 83, "name": "B5", "ticks": 17198, "time": 81.12267936666667, "velocity": 0.8188976377952756}, {"duration": 1.6462271833333375, "durationTicks": 349, "midi": 79, "name": "G5", "ticks": 17285, "time": 81.53305691666667, "velocity": 0.7244094488188977}, {"duration": 0.49528324999999995, "durationTicks": 105, "midi": 91, "name": "G6", "ticks": 17645, "time": 83.23117091666667, "velocity": 0.8582677165354331}, {"duration": 0.38207565000000443, "durationTicks": 81, "midi": 90, "name": "F#6", "ticks": 17760, "time": 83.77362400000001, "velocity": 0.8582677165354331}, {"duration": 0.32547184999999956, "durationTicks": 69, "midi": 86, "name": "D6", "ticks": 17845, "time": 84.17456758333334, "velocity": 0.8346456692913385}, {"duration": 0.3160378833333084, "durationTicks": 67, "midi": 91, "name": "G6", "ticks": 17927, "time": 84.56136021666669, "velocity": 0.889763779527559}, {"duration": 0.3490567666666493, "durationTicks": 74, "midi": 90, "name": "F#6", "ticks": 18006, "time": 84.93400190000001, "velocity": 0.889763779527559}, {"duration": 0.367924699999989, "durationTicks": 78, "midi": 86, "name": "D6", "ticks": 18085, "time": 85.30664358333334, "velocity": 0.8346456692913385}, {"duration": 0.37735866666668016, "durationTicks": 80, "midi": 83, "name": "B5", "ticks": 18162, "time": 85.6698513, "velocity": 0.7952755905511811}, {"duration": 0.5660379999999918, "durationTicks": 120, "midi": 86, "name": "D6", "ticks": 18242, "time": 86.04720996666668, "velocity": 0.7559055118110236}, {"duration": 1.070755216666683, "durationTicks": 227, "midi": 86, "name": "D6", "ticks": 18365, "time": 86.62739891666666, "velocity": 0.7559055118110236}, {"duration": 0.37735866666666595, "durationTicks": 80, "midi": 81, "name": "A5", "ticks": 18720, "time": 88.301928, "velocity": 0.8188976377952756}, {"duration": 0.3632077166666505, "durationTicks": 77, "midi": 84, "name": "C6", "ticks": 18805, "time": 88.70287158333335, "velocity": 0.8346456692913385}, {"duration": 0.4009435833333299, "durationTicks": 85, "midi": 83, "name": "B5", "ticks": 18887, "time": 89.08966421666668, "velocity": 0.8582677165354331}, {"duration": 0.353773750000002, "durationTicks": 75, "midi": 81, "name": "A5", "ticks": 18968, "time": 89.47173986666667, "velocity": 0.8110236220472441}, {"duration": 0.38207565000000443, "durationTicks": 81, "midi": 79, "name": "G5", "ticks": 19046, "time": 89.83966456666667, "velocity": 0.8110236220472441}, {"duration": 0.35849073333332626, "durationTicks": 76, "midi": 78, "name": "F#5", "ticks": 19124, "time": 90.20758926666667, "velocity": 0.7244094488188977}, {"duration": 0.566038000000006, "durationTicks": 120, "midi": 74, "name": "D5", "ticks": 19200, "time": 90.56608, "velocity": 0.7086614173228346}, {"duration": 0.4905662666666757, "durationTicks": 104, "midi": 79, "name": "G5", "ticks": 19329, "time": 91.17457085, "velocity": 0.8110236220472441}, {"duration": 2.2358500999999933, "durationTicks": 474, "midi": 79, "name": "G5", "ticks": 19451, "time": 91.75004281666668, "velocity": 0.7559055118110236}, {"duration": 0.47641531666666026, "durationTicks": 101, "midi": 78, "name": "F#5", "ticks": 19935, "time": 94.03306275000001, "velocity": 0.6692913385826772}, {"duration": 0.5943398999999943, "durationTicks": 126, "midi": 81, "name": "A5", "ticks": 20048, "time": 94.56608186666668, "velocity": 0.8031496062992126}, {"duration": 1.7216989166666536, "durationTicks": 365, "midi": 79, "name": "G5", "ticks": 20164, "time": 95.11325193333334, "velocity": 0.6456692913385826}, {"duration": 0.5990568833333327, "durationTicks": 127, "midi": 81, "name": "A5", "ticks": 21010, "time": 99.10381983333335, "velocity": 0.7952755905511811}, {"duration": 0.33018883333332383, "durationTicks": 70, "midi": 83, "name": "B5", "ticks": 21123, "time": 99.63683895000001, "velocity": 0.8110236220472441}, {"duration": 0.3207548666666753, "durationTicks": 68, "midi": 83, "name": "B5", "ticks": 21200, "time": 100.00004666666666, "velocity": 0.7874015748031497}, {"duration": 0.32547184999998535, "durationTicks": 69, "midi": 83, "name": "B5", "ticks": 21281, "time": 100.38212231666668, "velocity": 0.8188976377952756}, {"duration": 0.367924699999989, "durationTicks": 78, "midi": 83, "name": "B5", "ticks": 21362, "time": 100.76419796666669, "velocity": 0.8582677165354331}, {"duration": 1.301887399999984, "durationTicks": 276, "midi": 83, "name": "B5", "ticks": 21445, "time": 101.15570758333335, "velocity": 0.889763779527559}, {"duration": 0.29716994999999713, "durationTicks": 63, "midi": 81, "name": "A5", "ticks": 21845, "time": 103.04250091666667, "velocity": 0.8582677165354331}, {"duration": 0.3254718500000138, "durationTicks": 69, "midi": 84, "name": "C6", "ticks": 21923, "time": 103.41042561666667, "velocity": 0.8110236220472441}, {"duration": 0.37735866666666595, "durationTicks": 80, "midi": 83, "name": "B5", "ticks": 21998, "time": 103.76419936666667, "velocity": 0.8188976377952756}, {"duration": 1.6462271833333375, "durationTicks": 349, "midi": 79, "name": "G5", "ticks": 22085, "time": 104.17457691666667, "velocity": 0.7244094488188977}, {"duration": 0.49528324999999995, "durationTicks": 105, "midi": 91, "name": "G6", "ticks": 22445, "time": 105.87269091666667, "velocity": 0.8582677165354331}, {"duration": 0.38207565000000443, "durationTicks": 81, "midi": 90, "name": "F#6", "ticks": 22560, "time": 106.41514400000001, "velocity": 0.8582677165354331}, {"duration": 0.32547184999999956, "durationTicks": 69, "midi": 86, "name": "D6", "ticks": 22645, "time": 106.81608758333334, "velocity": 0.8346456692913385}, {"duration": 0.3160378833333226, "durationTicks": 67, "midi": 91, "name": "G6", "ticks": 22727, "time": 107.20288021666668, "velocity": 0.889763779527559}, {"duration": 0.3490567666666635, "durationTicks": 74, "midi": 90, "name": "F#6", "ticks": 22806, "time": 107.57552190000001, "velocity": 0.889763779527559}, {"duration": 0.367924699999989, "durationTicks": 78, "midi": 86, "name": "D6", "ticks": 22885, "time": 107.94816358333334, "velocity": 0.8346456692913385}, {"duration": 0.37735866666668016, "durationTicks": 80, "midi": 83, "name": "B5", "ticks": 22962, "time": 108.3113713, "velocity": 0.7952755905511811}, {"duration": 1.688680033333327, "durationTicks": 358, "midi": 86, "name": "D6", "ticks": 23042, "time": 108.68872996666668, "velocity": 0.7559055118110236}, {"duration": 0.37735866666666595, "durationTicks": 80, "midi": 81, "name": "A5", "ticks": 23520, "time": 110.943448, "velocity": 0.8188976377952756}, {"duration": 0.3632077166666505, "durationTicks": 77, "midi": 84, "name": "C6", "ticks": 23605, "time": 111.34439158333335, "velocity": 0.8346456692913385}, {"duration": 0.4009435833333299, "durationTicks": 85, "midi": 83, "name": "B5", "ticks": 23687, "time": 111.73118421666668, "velocity": 0.8582677165354331}, {"duration": 0.353773750000002, "durationTicks": 75, "midi": 81, "name": "A5", "ticks": 23768, "time": 112.11325986666667, "velocity": 0.8110236220472441}, {"duration": 0.38207565000001864, "durationTicks": 81, "midi": 79, "name": "G5", "ticks": 23846, "time": 112.48118456666667, "velocity": 0.8110236220472441}, {"duration": 0.35849073333334047, "durationTicks": 76, "midi": 78, "name": "F#5", "ticks": 23924, "time": 112.84910926666667, "velocity": 0.7244094488188977}, {"duration": 0.27830201666667165, "durationTicks": 59, "midi": 72, "name": "C5", "ticks": 24244, "time": 114.35854393333334, "velocity": 0.6692913385826772}, {"duration": 0.2358491666666538, "durationTicks": 50, "midi": 74, "name": "D5", "ticks": 24304, "time": 114.64156293333335, "velocity": 0.7637795275590551}, {"duration": 0.2735850333333474, "durationTicks": 58, "midi": 76, "name": "E5", "ticks": 24365, "time": 114.92929891666667, "velocity": 0.8031496062992126}, {"duration": 0.26415106666667043, "durationTicks": 56, "midi": 74, "name": "D5", "ticks": 24424, "time": 115.20760093333334, "velocity": 0.7322834645669292}, {"duration": 0.2688680500000089, "durationTicks": 57, "midi": 76, "name": "E5", "ticks": 24484, "time": 115.49061993333333, "velocity": 0.7559055118110236}, {"duration": 0.27358503333333317, "durationTicks": 58, "midi": 78, "name": "F#5", "ticks": 24544, "time": 115.77363893333334, "velocity": 0.7244094488188977}, {"duration": 0.2688680499999947, "durationTicks": 57, "midi": 76, "name": "E5", "ticks": 24603, "time": 116.05194095000002, "velocity": 0.7716535433070866}, {"duration": 0.2877359833333344, "durationTicks": 61, "midi": 78, "name": "F#5", "ticks": 24663, "time": 116.33495995000001, "velocity": 0.7874015748031497}, {"duration": 0.2877359833333344, "durationTicks": 61, "midi": 79, "name": "G5", "ticks": 24723, "time": 116.61797895000001, "velocity": 0.8110236220472441}, {"duration": 0.27830201666665744, "durationTicks": 59, "midi": 78, "name": "F#5", "ticks": 24783, "time": 116.90099795000002, "velocity": 0.8031496062992126}, {"duration": 0.2547170999999935, "durationTicks": 54, "midi": 79, "name": "G5", "ticks": 24844, "time": 117.18873393333334, "velocity": 0.7952755905511811}, {"duration": 0.26415106666667043, "durationTicks": 56, "midi": 81, "name": "A5", "ticks": 24903, "time": 117.46703595000001, "velocity": 0.7952755905511811}, {"duration": 0.26415106666667043, "durationTicks": 56, "midi": 79, "name": "G5", "ticks": 24964, "time": 117.75477193333334, "velocity": 0.8188976377952756}, {"duration": 0.25943408333333196, "durationTicks": 55, "midi": 76, "name": "E5", "ticks": 25024, "time": 118.03779093333334, "velocity": 0.7952755905511811}, {"duration": 0.25943408333331774, "durationTicks": 55, "midi": 81, "name": "A5", "ticks": 25083, "time": 118.31609295000001, "velocity": 0.8740157480314961}, {"duration": 0.32547184999999956, "durationTicks": 69, "midi": 83, "name": "B5", "ticks": 25143, "time": 118.59911195000001, "velocity": 0.8188976377952756}, {"duration": 1.0801891833333315, "durationTicks": 229, "midi": 84, "name": "C6", "ticks": 25205, "time": 118.89156491666667, "velocity": 0.7716535433070866}, {"duration": 0.9292457166666708, "durationTicks": 197, "midi": 83, "name": "B5", "ticks": 25440, "time": 120.00005600000001, "velocity": 0.6692913385826772}, {"duration": 0.2688680499999947, "durationTicks": 57, "midi": 72, "name": "C5", "ticks": 25688, "time": 121.16986786666668, "velocity": 0.7322834645669292}, {"duration": 0.21226425000000404, "durationTicks": 45, "midi": 74, "name": "D5", "ticks": 25743, "time": 121.42930195000001, "velocity": 0.8188976377952756}, {"duration": 0.25943408333334617, "durationTicks": 55, "midi": 76, "name": "E5", "ticks": 25798, "time": 121.68873603333333, "velocity": 0.8110236220472441}, {"duration": 0.27830201666665744, "durationTicks": 59, "midi": 74, "name": "D5", "ticks": 25851, "time": 121.93873615000001, "velocity": 0.7952755905511811}, {"duration": 0.25943408333334617, "durationTicks": 55, "midi": 76, "name": "E5", "ticks": 25910, "time": 122.21703816666667, "velocity": 0.8188976377952756}, {"duration": 0.2688680500000231, "durationTicks": 57, "midi": 78, "name": "F#5", "ticks": 25970, "time": 122.50005716666666, "velocity": 0.8031496062992126}, {"duration": 0.2735850333333474, "durationTicks": 58, "midi": 76, "name": "E5", "ticks": 26029, "time": 122.77835918333334, "velocity": 0.7716535433070866}, {"duration": 0.3726416833333417, "durationTicks": 79, "midi": 78, "name": "F#5", "ticks": 26091, "time": 123.07081215000001, "velocity": 0.8031496062992126}, {"duration": 0.7028305166666797, "durationTicks": 149, "midi": 81, "name": "A5", "ticks": 26172, "time": 123.4528878, "velocity": 0.7716535433070866}, {"duration": 0.4245285000000081, "durationTicks": 90, "midi": 79, "name": "G5", "ticks": 26330, "time": 124.19817116666667, "velocity": 0.8031496062992126}, {"duration": 0.9150947666666696, "durationTicks": 194, "midi": 83, "name": "B5", "ticks": 26420, "time": 124.62269966666668, "velocity": 0.7244094488188977}, {"duration": 0.2971699499999829, "durationTicks": 63, "midi": 72, "name": "C5", "ticks": 26642, "time": 125.66986996666668, "velocity": 0.7165354330708661}, {"duration": 0.23113218333332952, "durationTicks": 49, "midi": 74, "name": "D5", "ticks": 26701, "time": 125.94817198333334, "velocity": 0.7952755905511811}, {"duration": 0.26415106666667043, "durationTicks": 56, "midi": 76, "name": "E5", "ticks": 26760, "time": 126.22647400000001, "velocity": 0.8031496062992126}, {"duration": 0.29716995000001134, "durationTicks": 63, "midi": 74, "name": "D5", "ticks": 26817, "time": 126.49534205, "velocity": 0.7637795275590551}, {"duration": 0.250000116666655, "durationTicks": 53, "midi": 76, "name": "E5", "ticks": 26880, "time": 126.79251200000002, "velocity": 0.8031496062992126}, {"duration": 0.2500001166666834, "durationTicks": 53, "midi": 78, "name": "F#5", "ticks": 26938, "time": 127.06609703333334, "velocity": 0.7559055118110236}, {"duration": 0.3207548666666753, "durationTicks": 68, "midi": 76, "name": "E5", "ticks": 26994, "time": 127.3302481, "velocity": 0.6850393700787402}, {"duration": 0.3018869333333356, "durationTicks": 64, "midi": 78, "name": "F#5", "ticks": 27057, "time": 127.62741805, "velocity": 0.7086614173228346}, {"duration": 1.146226949999999, "durationTicks": 243, "midi": 79, "name": "G5", "ticks": 27122, "time": 127.93402196666668, "velocity": 0.6771653543307087}, {"duration": 0.26415106666667043, "durationTicks": 56, "midi": 72, "name": "C5", "ticks": 27602, "time": 130.19817396666667, "velocity": 0.7244094488188977}, {"duration": 0.2169812333333141, "durationTicks": 46, "midi": 74, "name": "D5", "ticks": 27662, "time": 130.4811929666667, "velocity": 0.7086614173228346}, {"duration": 0.25943408333333196, "durationTicks": 55, "midi": 76, "name": "E5", "ticks": 27720, "time": 130.75477800000002, "velocity": 0.7952755905511811}, {"duration": 0.27358503333331896, "durationTicks": 58, "midi": 74, "name": "D5", "ticks": 27775, "time": 131.01421208333335, "velocity": 0.7637795275590551}, {"duration": 0.25943408333333196, "durationTicks": 55, "midi": 76, "name": "E5", "ticks": 27836, "time": 131.30194806666668, "velocity": 0.7716535433070866}, {"duration": 0.24528313333331653, "durationTicks": 52, "midi": 78, "name": "F#5", "ticks": 27892, "time": 131.56609913333335, "velocity": 0.6929133858267716}, {"duration": 0.2830189999999959, "durationTicks": 60, "midi": 76, "name": "E5", "ticks": 27946, "time": 131.82081623333335, "velocity": 0.7322834645669292}, {"duration": 0.3160378833333368, "durationTicks": 67, "midi": 78, "name": "F#5", "ticks": 28005, "time": 132.09911825, "velocity": 0.7086614173228346}, {"duration": 0.8160381166666468, "durationTicks": 173, "midi": 81, "name": "A5", "ticks": 28075, "time": 132.42930708333336, "velocity": 0.8188976377952756}, {"duration": 0.33575486666663323, "durationTicks": 71, "midi": 79, "name": "G5", "ticks": 28252, "time": 133.26421313333336, "velocity": 0.7086614173228346}, {"duration": 0.7400000000000091, "durationTicks": 148, "midi": 83, "name": "B5", "ticks": 28326, "time": 133.614968, "velocity": 0.7322834645669292}, {"duration": 0.40666667499999676, "durationTicks": 81, "midi": 81, "name": "A5", "ticks": 28482, "time": 134.394968, "velocity": 0.6692913385826772}, {"duration": 0.9166671250000036, "durationTicks": 165, "midi": 84, "name": "C6", "ticks": 28565, "time": 134.81274579166666, "velocity": 0.7165354330708661}, {"duration": 0.37222240833332876, "durationTicks": 67, "midi": 83, "name": "B5", "ticks": 28733, "time": 135.74607959166667, "velocity": 0.5826771653543307}, {"duration": 2.9437499999999943, "durationTicks": 471, "midi": 74, "name": "D5", "ticks": 28809, "time": 136.174552, "velocity": 0.5275590551181102}, {"duration": 1.1273590166666736, "durationTicks": 239, "midi": 74, "name": "D5", "ticks": 29534, "time": 140.68433976666665, "velocity": 0.7086614173228346}, {"duration": 2.198114233333314, "durationTicks": 466, "midi": 79, "name": "G5", "ticks": 29771, "time": 141.80226481666668, "velocity": 0.7559055118110236}, {"duration": 0.47641531666664605, "durationTicks": 101, "midi": 78, "name": "F#5", "ticks": 30241, "time": 144.01924698333335, "velocity": 0.6692913385826772}, {"duration": 0.5943398999999943, "durationTicks": 126, "midi": 81, "name": "A5", "ticks": 30368, "time": 144.61830386666668, "velocity": 0.8031496062992126}, {"duration": 1.7216989166666679, "durationTicks": 365, "midi": 79, "name": "G5", "ticks": 30484, "time": 145.16547393333335, "velocity": 0.6456692913385826}, {"duration": 0.5990568833333327, "durationTicks": 127, "midi": 81, "name": "A5", "ticks": 31330, "time": 149.15604183333335, "velocity": 0.7952755905511811}, {"duration": 0.5896229166666558, "durationTicks": 125, "midi": 83, "name": "B5", "ticks": 31452, "time": 149.73151380000002, "velocity": 0.6692913385826772}, {"duration": 1.5754724333333456, "durationTicks": 334, "midi": 83, "name": "B5", "ticks": 31581, "time": 150.34000465, "velocity": 0.6692913385826772}, {"duration": 0.2971699499999829, "durationTicks": 63, "midi": 81, "name": "A5", "ticks": 32165, "time": 153.09472291666668, "velocity": 0.8582677165354331}, {"duration": 0.3254718500000138, "durationTicks": 69, "midi": 84, "name": "C6", "ticks": 32243, "time": 153.46264761666666, "velocity": 0.8110236220472441}, {"duration": 0.37735866666665174, "durationTicks": 80, "midi": 83, "name": "B5", "ticks": 32318, "time": 153.81642136666667, "velocity": 0.8188976377952756}, {"duration": 1.6462271833333375, "durationTicks": 349, "midi": 79, "name": "G5", "ticks": 32405, "time": 154.22679891666667, "velocity": 0.7244094488188977}, {"duration": 0.49528324999999995, "durationTicks": 105, "midi": 91, "name": "G6", "ticks": 32765, "time": 155.92491291666667, "velocity": 0.8582677165354331}, {"duration": 0.38207565000001864, "durationTicks": 81, "midi": 90, "name": "F#6", "ticks": 32880, "time": 156.467366, "velocity": 0.8582677165354331}, {"duration": 0.32547184999998535, "durationTicks": 69, "midi": 86, "name": "D6", "ticks": 32965, "time": 156.86830958333334, "velocity": 0.8346456692913385}, {"duration": 0.3160378833333368, "durationTicks": 67, "midi": 91, "name": "G6", "ticks": 33047, "time": 157.25510221666667, "velocity": 0.889763779527559}, {"duration": 0.3490567666666493, "durationTicks": 74, "midi": 90, "name": "F#6", "ticks": 33126, "time": 157.6277439, "velocity": 0.889763779527559}, {"duration": 0.3679247000000032, "durationTicks": 78, "midi": 86, "name": "D6", "ticks": 33205, "time": 158.00038558333333, "velocity": 0.8346456692913385}, {"duration": 0.37735866666668016, "durationTicks": 80, "midi": 83, "name": "B5", "ticks": 33282, "time": 158.3635933, "velocity": 0.7952755905511811}, {"duration": 0.509434199999987, "durationTicks": 108, "midi": 86, "name": "D6", "ticks": 33362, "time": 158.74095196666667, "velocity": 0.7559055118110236}, {"duration": 0.9622645999999975, "durationTicks": 204, "midi": 86, "name": "D6", "ticks": 33478, "time": 159.28812203333334, "velocity": 0.7559055118110236}, {"duration": 0.37735866666668016, "durationTicks": 80, "midi": 81, "name": "A5", "ticks": 33840, "time": 160.99567, "velocity": 0.8188976377952756}, {"duration": 0.36320771666666474, "durationTicks": 77, "midi": 84, "name": "C6", "ticks": 33925, "time": 161.39661358333333, "velocity": 0.8346456692913385}, {"duration": 0.4009435833333441, "durationTicks": 85, "midi": 83, "name": "B5", "ticks": 34007, "time": 161.78340621666666, "velocity": 0.8582677165354331}, {"duration": 0.3537737499999878, "durationTicks": 75, "midi": 81, "name": "A5", "ticks": 34088, "time": 162.16548186666668, "velocity": 0.8110236220472441}, {"duration": 0.38207565000001864, "durationTicks": 81, "midi": 79, "name": "G5", "ticks": 34166, "time": 162.53340656666666, "velocity": 0.8110236220472441}, {"duration": 0.35849073333332626, "durationTicks": 76, "midi": 78, "name": "F#5", "ticks": 34244, "time": 162.90133126666666, "velocity": 0.7244094488188977}, {"duration": 0.5660380000000202, "durationTicks": 120, "midi": 74, "name": "D5", "ticks": 34320, "time": 163.25982199999999, "velocity": 0.7086614173228346}, {"duration": 0.4905662666666899, "durationTicks": 104, "midi": 79, "name": "G5", "ticks": 34449, "time": 163.86831285, "velocity": 0.8110236220472441}, {"duration": 2.2358500999999933, "durationTicks": 474, "midi": 79, "name": "G5", "ticks": 34571, "time": 164.44378481666666, "velocity": 0.7559055118110236}, {"duration": 0.47641531666664605, "durationTicks": 101, "midi": 78, "name": "F#5", "ticks": 35055, "time": 166.72680475, "velocity": 0.6692913385826772}, {"duration": 0.5943398999999943, "durationTicks": 126, "midi": 81, "name": "A5", "ticks": 35168, "time": 167.25982386666666, "velocity": 0.8031496062992126}, {"duration": 1.7216989166666679, "durationTicks": 365, "midi": 79, "name": "G5", "ticks": 35284, "time": 167.80699393333333, "velocity": 0.6456692913385826}, {"duration": 0.5047172166666769, "durationTicks": 107, "midi": 81, "name": "A5", "ticks": 36130, "time": 171.79756183333333, "velocity": 0.7952755905511811}, {"duration": 0.33018883333332383, "durationTicks": 70, "midi": 83, "name": "B5", "ticks": 36243, "time": 172.33058095, "velocity": 0.8110236220472441}, {"duration": 0.3207548666666469, "durationTicks": 68, "midi": 83, "name": "B5", "ticks": 36320, "time": 172.69378866666668, "velocity": 0.7874015748031497}, {"duration": 0.3254718500000138, "durationTicks": 69, "midi": 83, "name": "B5", "ticks": 36401, "time": 173.07586431666667, "velocity": 0.8188976377952756}, {"duration": 0.3679246999999748, "durationTicks": 78, "midi": 83, "name": "B5", "ticks": 36482, "time": 173.4579399666667, "velocity": 0.8582677165354331}, {"duration": 1.3018873999999983, "durationTicks": 276, "midi": 83, "name": "B5", "ticks": 36565, "time": 173.84944958333335, "velocity": 0.889763779527559}, {"duration": 0.29716995000001134, "durationTicks": 63, "midi": 81, "name": "A5", "ticks": 36965, "time": 175.73624291666667, "velocity": 0.8582677165354331}, {"duration": 0.3254718500000138, "durationTicks": 69, "midi": 84, "name": "C6", "ticks": 37043, "time": 176.10416761666667, "velocity": 0.8110236220472441}, {"duration": 0.37735866666668016, "durationTicks": 80, "midi": 83, "name": "B5", "ticks": 37118, "time": 176.45794136666666, "velocity": 0.8188976377952756}, {"duration": 1.6462271833333375, "durationTicks": 349, "midi": 79, "name": "G5", "ticks": 37205, "time": 176.86831891666668, "velocity": 0.7244094488188977}, {"duration": 0.49528324999999995, "durationTicks": 105, "midi": 91, "name": "G6", "ticks": 37565, "time": 178.56643291666666, "velocity": 0.8582677165354331}, {"duration": 0.3820756499999902, "durationTicks": 81, "midi": 90, "name": "F#6", "ticks": 37680, "time": 179.108886, "velocity": 0.8582677165354331}, {"duration": 0.3254718500000138, "durationTicks": 69, "midi": 86, "name": "D6", "ticks": 37765, "time": 179.50982958333333, "velocity": 0.8346456692913385}, {"duration": 0.3160378833333084, "durationTicks": 67, "midi": 91, "name": "G6", "ticks": 37847, "time": 179.89662221666669, "velocity": 0.889763779527559}, {"duration": 0.34905676666667773, "durationTicks": 74, "midi": 90, "name": "F#6", "ticks": 37926, "time": 180.2692639, "velocity": 0.889763779527559}, {"duration": 0.3679247000000032, "durationTicks": 78, "midi": 86, "name": "D6", "ticks": 38005, "time": 180.64190558333334, "velocity": 0.8346456692913385}, {"duration": 0.37735866666668016, "durationTicks": 80, "midi": 83, "name": "B5", "ticks": 38082, "time": 181.0051133, "velocity": 0.7952755905511811}, {"duration": 1.688680033333327, "durationTicks": 358, "midi": 86, "name": "D6", "ticks": 38162, "time": 181.38247196666669, "velocity": 0.7559055118110236}, {"duration": 0.37735866666665174, "durationTicks": 80, "midi": 81, "name": "A5", "ticks": 38640, "time": 183.63719, "velocity": 0.8188976377952756}, {"duration": 0.36320771666669316, "durationTicks": 77, "midi": 84, "name": "C6", "ticks": 38725, "time": 184.03813358333332, "velocity": 0.8346456692913385}, {"duration": 0.4009435833333157, "durationTicks": 85, "midi": 83, "name": "B5", "ticks": 38807, "time": 184.42492621666668, "velocity": 0.8582677165354331}, {"duration": 0.3537737500000162, "durationTicks": 75, "midi": 81, "name": "A5", "ticks": 38888, "time": 184.80700186666667, "velocity": 0.8110236220472441}, {"duration": 0.3820756499999902, "durationTicks": 81, "midi": 79, "name": "G5", "ticks": 38966, "time": 185.17492656666667, "velocity": 0.8110236220472441}, {"duration": 0.35849073333332626, "durationTicks": 76, "midi": 78, "name": "F#5", "ticks": 39044, "time": 185.54285126666667, "velocity": 0.7244094488188977}, {"duration": 0.5660379999999918, "durationTicks": 120, "midi": 76, "name": "E5", "ticks": 39120, "time": 185.901342, "velocity": 0.7086614173228346}, {"duration": 0.4905662666666615, "durationTicks": 104, "midi": 81, "name": "A5", "ticks": 39249, "time": 186.50983285, "velocity": 0.8110236220472441}, {"duration": 2.2358500999999933, "durationTicks": 474, "midi": 81, "name": "A5", "ticks": 39371, "time": 187.08530481666668, "velocity": 0.7559055118110236}, {"duration": 0.47641531666667447, "durationTicks": 101, "midi": 80, "name": "G#5", "ticks": 39855, "time": 189.36832475, "velocity": 0.6692913385826772}, {"duration": 0.5943398999999943, "durationTicks": 126, "midi": 83, "name": "B5", "ticks": 39968, "time": 189.90134386666668, "velocity": 0.8031496062992126}, {"duration": 1.7216989166666679, "durationTicks": 365, "midi": 81, "name": "A5", "ticks": 40084, "time": 190.44851393333334, "velocity": 0.6456692913385826}, {"duration": 0.5990568833333612, "durationTicks": 127, "midi": 83, "name": "B5", "ticks": 40930, "time": 194.43908183333332, "velocity": 0.7952755905511811}, {"duration": 0.33018883333332383, "durationTicks": 70, "midi": 85, "name": "C#6", "ticks": 41043, "time": 194.97210095, "velocity": 0.8110236220472441}, {"duration": 0.3207548666666753, "durationTicks": 68, "midi": 85, "name": "C#6", "ticks": 41120, "time": 195.33530866666666, "velocity": 0.7874015748031497}, {"duration": 0.32547184999998535, "durationTicks": 69, "midi": 85, "name": "C#6", "ticks": 41201, "time": 195.71738431666668, "velocity": 0.8188976377952756}, {"duration": 0.3679247000000032, "durationTicks": 78, "midi": 85, "name": "C#6", "ticks": 41282, "time": 196.09945996666667, "velocity": 0.8582677165354331}, {"duration": 1.3018873999999983, "durationTicks": 276, "midi": 85, "name": "C#6", "ticks": 41365, "time": 196.49096958333334, "velocity": 0.889763779527559}, {"duration": 0.2971699499999829, "durationTicks": 63, "midi": 83, "name": "B5", "ticks": 41765, "time": 198.37776291666668, "velocity": 0.8582677165354331}, {"duration": 0.3254718500000138, "durationTicks": 69, "midi": 86, "name": "D6", "ticks": 41843, "time": 198.74568761666666, "velocity": 0.8110236220472441}, {"duration": 0.37735866666668016, "durationTicks": 80, "midi": 85, "name": "C#6", "ticks": 41918, "time": 199.09946136666667, "velocity": 0.8188976377952756}, {"duration": 1.6462271833333375, "durationTicks": 349, "midi": 81, "name": "A5", "ticks": 42005, "time": 199.50983891666667, "velocity": 0.7244094488188977}, {"duration": 0.49528324999999995, "durationTicks": 105, "midi": 93, "name": "A6", "ticks": 42365, "time": 201.20795291666667, "velocity": 0.8582677165354331}, {"duration": 0.3820756499999902, "durationTicks": 81, "midi": 92, "name": "G#6", "ticks": 42480, "time": 201.750406, "velocity": 0.8582677165354331}, {"duration": 0.32547184999998535, "durationTicks": 69, "midi": 88, "name": "E6", "ticks": 42565, "time": 202.15134958333334, "velocity": 0.8346456692913385}, {"duration": 0.3160378833333368, "durationTicks": 67, "midi": 93, "name": "A6", "ticks": 42647, "time": 202.53814221666667, "velocity": 0.889763779527559}, {"duration": 0.3490567666666493, "durationTicks": 74, "midi": 92, "name": "G#6", "ticks": 42726, "time": 202.9107839, "velocity": 0.889763779527559}, {"duration": 0.3679247000000032, "durationTicks": 78, "midi": 88, "name": "E6", "ticks": 42805, "time": 203.28342558333333, "velocity": 0.8346456692913385}, {"duration": 0.37735866666668016, "durationTicks": 80, "midi": 85, "name": "C#6", "ticks": 42882, "time": 203.6466333, "velocity": 0.7952755905511811}, {"duration": 1.688680033333327, "durationTicks": 358, "midi": 88, "name": "E6", "ticks": 42962, "time": 204.02399196666667, "velocity": 0.7559055118110236}, {"duration": 0.37735866666668016, "durationTicks": 80, "midi": 83, "name": "B5", "ticks": 43440, "time": 206.27871, "velocity": 0.8188976377952756}, {"duration": 0.36320771666666474, "durationTicks": 77, "midi": 86, "name": "D6", "ticks": 43525, "time": 206.67965358333333, "velocity": 0.8346456692913385}, {"duration": 0.4009435833333157, "durationTicks": 85, "midi": 85, "name": "C#6", "ticks": 43607, "time": 207.0664462166667, "velocity": 0.8582677165354331}, {"duration": 0.3537737499999878, "durationTicks": 75, "midi": 83, "name": "B5", "ticks": 43688, "time": 207.44852186666668, "velocity": 0.8110236220472441}, {"duration": 0.3820756499999902, "durationTicks": 81, "midi": 81, "name": "A5", "ticks": 43766, "time": 207.81644656666668, "velocity": 0.8110236220472441}, {"duration": 0.35849073333332626, "durationTicks": 76, "midi": 80, "name": "G#5", "ticks": 43844, "time": 208.1843712666667, "velocity": 0.7244094488188977}, {"duration": 0.5660379999999918, "durationTicks": 120, "midi": 76, "name": "E5", "ticks": 43920, "time": 208.542862, "velocity": 0.7086614173228346}, {"duration": 0.49056626666663306, "durationTicks": 104, "midi": 81, "name": "A5", "ticks": 44049, "time": 209.15135285000002, "velocity": 0.8110236220472441}, {"duration": 2.2358500999999933, "durationTicks": 474, "midi": 81, "name": "A5", "ticks": 44171, "time": 209.7268248166667, "velocity": 0.7559055118110236}, {"duration": 0.47641531666664605, "durationTicks": 101, "midi": 80, "name": "G#5", "ticks": 44655, "time": 212.00984475, "velocity": 0.6692913385826772}, {"duration": 0.5943399000000227, "durationTicks": 126, "midi": 83, "name": "B5", "ticks": 44768, "time": 212.54286386666666, "velocity": 0.8031496062992126}, {"duration": 1.7216989166666679, "durationTicks": 365, "midi": 81, "name": "A5", "ticks": 44884, "time": 213.09003393333333, "velocity": 0.6456692913385826}, {"duration": 0.457547383333349, "durationTicks": 97, "midi": 90, "name": "F#6", "ticks": 48240, "time": 228.92023, "velocity": 0.9133858267716536}, {"duration": 0.44811341666667204, "durationTicks": 95, "midi": 90, "name": "F#6", "ticks": 48360, "time": 229.486268, "velocity": 0.9291338582677166}, {"duration": 1.155660916666676, "durationTicks": 245, "midi": 92, "name": "G#6", "ticks": 48480, "time": 230.052306, "velocity": 0.8582677165354331}, {"duration": 9.622646000000003, "durationTicks": 2040, "midi": 93, "name": "A6", "ticks": 48720, "time": 231.184382, "velocity": 0.8188976377952756}]}, {"channel": 0, "controlChanges": {"0": [{"number": 0, "ticks": 140, "time": 0.6603776666666668, "value": 0}], "6": [{"number": 6, "ticks": 122, "time": 0.5754719666666667, "value": 0.015748031496062992}, {"number": 6, "ticks": 133, "time": 0.6273587833333334, "value": 0.5275590551181102}, {"number": 6, "ticks": 138, "time": 0.6509437, "value": 0.5039370078740157}], "72": [{"number": 72, "ticks": 129, "time": 0.60849085, "value": 0.5275590551181102}], "74": [{"number": 74, "ticks": 140, "time": 0.6603776666666668, "value": 0.7874015748031497}], "91": [{"number": 91, "ticks": 123, "time": 0.58018895, "value": 0.7874015748031497}], "93": [{"number": 93, "ticks": 124, "time": 0.5849059333333334, "value": 0.7874015748031497}], "98": [{"number": 98, "ticks": 131, "time": 0.6179248166666667, "value": 0.8031496062992126}, {"number": 98, "ticks": 134, "time": 0.6320757666666668, "value": 0.25196850393700787}], "99": [{"number": 99, "ticks": 132, "time": 0.6226418000000001, "value": 0.007874015748031496}, {"number": 99, "ticks": 136, "time": 0.6415097333333334, "value": 0.007874015748031496}], "100": [{"number": 100, "ticks": 120, "time": 0.566038, "value": 0}], "101": [{"number": 101, "ticks": 121, "time": 0.5707549833333334, "value": 0}], "121": [{"number": 121, "ticks": 117, "time": 0.55188705, "value": 0}]}, "pitchBends": [], "instrument": {"family": "piano", "number": 0, "name": "acoustic grand piano"}, "name": "Strings Rythm", "notes": [], "endOfTrackTicks": 48630}, {"channel": 4, "controlChanges": {"6": [{"number": 6, "ticks": 145, "time": 0.6839625833333334, "value": 0.3937007874015748}], "7": [{"number": 7, "ticks": 143, "time": 0.6745286166666667, "value": 0.6929133858267716}], "10": [{"number": 10, "ticks": 143, "time": 0.6745286166666667, "value": 0.5039370078740157}, {"number": 10, "ticks": 480, "time": 2.264152, "value": 0.5039370078740157}, {"number": 10, "ticks": 14400, "time": 67.92456, "value": 0.5039370078740157}, {"number": 10, "ticks": 19200, "time": 90.56608, "value": 0.5039370078740157}, {"number": 10, "ticks": 29520, "time": 140.618302, "value": 0.5039370078740157}, {"number": 10, "ticks": 34320, "time": 163.25982199999999, "value": 0.5039370078740157}, {"number": 10, "ticks": 39120, "time": 185.901342, "value": 0.5039370078740157}, {"number": 10, "ticks": 43920, "time": 208.542862, "value": 0.5039370078740157}], "73": [{"number": 73, "ticks": 142, "time": 0.6698116333333334, "value": 0.3937007874015748}], "98": [{"number": 98, "ticks": 144, "time": 0.6792456, "value": 0.7795275590551181}], "99": [{"number": 99, "ticks": 145, "time": 0.6839625833333334, "value": 0.007874015748031496}]}, "pitchBends": [], "instrument": {"family": "ensemble", "number": 48, "name": "string ensemble 1"}, "name": "", "notes": [{"duration": 0.17924536666666668, "durationTicks": 38, "midi": 62, "name": "D4", "ticks": 720, "time": 3.3962280000000002, "velocity": 0.5669291338582677}, {"duration": 0.16981139999999995, "durationTicks": 36, "midi": 55, "name": "G3", "ticks": 720, "time": 3.3962280000000002, "velocity": 0.4566929133858268}, {"duration": 0.13207553333333344, "durationTicks": 28, "midi": 59, "name": "B3", "ticks": 720, "time": 3.3962280000000002, "velocity": 0.5196850393700787}, {"duration": 0.13207553333333344, "durationTicks": 28, "midi": 59, "name": "B3", "ticks": 841, "time": 3.9669829833333337, "velocity": 0.5275590551181102}, {"duration": 0.17452838333333354, "durationTicks": 37, "midi": 55, "name": "G3", "ticks": 842, "time": 3.971699966666667, "velocity": 0.5118110236220472}, {"duration": 0.17452838333333354, "durationTicks": 37, "midi": 62, "name": "D4", "ticks": 842, "time": 3.971699966666667, "velocity": 0.5511811023622047}, {"duration": 0.1698114000000004, "durationTicks": 36, "midi": 55, "name": "G3", "ticks": 957, "time": 4.51415305, "velocity": 0.5275590551181102}, {"duration": 0.13679251666666747, "durationTicks": 29, "midi": 59, "name": "B3", "ticks": 957, "time": 4.51415305, "velocity": 0.5511811023622047}, {"duration": 0.16509441666666635, "durationTicks": 35, "midi": 62, "name": "D4", "ticks": 958, "time": 4.518870033333334, "velocity": 0.5354330708661418}, {"duration": 0.14150950000000062, "durationTicks": 30, "midi": 59, "name": "B3", "ticks": 1079, "time": 5.089625016666667, "velocity": 0.5039370078740157}, {"duration": 0.17924536666666668, "durationTicks": 38, "midi": 55, "name": "G3", "ticks": 1079, "time": 5.089625016666667, "velocity": 0.49606299212598426}, {"duration": 0.1698113999999995, "durationTicks": 36, "midi": 62, "name": "D4", "ticks": 1079, "time": 5.089625016666667, "velocity": 0.4881889763779528}, {"duration": 0.17452838333333354, "durationTicks": 37, "midi": 55, "name": "G3", "ticks": 1199, "time": 5.655663016666668, "velocity": 0.4645669291338583}, {"duration": 0.1886793333333321, "durationTicks": 40, "midi": 62, "name": "D4", "ticks": 1199, "time": 5.655663016666668, "velocity": 0.49606299212598426}, {"duration": 0.14150949999999973, "durationTicks": 30, "midi": 57, "name": "A3", "ticks": 1199, "time": 5.655663016666668, "velocity": 0.5669291338582677}, {"duration": 0.19811329999999927, "durationTicks": 42, "midi": 62, "name": "D4", "ticks": 1320, "time": 6.226418000000001, "velocity": 0.5590551181102362}, {"duration": 0.1603774333333332, "durationTicks": 34, "midi": 55, "name": "G3", "ticks": 1320, "time": 6.226418000000001, "velocity": 0.5354330708661418}, {"duration": 0.10849061666666593, "durationTicks": 23, "midi": 57, "name": "A3", "ticks": 1321, "time": 6.231134983333334, "velocity": 0.5905511811023622}, {"duration": 0.15094346666666691, "durationTicks": 32, "midi": 57, "name": "A3", "ticks": 1440, "time": 6.7924560000000005, "velocity": 0.5905511811023622}, {"duration": 0.13679251666666659, "durationTicks": 29, "midi": 54, "name": "F#3", "ticks": 1441, "time": 6.797172983333334, "velocity": 0.6141732283464567}, {"duration": 0.1603774333333332, "durationTicks": 34, "midi": 62, "name": "D4", "ticks": 1441, "time": 6.797172983333334, "velocity": 0.5669291338582677}, {"duration": 0.12264156666666715, "durationTicks": 26, "midi": 57, "name": "A3", "ticks": 1559, "time": 7.353777016666667, "velocity": 0.48031496062992124}, {"duration": 0.12264156666666715, "durationTicks": 26, "midi": 54, "name": "F#3", "ticks": 1560, "time": 7.358494, "velocity": 0.5748031496062992}, {"duration": 0.14150949999999973, "durationTicks": 30, "midi": 62, "name": "D4", "ticks": 1561, "time": 7.3632109833333335, "velocity": 0.5669291338582677}, {"duration": 0.1603774333333332, "durationTicks": 34, "midi": 55, "name": "G3", "ticks": 1677, "time": 7.910381050000001, "velocity": 0.5354330708661418}, {"duration": 0.12735855000000118, "durationTicks": 27, "midi": 59, "name": "B3", "ticks": 1678, "time": 7.915098033333334, "velocity": 0.47244094488188976}, {"duration": 0.15566045000000006, "durationTicks": 33, "midi": 62, "name": "D4", "ticks": 1678, "time": 7.915098033333334, "velocity": 0.48031496062992124}, {"duration": 0.15566045000000095, "durationTicks": 33, "midi": 62, "name": "D4", "ticks": 1800, "time": 8.49057, "velocity": 0.5669291338582677}, {"duration": 0.117924583333334, "durationTicks": 25, "midi": 59, "name": "B3", "ticks": 1800, "time": 8.49057, "velocity": 0.49606299212598426}, {"duration": 0.13679251666666836, "durationTicks": 29, "midi": 55, "name": "G3", "ticks": 1800, "time": 8.49057, "velocity": 0.5118110236220472}, {"duration": 0.15094346666666603, "durationTicks": 32, "midi": 62, "name": "D4", "ticks": 1919, "time": 9.051891016666668, "velocity": 0.6299212598425197}, {"duration": 0.11792458333333222, "durationTicks": 25, "midi": 59, "name": "B3", "ticks": 1920, "time": 9.056608, "velocity": 0.5511811023622047}, {"duration": 0.13679251666666659, "durationTicks": 29, "midi": 55, "name": "G3", "ticks": 1920, "time": 9.056608, "velocity": 0.5826771653543307}, {"duration": 0.1698114000000004, "durationTicks": 36, "midi": 62, "name": "D4", "ticks": 2039, "time": 9.617929016666668, "velocity": 0.47244094488188976}, {"duration": 0.13679251666666659, "durationTicks": 29, "midi": 59, "name": "B3", "ticks": 2040, "time": 9.622646000000001, "velocity": 0.4645669291338583}, {"duration": 0.13207553333333344, "durationTicks": 28, "midi": 55, "name": "G3", "ticks": 2041, "time": 9.627362983333335, "velocity": 0.4330708661417323}, {"duration": 0.14622648333333288, "durationTicks": 31, "midi": 55, "name": "G3", "ticks": 2158, "time": 10.179250033333334, "velocity": 0.4645669291338583}, {"duration": 0.117924583333334, "durationTicks": 25, "midi": 60, "name": "C4", "ticks": 2158, "time": 10.179250033333334, "velocity": 0.4881889763779528}, {"duration": 0.13679251666666836, "durationTicks": 29, "midi": 64, "name": "E4", "ticks": 2158, "time": 10.179250033333334, "velocity": 0.6141732283464567}, {"duration": 0.15094346666666603, "durationTicks": 32, "midi": 55, "name": "G3", "ticks": 2280, "time": 10.754722000000001, "velocity": 0.4881889763779528}, {"duration": 0.11320759999999908, "durationTicks": 24, "midi": 60, "name": "C4", "ticks": 2280, "time": 10.754722000000001, "velocity": 0.5354330708661418}, {"duration": 0.14622648333333288, "durationTicks": 31, "midi": 64, "name": "E4", "ticks": 2280, "time": 10.754722000000001, "velocity": 0.5354330708661418}, {"duration": 0.14150949999999973, "durationTicks": 30, "midi": 55, "name": "G3", "ticks": 2399, "time": 11.316043016666669, "velocity": 0.5669291338582677}, {"duration": 0.11320759999999908, "durationTicks": 24, "midi": 60, "name": "C4", "ticks": 2399, "time": 11.316043016666669, "velocity": 0.5118110236220472}, {"duration": 0.13207553333333344, "durationTicks": 28, "midi": 64, "name": "E4", "ticks": 2399, "time": 11.316043016666669, "velocity": 0.6377952755905512}, {"duration": 0.13679251666666659, "durationTicks": 29, "midi": 64, "name": "E4", "ticks": 2521, "time": 11.891514983333334, "velocity": 0.5590551181102362}, {"duration": 0.15566045000000095, "durationTicks": 33, "midi": 55, "name": "G3", "ticks": 2521, "time": 11.891514983333334, "velocity": 0.5748031496062992}, {"duration": 0.10849061666666593, "durationTicks": 23, "midi": 60, "name": "C4", "ticks": 2521, "time": 11.891514983333334, "velocity": 0.5826771653543307}, {"duration": 0.13207553333333344, "durationTicks": 28, "midi": 59, "name": "B3", "ticks": 2640, "time": 12.452836000000001, "velocity": 0.5590551181102362}, {"duration": 0.1603774333333341, "durationTicks": 34, "midi": 62, "name": "D4", "ticks": 2641, "time": 12.457552983333334, "velocity": 0.5905511811023622}, {"duration": 0.13679251666666659, "durationTicks": 29, "midi": 55, "name": "G3", "ticks": 2641, "time": 12.457552983333334, "velocity": 0.5669291338582677}, {"duration": 0.1603774333333341, "durationTicks": 34, "midi": 62, "name": "D4", "ticks": 2761, "time": 13.023590983333333, "velocity": 0.5039370078740157}, {"duration": 0.12264156666666892, "durationTicks": 26, "midi": 59, "name": "B3", "ticks": 2762, "time": 13.028307966666667, "velocity": 0.5118110236220472}, {"duration": 0.14622648333333288, "durationTicks": 31, "midi": 55, "name": "G3", "ticks": 2762, "time": 13.028307966666667, "velocity": 0.5118110236220472}, {"duration": 0.1273585500000003, "durationTicks": 27, "midi": 59, "name": "B3", "ticks": 2881, "time": 13.589628983333334, "velocity": 0.5748031496062992}, {"duration": 0.14150949999999973, "durationTicks": 30, "midi": 55, "name": "G3", "ticks": 2882, "time": 13.594345966666667, "velocity": 0.5748031496062992}, {"duration": 0.1509434666666678, "durationTicks": 32, "midi": 62, "name": "D4", "ticks": 2882, "time": 13.594345966666667, "velocity": 0.5590551181102362}, {"duration": 0.12264156666666715, "durationTicks": 26, "midi": 59, "name": "B3", "ticks": 3001, "time": 14.155666983333335, "velocity": 0.5275590551181102}, {"duration": 0.15566045000000095, "durationTicks": 33, "midi": 55, "name": "G3", "ticks": 3001, "time": 14.155666983333335, "velocity": 0.5511811023622047}, {"duration": 0.14622648333333288, "durationTicks": 31, "midi": 62, "name": "D4", "ticks": 3001, "time": 14.155666983333335, "velocity": 0.5748031496062992}, {"duration": 0.1603774333333341, "durationTicks": 34, "midi": 55, "name": "G3", "ticks": 3121, "time": 14.721704983333334, "velocity": 0.48031496062992124}, {"duration": 0.17924536666666668, "durationTicks": 38, "midi": 62, "name": "D4", "ticks": 3121, "time": 14.721704983333334, "velocity": 0.49606299212598426}, {"duration": 0.1273585500000003, "durationTicks": 27, "midi": 57, "name": "A3", "ticks": 3122, "time": 14.726421966666667, "velocity": 0.6141732283464567}, {"duration": 0.16509441666666724, "durationTicks": 35, "midi": 62, "name": "D4", "ticks": 3242, "time": 15.292459966666668, "velocity": 0.49606299212598426}, {"duration": 0.1603774333333341, "durationTicks": 34, "midi": 55, "name": "G3", "ticks": 3242, "time": 15.292459966666668, "velocity": 0.5118110236220472}, {"duration": 0.09905664999999964, "durationTicks": 21, "midi": 57, "name": "A3", "ticks": 3242, "time": 15.292459966666668, "velocity": 0.5905511811023622}, {"duration": 0.14622648333333288, "durationTicks": 31, "midi": 57, "name": "A3", "ticks": 3359, "time": 15.844347016666669, "velocity": 0.5748031496062992}, {"duration": 0.1698114000000004, "durationTicks": 36, "midi": 62, "name": "D4", "ticks": 3360, "time": 15.849064000000002, "velocity": 0.5669291338582677}, {"duration": 0.117924583333334, "durationTicks": 25, "midi": 54, "name": "F#3", "ticks": 3361, "time": 15.853780983333333, "velocity": 0.6377952755905512}, {"duration": 0.117924583333334, "durationTicks": 25, "midi": 57, "name": "A3", "ticks": 3480, "time": 16.415102, "velocity": 0.49606299212598426}, {"duration": 0.14622648333333288, "durationTicks": 31, "midi": 62, "name": "D4", "ticks": 3480, "time": 16.415102, "velocity": 0.5590551181102362}, {"duration": 0.1084906166666677, "durationTicks": 23, "midi": 54, "name": "F#3", "ticks": 3480, "time": 16.415102, "velocity": 0.6299212598425197}, {"duration": 0.1698114000000004, "durationTicks": 36, "midi": 62, "name": "D4", "ticks": 3598, "time": 16.971706033333334, "velocity": 0.6062992125984252}, {"duration": 0.1698114000000004, "durationTicks": 36, "midi": 55, "name": "G3", "ticks": 3599, "time": 16.97642301666667, "velocity": 0.5275590551181102}, {"duration": 0.13679251666666659, "durationTicks": 29, "midi": 59, "name": "B3", "ticks": 3599, "time": 16.97642301666667, "velocity": 0.49606299212598426}, {"duration": 0.1698114000000004, "durationTicks": 36, "midi": 62, "name": "D4", "ticks": 3720, "time": 17.547178000000002, "velocity": 0.5590551181102362}, {"duration": 0.12264156666666537, "durationTicks": 26, "midi": 59, "name": "B3", "ticks": 3720, "time": 17.547178000000002, "velocity": 0.5039370078740157}, {"duration": 0.15094346666666425, "durationTicks": 32, "midi": 55, "name": "G3", "ticks": 3720, "time": 17.547178000000002, "velocity": 0.5275590551181102}, {"duration": 0.15566044999999917, "durationTicks": 33, "midi": 62, "name": "D4", "ticks": 3840, "time": 18.113216, "velocity": 0.5354330708661418}, {"duration": 0.10849061666667126, "durationTicks": 23, "midi": 59, "name": "B3", "ticks": 3841, "time": 18.117932983333333, "velocity": 0.5275590551181102}, {"duration": 0.12735855000000385, "durationTicks": 27, "midi": 55, "name": "G3", "ticks": 3841, "time": 18.117932983333333, "velocity": 0.5748031496062992}, {"duration": 0.14150949999999796, "durationTicks": 30, "midi": 59, "name": "B3", "ticks": 3959, "time": 18.67453701666667, "velocity": 0.5669291338582677}, {"duration": 0.16509441666666547, "durationTicks": 35, "midi": 62, "name": "D4", "ticks": 3959, "time": 18.67453701666667, "velocity": 0.5669291338582677}, {"duration": 0.1603774333333341, "durationTicks": 34, "midi": 55, "name": "G3", "ticks": 3960, "time": 18.679254, "velocity": 0.5669291338582677}, {"duration": 0.12264156666666892, "durationTicks": 26, "midi": 55, "name": "G3", "ticks": 4077, "time": 19.23114105, "velocity": 0.5590551181102362}, {"duration": 0.14150949999999796, "durationTicks": 30, "midi": 60, "name": "C4", "ticks": 4078, "time": 19.235858033333336, "velocity": 0.5669291338582677}, {"duration": 0.1273585500000003, "durationTicks": 27, "midi": 52, "name": "E3", "ticks": 4079, "time": 19.240575016666668, "velocity": 0.5039370078740157}, {"duration": 0.14622648333333288, "durationTicks": 31, "midi": 60, "name": "C4", "ticks": 4198, "time": 19.801896033333335, "velocity": 0.5669291338582677}, {"duration": 0.11320760000000263, "durationTicks": 24, "midi": 55, "name": "G3", "ticks": 4199, "time": 19.806613016666667, "velocity": 0.5354330708661418}, {"duration": 0.13679251666667014, "durationTicks": 29, "midi": 52, "name": "E3", "ticks": 4199, "time": 19.806613016666667, "velocity": 0.5118110236220472}, {"duration": 0.15566044999999917, "durationTicks": 33, "midi": 60, "name": "C4", "ticks": 4320, "time": 20.377368, "velocity": 0.5196850393700787}, {"duration": 0.15566044999999917, "durationTicks": 33, "midi": 52, "name": "E3", "ticks": 4321, "time": 20.382084983333336, "velocity": 0.5275590551181102}, {"duration": 0.117924583333334, "durationTicks": 25, "midi": 55, "name": "G3", "ticks": 4321, "time": 20.382084983333336, "velocity": 0.5748031496062992}, {"duration": 0.14622648333333288, "durationTicks": 31, "midi": 52, "name": "E3", "ticks": 4440, "time": 20.943406000000003, "velocity": 0.5118110236220472}, {"duration": 0.13207553333333166, "durationTicks": 28, "midi": 55, "name": "G3", "ticks": 4440, "time": 20.943406000000003, "velocity": 0.5905511811023622}, {"duration": 0.14150949999999796, "durationTicks": 30, "midi": 60, "name": "C4", "ticks": 4440, "time": 20.943406000000003, "velocity": 0.5905511811023622}, {"duration": 0.08962268333333157, "durationTicks": 19, "midi": 59, "name": "B3", "ticks": 4560, "time": 21.509444000000002, "velocity": 0.5511811023622047}, {"duration": 0.1084906166666677, "durationTicks": 23, "midi": 55, "name": "G3", "ticks": 4560, "time": 21.509444000000002, "velocity": 0.5590551181102362}, {"duration": 0.117924583333334, "durationTicks": 25, "midi": 62, "name": "D4", "ticks": 4560, "time": 21.509444000000002, "velocity": 0.5511811023622047}, {"duration": 0.08962268333333157, "durationTicks": 19, "midi": 59, "name": "B3", "ticks": 4680, "time": 22.075482, "velocity": 0.5511811023622047}, {"duration": 0.117924583333334, "durationTicks": 25, "midi": 62, "name": "D4", "ticks": 4680, "time": 22.075482, "velocity": 0.5511811023622047}, {"duration": 0.1084906166666677, "durationTicks": 23, "midi": 55, "name": "G3", "ticks": 4680, "time": 22.075482, "velocity": 0.5590551181102362}, {"duration": 0.0849057000000002, "durationTicks": 18, "midi": 59, "name": "B3", "ticks": 4799, "time": 22.63680301666667, "velocity": 0.5354330708661418}, {"duration": 0.11320760000000263, "durationTicks": 24, "midi": 62, "name": "D4", "ticks": 4799, "time": 22.63680301666667, "velocity": 0.5590551181102362}, {"duration": 0.10849061666666415, "durationTicks": 23, "midi": 55, "name": "G3", "ticks": 4799, "time": 22.63680301666667, "velocity": 0.5669291338582677}, {"duration": 0.14622648333333288, "durationTicks": 31, "midi": 55, "name": "G3", "ticks": 4920, "time": 23.207558000000002, "velocity": 0.6456692913385826}, {"duration": 0.14622648333333288, "durationTicks": 31, "midi": 62, "name": "D4", "ticks": 4920, "time": 23.207558000000002, "velocity": 0.5748031496062992}, {"duration": 0.08962268333333157, "durationTicks": 19, "midi": 59, "name": "B3", "ticks": 4920, "time": 23.207558000000002, "velocity": 0.5669291338582677}, {"duration": 1.146226949999999, "durationTicks": 243, "midi": 60, "name": "C4", "ticks": 5042, "time": 23.783029966666668, "velocity": 0.48031496062992124}, {"duration": 1.1839628166666678, "durationTicks": 251, "midi": 52, "name": "E3", "ticks": 5043, "time": 23.787746950000002, "velocity": 0.48031496062992124}, {"duration": 1.1367929833333328, "durationTicks": 241, "midi": 55, "name": "G3", "ticks": 5043, "time": 23.787746950000002, "velocity": 0.48031496062992124}, {"duration": 0.9905664999999999, "durationTicks": 210, "midi": 57, "name": "A3", "ticks": 5285, "time": 24.929256916666667, "velocity": 0.4409448818897638}, {"duration": 1.0235853833333373, "durationTicks": 217, "midi": 54, "name": "F#3", "ticks": 5285, "time": 24.929256916666667, "velocity": 0.49606299212598426}, {"duration": 0.9811325333333336, "durationTicks": 208, "midi": 62, "name": "D4", "ticks": 5285, "time": 24.929256916666667, "velocity": 0.4251968503937008}, {"duration": 0.17924536666666313, "durationTicks": 38, "midi": 62, "name": "D4", "ticks": 14400, "time": 67.92456, "velocity": 0.5669291338582677}, {"duration": 0.1698114000000004, "durationTicks": 36, "midi": 55, "name": "G3", "ticks": 14400, "time": 67.92456, "velocity": 0.4566929133858268}, {"duration": 0.13207553333333522, "durationTicks": 28, "midi": 59, "name": "B3", "ticks": 14400, "time": 67.92456, "velocity": 0.5196850393700787}, {"duration": 0.132075533333321, "durationTicks": 28, "midi": 59, "name": "B3", "ticks": 14521, "time": 68.49531498333334, "velocity": 0.5275590551181102}, {"duration": 0.17452838333333887, "durationTicks": 37, "midi": 55, "name": "G3", "ticks": 14522, "time": 68.50003196666667, "velocity": 0.5118110236220472}, {"duration": 0.17452838333333887, "durationTicks": 37, "midi": 62, "name": "D4", "ticks": 14522, "time": 68.50003196666667, "velocity": 0.5511811023622047}, {"duration": 0.1698114000000146, "durationTicks": 36, "midi": 55, "name": "G3", "ticks": 14637, "time": 69.04248505, "velocity": 0.5275590551181102}, {"duration": 0.1367925166666737, "durationTicks": 29, "midi": 59, "name": "B3", "ticks": 14637, "time": 69.04248505, "velocity": 0.5511811023622047}, {"duration": 0.16509441666667612, "durationTicks": 35, "midi": 62, "name": "D4", "ticks": 14638, "time": 69.04720203333333, "velocity": 0.5354330708661418}, {"duration": 0.14150949999999796, "durationTicks": 30, "midi": 59, "name": "B3", "ticks": 14759, "time": 69.61795701666667, "velocity": 0.5039370078740157}, {"duration": 0.17924536666667734, "durationTicks": 38, "midi": 55, "name": "G3", "ticks": 14759, "time": 69.61795701666667, "velocity": 0.49606299212598426}, {"duration": 0.1698114000000146, "durationTicks": 36, "midi": 62, "name": "D4", "ticks": 14759, "time": 69.61795701666667, "velocity": 0.4881889763779528}, {"duration": 0.17452838333333887, "durationTicks": 37, "midi": 55, "name": "G3", "ticks": 14879, "time": 70.18399501666667, "velocity": 0.4645669291338583}, {"duration": 0.18867933333334008, "durationTicks": 40, "midi": 62, "name": "D4", "ticks": 14879, "time": 70.18399501666667, "velocity": 0.49606299212598426}, {"duration": 0.14150949999999796, "durationTicks": 30, "midi": 57, "name": "A3", "ticks": 14879, "time": 70.18399501666667, "velocity": 0.5669291338582677}, {"duration": 0.19811330000000282, "durationTicks": 42, "midi": 62, "name": "D4", "ticks": 15000, "time": 70.75475, "velocity": 0.5590551181102362}, {"duration": 0.16037743333333765, "durationTicks": 34, "midi": 55, "name": "G3", "ticks": 15000, "time": 70.75475, "velocity": 0.5354330708661418}, {"duration": 0.10849061666667126, "durationTicks": 23, "midi": 57, "name": "A3", "ticks": 15001, "time": 70.75946698333334, "velocity": 0.5905511811023622}, {"duration": 0.1509434666666607, "durationTicks": 32, "midi": 57, "name": "A3", "ticks": 15120, "time": 71.32078800000001, "velocity": 0.5905511811023622}, {"duration": 0.13679251666665948, "durationTicks": 29, "midi": 54, "name": "F#3", "ticks": 15121, "time": 71.32550498333335, "velocity": 0.6141732283464567}, {"duration": 0.16037743333332344, "durationTicks": 34, "midi": 62, "name": "D4", "ticks": 15121, "time": 71.32550498333335, "velocity": 0.5669291338582677}, {"duration": 0.12264156666665826, "durationTicks": 26, "midi": 57, "name": "A3", "ticks": 15239, "time": 71.88210901666667, "velocity": 0.48031496062992124}, {"duration": 0.12264156666667247, "durationTicks": 26, "midi": 54, "name": "F#3", "ticks": 15240, "time": 71.886826, "velocity": 0.5748031496062992}, {"duration": 0.14150949999999796, "durationTicks": 30, "midi": 62, "name": "D4", "ticks": 15241, "time": 71.89154298333334, "velocity": 0.5669291338582677}, {"duration": 0.16037743333332344, "durationTicks": 34, "midi": 55, "name": "G3", "ticks": 15357, "time": 72.43871305, "velocity": 0.5354330708661418}, {"duration": 0.12735854999999674, "durationTicks": 27, "midi": 59, "name": "B3", "ticks": 15358, "time": 72.44343003333334, "velocity": 0.47244094488188976}, {"duration": 0.15566044999998496, "durationTicks": 33, "midi": 62, "name": "D4", "ticks": 15358, "time": 72.44343003333334, "velocity": 0.48031496062992124}, {"duration": 0.15566044999999917, "durationTicks": 33, "midi": 62, "name": "D4", "ticks": 15480, "time": 73.01890200000001, "velocity": 0.5669291338582677}, {"duration": 0.117924583333334, "durationTicks": 25, "midi": 59, "name": "B3", "ticks": 15480, "time": 73.01890200000001, "velocity": 0.49606299212598426}, {"duration": 0.13679251666665948, "durationTicks": 29, "midi": 55, "name": "G3", "ticks": 15480, "time": 73.01890200000001, "velocity": 0.5118110236220472}, {"duration": 0.1509434666666607, "durationTicks": 32, "midi": 62, "name": "D4", "ticks": 15599, "time": 73.58022301666668, "velocity": 0.6299212598425197}, {"duration": 0.117924583333334, "durationTicks": 25, "midi": 59, "name": "B3", "ticks": 15600, "time": 73.58494, "velocity": 0.5511811023622047}, {"duration": 0.1367925166666737, "durationTicks": 29, "midi": 55, "name": "G3", "ticks": 15600, "time": 73.58494, "velocity": 0.5826771653543307}, {"duration": 0.1698114000000004, "durationTicks": 36, "midi": 62, "name": "D4", "ticks": 15719, "time": 74.14626101666667, "velocity": 0.47244094488188976}, {"duration": 0.1367925166666737, "durationTicks": 29, "midi": 59, "name": "B3", "ticks": 15720, "time": 74.15097800000001, "velocity": 0.4645669291338583}, {"duration": 0.13207553333334943, "durationTicks": 28, "midi": 55, "name": "G3", "ticks": 15721, "time": 74.15569498333333, "velocity": 0.4330708661417323}, {"duration": 0.14622648333333643, "durationTicks": 31, "midi": 55, "name": "G3", "ticks": 15838, "time": 74.70758203333334, "velocity": 0.4645669291338583}, {"duration": 0.117924583333334, "durationTicks": 25, "midi": 60, "name": "C4", "ticks": 15838, "time": 74.70758203333334, "velocity": 0.4881889763779528}, {"duration": 0.13679251666665948, "durationTicks": 29, "midi": 64, "name": "E4", "ticks": 15838, "time": 74.70758203333334, "velocity": 0.6141732283464567}, {"duration": 0.1509434666666749, "durationTicks": 32, "midi": 55, "name": "G3", "ticks": 15960, "time": 75.283054, "velocity": 0.4881889763779528}, {"duration": 0.11320759999999552, "durationTicks": 24, "midi": 60, "name": "C4", "ticks": 15960, "time": 75.283054, "velocity": 0.5354330708661418}, {"duration": 0.14622648333332222, "durationTicks": 31, "midi": 64, "name": "E4", "ticks": 15960, "time": 75.283054, "velocity": 0.5354330708661418}, {"duration": 0.14150949999999796, "durationTicks": 30, "midi": 55, "name": "G3", "ticks": 16079, "time": 75.84437501666667, "velocity": 0.5669291338582677}, {"duration": 0.11320759999999552, "durationTicks": 24, "midi": 60, "name": "C4", "ticks": 16079, "time": 75.84437501666667, "velocity": 0.5118110236220472}, {"duration": 0.132075533333321, "durationTicks": 28, "midi": 64, "name": "E4", "ticks": 16079, "time": 75.84437501666667, "velocity": 0.6377952755905512}, {"duration": 0.1367925166666737, "durationTicks": 29, "midi": 64, "name": "E4", "ticks": 16201, "time": 76.41984698333333, "velocity": 0.5590551181102362}, {"duration": 0.15566045000001338, "durationTicks": 33, "midi": 55, "name": "G3", "ticks": 16201, "time": 76.41984698333333, "velocity": 0.5748031496062992}, {"duration": 0.10849061666667126, "durationTicks": 23, "midi": 60, "name": "C4", "ticks": 16201, "time": 76.41984698333333, "velocity": 0.5826771653543307}, {"duration": 0.132075533333321, "durationTicks": 28, "midi": 59, "name": "B3", "ticks": 16320, "time": 76.98116800000001, "velocity": 0.5590551181102362}, {"duration": 0.16037743333333765, "durationTicks": 34, "midi": 62, "name": "D4", "ticks": 16321, "time": 76.98588498333334, "velocity": 0.5905511811023622}, {"duration": 0.1367925166666737, "durationTicks": 29, "midi": 55, "name": "G3", "ticks": 16321, "time": 76.98588498333334, "velocity": 0.5669291338582677}, {"duration": 0.16037743333332344, "durationTicks": 34, "midi": 62, "name": "D4", "ticks": 16441, "time": 77.55192298333334, "velocity": 0.5039370078740157}, {"duration": 0.12264156666665826, "durationTicks": 26, "midi": 59, "name": "B3", "ticks": 16442, "time": 77.55663996666668, "velocity": 0.5118110236220472}, {"duration": 0.14622648333332222, "durationTicks": 31, "midi": 55, "name": "G3", "ticks": 16442, "time": 77.55663996666668, "velocity": 0.5118110236220472}, {"duration": 0.12735854999999674, "durationTicks": 27, "midi": 59, "name": "B3", "ticks": 16561, "time": 78.11796098333333, "velocity": 0.5748031496062992}, {"duration": 0.14150949999999796, "durationTicks": 30, "midi": 55, "name": "G3", "ticks": 16562, "time": 78.12267796666669, "velocity": 0.5748031496062992}, {"duration": 0.1509434666666465, "durationTicks": 32, "midi": 62, "name": "D4", "ticks": 16562, "time": 78.12267796666669, "velocity": 0.5590551181102362}, {"duration": 0.12264156666665826, "durationTicks": 26, "midi": 59, "name": "B3", "ticks": 16681, "time": 78.68399898333334, "velocity": 0.5275590551181102}, {"duration": 0.15566044999999917, "durationTicks": 33, "midi": 55, "name": "G3", "ticks": 16681, "time": 78.68399898333334, "velocity": 0.5511811023622047}, {"duration": 0.14622648333333643, "durationTicks": 31, "midi": 62, "name": "D4", "ticks": 16681, "time": 78.68399898333334, "velocity": 0.5748031496062992}, {"duration": 0.16037743333333765, "durationTicks": 34, "midi": 55, "name": "G3", "ticks": 16801, "time": 79.25003698333333, "velocity": 0.48031496062992124}, {"duration": 0.17924536666666313, "durationTicks": 38, "midi": 62, "name": "D4", "ticks": 16801, "time": 79.25003698333333, "velocity": 0.49606299212598426}, {"duration": 0.12735854999999674, "durationTicks": 27, "midi": 57, "name": "A3", "ticks": 16802, "time": 79.25475396666668, "velocity": 0.6141732283464567}, {"duration": 0.16509441666666191, "durationTicks": 35, "midi": 62, "name": "D4", "ticks": 16922, "time": 79.82079196666668, "velocity": 0.49606299212598426}, {"duration": 0.16037743333333765, "durationTicks": 34, "midi": 55, "name": "G3", "ticks": 16922, "time": 79.82079196666668, "velocity": 0.5118110236220472}, {"duration": 0.0990566499999943, "durationTicks": 21, "midi": 57, "name": "A3", "ticks": 16922, "time": 79.82079196666668, "velocity": 0.5905511811023622}, {"duration": 0.14622648333332222, "durationTicks": 31, "midi": 57, "name": "A3", "ticks": 17039, "time": 80.37267901666668, "velocity": 0.5748031496062992}, {"duration": 0.1698114000000146, "durationTicks": 36, "midi": 62, "name": "D4", "ticks": 17040, "time": 80.377396, "velocity": 0.5669291338582677}, {"duration": 0.11792458333334821, "durationTicks": 25, "midi": 54, "name": "F#3", "ticks": 17041, "time": 80.38211298333333, "velocity": 0.6377952755905512}, {"duration": 0.117924583333334, "durationTicks": 25, "midi": 57, "name": "A3", "ticks": 17160, "time": 80.94343400000001, "velocity": 0.49606299212598426}, {"duration": 0.14622648333332222, "durationTicks": 31, "midi": 62, "name": "D4", "ticks": 17160, "time": 80.94343400000001, "velocity": 0.5590551181102362}, {"duration": 0.10849061666665705, "durationTicks": 23, "midi": 54, "name": "F#3", "ticks": 17160, "time": 80.94343400000001, "velocity": 0.6299212598425197}, {"duration": 0.1698114000000146, "durationTicks": 36, "midi": 62, "name": "D4", "ticks": 17278, "time": 81.50003803333333, "velocity": 0.6062992125984252}, {"duration": 0.16981139999998618, "durationTicks": 36, "midi": 55, "name": "G3", "ticks": 17279, "time": 81.50475501666668, "velocity": 0.5275590551181102}, {"duration": 0.13679251666665948, "durationTicks": 29, "midi": 59, "name": "B3", "ticks": 17279, "time": 81.50475501666668, "velocity": 0.49606299212598426}, {"duration": 0.1698114000000004, "durationTicks": 36, "midi": 62, "name": "D4", "ticks": 17400, "time": 82.07551000000001, "velocity": 0.5590551181102362}, {"duration": 0.12264156666665826, "durationTicks": 26, "midi": 59, "name": "B3", "ticks": 17400, "time": 82.07551000000001, "velocity": 0.5039370078740157}, {"duration": 0.1509434666666749, "durationTicks": 32, "midi": 55, "name": "G3", "ticks": 17400, "time": 82.07551000000001, "velocity": 0.5275590551181102}, {"duration": 0.15566045000001338, "durationTicks": 33, "midi": 62, "name": "D4", "ticks": 17520, "time": 82.641548, "velocity": 0.5354330708661418}, {"duration": 0.10849061666665705, "durationTicks": 23, "midi": 59, "name": "B3", "ticks": 17521, "time": 82.64626498333334, "velocity": 0.5275590551181102}, {"duration": 0.12735854999999674, "durationTicks": 27, "midi": 55, "name": "G3", "ticks": 17521, "time": 82.64626498333334, "velocity": 0.5748031496062992}, {"duration": 0.14150949999999796, "durationTicks": 30, "midi": 59, "name": "B3", "ticks": 17639, "time": 83.20286901666668, "velocity": 0.5669291338582677}, {"duration": 0.16509441666666191, "durationTicks": 35, "midi": 62, "name": "D4", "ticks": 17639, "time": 83.20286901666668, "velocity": 0.5669291338582677}, {"duration": 0.16037743333333765, "durationTicks": 34, "midi": 55, "name": "G3", "ticks": 17640, "time": 83.207586, "velocity": 0.5669291338582677}, {"duration": 0.12264156666667247, "durationTicks": 26, "midi": 55, "name": "G3", "ticks": 17757, "time": 83.75947305, "velocity": 0.5590551181102362}, {"duration": 0.14150949999999796, "durationTicks": 30, "midi": 60, "name": "C4", "ticks": 17758, "time": 83.76419003333334, "velocity": 0.5669291338582677}, {"duration": 0.12735854999999674, "durationTicks": 27, "midi": 52, "name": "E3", "ticks": 17759, "time": 83.76890701666667, "velocity": 0.5039370078740157}, {"duration": 0.14622648333335064, "durationTicks": 31, "midi": 60, "name": "C4", "ticks": 17878, "time": 84.33022803333333, "velocity": 0.5669291338582677}, {"duration": 0.11320759999999552, "durationTicks": 24, "midi": 55, "name": "G3", "ticks": 17879, "time": 84.33494501666668, "velocity": 0.5354330708661418}, {"duration": 0.13679251666664527, "durationTicks": 29, "midi": 52, "name": "E3", "ticks": 17879, "time": 84.33494501666668, "velocity": 0.5118110236220472}, {"duration": 0.15566044999999917, "durationTicks": 33, "midi": 60, "name": "C4", "ticks": 18000, "time": 84.90570000000001, "velocity": 0.5196850393700787}, {"duration": 0.15566044999999917, "durationTicks": 33, "midi": 52, "name": "E3", "ticks": 18001, "time": 84.91041698333333, "velocity": 0.5275590551181102}, {"duration": 0.117924583333334, "durationTicks": 25, "midi": 55, "name": "G3", "ticks": 18001, "time": 84.91041698333333, "velocity": 0.5748031496062992}, {"duration": 0.14622648333333643, "durationTicks": 31, "midi": 52, "name": "E3", "ticks": 18120, "time": 85.471738, "velocity": 0.5118110236220472}, {"duration": 0.13207553333333522, "durationTicks": 28, "midi": 55, "name": "G3", "ticks": 18120, "time": 85.471738, "velocity": 0.5905511811023622}, {"duration": 0.14150949999999796, "durationTicks": 30, "midi": 60, "name": "C4", "ticks": 18120, "time": 85.471738, "velocity": 0.5905511811023622}, {"duration": 0.08962268333333157, "durationTicks": 19, "midi": 59, "name": "B3", "ticks": 18240, "time": 86.03777600000001, "velocity": 0.5511811023622047}, {"duration": 0.10849061666665705, "durationTicks": 23, "midi": 55, "name": "G3", "ticks": 18240, "time": 86.03777600000001, "velocity": 0.5590551181102362}, {"duration": 0.117924583333334, "durationTicks": 25, "midi": 62, "name": "D4", "ticks": 18240, "time": 86.03777600000001, "velocity": 0.5511811023622047}, {"duration": 0.08962268333334578, "durationTicks": 19, "midi": 59, "name": "B3", "ticks": 18360, "time": 86.603814, "velocity": 0.5511811023622047}, {"duration": 0.11792458333334821, "durationTicks": 25, "midi": 62, "name": "D4", "ticks": 18360, "time": 86.603814, "velocity": 0.5511811023622047}, {"duration": 0.10849061666667126, "durationTicks": 23, "midi": 55, "name": "G3", "ticks": 18360, "time": 86.603814, "velocity": 0.5590551181102362}, {"duration": 0.08490569999999309, "durationTicks": 18, "midi": 59, "name": "B3", "ticks": 18479, "time": 87.16513501666668, "velocity": 0.5354330708661418}, {"duration": 0.11320759999999552, "durationTicks": 24, "midi": 62, "name": "D4", "ticks": 18479, "time": 87.16513501666668, "velocity": 0.5590551181102362}, {"duration": 0.10849061666665705, "durationTicks": 23, "midi": 55, "name": "G3", "ticks": 18479, "time": 87.16513501666668, "velocity": 0.5669291338582677}, {"duration": 0.14622648333332222, "durationTicks": 31, "midi": 55, "name": "G3", "ticks": 18600, "time": 87.73589000000001, "velocity": 0.6456692913385826}, {"duration": 0.14622648333332222, "durationTicks": 31, "midi": 62, "name": "D4", "ticks": 18600, "time": 87.73589000000001, "velocity": 0.5748031496062992}, {"duration": 0.08962268333333157, "durationTicks": 19, "midi": 59, "name": "B3", "ticks": 18600, "time": 87.73589000000001, "velocity": 0.5669291338582677}, {"duration": 0.12264156666665826, "durationTicks": 26, "midi": 60, "name": "C4", "ticks": 18721, "time": 88.30664498333334, "velocity": 0.5748031496062992}, {"duration": 0.08962268333333157, "durationTicks": 19, "midi": 55, "name": "G3", "ticks": 18721, "time": 88.30664498333334, "velocity": 0.6377952755905512}, {"duration": 0.10377363333334699, "durationTicks": 22, "midi": 52, "name": "E3", "ticks": 18723, "time": 88.31607895, "velocity": 0.5511811023622047}, {"duration": 0.1367925166666737, "durationTicks": 29, "midi": 60, "name": "C4", "ticks": 18838, "time": 88.85853203333333, "velocity": 0.5669291338582677}, {"duration": 0.08018871666666882, "durationTicks": 17, "midi": 55, "name": "G3", "ticks": 18841, "time": 88.87268298333333, "velocity": 0.5590551181102362}, {"duration": 0.10849061666665705, "durationTicks": 23, "midi": 52, "name": "E3", "ticks": 18843, "time": 88.88211695000001, "velocity": 0.44881889763779526}, {"duration": 0.0990566499999943, "durationTicks": 21, "midi": 57, "name": "A3", "ticks": 18962, "time": 89.44343796666668, "velocity": 0.5590551181102362}, {"duration": 0.10849061666665705, "durationTicks": 23, "midi": 62, "name": "D4", "ticks": 18964, "time": 89.45287193333334, "velocity": 0.5590551181102362}, {"duration": 0.08962268333333157, "durationTicks": 19, "midi": 54, "name": "F#3", "ticks": 18964, "time": 89.45287193333334, "velocity": 0.5905511811023622}, {"duration": 0.14150949999999796, "durationTicks": 30, "midi": 60, "name": "C4", "ticks": 19081, "time": 90.00475898333333, "velocity": 0.5669291338582677}, {"duration": 0.11320759999999552, "durationTicks": 24, "midi": 54, "name": "F#3", "ticks": 19082, "time": 90.00947596666668, "velocity": 0.6062992125984252}, {"duration": 0.10377363333331857, "durationTicks": 22, "midi": 57, "name": "A3", "ticks": 19082, "time": 90.00947596666668, "velocity": 0.49606299212598426}, {"duration": 0.17924536666667734, "durationTicks": 38, "midi": 62, "name": "D4", "ticks": 19200, "time": 90.56608, "velocity": 0.5669291338582677}, {"duration": 0.1698114000000146, "durationTicks": 36, "midi": 55, "name": "G3", "ticks": 19200, "time": 90.56608, "velocity": 0.4566929133858268}, {"duration": 0.13207553333333522, "durationTicks": 28, "midi": 59, "name": "B3", "ticks": 19200, "time": 90.56608, "velocity": 0.5196850393700787}, {"duration": 0.13207553333334943, "durationTicks": 28, "midi": 59, "name": "B3", "ticks": 19321, "time": 91.13683498333333, "velocity": 0.5275590551181102}, {"duration": 0.17452838333332465, "durationTicks": 37, "midi": 55, "name": "G3", "ticks": 19322, "time": 91.14155196666668, "velocity": 0.5118110236220472}, {"duration": 0.17452838333332465, "durationTicks": 37, "midi": 62, "name": "D4", "ticks": 19322, "time": 91.14155196666668, "velocity": 0.5511811023622047}, {"duration": 0.1698114000000004, "durationTicks": 36, "midi": 55, "name": "G3", "ticks": 19437, "time": 91.68400505000001, "velocity": 0.5275590551181102}, {"duration": 0.13679251666665948, "durationTicks": 29, "midi": 59, "name": "B3", "ticks": 19437, "time": 91.68400505000001, "velocity": 0.5511811023622047}, {"duration": 0.16509441666667612, "durationTicks": 35, "midi": 62, "name": "D4", "ticks": 19438, "time": 91.68872203333333, "velocity": 0.5354330708661418}, {"duration": 0.14150949999999796, "durationTicks": 30, "midi": 59, "name": "B3", "ticks": 19559, "time": 92.25947701666668, "velocity": 0.5039370078740157}, {"duration": 0.17924536666666313, "durationTicks": 38, "midi": 55, "name": "G3", "ticks": 19559, "time": 92.25947701666668, "velocity": 0.49606299212598426}, {"duration": 0.16981139999998618, "durationTicks": 36, "midi": 62, "name": "D4", "ticks": 19559, "time": 92.25947701666668, "velocity": 0.4881889763779528}, {"duration": 0.17452838333333887, "durationTicks": 37, "midi": 55, "name": "G3", "ticks": 19679, "time": 92.82551501666667, "velocity": 0.4645669291338583}, {"duration": 0.18867933333332587, "durationTicks": 40, "midi": 62, "name": "D4", "ticks": 19679, "time": 92.82551501666667, "velocity": 0.49606299212598426}, {"duration": 0.14150950000001217, "durationTicks": 30, "midi": 57, "name": "A3", "ticks": 19679, "time": 92.82551501666667, "velocity": 0.5669291338582677}, {"duration": 0.19811330000000282, "durationTicks": 42, "midi": 62, "name": "D4", "ticks": 19800, "time": 93.39627, "velocity": 0.5590551181102362}, {"duration": 0.16037743333333765, "durationTicks": 34, "midi": 55, "name": "G3", "ticks": 19800, "time": 93.39627, "velocity": 0.5354330708661418}, {"duration": 0.10849061666665705, "durationTicks": 23, "midi": 57, "name": "A3", "ticks": 19801, "time": 93.40098698333334, "velocity": 0.5905511811023622}, {"duration": 0.1509434666666749, "durationTicks": 32, "midi": 57, "name": "A3", "ticks": 19920, "time": 93.96230800000001, "velocity": 0.5905511811023622}, {"duration": 0.1367925166666737, "durationTicks": 29, "midi": 54, "name": "F#3", "ticks": 19921, "time": 93.96702498333333, "velocity": 0.6141732283464567}, {"duration": 0.16037743333333765, "durationTicks": 34, "midi": 62, "name": "D4", "ticks": 19921, "time": 93.96702498333333, "velocity": 0.5669291338582677}, {"duration": 0.12264156666667247, "durationTicks": 26, "midi": 57, "name": "A3", "ticks": 20039, "time": 94.52362901666667, "velocity": 0.48031496062992124}, {"duration": 0.12264156666665826, "durationTicks": 26, "midi": 54, "name": "F#3", "ticks": 20040, "time": 94.52834600000001, "velocity": 0.5748031496062992}, {"duration": 0.14150949999999796, "durationTicks": 30, "midi": 62, "name": "D4", "ticks": 20041, "time": 94.53306298333334, "velocity": 0.5669291338582677}, {"duration": 0.16037743333333765, "durationTicks": 34, "midi": 55, "name": "G3", "ticks": 20157, "time": 95.08023305, "velocity": 0.5354330708661418}, {"duration": 0.12735855000001095, "durationTicks": 27, "midi": 59, "name": "B3", "ticks": 20158, "time": 95.08495003333333, "velocity": 0.47244094488188976}, {"duration": 0.15566045000001338, "durationTicks": 33, "midi": 62, "name": "D4", "ticks": 20158, "time": 95.08495003333333, "velocity": 0.48031496062992124}, {"duration": 0.15566044999999917, "durationTicks": 33, "midi": 62, "name": "D4", "ticks": 20280, "time": 95.66042200000001, "velocity": 0.5669291338582677}, {"duration": 0.117924583333334, "durationTicks": 25, "midi": 59, "name": "B3", "ticks": 20280, "time": 95.66042200000001, "velocity": 0.49606299212598426}, {"duration": 0.1367925166666737, "durationTicks": 29, "midi": 55, "name": "G3", "ticks": 20280, "time": 95.66042200000001, "velocity": 0.5118110236220472}, {"duration": 0.1509434666666607, "durationTicks": 32, "midi": 62, "name": "D4", "ticks": 20399, "time": 96.22174301666668, "velocity": 0.6299212598425197}, {"duration": 0.11792458333334821, "durationTicks": 25, "midi": 59, "name": "B3", "ticks": 20400, "time": 96.22646, "velocity": 0.5511811023622047}, {"duration": 0.1367925166666737, "durationTicks": 29, "midi": 55, "name": "G3", "ticks": 20400, "time": 96.22646, "velocity": 0.5826771653543307}, {"duration": 0.16981139999998618, "durationTicks": 36, "midi": 62, "name": "D4", "ticks": 20519, "time": 96.78778101666668, "velocity": 0.47244094488188976}, {"duration": 0.1367925166666737, "durationTicks": 29, "midi": 59, "name": "B3", "ticks": 20520, "time": 96.79249800000001, "velocity": 0.4645669291338583}, {"duration": 0.13207553333334943, "durationTicks": 28, "midi": 55, "name": "G3", "ticks": 20521, "time": 96.79721498333333, "velocity": 0.4330708661417323}, {"duration": 0.14622648333333643, "durationTicks": 31, "midi": 55, "name": "G3", "ticks": 20638, "time": 97.34910203333334, "velocity": 0.4645669291338583}, {"duration": 0.117924583333334, "durationTicks": 25, "midi": 60, "name": "C4", "ticks": 20638, "time": 97.34910203333334, "velocity": 0.4881889763779528}, {"duration": 0.13679251666665948, "durationTicks": 29, "midi": 64, "name": "E4", "ticks": 20638, "time": 97.34910203333334, "velocity": 0.6141732283464567}, {"duration": 0.1509434666666749, "durationTicks": 32, "midi": 55, "name": "G3", "ticks": 20760, "time": 97.924574, "velocity": 0.4881889763779528}, {"duration": 0.11320759999999552, "durationTicks": 24, "midi": 60, "name": "C4", "ticks": 20760, "time": 97.924574, "velocity": 0.5354330708661418}, {"duration": 0.14622648333332222, "durationTicks": 31, "midi": 64, "name": "E4", "ticks": 20760, "time": 97.924574, "velocity": 0.5354330708661418}, {"duration": 0.14150949999999796, "durationTicks": 30, "midi": 55, "name": "G3", "ticks": 20879, "time": 98.48589501666667, "velocity": 0.5669291338582677}, {"duration": 0.11320759999999552, "durationTicks": 24, "midi": 60, "name": "C4", "ticks": 20879, "time": 98.48589501666667, "velocity": 0.5118110236220472}, {"duration": 0.13207553333333522, "durationTicks": 28, "midi": 64, "name": "E4", "ticks": 20879, "time": 98.48589501666667, "velocity": 0.6377952755905512}, {"duration": 0.13679251666665948, "durationTicks": 29, "midi": 64, "name": "E4", "ticks": 21001, "time": 99.06136698333334, "velocity": 0.5590551181102362}, {"duration": 0.15566044999999917, "durationTicks": 33, "midi": 55, "name": "G3", "ticks": 21001, "time": 99.06136698333334, "velocity": 0.5748031496062992}, {"duration": 0.10849061666665705, "durationTicks": 23, "midi": 60, "name": "C4", "ticks": 21001, "time": 99.06136698333334, "velocity": 0.5826771653543307}, {"duration": 0.132075533333321, "durationTicks": 28, "midi": 59, "name": "B3", "ticks": 21120, "time": 99.62268800000001, "velocity": 0.5590551181102362}, {"duration": 0.16037743333333765, "durationTicks": 34, "midi": 62, "name": "D4", "ticks": 21121, "time": 99.62740498333334, "velocity": 0.5905511811023622}, {"duration": 0.1367925166666737, "durationTicks": 29, "midi": 55, "name": "G3", "ticks": 21121, "time": 99.62740498333334, "velocity": 0.5669291338582677}, {"duration": 0.16037743333332344, "durationTicks": 34, "midi": 62, "name": "D4", "ticks": 21241, "time": 100.19344298333334, "velocity": 0.5039370078740157}, {"duration": 0.12264156666665826, "durationTicks": 26, "midi": 59, "name": "B3", "ticks": 21242, "time": 100.19815996666668, "velocity": 0.5118110236220472}, {"duration": 0.14622648333333643, "durationTicks": 31, "midi": 55, "name": "G3", "ticks": 21242, "time": 100.19815996666668, "velocity": 0.5118110236220472}, {"duration": 0.12735854999999674, "durationTicks": 27, "midi": 59, "name": "B3", "ticks": 21361, "time": 100.75948098333333, "velocity": 0.5748031496062992}, {"duration": 0.14150949999999796, "durationTicks": 30, "midi": 55, "name": "G3", "ticks": 21362, "time": 100.76419796666669, "velocity": 0.5748031496062992}, {"duration": 0.1509434666666607, "durationTicks": 32, "midi": 62, "name": "D4", "ticks": 21362, "time": 100.76419796666669, "velocity": 0.5590551181102362}, {"duration": 0.12264156666665826, "durationTicks": 26, "midi": 59, "name": "B3", "ticks": 21481, "time": 101.32551898333334, "velocity": 0.5275590551181102}, {"duration": 0.15566044999999917, "durationTicks": 33, "midi": 55, "name": "G3", "ticks": 21481, "time": 101.32551898333334, "velocity": 0.5511811023622047}, {"duration": 0.14622648333333643, "durationTicks": 31, "midi": 62, "name": "D4", "ticks": 21481, "time": 101.32551898333334, "velocity": 0.5748031496062992}, {"duration": 0.16037743333333765, "durationTicks": 34, "midi": 55, "name": "G3", "ticks": 21601, "time": 101.89155698333333, "velocity": 0.48031496062992124}, {"duration": 0.17924536666666313, "durationTicks": 38, "midi": 62, "name": "D4", "ticks": 21601, "time": 101.89155698333333, "velocity": 0.49606299212598426}, {"duration": 0.12735854999999674, "durationTicks": 27, "midi": 57, "name": "A3", "ticks": 21602, "time": 101.89627396666668, "velocity": 0.6141732283464567}, {"duration": 0.16509441666666191, "durationTicks": 35, "midi": 62, "name": "D4", "ticks": 21722, "time": 102.46231196666668, "velocity": 0.49606299212598426}, {"duration": 0.16037743333333765, "durationTicks": 34, "midi": 55, "name": "G3", "ticks": 21722, "time": 102.46231196666668, "velocity": 0.5118110236220472}, {"duration": 0.0990566499999943, "durationTicks": 21, "midi": 57, "name": "A3", "ticks": 21722, "time": 102.46231196666668, "velocity": 0.5905511811023622}, {"duration": 0.14622648333332222, "durationTicks": 31, "midi": 57, "name": "A3", "ticks": 21839, "time": 103.01419901666668, "velocity": 0.5748031496062992}, {"duration": 0.1698114000000146, "durationTicks": 36, "midi": 62, "name": "D4", "ticks": 21840, "time": 103.018916, "velocity": 0.5669291338582677}, {"duration": 0.117924583333334, "durationTicks": 25, "midi": 54, "name": "F#3", "ticks": 21841, "time": 103.02363298333334, "velocity": 0.6377952755905512}, {"duration": 0.117924583333334, "durationTicks": 25, "midi": 57, "name": "A3", "ticks": 21960, "time": 103.58495400000001, "velocity": 0.49606299212598426}, {"duration": 0.14622648333332222, "durationTicks": 31, "midi": 62, "name": "D4", "ticks": 21960, "time": 103.58495400000001, "velocity": 0.5590551181102362}, {"duration": 0.10849061666665705, "durationTicks": 23, "midi": 54, "name": "F#3", "ticks": 21960, "time": 103.58495400000001, "velocity": 0.6299212598425197}, {"duration": 0.1698114000000004, "durationTicks": 36, "midi": 62, "name": "D4", "ticks": 22078, "time": 104.14155803333334, "velocity": 0.6062992125984252}, {"duration": 0.16981139999998618, "durationTicks": 36, "midi": 55, "name": "G3", "ticks": 22079, "time": 104.14627501666668, "velocity": 0.5275590551181102}, {"duration": 0.13679251666665948, "durationTicks": 29, "midi": 59, "name": "B3", "ticks": 22079, "time": 104.14627501666668, "velocity": 0.49606299212598426}, {"duration": 0.1698114000000004, "durationTicks": 36, "midi": 62, "name": "D4", "ticks": 22200, "time": 104.71703000000001, "velocity": 0.5590551181102362}, {"duration": 0.12264156666667247, "durationTicks": 26, "midi": 59, "name": "B3", "ticks": 22200, "time": 104.71703000000001, "velocity": 0.5039370078740157}, {"duration": 0.1509434666666749, "durationTicks": 32, "midi": 55, "name": "G3", "ticks": 22200, "time": 104.71703000000001, "velocity": 0.5275590551181102}, {"duration": 0.15566044999999917, "durationTicks": 33, "midi": 62, "name": "D4", "ticks": 22320, "time": 105.28306800000001, "velocity": 0.5354330708661418}, {"duration": 0.10849061666665705, "durationTicks": 23, "midi": 59, "name": "B3", "ticks": 22321, "time": 105.28778498333334, "velocity": 0.5275590551181102}, {"duration": 0.12735854999999674, "durationTicks": 27, "midi": 55, "name": "G3", "ticks": 22321, "time": 105.28778498333334, "velocity": 0.5748031496062992}, {"duration": 0.14150949999999796, "durationTicks": 30, "midi": 59, "name": "B3", "ticks": 22439, "time": 105.84438901666668, "velocity": 0.5669291338582677}, {"duration": 0.16509441666666191, "durationTicks": 35, "midi": 62, "name": "D4", "ticks": 22439, "time": 105.84438901666668, "velocity": 0.5669291338582677}, {"duration": 0.16037743333333765, "durationTicks": 34, "midi": 55, "name": "G3", "ticks": 22440, "time": 105.849106, "velocity": 0.5669291338582677}, {"duration": 0.12264156666665826, "durationTicks": 26, "midi": 55, "name": "G3", "ticks": 22557, "time": 106.40099305000001, "velocity": 0.5590551181102362}, {"duration": 0.14150949999999796, "durationTicks": 30, "midi": 60, "name": "C4", "ticks": 22558, "time": 106.40571003333334, "velocity": 0.5669291338582677}, {"duration": 0.12735854999999674, "durationTicks": 27, "midi": 52, "name": "E3", "ticks": 22559, "time": 106.41042701666667, "velocity": 0.5039370078740157}, {"duration": 0.14622648333335064, "durationTicks": 31, "midi": 60, "name": "C4", "ticks": 22678, "time": 106.97174803333333, "velocity": 0.5669291338582677}, {"duration": 0.11320759999999552, "durationTicks": 24, "midi": 55, "name": "G3", "ticks": 22679, "time": 106.97646501666668, "velocity": 0.5354330708661418}, {"duration": 0.13679251666665948, "durationTicks": 29, "midi": 52, "name": "E3", "ticks": 22679, "time": 106.97646501666668, "velocity": 0.5118110236220472}, {"duration": 0.15566044999999917, "durationTicks": 33, "midi": 60, "name": "C4", "ticks": 22800, "time": 107.54722000000001, "velocity": 0.5196850393700787}, {"duration": 0.15566044999999917, "durationTicks": 33, "midi": 52, "name": "E3", "ticks": 22801, "time": 107.55193698333333, "velocity": 0.5275590551181102}, {"duration": 0.11792458333334821, "durationTicks": 25, "midi": 55, "name": "G3", "ticks": 22801, "time": 107.55193698333333, "velocity": 0.5748031496062992}, {"duration": 0.14622648333333643, "durationTicks": 31, "midi": 52, "name": "E3", "ticks": 22920, "time": 108.113258, "velocity": 0.5118110236220472}, {"duration": 0.13207553333333522, "durationTicks": 28, "midi": 55, "name": "G3", "ticks": 22920, "time": 108.113258, "velocity": 0.5905511811023622}, {"duration": 0.14150950000001217, "durationTicks": 30, "midi": 60, "name": "C4", "ticks": 22920, "time": 108.113258, "velocity": 0.5905511811023622}, {"duration": 0.08962268333333157, "durationTicks": 19, "midi": 59, "name": "B3", "ticks": 23040, "time": 108.67929600000001, "velocity": 0.5511811023622047}, {"duration": 0.10849061666667126, "durationTicks": 23, "midi": 55, "name": "G3", "ticks": 23040, "time": 108.67929600000001, "velocity": 0.5590551181102362}, {"duration": 0.117924583333334, "durationTicks": 25, "midi": 62, "name": "D4", "ticks": 23040, "time": 108.67929600000001, "velocity": 0.5511811023622047}, {"duration": 0.08962268333333157, "durationTicks": 19, "midi": 59, "name": "B3", "ticks": 23160, "time": 109.24533400000001, "velocity": 0.5511811023622047}, {"duration": 0.117924583333334, "durationTicks": 25, "midi": 62, "name": "D4", "ticks": 23160, "time": 109.24533400000001, "velocity": 0.5511811023622047}, {"duration": 0.10849061666665705, "durationTicks": 23, "midi": 55, "name": "G3", "ticks": 23160, "time": 109.24533400000001, "velocity": 0.5590551181102362}, {"duration": 0.0849057000000073, "durationTicks": 18, "midi": 59, "name": "B3", "ticks": 23279, "time": 109.80665501666668, "velocity": 0.5354330708661418}, {"duration": 0.11320759999999552, "durationTicks": 24, "midi": 62, "name": "D4", "ticks": 23279, "time": 109.80665501666668, "velocity": 0.5590551181102362}, {"duration": 0.10849061666665705, "durationTicks": 23, "midi": 55, "name": "G3", "ticks": 23279, "time": 109.80665501666668, "velocity": 0.5669291338582677}, {"duration": 0.14622648333332222, "durationTicks": 31, "midi": 55, "name": "G3", "ticks": 23400, "time": 110.37741000000001, "velocity": 0.6456692913385826}, {"duration": 0.14622648333332222, "durationTicks": 31, "midi": 62, "name": "D4", "ticks": 23400, "time": 110.37741000000001, "velocity": 0.5748031496062992}, {"duration": 0.08962268333333157, "durationTicks": 19, "midi": 59, "name": "B3", "ticks": 23400, "time": 110.37741000000001, "velocity": 0.5669291338582677}, {"duration": 0.08962268333333157, "durationTicks": 19, "midi": 55, "name": "G3", "ticks": 23524, "time": 110.96231593333334, "velocity": 0.6141732283464567}, {"duration": 0.117924583333334, "durationTicks": 25, "midi": 60, "name": "C4", "ticks": 23524, "time": 110.96231593333334, "velocity": 0.6535433070866141}, {"duration": 0.12735854999999674, "durationTicks": 27, "midi": 52, "name": "E3", "ticks": 23524, "time": 110.96231593333334, "velocity": 0.6456692913385826}, {"duration": 0.14622648333332222, "durationTicks": 31, "midi": 60, "name": "C4", "ticks": 23642, "time": 111.51891996666669, "velocity": 0.5984251968503937}, {"duration": 0.0990566499999801, "durationTicks": 21, "midi": 55, "name": "G3", "ticks": 23642, "time": 111.51891996666669, "velocity": 0.6141732283464567}, {"duration": 0.11792458333331979, "durationTicks": 25, "midi": 52, "name": "E3", "ticks": 23643, "time": 111.52363695000001, "velocity": 0.5039370078740157}, {"duration": 0.09905665000000852, "durationTicks": 21, "midi": 57, "name": "A3", "ticks": 23761, "time": 112.08024098333334, "velocity": 0.47244094488188976}, {"duration": 0.09905665000000852, "durationTicks": 21, "midi": 54, "name": "F#3", "ticks": 23761, "time": 112.08024098333334, "velocity": 0.5905511811023622}, {"duration": 0.13207553333333522, "durationTicks": 28, "midi": 62, "name": "D4", "ticks": 23761, "time": 112.08024098333334, "velocity": 0.5748031496062992}, {"duration": 0.117924583333334, "durationTicks": 25, "midi": 57, "name": "A3", "ticks": 23880, "time": 112.64156200000001, "velocity": 0.5748031496062992}, {"duration": 0.11320759999999552, "durationTicks": 24, "midi": 54, "name": "F#3", "ticks": 23880, "time": 112.64156200000001, "velocity": 0.6299212598425197}, {"duration": 0.14150949999999796, "durationTicks": 30, "midi": 62, "name": "D4", "ticks": 23880, "time": 112.64156200000001, "velocity": 0.5748031496062992}, {"duration": 0.17924536666666313, "durationTicks": 38, "midi": 62, "name": "D4", "ticks": 29520, "time": 140.618302, "velocity": 0.5669291338582677}, {"duration": 0.16981139999998618, "durationTicks": 36, "midi": 55, "name": "G3", "ticks": 29520, "time": 140.618302, "velocity": 0.4566929133858268}, {"duration": 0.13207553333333522, "durationTicks": 28, "midi": 59, "name": "B3", "ticks": 29520, "time": 140.618302, "velocity": 0.5196850393700787}, {"duration": 0.13207553333333522, "durationTicks": 28, "midi": 59, "name": "B3", "ticks": 29641, "time": 141.18905698333333, "velocity": 0.5275590551181102}, {"duration": 0.17452838333332465, "durationTicks": 37, "midi": 55, "name": "G3", "ticks": 29642, "time": 141.19377396666667, "velocity": 0.5118110236220472}, {"duration": 0.17452838333332465, "durationTicks": 37, "midi": 62, "name": "D4", "ticks": 29642, "time": 141.19377396666667, "velocity": 0.5511811023622047}, {"duration": 0.1698114000000146, "durationTicks": 36, "midi": 55, "name": "G3", "ticks": 29757, "time": 141.73622705, "velocity": 0.5275590551181102}, {"duration": 0.1367925166666737, "durationTicks": 29, "midi": 59, "name": "B3", "ticks": 29757, "time": 141.73622705, "velocity": 0.5511811023622047}, {"duration": 0.16509441666667612, "durationTicks": 35, "midi": 62, "name": "D4", "ticks": 29758, "time": 141.74094403333334, "velocity": 0.5354330708661418}, {"duration": 0.14150950000001217, "durationTicks": 30, "midi": 59, "name": "B3", "ticks": 29879, "time": 142.31169901666667, "velocity": 0.5039370078740157}, {"duration": 0.17924536666666313, "durationTicks": 38, "midi": 55, "name": "G3", "ticks": 29879, "time": 142.31169901666667, "velocity": 0.49606299212598426}, {"duration": 0.1698114000000146, "durationTicks": 36, "midi": 62, "name": "D4", "ticks": 29879, "time": 142.31169901666667, "velocity": 0.4881889763779528}, {"duration": 0.17452838333335308, "durationTicks": 37, "midi": 55, "name": "G3", "ticks": 29999, "time": 142.87773701666666, "velocity": 0.4645669291338583}, {"duration": 0.18867933333334008, "durationTicks": 40, "midi": 62, "name": "D4", "ticks": 29999, "time": 142.87773701666666, "velocity": 0.49606299212598426}, {"duration": 0.14150950000001217, "durationTicks": 30, "midi": 57, "name": "A3", "ticks": 29999, "time": 142.87773701666666, "velocity": 0.5669291338582677}, {"duration": 0.19811330000001703, "durationTicks": 42, "midi": 62, "name": "D4", "ticks": 30120, "time": 143.448492, "velocity": 0.5590551181102362}, {"duration": 0.16037743333333765, "durationTicks": 34, "midi": 55, "name": "G3", "ticks": 30120, "time": 143.448492, "velocity": 0.5354330708661418}, {"duration": 0.10849061666667126, "durationTicks": 23, "midi": 57, "name": "A3", "ticks": 30121, "time": 143.45320898333333, "velocity": 0.5905511811023622}, {"duration": 0.1509434666666607, "durationTicks": 32, "midi": 57, "name": "A3", "ticks": 30240, "time": 144.01453, "velocity": 0.5905511811023622}, {"duration": 0.13679251666664527, "durationTicks": 29, "midi": 54, "name": "F#3", "ticks": 30241, "time": 144.01924698333335, "velocity": 0.6141732283464567}, {"duration": 0.16037743333330923, "durationTicks": 34, "midi": 62, "name": "D4", "ticks": 30241, "time": 144.01924698333335, "velocity": 0.5669291338582677}, {"duration": 0.12264156666668669, "durationTicks": 26, "midi": 57, "name": "A3", "ticks": 30359, "time": 144.57585101666666, "velocity": 0.48031496062992124}, {"duration": 0.12264156666665826, "durationTicks": 26, "midi": 54, "name": "F#3", "ticks": 30360, "time": 144.580568, "velocity": 0.5748031496062992}, {"duration": 0.14150949999998375, "durationTicks": 30, "midi": 62, "name": "D4", "ticks": 30361, "time": 144.58528498333334, "velocity": 0.5669291338582677}, {"duration": 0.16037743333333765, "durationTicks": 34, "midi": 55, "name": "G3", "ticks": 30477, "time": 145.13245505, "velocity": 0.5354330708661418}, {"duration": 0.12735854999999674, "durationTicks": 27, "midi": 59, "name": "B3", "ticks": 30478, "time": 145.13717203333334, "velocity": 0.47244094488188976}, {"duration": 0.15566044999999917, "durationTicks": 33, "midi": 62, "name": "D4", "ticks": 30478, "time": 145.13717203333334, "velocity": 0.48031496062992124}, {"duration": 0.15566044999999917, "durationTicks": 33, "midi": 62, "name": "D4", "ticks": 30600, "time": 145.712644, "velocity": 0.5669291338582677}, {"duration": 0.11792458333331979, "durationTicks": 25, "midi": 59, "name": "B3", "ticks": 30600, "time": 145.712644, "velocity": 0.49606299212598426}, {"duration": 0.13679251666664527, "durationTicks": 29, "midi": 55, "name": "G3", "ticks": 30600, "time": 145.712644, "velocity": 0.5118110236220472}, {"duration": 0.1509434666666607, "durationTicks": 32, "midi": 62, "name": "D4", "ticks": 30719, "time": 146.27396501666666, "velocity": 0.6299212598425197}, {"duration": 0.11792458333331979, "durationTicks": 25, "midi": 59, "name": "B3", "ticks": 30720, "time": 146.278682, "velocity": 0.5511811023622047}, {"duration": 0.1367925166666737, "durationTicks": 29, "midi": 55, "name": "G3", "ticks": 30720, "time": 146.278682, "velocity": 0.5826771653543307}, {"duration": 0.1698114000000146, "durationTicks": 36, "midi": 62, "name": "D4", "ticks": 30839, "time": 146.84000301666666, "velocity": 0.47244094488188976}, {"duration": 0.1367925166666737, "durationTicks": 29, "midi": 59, "name": "B3", "ticks": 30840, "time": 146.84472, "velocity": 0.4645669291338583}, {"duration": 0.13207553333333522, "durationTicks": 28, "midi": 55, "name": "G3", "ticks": 30841, "time": 146.84943698333333, "velocity": 0.4330708661417323}, {"duration": 0.14622648333332222, "durationTicks": 31, "midi": 55, "name": "G3", "ticks": 30958, "time": 147.40132403333334, "velocity": 0.4645669291338583}, {"duration": 0.11792458333331979, "durationTicks": 25, "midi": 60, "name": "C4", "ticks": 30958, "time": 147.40132403333334, "velocity": 0.4881889763779528}, {"duration": 0.1367925166666737, "durationTicks": 29, "midi": 64, "name": "E4", "ticks": 30958, "time": 147.40132403333334, "velocity": 0.6141732283464567}, {"duration": 0.1509434666666607, "durationTicks": 32, "midi": 55, "name": "G3", "ticks": 31080, "time": 147.976796, "velocity": 0.4881889763779528}, {"duration": 0.11320759999998131, "durationTicks": 24, "midi": 60, "name": "C4", "ticks": 31080, "time": 147.976796, "velocity": 0.5354330708661418}, {"duration": 0.14622648333332222, "durationTicks": 31, "midi": 64, "name": "E4", "ticks": 31080, "time": 147.976796, "velocity": 0.5354330708661418}, {"duration": 0.14150950000001217, "durationTicks": 30, "midi": 55, "name": "G3", "ticks": 31199, "time": 148.53811701666666, "velocity": 0.5669291338582677}, {"duration": 0.11320760000000973, "durationTicks": 24, "midi": 60, "name": "C4", "ticks": 31199, "time": 148.53811701666666, "velocity": 0.5118110236220472}, {"duration": 0.13207553333333522, "durationTicks": 28, "midi": 64, "name": "E4", "ticks": 31199, "time": 148.53811701666666, "velocity": 0.6377952755905512}, {"duration": 0.1367925166666737, "durationTicks": 29, "midi": 64, "name": "E4", "ticks": 31321, "time": 149.11358898333333, "velocity": 0.5590551181102362}, {"duration": 0.15566044999999917, "durationTicks": 33, "midi": 55, "name": "G3", "ticks": 31321, "time": 149.11358898333333, "velocity": 0.5748031496062992}, {"duration": 0.10849061666667126, "durationTicks": 23, "midi": 60, "name": "C4", "ticks": 31321, "time": 149.11358898333333, "velocity": 0.5826771653543307}, {"duration": 0.13207553333333522, "durationTicks": 28, "midi": 59, "name": "B3", "ticks": 31440, "time": 149.67491, "velocity": 0.5590551181102362}, {"duration": 0.16037743333333765, "durationTicks": 34, "midi": 62, "name": "D4", "ticks": 31441, "time": 149.67962698333332, "velocity": 0.5905511811023622}, {"duration": 0.1367925166666737, "durationTicks": 29, "midi": 55, "name": "G3", "ticks": 31441, "time": 149.67962698333332, "velocity": 0.5669291338582677}, {"duration": 0.16037743333333765, "durationTicks": 34, "midi": 62, "name": "D4", "ticks": 31561, "time": 150.24566498333334, "velocity": 0.5039370078740157}, {"duration": 0.12264156666665826, "durationTicks": 26, "midi": 59, "name": "B3", "ticks": 31562, "time": 150.25038196666668, "velocity": 0.5118110236220472}, {"duration": 0.14622648333332222, "durationTicks": 31, "midi": 55, "name": "G3", "ticks": 31562, "time": 150.25038196666668, "velocity": 0.5118110236220472}, {"duration": 0.12735854999999674, "durationTicks": 27, "midi": 59, "name": "B3", "ticks": 31681, "time": 150.81170298333333, "velocity": 0.5748031496062992}, {"duration": 0.14150949999998375, "durationTicks": 30, "midi": 55, "name": "G3", "ticks": 31682, "time": 150.81641996666667, "velocity": 0.5748031496062992}, {"duration": 0.1509434666666607, "durationTicks": 32, "midi": 62, "name": "D4", "ticks": 31682, "time": 150.81641996666667, "velocity": 0.5590551181102362}, {"duration": 0.12264156666668669, "durationTicks": 26, "midi": 59, "name": "B3", "ticks": 31801, "time": 151.37774098333333, "velocity": 0.5275590551181102}, {"duration": 0.15566044999999917, "durationTicks": 33, "midi": 55, "name": "G3", "ticks": 31801, "time": 151.37774098333333, "velocity": 0.5511811023622047}, {"duration": 0.14622648333335064, "durationTicks": 31, "midi": 62, "name": "D4", "ticks": 31801, "time": 151.37774098333333, "velocity": 0.5748031496062992}, {"duration": 0.16037743333333765, "durationTicks": 34, "midi": 55, "name": "G3", "ticks": 31921, "time": 151.94377898333335, "velocity": 0.48031496062992124}, {"duration": 0.17924536666666313, "durationTicks": 38, "midi": 62, "name": "D4", "ticks": 31921, "time": 151.94377898333335, "velocity": 0.49606299212598426}, {"duration": 0.12735855000002516, "durationTicks": 27, "midi": 57, "name": "A3", "ticks": 31922, "time": 151.94849596666666, "velocity": 0.6141732283464567}, {"duration": 0.1650944166666477, "durationTicks": 35, "midi": 62, "name": "D4", "ticks": 32042, "time": 152.51453396666668, "velocity": 0.49606299212598426}, {"duration": 0.16037743333333765, "durationTicks": 34, "midi": 55, "name": "G3", "ticks": 32042, "time": 152.51453396666668, "velocity": 0.5118110236220472}, {"duration": 0.0990566499999943, "durationTicks": 21, "midi": 57, "name": "A3", "ticks": 32042, "time": 152.51453396666668, "velocity": 0.5905511811023622}, {"duration": 0.14622648333332222, "durationTicks": 31, "midi": 57, "name": "A3", "ticks": 32159, "time": 153.06642101666668, "velocity": 0.5748031496062992}, {"duration": 0.1698114000000146, "durationTicks": 36, "midi": 62, "name": "D4", "ticks": 32160, "time": 153.071138, "velocity": 0.5669291338582677}, {"duration": 0.11792458333334821, "durationTicks": 25, "midi": 54, "name": "F#3", "ticks": 32161, "time": 153.07585498333333, "velocity": 0.6377952755905512}, {"duration": 0.11792458333331979, "durationTicks": 25, "midi": 57, "name": "A3", "ticks": 32280, "time": 153.637176, "velocity": 0.49606299212598426}, {"duration": 0.14622648333332222, "durationTicks": 31, "midi": 62, "name": "D4", "ticks": 32280, "time": 153.637176, "velocity": 0.5590551181102362}, {"duration": 0.10849061666664284, "durationTicks": 23, "midi": 54, "name": "F#3", "ticks": 32280, "time": 153.637176, "velocity": 0.6299212598425197}, {"duration": 0.1698114000000146, "durationTicks": 36, "midi": 62, "name": "D4", "ticks": 32398, "time": 154.19378003333333, "velocity": 0.6062992125984252}, {"duration": 0.1698114000000146, "durationTicks": 36, "midi": 55, "name": "G3", "ticks": 32399, "time": 154.19849701666666, "velocity": 0.5275590551181102}, {"duration": 0.1367925166666737, "durationTicks": 29, "midi": 59, "name": "B3", "ticks": 32399, "time": 154.19849701666666, "velocity": 0.49606299212598426}, {"duration": 0.1698114000000146, "durationTicks": 36, "midi": 62, "name": "D4", "ticks": 32520, "time": 154.769252, "velocity": 0.5590551181102362}, {"duration": 0.12264156666668669, "durationTicks": 26, "midi": 59, "name": "B3", "ticks": 32520, "time": 154.769252, "velocity": 0.5039370078740157}, {"duration": 0.1509434666666607, "durationTicks": 32, "midi": 55, "name": "G3", "ticks": 32520, "time": 154.769252, "velocity": 0.5275590551181102}, {"duration": 0.1556604500000276, "durationTicks": 33, "midi": 62, "name": "D4", "ticks": 32640, "time": 155.33529, "velocity": 0.5354330708661418}, {"duration": 0.10849061666667126, "durationTicks": 23, "midi": 59, "name": "B3", "ticks": 32641, "time": 155.34000698333332, "velocity": 0.5275590551181102}, {"duration": 0.12735854999999674, "durationTicks": 27, "midi": 55, "name": "G3", "ticks": 32641, "time": 155.34000698333332, "velocity": 0.5748031496062992}, {"duration": 0.14150950000001217, "durationTicks": 30, "midi": 59, "name": "B3", "ticks": 32759, "time": 155.89661101666667, "velocity": 0.5669291338582677}, {"duration": 0.16509441666667612, "durationTicks": 35, "midi": 62, "name": "D4", "ticks": 32759, "time": 155.89661101666667, "velocity": 0.5669291338582677}, {"duration": 0.16037743333333765, "durationTicks": 34, "midi": 55, "name": "G3", "ticks": 32760, "time": 155.901328, "velocity": 0.5669291338582677}, {"duration": 0.12264156666665826, "durationTicks": 26, "midi": 55, "name": "G3", "ticks": 32877, "time": 156.45321505, "velocity": 0.5590551181102362}, {"duration": 0.14150949999998375, "durationTicks": 30, "midi": 60, "name": "C4", "ticks": 32878, "time": 156.45793203333335, "velocity": 0.5669291338582677}, {"duration": 0.12735854999999674, "durationTicks": 27, "midi": 52, "name": "E3", "ticks": 32879, "time": 156.46264901666666, "velocity": 0.5039370078740157}, {"duration": 0.14622648333332222, "durationTicks": 31, "midi": 60, "name": "C4", "ticks": 32998, "time": 157.02397003333334, "velocity": 0.5669291338582677}, {"duration": 0.11320759999998131, "durationTicks": 24, "midi": 55, "name": "G3", "ticks": 32999, "time": 157.02868701666668, "velocity": 0.5354330708661418}, {"duration": 0.13679251666664527, "durationTicks": 29, "midi": 52, "name": "E3", "ticks": 32999, "time": 157.02868701666668, "velocity": 0.5118110236220472}, {"duration": 0.15566044999999917, "durationTicks": 33, "midi": 60, "name": "C4", "ticks": 33120, "time": 157.599442, "velocity": 0.5196850393700787}, {"duration": 0.1556604500000276, "durationTicks": 33, "midi": 52, "name": "E3", "ticks": 33121, "time": 157.60415898333332, "velocity": 0.5275590551181102}, {"duration": 0.11792458333334821, "durationTicks": 25, "midi": 55, "name": "G3", "ticks": 33121, "time": 157.60415898333332, "velocity": 0.5748031496062992}, {"duration": 0.14622648333332222, "durationTicks": 31, "midi": 52, "name": "E3", "ticks": 33240, "time": 158.16548, "velocity": 0.5118110236220472}, {"duration": 0.13207553333333522, "durationTicks": 28, "midi": 55, "name": "G3", "ticks": 33240, "time": 158.16548, "velocity": 0.5905511811023622}, {"duration": 0.14150949999998375, "durationTicks": 30, "midi": 60, "name": "C4", "ticks": 33240, "time": 158.16548, "velocity": 0.5905511811023622}, {"duration": 0.08962268333334578, "durationTicks": 19, "midi": 59, "name": "B3", "ticks": 33360, "time": 158.731518, "velocity": 0.5511811023622047}, {"duration": 0.10849061666667126, "durationTicks": 23, "midi": 55, "name": "G3", "ticks": 33360, "time": 158.731518, "velocity": 0.5590551181102362}, {"duration": 0.11792458333334821, "durationTicks": 25, "midi": 62, "name": "D4", "ticks": 33360, "time": 158.731518, "velocity": 0.5511811023622047}, {"duration": 0.08962268333334578, "durationTicks": 19, "midi": 59, "name": "B3", "ticks": 33480, "time": 159.297556, "velocity": 0.5511811023622047}, {"duration": 0.11792458333334821, "durationTicks": 25, "midi": 62, "name": "D4", "ticks": 33480, "time": 159.297556, "velocity": 0.5511811023622047}, {"duration": 0.10849061666669968, "durationTicks": 23, "midi": 55, "name": "G3", "ticks": 33480, "time": 159.297556, "velocity": 0.5590551181102362}, {"duration": 0.0849057000000073, "durationTicks": 18, "midi": 59, "name": "B3", "ticks": 33599, "time": 159.85887701666667, "velocity": 0.5354330708661418}, {"duration": 0.11320760000000973, "durationTicks": 24, "midi": 62, "name": "D4", "ticks": 33599, "time": 159.85887701666667, "velocity": 0.5590551181102362}, {"duration": 0.10849061666667126, "durationTicks": 23, "midi": 55, "name": "G3", "ticks": 33599, "time": 159.85887701666667, "velocity": 0.5669291338582677}, {"duration": 0.14622648333332222, "durationTicks": 31, "midi": 55, "name": "G3", "ticks": 33720, "time": 160.429632, "velocity": 0.6456692913385826}, {"duration": 0.14622648333332222, "durationTicks": 31, "midi": 62, "name": "D4", "ticks": 33720, "time": 160.429632, "velocity": 0.5748031496062992}, {"duration": 0.08962268333334578, "durationTicks": 19, "midi": 59, "name": "B3", "ticks": 33720, "time": 160.429632, "velocity": 0.5669291338582677}, {"duration": 0.12264156666668669, "durationTicks": 26, "midi": 60, "name": "C4", "ticks": 33841, "time": 161.00038698333333, "velocity": 0.5748031496062992}, {"duration": 0.08962268333334578, "durationTicks": 19, "midi": 55, "name": "G3", "ticks": 33841, "time": 161.00038698333333, "velocity": 0.6377952755905512}, {"duration": 0.10377363333333278, "durationTicks": 22, "midi": 52, "name": "E3", "ticks": 33843, "time": 161.00982095, "velocity": 0.5511811023622047}, {"duration": 0.1367925166666737, "durationTicks": 29, "midi": 60, "name": "C4", "ticks": 33958, "time": 161.55227403333333, "velocity": 0.5669291338582677}, {"duration": 0.08018871666666882, "durationTicks": 17, "midi": 55, "name": "G3", "ticks": 33961, "time": 161.56642498333332, "velocity": 0.5590551181102362}, {"duration": 0.10849061666667126, "durationTicks": 23, "midi": 52, "name": "E3", "ticks": 33963, "time": 161.57585895, "velocity": 0.44881889763779526}, {"duration": 0.0990566499999943, "durationTicks": 21, "midi": 57, "name": "A3", "ticks": 34082, "time": 162.13717996666668, "velocity": 0.5590551181102362}, {"duration": 0.10849061666667126, "durationTicks": 23, "midi": 62, "name": "D4", "ticks": 34084, "time": 162.14661393333333, "velocity": 0.5590551181102362}, {"duration": 0.08962268333334578, "durationTicks": 19, "midi": 54, "name": "F#3", "ticks": 34084, "time": 162.14661393333333, "velocity": 0.5905511811023622}, {"duration": 0.14150950000001217, "durationTicks": 30, "midi": 60, "name": "C4", "ticks": 34201, "time": 162.69850098333333, "velocity": 0.5669291338582677}, {"duration": 0.11320760000000973, "durationTicks": 24, "midi": 54, "name": "F#3", "ticks": 34202, "time": 162.70321796666667, "velocity": 0.6062992125984252}, {"duration": 0.10377363333333278, "durationTicks": 22, "midi": 57, "name": "A3", "ticks": 34202, "time": 162.70321796666667, "velocity": 0.49606299212598426}, {"duration": 0.17924536666669155, "durationTicks": 38, "midi": 62, "name": "D4", "ticks": 34320, "time": 163.25982199999999, "velocity": 0.5669291338582677}, {"duration": 0.1698114000000146, "durationTicks": 36, "midi": 55, "name": "G3", "ticks": 34320, "time": 163.25982199999999, "velocity": 0.4566929133858268}, {"duration": 0.13207553333336364, "durationTicks": 28, "midi": 59, "name": "B3", "ticks": 34320, "time": 163.25982199999999, "velocity": 0.5196850393700787}, {"duration": 0.13207553333333522, "durationTicks": 28, "midi": 59, "name": "B3", "ticks": 34441, "time": 163.83057698333334, "velocity": 0.5275590551181102}, {"duration": 0.17452838333335308, "durationTicks": 37, "midi": 55, "name": "G3", "ticks": 34442, "time": 163.83529396666665, "velocity": 0.5118110236220472}, {"duration": 0.17452838333335308, "durationTicks": 37, "midi": 62, "name": "D4", "ticks": 34442, "time": 163.83529396666665, "velocity": 0.5511811023622047}, {"duration": 0.16981139999998618, "durationTicks": 36, "midi": 55, "name": "G3", "ticks": 34557, "time": 164.37774705, "velocity": 0.5275590551181102}, {"duration": 0.13679251666664527, "durationTicks": 29, "midi": 59, "name": "B3", "ticks": 34557, "time": 164.37774705, "velocity": 0.5511811023622047}, {"duration": 0.1650944166666477, "durationTicks": 35, "midi": 62, "name": "D4", "ticks": 34558, "time": 164.38246403333335, "velocity": 0.5354330708661418}, {"duration": 0.14150949999998375, "durationTicks": 30, "midi": 59, "name": "B3", "ticks": 34679, "time": 164.95321901666668, "velocity": 0.5039370078740157}, {"duration": 0.17924536666666313, "durationTicks": 38, "midi": 55, "name": "G3", "ticks": 34679, "time": 164.95321901666668, "velocity": 0.49606299212598426}, {"duration": 0.16981139999998618, "durationTicks": 36, "midi": 62, "name": "D4", "ticks": 34679, "time": 164.95321901666668, "velocity": 0.4881889763779528}, {"duration": 0.17452838333332465, "durationTicks": 37, "midi": 55, "name": "G3", "ticks": 34799, "time": 165.51925701666667, "velocity": 0.4645669291338583}, {"duration": 0.18867933333334008, "durationTicks": 40, "midi": 62, "name": "D4", "ticks": 34799, "time": 165.51925701666667, "velocity": 0.49606299212598426}, {"duration": 0.14150950000001217, "durationTicks": 30, "midi": 57, "name": "A3", "ticks": 34799, "time": 165.51925701666667, "velocity": 0.5669291338582677}, {"duration": 0.1981132999999886, "durationTicks": 42, "midi": 62, "name": "D4", "ticks": 34920, "time": 166.090012, "velocity": 0.5590551181102362}, {"duration": 0.16037743333333765, "durationTicks": 34, "midi": 55, "name": "G3", "ticks": 34920, "time": 166.090012, "velocity": 0.5354330708661418}, {"duration": 0.10849061666667126, "durationTicks": 23, "midi": 57, "name": "A3", "ticks": 34921, "time": 166.09472898333334, "velocity": 0.5905511811023622}, {"duration": 0.1509434666666607, "durationTicks": 32, "midi": 57, "name": "A3", "ticks": 35040, "time": 166.65605, "velocity": 0.5905511811023622}, {"duration": 0.1367925166666737, "durationTicks": 29, "midi": 54, "name": "F#3", "ticks": 35041, "time": 166.66076698333333, "velocity": 0.6141732283464567}, {"duration": 0.16037743333333765, "durationTicks": 34, "midi": 62, "name": "D4", "ticks": 35041, "time": 166.66076698333333, "velocity": 0.5669291338582677}, {"duration": 0.12264156666665826, "durationTicks": 26, "midi": 57, "name": "A3", "ticks": 35159, "time": 167.21737101666668, "velocity": 0.48031496062992124}, {"duration": 0.12264156666665826, "durationTicks": 26, "midi": 54, "name": "F#3", "ticks": 35160, "time": 167.222088, "velocity": 0.5748031496062992}, {"duration": 0.14150950000001217, "durationTicks": 30, "midi": 62, "name": "D4", "ticks": 35161, "time": 167.22680498333332, "velocity": 0.5669291338582677}, {"duration": 0.16037743333333765, "durationTicks": 34, "midi": 55, "name": "G3", "ticks": 35277, "time": 167.77397505, "velocity": 0.5354330708661418}, {"duration": 0.12735854999999674, "durationTicks": 27, "midi": 59, "name": "B3", "ticks": 35278, "time": 167.77869203333333, "velocity": 0.47244094488188976}, {"duration": 0.15566044999999917, "durationTicks": 33, "midi": 62, "name": "D4", "ticks": 35278, "time": 167.77869203333333, "velocity": 0.48031496062992124}, {"duration": 0.15566044999999917, "durationTicks": 33, "midi": 62, "name": "D4", "ticks": 35400, "time": 168.354164, "velocity": 0.5669291338582677}, {"duration": 0.11792458333334821, "durationTicks": 25, "midi": 59, "name": "B3", "ticks": 35400, "time": 168.354164, "velocity": 0.49606299212598426}, {"duration": 0.1367925166666737, "durationTicks": 29, "midi": 55, "name": "G3", "ticks": 35400, "time": 168.354164, "velocity": 0.5118110236220472}, {"duration": 0.1509434666666607, "durationTicks": 32, "midi": 62, "name": "D4", "ticks": 35519, "time": 168.91548501666668, "velocity": 0.6299212598425197}, {"duration": 0.11792458333331979, "durationTicks": 25, "midi": 59, "name": "B3", "ticks": 35520, "time": 168.92020200000002, "velocity": 0.5511811023622047}, {"duration": 0.13679251666664527, "durationTicks": 29, "midi": 55, "name": "G3", "ticks": 35520, "time": 168.92020200000002, "velocity": 0.5826771653543307}, {"duration": 0.16981139999998618, "durationTicks": 36, "midi": 62, "name": "D4", "ticks": 35639, "time": 169.48152301666667, "velocity": 0.47244094488188976}, {"duration": 0.1367925166666737, "durationTicks": 29, "midi": 59, "name": "B3", "ticks": 35640, "time": 169.48624, "velocity": 0.4645669291338583}, {"duration": 0.13207553333336364, "durationTicks": 28, "midi": 55, "name": "G3", "ticks": 35641, "time": 169.49095698333332, "velocity": 0.4330708661417323}, {"duration": 0.14622648333335064, "durationTicks": 31, "midi": 55, "name": "G3", "ticks": 35758, "time": 170.04284403333332, "velocity": 0.4645669291338583}, {"duration": 0.11792458333334821, "durationTicks": 25, "midi": 60, "name": "C4", "ticks": 35758, "time": 170.04284403333332, "velocity": 0.4881889763779528}, {"duration": 0.1367925166666737, "durationTicks": 29, "midi": 64, "name": "E4", "ticks": 35758, "time": 170.04284403333332, "velocity": 0.6141732283464567}, {"duration": 0.1509434666666607, "durationTicks": 32, "midi": 55, "name": "G3", "ticks": 35880, "time": 170.618316, "velocity": 0.4881889763779528}, {"duration": 0.11320760000000973, "durationTicks": 24, "midi": 60, "name": "C4", "ticks": 35880, "time": 170.618316, "velocity": 0.5354330708661418}, {"duration": 0.14622648333335064, "durationTicks": 31, "midi": 64, "name": "E4", "ticks": 35880, "time": 170.618316, "velocity": 0.5354330708661418}, {"duration": 0.14150949999998375, "durationTicks": 30, "midi": 55, "name": "G3", "ticks": 35999, "time": 171.17963701666667, "velocity": 0.5669291338582677}, {"duration": 0.11320760000000973, "durationTicks": 24, "midi": 60, "name": "C4", "ticks": 35999, "time": 171.17963701666667, "velocity": 0.5118110236220472}, {"duration": 0.13207553333333522, "durationTicks": 28, "midi": 64, "name": "E4", "ticks": 35999, "time": 171.17963701666667, "velocity": 0.6377952755905512}, {"duration": 0.1367925166666737, "durationTicks": 29, "midi": 64, "name": "E4", "ticks": 36121, "time": 171.75510898333334, "velocity": 0.5590551181102362}, {"duration": 0.15566044999999917, "durationTicks": 33, "midi": 55, "name": "G3", "ticks": 36121, "time": 171.75510898333334, "velocity": 0.5748031496062992}, {"duration": 0.10849061666667126, "durationTicks": 23, "midi": 60, "name": "C4", "ticks": 36121, "time": 171.75510898333334, "velocity": 0.5826771653543307}, {"duration": 0.13207553333333522, "durationTicks": 28, "midi": 59, "name": "B3", "ticks": 36240, "time": 172.31643, "velocity": 0.5590551181102362}, {"duration": 0.16037743333333765, "durationTicks": 34, "midi": 62, "name": "D4", "ticks": 36241, "time": 172.32114698333334, "velocity": 0.5905511811023622}, {"duration": 0.1367925166666737, "durationTicks": 29, "midi": 55, "name": "G3", "ticks": 36241, "time": 172.32114698333334, "velocity": 0.5669291338582677}, {"duration": 0.16037743333333765, "durationTicks": 34, "midi": 62, "name": "D4", "ticks": 36361, "time": 172.88718498333333, "velocity": 0.5039370078740157}, {"duration": 0.12264156666665826, "durationTicks": 26, "midi": 59, "name": "B3", "ticks": 36362, "time": 172.89190196666667, "velocity": 0.5118110236220472}, {"duration": 0.14622648333332222, "durationTicks": 31, "midi": 55, "name": "G3", "ticks": 36362, "time": 172.89190196666667, "velocity": 0.5118110236220472}, {"duration": 0.12735855000002516, "durationTicks": 27, "midi": 59, "name": "B3", "ticks": 36481, "time": 173.45322298333332, "velocity": 0.5748031496062992}, {"duration": 0.14150949999998375, "durationTicks": 30, "midi": 55, "name": "G3", "ticks": 36482, "time": 173.4579399666667, "velocity": 0.5748031496062992}, {"duration": 0.1509434666666607, "durationTicks": 32, "midi": 62, "name": "D4", "ticks": 36482, "time": 173.4579399666667, "velocity": 0.5590551181102362}, {"duration": 0.12264156666665826, "durationTicks": 26, "midi": 59, "name": "B3", "ticks": 36601, "time": 174.01926098333334, "velocity": 0.5275590551181102}, {"duration": 0.15566044999999917, "durationTicks": 33, "midi": 55, "name": "G3", "ticks": 36601, "time": 174.01926098333334, "velocity": 0.5511811023622047}, {"duration": 0.14622648333332222, "durationTicks": 31, "midi": 62, "name": "D4", "ticks": 36601, "time": 174.01926098333334, "velocity": 0.5748031496062992}, {"duration": 0.16037743333333765, "durationTicks": 34, "midi": 55, "name": "G3", "ticks": 36721, "time": 174.58529898333333, "velocity": 0.48031496062992124}, {"duration": 0.17924536666666313, "durationTicks": 38, "midi": 62, "name": "D4", "ticks": 36721, "time": 174.58529898333333, "velocity": 0.49606299212598426}, {"duration": 0.12735854999999674, "durationTicks": 27, "midi": 57, "name": "A3", "ticks": 36722, "time": 174.59001596666667, "velocity": 0.6141732283464567}, {"duration": 0.16509441666667612, "durationTicks": 35, "midi": 62, "name": "D4", "ticks": 36842, "time": 175.15605396666666, "velocity": 0.49606299212598426}, {"duration": 0.16037743333333765, "durationTicks": 34, "midi": 55, "name": "G3", "ticks": 36842, "time": 175.15605396666666, "velocity": 0.5118110236220472}, {"duration": 0.09905665000002273, "durationTicks": 21, "midi": 57, "name": "A3", "ticks": 36842, "time": 175.15605396666666, "velocity": 0.5905511811023622}, {"duration": 0.14622648333335064, "durationTicks": 31, "midi": 57, "name": "A3", "ticks": 36959, "time": 175.70794101666667, "velocity": 0.5748031496062992}, {"duration": 0.16981139999998618, "durationTicks": 36, "midi": 62, "name": "D4", "ticks": 36960, "time": 175.712658, "velocity": 0.5669291338582677}, {"duration": 0.11792458333331979, "durationTicks": 25, "midi": 54, "name": "F#3", "ticks": 36961, "time": 175.71737498333334, "velocity": 0.6377952755905512}, {"duration": 0.11792458333334821, "durationTicks": 25, "midi": 57, "name": "A3", "ticks": 37080, "time": 176.278696, "velocity": 0.49606299212598426}, {"duration": 0.14622648333332222, "durationTicks": 31, "midi": 62, "name": "D4", "ticks": 37080, "time": 176.278696, "velocity": 0.5590551181102362}, {"duration": 0.10849061666667126, "durationTicks": 23, "midi": 54, "name": "F#3", "ticks": 37080, "time": 176.278696, "velocity": 0.6299212598425197}, {"duration": 0.16981139999998618, "durationTicks": 36, "midi": 62, "name": "D4", "ticks": 37198, "time": 176.83530003333334, "velocity": 0.6062992125984252}, {"duration": 0.16981139999998618, "durationTicks": 36, "midi": 55, "name": "G3", "ticks": 37199, "time": 176.84001701666668, "velocity": 0.5275590551181102}, {"duration": 0.13679251666664527, "durationTicks": 29, "midi": 59, "name": "B3", "ticks": 37199, "time": 176.84001701666668, "velocity": 0.49606299212598426}, {"duration": 0.16981139999998618, "durationTicks": 36, "midi": 62, "name": "D4", "ticks": 37320, "time": 177.410772, "velocity": 0.5590551181102362}, {"duration": 0.12264156666665826, "durationTicks": 26, "midi": 59, "name": "B3", "ticks": 37320, "time": 177.410772, "velocity": 0.5039370078740157}, {"duration": 0.1509434666666607, "durationTicks": 32, "midi": 55, "name": "G3", "ticks": 37320, "time": 177.410772, "velocity": 0.5275590551181102}, {"duration": 0.15566044999999917, "durationTicks": 33, "midi": 62, "name": "D4", "ticks": 37440, "time": 177.97681, "velocity": 0.5354330708661418}, {"duration": 0.10849061666667126, "durationTicks": 23, "midi": 59, "name": "B3", "ticks": 37441, "time": 177.98152698333334, "velocity": 0.5275590551181102}, {"duration": 0.12735854999999674, "durationTicks": 27, "midi": 55, "name": "G3", "ticks": 37441, "time": 177.98152698333334, "velocity": 0.5748031496062992}, {"duration": 0.14150949999998375, "durationTicks": 30, "midi": 59, "name": "B3", "ticks": 37559, "time": 178.53813101666668, "velocity": 0.5669291338582677}, {"duration": 0.1650944166666477, "durationTicks": 35, "midi": 62, "name": "D4", "ticks": 37559, "time": 178.53813101666668, "velocity": 0.5669291338582677}, {"duration": 0.16037743333333765, "durationTicks": 34, "midi": 55, "name": "G3", "ticks": 37560, "time": 178.542848, "velocity": 0.5669291338582677}, {"duration": 0.12264156666668669, "durationTicks": 26, "midi": 55, "name": "G3", "ticks": 37677, "time": 179.09473505, "velocity": 0.5590551181102362}, {"duration": 0.14150950000001217, "durationTicks": 30, "midi": 60, "name": "C4", "ticks": 37678, "time": 179.09945203333334, "velocity": 0.5669291338582677}, {"duration": 0.12735854999999674, "durationTicks": 27, "midi": 52, "name": "E3", "ticks": 37679, "time": 179.10416901666667, "velocity": 0.5039370078740157}, {"duration": 0.14622648333332222, "durationTicks": 31, "midi": 60, "name": "C4", "ticks": 37798, "time": 179.66549003333333, "velocity": 0.5669291338582677}, {"duration": 0.11320760000000973, "durationTicks": 24, "midi": 55, "name": "G3", "ticks": 37799, "time": 179.67020701666667, "velocity": 0.5354330708661418}, {"duration": 0.1367925166666737, "durationTicks": 29, "midi": 52, "name": "E3", "ticks": 37799, "time": 179.67020701666667, "velocity": 0.5118110236220472}, {"duration": 0.15566044999999917, "durationTicks": 33, "midi": 60, "name": "C4", "ticks": 37920, "time": 180.240962, "velocity": 0.5196850393700787}, {"duration": 0.15566044999999917, "durationTicks": 33, "midi": 52, "name": "E3", "ticks": 37921, "time": 180.24567898333333, "velocity": 0.5275590551181102}, {"duration": 0.11792458333331979, "durationTicks": 25, "midi": 55, "name": "G3", "ticks": 37921, "time": 180.24567898333333, "velocity": 0.5748031496062992}, {"duration": 0.14622648333332222, "durationTicks": 31, "midi": 52, "name": "E3", "ticks": 38040, "time": 180.80700000000002, "velocity": 0.5118110236220472}, {"duration": 0.1320755333333068, "durationTicks": 28, "midi": 55, "name": "G3", "ticks": 38040, "time": 180.80700000000002, "velocity": 0.5905511811023622}, {"duration": 0.14150949999998375, "durationTicks": 30, "midi": 60, "name": "C4", "ticks": 38040, "time": 180.80700000000002, "velocity": 0.5905511811023622}, {"duration": 0.08962268333331735, "durationTicks": 19, "midi": 59, "name": "B3", "ticks": 38160, "time": 181.373038, "velocity": 0.5511811023622047}, {"duration": 0.10849061666664284, "durationTicks": 23, "midi": 55, "name": "G3", "ticks": 38160, "time": 181.373038, "velocity": 0.5590551181102362}, {"duration": 0.11792458333331979, "durationTicks": 25, "midi": 62, "name": "D4", "ticks": 38160, "time": 181.373038, "velocity": 0.5511811023622047}, {"duration": 0.08962268333334578, "durationTicks": 19, "midi": 59, "name": "B3", "ticks": 38280, "time": 181.939076, "velocity": 0.5511811023622047}, {"duration": 0.11792458333331979, "durationTicks": 25, "midi": 62, "name": "D4", "ticks": 38280, "time": 181.939076, "velocity": 0.5511811023622047}, {"duration": 0.10849061666667126, "durationTicks": 23, "midi": 55, "name": "G3", "ticks": 38280, "time": 181.939076, "velocity": 0.5590551181102362}, {"duration": 0.08490569999997888, "durationTicks": 18, "midi": 59, "name": "B3", "ticks": 38399, "time": 182.50039701666668, "velocity": 0.5354330708661418}, {"duration": 0.11320759999998131, "durationTicks": 24, "midi": 62, "name": "D4", "ticks": 38399, "time": 182.50039701666668, "velocity": 0.5590551181102362}, {"duration": 0.10849061666664284, "durationTicks": 23, "midi": 55, "name": "G3", "ticks": 38399, "time": 182.50039701666668, "velocity": 0.5669291338582677}, {"duration": 0.14622648333332222, "durationTicks": 31, "midi": 55, "name": "G3", "ticks": 38520, "time": 183.071152, "velocity": 0.6456692913385826}, {"duration": 0.14622648333332222, "durationTicks": 31, "midi": 62, "name": "D4", "ticks": 38520, "time": 183.071152, "velocity": 0.5748031496062992}, {"duration": 0.08962268333331735, "durationTicks": 19, "midi": 59, "name": "B3", "ticks": 38520, "time": 183.071152, "velocity": 0.5669291338582677}, {"duration": 0.08962268333334578, "durationTicks": 19, "midi": 55, "name": "G3", "ticks": 38644, "time": 183.65605793333333, "velocity": 0.6141732283464567}, {"duration": 0.11792458333331979, "durationTicks": 25, "midi": 60, "name": "C4", "ticks": 38644, "time": 183.65605793333333, "velocity": 0.6535433070866141}, {"duration": 0.12735854999999674, "durationTicks": 27, "midi": 52, "name": "E3", "ticks": 38644, "time": 183.65605793333333, "velocity": 0.6456692913385826}, {"duration": 0.14622648333332222, "durationTicks": 31, "midi": 60, "name": "C4", "ticks": 38762, "time": 184.21266196666667, "velocity": 0.5984251968503937}, {"duration": 0.0990566499999943, "durationTicks": 21, "midi": 55, "name": "G3", "ticks": 38762, "time": 184.21266196666667, "velocity": 0.6141732283464567}, {"duration": 0.11792458333331979, "durationTicks": 25, "midi": 52, "name": "E3", "ticks": 38763, "time": 184.21737895, "velocity": 0.5039370078740157}, {"duration": 0.09905665000002273, "durationTicks": 21, "midi": 57, "name": "A3", "ticks": 38881, "time": 184.77398298333333, "velocity": 0.47244094488188976}, {"duration": 0.09905665000002273, "durationTicks": 21, "midi": 54, "name": "F#3", "ticks": 38881, "time": 184.77398298333333, "velocity": 0.5905511811023622}, {"duration": 0.13207553333333522, "durationTicks": 28, "midi": 62, "name": "D4", "ticks": 38881, "time": 184.77398298333333, "velocity": 0.5748031496062992}, {"duration": 0.11792458333331979, "durationTicks": 25, "midi": 57, "name": "A3", "ticks": 39000, "time": 185.335304, "velocity": 0.5748031496062992}, {"duration": 0.11320760000000973, "durationTicks": 24, "midi": 54, "name": "F#3", "ticks": 39000, "time": 185.335304, "velocity": 0.6299212598425197}, {"duration": 0.14150949999998375, "durationTicks": 30, "midi": 62, "name": "D4", "ticks": 39000, "time": 185.335304, "velocity": 0.5748031496062992}, {"duration": 0.1698114000000146, "durationTicks": 36, "midi": 57, "name": "A3", "ticks": 39120, "time": 185.901342, "velocity": 0.49606299212598426}, {"duration": 0.13207553333333522, "durationTicks": 28, "midi": 61, "name": "C#4", "ticks": 39120, "time": 185.901342, "velocity": 0.5590551181102362}, {"duration": 0.17924536666666313, "durationTicks": 38, "midi": 64, "name": "E4", "ticks": 39120, "time": 185.901342, "velocity": 0.6062992125984252}, {"duration": 0.13207553333333522, "durationTicks": 28, "midi": 61, "name": "C#4", "ticks": 39241, "time": 186.47209698333333, "velocity": 0.5669291338582677}, {"duration": 0.17452838333332465, "durationTicks": 37, "midi": 57, "name": "A3", "ticks": 39242, "time": 186.47681396666667, "velocity": 0.5511811023622047}, {"duration": 0.17452838333332465, "durationTicks": 37, "midi": 64, "name": "E4", "ticks": 39242, "time": 186.47681396666667, "velocity": 0.5905511811023622}, {"duration": 0.1698114000000146, "durationTicks": 36, "midi": 57, "name": "A3", "ticks": 39357, "time": 187.01926705, "velocity": 0.5669291338582677}, {"duration": 0.1367925166666737, "durationTicks": 29, "midi": 61, "name": "C#4", "ticks": 39357, "time": 187.01926705, "velocity": 0.5905511811023622}, {"duration": 0.16509441666667612, "durationTicks": 35, "midi": 64, "name": "E4", "ticks": 39358, "time": 187.02398403333333, "velocity": 0.5748031496062992}, {"duration": 0.17924536666666313, "durationTicks": 38, "midi": 57, "name": "A3", "ticks": 39479, "time": 187.59473901666667, "velocity": 0.5354330708661418}, {"duration": 0.14150949999998375, "durationTicks": 30, "midi": 61, "name": "C#4", "ticks": 39479, "time": 187.59473901666667, "velocity": 0.5433070866141733}, {"duration": 0.1698114000000146, "durationTicks": 36, "midi": 64, "name": "E4", "ticks": 39479, "time": 187.59473901666667, "velocity": 0.5275590551181102}, {"duration": 0.17452838333335308, "durationTicks": 37, "midi": 57, "name": "A3", "ticks": 39599, "time": 188.16077701666666, "velocity": 0.5039370078740157}, {"duration": 0.14150950000001217, "durationTicks": 30, "midi": 59, "name": "B3", "ticks": 39599, "time": 188.16077701666666, "velocity": 0.6062992125984252}, {"duration": 0.18867933333334008, "durationTicks": 40, "midi": 64, "name": "E4", "ticks": 39599, "time": 188.16077701666666, "velocity": 0.5354330708661418}, {"duration": 0.1981132999999886, "durationTicks": 42, "midi": 64, "name": "E4", "ticks": 39720, "time": 188.73153200000002, "velocity": 0.5984251968503937}, {"duration": 0.16037743333333765, "durationTicks": 34, "midi": 57, "name": "A3", "ticks": 39720, "time": 188.73153200000002, "velocity": 0.5748031496062992}, {"duration": 0.10849061666667126, "durationTicks": 23, "midi": 59, "name": "B3", "ticks": 39721, "time": 188.73624898333333, "velocity": 0.6299212598425197}, {"duration": 0.1509434666666607, "durationTicks": 32, "midi": 59, "name": "B3", "ticks": 39840, "time": 189.29757, "velocity": 0.6299212598425197}, {"duration": 0.13679251666664527, "durationTicks": 29, "midi": 56, "name": "G#3", "ticks": 39841, "time": 189.30228698333335, "velocity": 0.6535433070866141}, {"duration": 0.16037743333330923, "durationTicks": 34, "midi": 64, "name": "E4", "ticks": 39841, "time": 189.30228698333335, "velocity": 0.6062992125984252}, {"duration": 0.12264156666665826, "durationTicks": 26, "midi": 59, "name": "B3", "ticks": 39959, "time": 189.85889101666666, "velocity": 0.5196850393700787}, {"duration": 0.12264156666668669, "durationTicks": 26, "midi": 56, "name": "G#3", "ticks": 39960, "time": 189.863608, "velocity": 0.6141732283464567}, {"duration": 0.14150950000001217, "durationTicks": 30, "midi": 64, "name": "E4", "ticks": 39961, "time": 189.86832498333334, "velocity": 0.6062992125984252}, {"duration": 0.16037743333333765, "durationTicks": 34, "midi": 57, "name": "A3", "ticks": 40077, "time": 190.41549505, "velocity": 0.5748031496062992}, {"duration": 0.12735854999999674, "durationTicks": 27, "midi": 61, "name": "C#4", "ticks": 40078, "time": 190.42021203333334, "velocity": 0.5118110236220472}, {"duration": 0.15566044999999917, "durationTicks": 33, "midi": 64, "name": "E4", "ticks": 40078, "time": 190.42021203333334, "velocity": 0.5196850393700787}, {"duration": 0.15566044999999917, "durationTicks": 33, "midi": 64, "name": "E4", "ticks": 40200, "time": 190.995684, "velocity": 0.6062992125984252}, {"duration": 0.13679251666664527, "durationTicks": 29, "midi": 57, "name": "A3", "ticks": 40200, "time": 190.995684, "velocity": 0.5511811023622047}, {"duration": 0.11792458333331979, "durationTicks": 25, "midi": 61, "name": "C#4", "ticks": 40200, "time": 190.995684, "velocity": 0.5354330708661418}, {"duration": 0.1509434666666607, "durationTicks": 32, "midi": 64, "name": "E4", "ticks": 40319, "time": 191.55700501666666, "velocity": 0.6692913385826772}, {"duration": 0.11792458333334821, "durationTicks": 25, "midi": 61, "name": "C#4", "ticks": 40320, "time": 191.561722, "velocity": 0.5905511811023622}, {"duration": 0.1367925166666737, "durationTicks": 29, "midi": 57, "name": "A3", "ticks": 40320, "time": 191.561722, "velocity": 0.6220472440944882}, {"duration": 0.1698114000000146, "durationTicks": 36, "midi": 64, "name": "E4", "ticks": 40439, "time": 192.12304301666666, "velocity": 0.5118110236220472}, {"duration": 0.1367925166666737, "durationTicks": 29, "midi": 61, "name": "C#4", "ticks": 40440, "time": 192.12776, "velocity": 0.5039370078740157}, {"duration": 0.13207553333333522, "durationTicks": 28, "midi": 57, "name": "A3", "ticks": 40441, "time": 192.13247698333333, "velocity": 0.47244094488188976}, {"duration": 0.14622648333332222, "durationTicks": 31, "midi": 57, "name": "A3", "ticks": 40558, "time": 192.68436403333334, "velocity": 0.5039370078740157}, {"duration": 0.11792458333331979, "durationTicks": 25, "midi": 62, "name": "D4", "ticks": 40558, "time": 192.68436403333334, "velocity": 0.5275590551181102}, {"duration": 0.1367925166666737, "durationTicks": 29, "midi": 66, "name": "F#4", "ticks": 40558, "time": 192.68436403333334, "velocity": 0.6535433070866141}, {"duration": 0.1509434666666607, "durationTicks": 32, "midi": 57, "name": "A3", "ticks": 40680, "time": 193.259836, "velocity": 0.5275590551181102}, {"duration": 0.11320760000000973, "durationTicks": 24, "midi": 62, "name": "D4", "ticks": 40680, "time": 193.259836, "velocity": 0.5748031496062992}, {"duration": 0.14622648333335064, "durationTicks": 31, "midi": 66, "name": "F#4", "ticks": 40680, "time": 193.259836, "velocity": 0.5748031496062992}, {"duration": 0.14150950000001217, "durationTicks": 30, "midi": 57, "name": "A3", "ticks": 40799, "time": 193.82115701666666, "velocity": 0.6062992125984252}, {"duration": 0.11320760000000973, "durationTicks": 24, "midi": 62, "name": "D4", "ticks": 40799, "time": 193.82115701666666, "velocity": 0.5511811023622047}, {"duration": 0.13207553333333522, "durationTicks": 28, "midi": 66, "name": "F#4", "ticks": 40799, "time": 193.82115701666666, "velocity": 0.6771653543307087}, {"duration": 0.15566044999997075, "durationTicks": 33, "midi": 57, "name": "A3", "ticks": 40921, "time": 194.39662898333336, "velocity": 0.6141732283464567}, {"duration": 0.13679251666664527, "durationTicks": 29, "midi": 66, "name": "F#4", "ticks": 40921, "time": 194.39662898333336, "velocity": 0.5984251968503937}, {"duration": 0.10849061666664284, "durationTicks": 23, "midi": 62, "name": "D4", "ticks": 40921, "time": 194.39662898333336, "velocity": 0.6220472440944882}, {"duration": 0.13207553333333522, "durationTicks": 28, "midi": 61, "name": "C#4", "ticks": 41040, "time": 194.95795, "velocity": 0.5984251968503937}, {"duration": 0.16037743333333765, "durationTicks": 34, "midi": 64, "name": "E4", "ticks": 41041, "time": 194.96266698333335, "velocity": 0.6299212598425197}, {"duration": 0.13679251666664527, "durationTicks": 29, "midi": 57, "name": "A3", "ticks": 41041, "time": 194.96266698333335, "velocity": 0.6062992125984252}, {"duration": 0.16037743333333765, "durationTicks": 34, "midi": 64, "name": "E4", "ticks": 41161, "time": 195.52870498333334, "velocity": 0.5433070866141733}, {"duration": 0.14622648333332222, "durationTicks": 31, "midi": 57, "name": "A3", "ticks": 41162, "time": 195.53342196666668, "velocity": 0.5511811023622047}, {"duration": 0.12264156666665826, "durationTicks": 26, "midi": 61, "name": "C#4", "ticks": 41162, "time": 195.53342196666668, "velocity": 0.5511811023622047}, {"duration": 0.12735854999999674, "durationTicks": 27, "midi": 61, "name": "C#4", "ticks": 41281, "time": 196.09474298333333, "velocity": 0.6141732283464567}, {"duration": 0.14150950000001217, "durationTicks": 30, "midi": 57, "name": "A3", "ticks": 41282, "time": 196.09945996666667, "velocity": 0.6141732283464567}, {"duration": 0.1509434666666607, "durationTicks": 32, "midi": 64, "name": "E4", "ticks": 41282, "time": 196.09945996666667, "velocity": 0.5984251968503937}, {"duration": 0.1556604500000276, "durationTicks": 33, "midi": 57, "name": "A3", "ticks": 41401, "time": 196.66078098333332, "velocity": 0.5905511811023622}, {"duration": 0.12264156666668669, "durationTicks": 26, "midi": 61, "name": "C#4", "ticks": 41401, "time": 196.66078098333332, "velocity": 0.5669291338582677}, {"duration": 0.14622648333335064, "durationTicks": 31, "midi": 64, "name": "E4", "ticks": 41401, "time": 196.66078098333332, "velocity": 0.6141732283464567}, {"duration": 0.16037743333333765, "durationTicks": 34, "midi": 57, "name": "A3", "ticks": 41521, "time": 197.22681898333335, "velocity": 0.5196850393700787}, {"duration": 0.17924536666666313, "durationTicks": 38, "midi": 64, "name": "E4", "ticks": 41521, "time": 197.22681898333335, "velocity": 0.5354330708661418}, {"duration": 0.12735854999999674, "durationTicks": 27, "midi": 59, "name": "B3", "ticks": 41522, "time": 197.23153596666668, "velocity": 0.6535433070866141}, {"duration": 0.16037743333333765, "durationTicks": 34, "midi": 57, "name": "A3", "ticks": 41642, "time": 197.79757396666668, "velocity": 0.5511811023622047}, {"duration": 0.1650944166666477, "durationTicks": 35, "midi": 64, "name": "E4", "ticks": 41642, "time": 197.79757396666668, "velocity": 0.5354330708661418}, {"duration": 0.0990566499999943, "durationTicks": 21, "midi": 59, "name": "B3", "ticks": 41642, "time": 197.79757396666668, "velocity": 0.6299212598425197}, {"duration": 0.14622648333332222, "durationTicks": 31, "midi": 59, "name": "B3", "ticks": 41759, "time": 198.34946101666668, "velocity": 0.6141732283464567}, {"duration": 0.1698114000000146, "durationTicks": 36, "midi": 64, "name": "E4", "ticks": 41760, "time": 198.354178, "velocity": 0.6062992125984252}, {"duration": 0.11792458333331979, "durationTicks": 25, "midi": 56, "name": "G#3", "ticks": 41761, "time": 198.35889498333336, "velocity": 0.6771653543307087}, {"duration": 0.11792458333331979, "durationTicks": 25, "midi": 59, "name": "B3", "ticks": 41880, "time": 198.920216, "velocity": 0.5354330708661418}, {"duration": 0.10849061666667126, "durationTicks": 23, "midi": 56, "name": "G#3", "ticks": 41880, "time": 198.920216, "velocity": 0.6692913385826772}, {"duration": 0.14622648333332222, "durationTicks": 31, "midi": 64, "name": "E4", "ticks": 41880, "time": 198.920216, "velocity": 0.5984251968503937}, {"duration": 0.16981139999998618, "durationTicks": 36, "midi": 64, "name": "E4", "ticks": 41998, "time": 199.47682003333335, "velocity": 0.6456692913385826}, {"duration": 0.1698114000000146, "durationTicks": 36, "midi": 57, "name": "A3", "ticks": 41999, "time": 199.48153701666666, "velocity": 0.5669291338582677}, {"duration": 0.1367925166666737, "durationTicks": 29, "midi": 61, "name": "C#4", "ticks": 41999, "time": 199.48153701666666, "velocity": 0.5354330708661418}, {"duration": 0.1698114000000146, "durationTicks": 36, "midi": 64, "name": "E4", "ticks": 42120, "time": 200.052292, "velocity": 0.5984251968503937}, {"duration": 0.15094346666668912, "durationTicks": 32, "midi": 57, "name": "A3", "ticks": 42120, "time": 200.052292, "velocity": 0.5669291338582677}, {"duration": 0.12264156666668669, "durationTicks": 26, "midi": 61, "name": "C#4", "ticks": 42120, "time": 200.052292, "velocity": 0.5433070866141733}, {"duration": 0.15566044999999917, "durationTicks": 33, "midi": 64, "name": "E4", "ticks": 42240, "time": 200.61833000000001, "velocity": 0.5748031496062992}, {"duration": 0.10849061666667126, "durationTicks": 23, "midi": 61, "name": "C#4", "ticks": 42241, "time": 200.62304698333332, "velocity": 0.5669291338582677}, {"duration": 0.12735854999999674, "durationTicks": 27, "midi": 57, "name": "A3", "ticks": 42241, "time": 200.62304698333332, "velocity": 0.6141732283464567}, {"duration": 0.14150950000001217, "durationTicks": 30, "midi": 61, "name": "C#4", "ticks": 42359, "time": 201.17965101666667, "velocity": 0.6062992125984252}, {"duration": 0.16509441666667612, "durationTicks": 35, "midi": 64, "name": "E4", "ticks": 42359, "time": 201.17965101666667, "velocity": 0.6062992125984252}, {"duration": 0.16037743333333765, "durationTicks": 34, "midi": 57, "name": "A3", "ticks": 42360, "time": 201.184368, "velocity": 0.6062992125984252}, {"duration": 0.12264156666665826, "durationTicks": 26, "midi": 57, "name": "A3", "ticks": 42477, "time": 201.73625505, "velocity": 0.5984251968503937}, {"duration": 0.14150950000001217, "durationTicks": 30, "midi": 62, "name": "D4", "ticks": 42478, "time": 201.74097203333332, "velocity": 0.6062992125984252}, {"duration": 0.12735855000002516, "durationTicks": 27, "midi": 54, "name": "F#3", "ticks": 42479, "time": 201.74568901666666, "velocity": 0.5433070866141733}, {"duration": 0.14622648333332222, "durationTicks": 31, "midi": 62, "name": "D4", "ticks": 42598, "time": 202.30701003333334, "velocity": 0.6062992125984252}, {"duration": 0.11320759999998131, "durationTicks": 24, "midi": 57, "name": "A3", "ticks": 42599, "time": 202.31172701666668, "velocity": 0.5748031496062992}, {"duration": 0.1367925166666737, "durationTicks": 29, "midi": 54, "name": "F#3", "ticks": 42599, "time": 202.31172701666668, "velocity": 0.5511811023622047}, {"duration": 0.15566044999999917, "durationTicks": 33, "midi": 62, "name": "D4", "ticks": 42720, "time": 202.882482, "velocity": 0.5590551181102362}, {"duration": 0.15566044999997075, "durationTicks": 33, "midi": 54, "name": "F#3", "ticks": 42721, "time": 202.88719898333335, "velocity": 0.5669291338582677}, {"duration": 0.11792458333331979, "durationTicks": 25, "midi": 57, "name": "A3", "ticks": 42721, "time": 202.88719898333335, "velocity": 0.6141732283464567}, {"duration": 0.14622648333332222, "durationTicks": 31, "midi": 54, "name": "F#3", "ticks": 42840, "time": 203.44852, "velocity": 0.5511811023622047}, {"duration": 0.13207553333333522, "durationTicks": 28, "midi": 57, "name": "A3", "ticks": 42840, "time": 203.44852, "velocity": 0.6299212598425197}, {"duration": 0.14150950000001217, "durationTicks": 30, "midi": 62, "name": "D4", "ticks": 42840, "time": 203.44852, "velocity": 0.6299212598425197}, {"duration": 0.08962268333331735, "durationTicks": 19, "midi": 61, "name": "C#4", "ticks": 42960, "time": 204.01455800000002, "velocity": 0.5905511811023622}, {"duration": 0.10849061666664284, "durationTicks": 23, "midi": 57, "name": "A3", "ticks": 42960, "time": 204.01455800000002, "velocity": 0.5984251968503937}, {"duration": 0.11792458333331979, "durationTicks": 25, "midi": 64, "name": "E4", "ticks": 42960, "time": 204.01455800000002, "velocity": 0.5905511811023622}, {"duration": 0.08962268333331735, "durationTicks": 19, "midi": 61, "name": "C#4", "ticks": 43080, "time": 204.580596, "velocity": 0.5905511811023622}, {"duration": 0.10849061666664284, "durationTicks": 23, "midi": 57, "name": "A3", "ticks": 43080, "time": 204.580596, "velocity": 0.5984251968503937}, {"duration": 0.11792458333331979, "durationTicks": 25, "midi": 64, "name": "E4", "ticks": 43080, "time": 204.580596, "velocity": 0.5905511811023622}, {"duration": 0.10849061666667126, "durationTicks": 23, "midi": 57, "name": "A3", "ticks": 43199, "time": 205.14191701666667, "velocity": 0.6062992125984252}, {"duration": 0.0849057000000073, "durationTicks": 18, "midi": 61, "name": "C#4", "ticks": 43199, "time": 205.14191701666667, "velocity": 0.5748031496062992}, {"duration": 0.11320759999998131, "durationTicks": 24, "midi": 64, "name": "E4", "ticks": 43199, "time": 205.14191701666667, "velocity": 0.5984251968503937}, {"duration": 0.14622648333335064, "durationTicks": 31, "midi": 57, "name": "A3", "ticks": 43320, "time": 205.712672, "velocity": 0.6850393700787402}, {"duration": 0.14622648333335064, "durationTicks": 31, "midi": 64, "name": "E4", "ticks": 43320, "time": 205.712672, "velocity": 0.6141732283464567}, {"duration": 0.08962268333334578, "durationTicks": 19, "midi": 61, "name": "C#4", "ticks": 43320, "time": 205.712672, "velocity": 0.6062992125984252}, {"duration": 0.12264156666662984, "durationTicks": 26, "midi": 62, "name": "D4", "ticks": 43441, "time": 206.28342698333336, "velocity": 0.6141732283464567}, {"duration": 0.08962268333331735, "durationTicks": 19, "midi": 57, "name": "A3", "ticks": 43441, "time": 206.28342698333336, "velocity": 0.6771653543307087}, {"duration": 0.10377363333333278, "durationTicks": 22, "midi": 54, "name": "F#3", "ticks": 43443, "time": 206.29286095, "velocity": 0.5905511811023622}, {"duration": 0.1367925166666737, "durationTicks": 29, "midi": 62, "name": "D4", "ticks": 43558, "time": 206.83531403333333, "velocity": 0.6062992125984252}, {"duration": 0.08018871666666882, "durationTicks": 17, "midi": 57, "name": "A3", "ticks": 43561, "time": 206.84946498333335, "velocity": 0.5984251968503937}, {"duration": 0.10849061666664284, "durationTicks": 23, "midi": 54, "name": "F#3", "ticks": 43563, "time": 206.85889895000003, "velocity": 0.4881889763779528}, {"duration": 0.09905665000002273, "durationTicks": 21, "midi": 59, "name": "B3", "ticks": 43682, "time": 207.42021996666665, "velocity": 0.5984251968503937}, {"duration": 0.10849061666667126, "durationTicks": 23, "midi": 64, "name": "E4", "ticks": 43684, "time": 207.42965393333333, "velocity": 0.5984251968503937}, {"duration": 0.08962268333334578, "durationTicks": 19, "midi": 56, "name": "G#3", "ticks": 43684, "time": 207.42965393333333, "velocity": 0.6299212598425197}, {"duration": 0.14150950000001217, "durationTicks": 30, "midi": 62, "name": "D4", "ticks": 43801, "time": 207.98154098333333, "velocity": 0.6062992125984252}, {"duration": 0.11320759999998131, "durationTicks": 24, "midi": 56, "name": "G#3", "ticks": 43802, "time": 207.98625796666667, "velocity": 0.6456692913385826}, {"duration": 0.10377363333333278, "durationTicks": 22, "midi": 59, "name": "B3", "ticks": 43802, "time": 207.98625796666667, "velocity": 0.5354330708661418}, {"duration": 0.16981139999998618, "durationTicks": 36, "midi": 57, "name": "A3", "ticks": 43920, "time": 208.542862, "velocity": 0.49606299212598426}, {"duration": 0.1320755333333068, "durationTicks": 28, "midi": 61, "name": "C#4", "ticks": 43920, "time": 208.542862, "velocity": 0.5590551181102362}, {"duration": 0.1792453666666347, "durationTicks": 38, "midi": 64, "name": "E4", "ticks": 43920, "time": 208.542862, "velocity": 0.6062992125984252}, {"duration": 0.13207553333333522, "durationTicks": 28, "midi": 61, "name": "C#4", "ticks": 44041, "time": 209.11361698333334, "velocity": 0.5669291338582677}, {"duration": 0.17452838333332465, "durationTicks": 37, "midi": 57, "name": "A3", "ticks": 44042, "time": 209.11833396666668, "velocity": 0.5511811023622047}, {"duration": 0.17452838333332465, "durationTicks": 37, "midi": 64, "name": "E4", "ticks": 44042, "time": 209.11833396666668, "velocity": 0.5905511811023622}, {"duration": 0.1698114000000146, "durationTicks": 36, "midi": 57, "name": "A3", "ticks": 44157, "time": 209.66078705, "velocity": 0.5669291338582677}, {"duration": 0.1367925166666737, "durationTicks": 29, "midi": 61, "name": "C#4", "ticks": 44157, "time": 209.66078705, "velocity": 0.5905511811023622}, {"duration": 0.16509441666670455, "durationTicks": 35, "midi": 64, "name": "E4", "ticks": 44158, "time": 209.66550403333332, "velocity": 0.5748031496062992}, {"duration": 0.17924536666666313, "durationTicks": 38, "midi": 57, "name": "A3", "ticks": 44279, "time": 210.23625901666668, "velocity": 0.5354330708661418}, {"duration": 0.14150949999998375, "durationTicks": 30, "midi": 61, "name": "C#4", "ticks": 44279, "time": 210.23625901666668, "velocity": 0.5433070866141733}, {"duration": 0.1698114000000146, "durationTicks": 36, "midi": 64, "name": "E4", "ticks": 44279, "time": 210.23625901666668, "velocity": 0.5275590551181102}, {"duration": 0.17452838333332465, "durationTicks": 37, "midi": 57, "name": "A3", "ticks": 44399, "time": 210.80229701666667, "velocity": 0.5039370078740157}, {"duration": 0.14150949999998375, "durationTicks": 30, "midi": 59, "name": "B3", "ticks": 44399, "time": 210.80229701666667, "velocity": 0.6062992125984252}, {"duration": 0.18867933333334008, "durationTicks": 40, "midi": 64, "name": "E4", "ticks": 44399, "time": 210.80229701666667, "velocity": 0.5354330708661418}, {"duration": 0.19811330000001703, "durationTicks": 42, "midi": 64, "name": "E4", "ticks": 44520, "time": 211.373052, "velocity": 0.5984251968503937}, {"duration": 0.16037743333333765, "durationTicks": 34, "midi": 57, "name": "A3", "ticks": 44520, "time": 211.373052, "velocity": 0.5748031496062992}, {"duration": 0.10849061666667126, "durationTicks": 23, "midi": 59, "name": "B3", "ticks": 44521, "time": 211.37776898333334, "velocity": 0.6299212598425197}, {"duration": 0.1509434666666607, "durationTicks": 32, "midi": 59, "name": "B3", "ticks": 44640, "time": 211.93909000000002, "velocity": 0.6299212598425197}, {"duration": 0.1367925166666737, "durationTicks": 29, "midi": 56, "name": "G#3", "ticks": 44641, "time": 211.94380698333333, "velocity": 0.6535433070866141}, {"duration": 0.16037743333333765, "durationTicks": 34, "midi": 64, "name": "E4", "ticks": 44641, "time": 211.94380698333333, "velocity": 0.6062992125984252}, {"duration": 0.12264156666665826, "durationTicks": 26, "midi": 59, "name": "B3", "ticks": 44759, "time": 212.50041101666667, "velocity": 0.5196850393700787}, {"duration": 0.12264156666665826, "durationTicks": 26, "midi": 56, "name": "G#3", "ticks": 44760, "time": 212.505128, "velocity": 0.6141732283464567}, {"duration": 0.14150950000001217, "durationTicks": 30, "midi": 64, "name": "E4", "ticks": 44761, "time": 212.50984498333332, "velocity": 0.6062992125984252}, {"duration": 0.16037743333330923, "durationTicks": 34, "midi": 57, "name": "A3", "ticks": 44877, "time": 213.05701505000002, "velocity": 0.5748031496062992}, {"duration": 0.12735854999999674, "durationTicks": 27, "midi": 61, "name": "C#4", "ticks": 44878, "time": 213.06173203333333, "velocity": 0.5118110236220472}, {"duration": 0.15566044999999917, "durationTicks": 33, "midi": 64, "name": "E4", "ticks": 44878, "time": 213.06173203333333, "velocity": 0.5196850393700787}, {"duration": 0.1556604500000276, "durationTicks": 33, "midi": 64, "name": "E4", "ticks": 45000, "time": 213.637204, "velocity": 0.6062992125984252}, {"duration": 0.1367925166666737, "durationTicks": 29, "midi": 57, "name": "A3", "ticks": 45000, "time": 213.637204, "velocity": 0.5511811023622047}, {"duration": 0.11792458333334821, "durationTicks": 25, "midi": 61, "name": "C#4", "ticks": 45000, "time": 213.637204, "velocity": 0.5354330708661418}, {"duration": 0.1509434666666607, "durationTicks": 32, "midi": 64, "name": "E4", "ticks": 45119, "time": 214.19852501666668, "velocity": 0.6692913385826772}, {"duration": 0.11792458333334821, "durationTicks": 25, "midi": 61, "name": "C#4", "ticks": 45120, "time": 214.203242, "velocity": 0.5905511811023622}, {"duration": 0.1367925166666737, "durationTicks": 29, "midi": 57, "name": "A3", "ticks": 45120, "time": 214.203242, "velocity": 0.6220472440944882}, {"duration": 0.1698114000000146, "durationTicks": 36, "midi": 64, "name": "E4", "ticks": 45239, "time": 214.76456301666667, "velocity": 0.5118110236220472}, {"duration": 0.1367925166666737, "durationTicks": 29, "midi": 61, "name": "C#4", "ticks": 45240, "time": 214.76928, "velocity": 0.5039370078740157}, {"duration": 0.13207553333333522, "durationTicks": 28, "midi": 57, "name": "A3", "ticks": 45241, "time": 214.77399698333335, "velocity": 0.47244094488188976}, {"duration": 0.14622648333332222, "durationTicks": 31, "midi": 57, "name": "A3", "ticks": 45358, "time": 215.32588403333335, "velocity": 0.5039370078740157}, {"duration": 0.11792458333331979, "durationTicks": 25, "midi": 62, "name": "D4", "ticks": 45358, "time": 215.32588403333335, "velocity": 0.5275590551181102}, {"duration": 0.13679251666664527, "durationTicks": 29, "midi": 66, "name": "F#4", "ticks": 45358, "time": 215.32588403333335, "velocity": 0.6535433070866141}, {"duration": 0.1509434666666607, "durationTicks": 32, "midi": 57, "name": "A3", "ticks": 45480, "time": 215.90135600000002, "velocity": 0.5275590551181102}, {"duration": 0.11320759999998131, "durationTicks": 24, "midi": 62, "name": "D4", "ticks": 45480, "time": 215.90135600000002, "velocity": 0.5748031496062992}, {"duration": 0.1462264833332938, "durationTicks": 31, "midi": 66, "name": "F#4", "ticks": 45480, "time": 215.90135600000002, "velocity": 0.5748031496062992}, {"duration": 0.14150950000001217, "durationTicks": 30, "midi": 57, "name": "A3", "ticks": 45599, "time": 216.46267701666667, "velocity": 0.6062992125984252}, {"duration": 0.11320759999998131, "durationTicks": 24, "midi": 62, "name": "D4", "ticks": 45599, "time": 216.46267701666667, "velocity": 0.5511811023622047}, {"duration": 0.13207553333333522, "durationTicks": 28, "midi": 66, "name": "F#4", "ticks": 45599, "time": 216.46267701666667, "velocity": 0.6771653543307087}, {"duration": 0.1556604500000276, "durationTicks": 33, "midi": 57, "name": "A3", "ticks": 45721, "time": 217.03814898333331, "velocity": 0.6141732283464567}, {"duration": 0.1367925166666737, "durationTicks": 29, "midi": 66, "name": "F#4", "ticks": 45721, "time": 217.03814898333331, "velocity": 0.5984251968503937}, {"duration": 0.10849061666669968, "durationTicks": 23, "midi": 62, "name": "D4", "ticks": 45721, "time": 217.03814898333331, "velocity": 0.6220472440944882}, {"duration": 0.13207553333333522, "durationTicks": 28, "midi": 61, "name": "C#4", "ticks": 45840, "time": 217.59947, "velocity": 0.5984251968503937}, {"duration": 0.16037743333333765, "durationTicks": 34, "midi": 64, "name": "E4", "ticks": 45841, "time": 217.60418698333334, "velocity": 0.6299212598425197}, {"duration": 0.1367925166666737, "durationTicks": 29, "midi": 57, "name": "A3", "ticks": 45841, "time": 217.60418698333334, "velocity": 0.6062992125984252}, {"duration": 0.16037743333330923, "durationTicks": 34, "midi": 64, "name": "E4", "ticks": 45961, "time": 218.17022498333336, "velocity": 0.5433070866141733}, {"duration": 0.14622648333335064, "durationTicks": 31, "midi": 57, "name": "A3", "ticks": 45962, "time": 218.17494196666667, "velocity": 0.5511811023622047}, {"duration": 0.12264156666668669, "durationTicks": 26, "midi": 61, "name": "C#4", "ticks": 45962, "time": 218.17494196666667, "velocity": 0.5511811023622047}, {"duration": 0.12735854999999674, "durationTicks": 27, "midi": 61, "name": "C#4", "ticks": 46081, "time": 218.73626298333335, "velocity": 0.6141732283464567}, {"duration": 0.14150950000001217, "durationTicks": 30, "midi": 57, "name": "A3", "ticks": 46082, "time": 218.74097996666669, "velocity": 0.6141732283464567}, {"duration": 0.15094346666663228, "durationTicks": 32, "midi": 64, "name": "E4", "ticks": 46082, "time": 218.74097996666669, "velocity": 0.5984251968503937}, {"duration": 0.15566044999999917, "durationTicks": 33, "midi": 57, "name": "A3", "ticks": 46201, "time": 219.30230098333334, "velocity": 0.5905511811023622}, {"duration": 0.12264156666665826, "durationTicks": 26, "midi": 61, "name": "C#4", "ticks": 46201, "time": 219.30230098333334, "velocity": 0.5669291338582677}, {"duration": 0.14622648333335064, "durationTicks": 31, "midi": 64, "name": "E4", "ticks": 46201, "time": 219.30230098333334, "velocity": 0.6141732283464567}, {"duration": 0.16037743333333765, "durationTicks": 34, "midi": 57, "name": "A3", "ticks": 46321, "time": 219.86833898333333, "velocity": 0.5196850393700787}, {"duration": 0.17924536666666313, "durationTicks": 38, "midi": 64, "name": "E4", "ticks": 46321, "time": 219.86833898333333, "velocity": 0.5354330708661418}, {"duration": 0.12735854999999674, "durationTicks": 27, "midi": 59, "name": "B3", "ticks": 46322, "time": 219.8730559666667, "velocity": 0.6535433070866141}, {"duration": 0.16037743333333765, "durationTicks": 34, "midi": 57, "name": "A3", "ticks": 46442, "time": 220.4390939666667, "velocity": 0.5511811023622047}, {"duration": 0.1650944166666477, "durationTicks": 35, "midi": 64, "name": "E4", "ticks": 46442, "time": 220.4390939666667, "velocity": 0.5354330708661418}, {"duration": 0.09905664999996588, "durationTicks": 21, "midi": 59, "name": "B3", "ticks": 46442, "time": 220.4390939666667, "velocity": 0.6299212598425197}, {"duration": 0.1462264833332938, "durationTicks": 31, "midi": 59, "name": "B3", "ticks": 46559, "time": 220.9909810166667, "velocity": 0.6141732283464567}, {"duration": 0.1698114000000146, "durationTicks": 36, "midi": 64, "name": "E4", "ticks": 46560, "time": 220.995698, "velocity": 0.6062992125984252}, {"duration": 0.11792458333337663, "durationTicks": 25, "midi": 56, "name": "G#3", "ticks": 46561, "time": 221.00041498333331, "velocity": 0.6771653543307087}, {"duration": 0.11792458333334821, "durationTicks": 25, "midi": 59, "name": "B3", "ticks": 46680, "time": 221.561736, "velocity": 0.5354330708661418}, {"duration": 0.10849061666667126, "durationTicks": 23, "midi": 56, "name": "G#3", "ticks": 46680, "time": 221.561736, "velocity": 0.6692913385826772}, {"duration": 0.14622648333335064, "durationTicks": 31, "midi": 64, "name": "E4", "ticks": 46680, "time": 221.561736, "velocity": 0.5984251968503937}, {"duration": 0.1698114000000146, "durationTicks": 36, "midi": 64, "name": "E4", "ticks": 46798, "time": 222.1183400333333, "velocity": 0.6456692913385826}, {"duration": 0.16981139999998618, "durationTicks": 36, "midi": 57, "name": "A3", "ticks": 46799, "time": 222.12305701666668, "velocity": 0.5669291338582677}, {"duration": 0.1367925166666737, "durationTicks": 29, "midi": 61, "name": "C#4", "ticks": 46799, "time": 222.12305701666668, "velocity": 0.5354330708661418}, {"duration": 0.16981139999998618, "durationTicks": 36, "midi": 64, "name": "E4", "ticks": 46920, "time": 222.693812, "velocity": 0.5984251968503937}, {"duration": 0.15094346666668912, "durationTicks": 32, "midi": 57, "name": "A3", "ticks": 46920, "time": 222.693812, "velocity": 0.5669291338582677}, {"duration": 0.12264156666665826, "durationTicks": 26, "midi": 61, "name": "C#4", "ticks": 46920, "time": 222.693812, "velocity": 0.5433070866141733}, {"duration": 0.15566044999999917, "durationTicks": 33, "midi": 64, "name": "E4", "ticks": 47040, "time": 223.25985, "velocity": 0.5748031496062992}, {"duration": 0.10849061666664284, "durationTicks": 23, "midi": 61, "name": "C#4", "ticks": 47041, "time": 223.26456698333334, "velocity": 0.5669291338582677}, {"duration": 0.12735854999999674, "durationTicks": 27, "midi": 57, "name": "A3", "ticks": 47041, "time": 223.26456698333334, "velocity": 0.6141732283464567}, {"duration": 0.14150950000001217, "durationTicks": 30, "midi": 61, "name": "C#4", "ticks": 47159, "time": 223.82117101666668, "velocity": 0.6062992125984252}, {"duration": 0.16509441666667612, "durationTicks": 35, "midi": 64, "name": "E4", "ticks": 47159, "time": 223.82117101666668, "velocity": 0.6062992125984252}, {"duration": 0.16037743333333765, "durationTicks": 34, "midi": 57, "name": "A3", "ticks": 47160, "time": 223.82588800000002, "velocity": 0.6062992125984252}, {"duration": 0.12264156666665826, "durationTicks": 26, "midi": 57, "name": "A3", "ticks": 47277, "time": 224.37777505, "velocity": 0.5984251968503937}, {"duration": 0.14150949999998375, "durationTicks": 30, "midi": 62, "name": "D4", "ticks": 47278, "time": 224.38249203333334, "velocity": 0.6062992125984252}, {"duration": 0.12735854999999674, "durationTicks": 27, "midi": 54, "name": "F#3", "ticks": 47279, "time": 224.38720901666667, "velocity": 0.5433070866141733}, {"duration": 0.14622648333335064, "durationTicks": 31, "midi": 62, "name": "D4", "ticks": 47398, "time": 224.94853003333333, "velocity": 0.6062992125984252}, {"duration": 0.11320759999998131, "durationTicks": 24, "midi": 57, "name": "A3", "ticks": 47399, "time": 224.9532470166667, "velocity": 0.5748031496062992}, {"duration": 0.13679251666661685, "durationTicks": 29, "midi": 54, "name": "F#3", "ticks": 47399, "time": 224.9532470166667, "velocity": 0.5511811023622047}, {"duration": 0.1556604500000276, "durationTicks": 33, "midi": 62, "name": "D4", "ticks": 47520, "time": 225.524002, "velocity": 0.5590551181102362}, {"duration": 0.15566044999999917, "durationTicks": 33, "midi": 54, "name": "F#3", "ticks": 47521, "time": 225.52871898333333, "velocity": 0.5669291338582677}, {"duration": 0.11792458333334821, "durationTicks": 25, "midi": 57, "name": "A3", "ticks": 47521, "time": 225.52871898333333, "velocity": 0.6141732283464567}, {"duration": 0.14622648333335064, "durationTicks": 31, "midi": 54, "name": "F#3", "ticks": 47640, "time": 226.09004, "velocity": 0.5511811023622047}, {"duration": 0.13207553333336364, "durationTicks": 28, "midi": 57, "name": "A3", "ticks": 47640, "time": 226.09004, "velocity": 0.6299212598425197}, {"duration": 0.14150950000001217, "durationTicks": 30, "midi": 62, "name": "D4", "ticks": 47640, "time": 226.09004, "velocity": 0.6299212598425197}, {"duration": 0.08962268333331735, "durationTicks": 19, "midi": 61, "name": "C#4", "ticks": 47760, "time": 226.656078, "velocity": 0.5905511811023622}, {"duration": 0.10849061666667126, "durationTicks": 23, "midi": 57, "name": "A3", "ticks": 47760, "time": 226.656078, "velocity": 0.5984251968503937}, {"duration": 0.11792458333334821, "durationTicks": 25, "midi": 64, "name": "E4", "ticks": 47760, "time": 226.656078, "velocity": 0.5905511811023622}, {"duration": 0.08962268333334578, "durationTicks": 19, "midi": 61, "name": "C#4", "ticks": 47880, "time": 227.222116, "velocity": 0.5905511811023622}, {"duration": 0.10849061666667126, "durationTicks": 23, "midi": 57, "name": "A3", "ticks": 47880, "time": 227.222116, "velocity": 0.5984251968503937}, {"duration": 0.11792458333334821, "durationTicks": 25, "midi": 64, "name": "E4", "ticks": 47880, "time": 227.222116, "velocity": 0.5905511811023622}, {"duration": 0.10849061666667126, "durationTicks": 23, "midi": 57, "name": "A3", "ticks": 47999, "time": 227.78343701666668, "velocity": 0.6062992125984252}, {"duration": 0.0849057000000073, "durationTicks": 18, "midi": 61, "name": "C#4", "ticks": 47999, "time": 227.78343701666668, "velocity": 0.5748031496062992}, {"duration": 0.11320759999998131, "durationTicks": 24, "midi": 64, "name": "E4", "ticks": 47999, "time": 227.78343701666668, "velocity": 0.5984251968503937}, {"duration": 0.14622648333332222, "durationTicks": 31, "midi": 57, "name": "A3", "ticks": 48120, "time": 228.354192, "velocity": 0.6850393700787402}, {"duration": 0.14622648333332222, "durationTicks": 31, "midi": 64, "name": "E4", "ticks": 48120, "time": 228.354192, "velocity": 0.6141732283464567}, {"duration": 0.08962268333334578, "durationTicks": 19, "midi": 61, "name": "C#4", "ticks": 48120, "time": 228.354192, "velocity": 0.6062992125984252}, {"duration": 0.12735854999999674, "durationTicks": 27, "midi": 54, "name": "F#3", "ticks": 48244, "time": 228.93909793333336, "velocity": 0.6850393700787402}, {"duration": 0.08962268333331735, "durationTicks": 19, "midi": 57, "name": "A3", "ticks": 48244, "time": 228.93909793333336, "velocity": 0.6535433070866141}, {"duration": 0.11792458333331979, "durationTicks": 25, "midi": 62, "name": "D4", "ticks": 48244, "time": 228.93909793333336, "velocity": 0.6929133858267716}, {"duration": 0.14622648333335064, "durationTicks": 31, "midi": 62, "name": "D4", "ticks": 48362, "time": 229.49570196666667, "velocity": 0.6377952755905512}, {"duration": 0.0990566499999943, "durationTicks": 21, "midi": 57, "name": "A3", "ticks": 48362, "time": 229.49570196666667, "velocity": 0.6535433070866141}, {"duration": 0.11792458333331979, "durationTicks": 25, "midi": 54, "name": "F#3", "ticks": 48363, "time": 229.50041895, "velocity": 0.5433070866141733}, {"duration": 0.0990566499999943, "durationTicks": 21, "midi": 59, "name": "B3", "ticks": 48481, "time": 230.05702298333335, "velocity": 0.5118110236220472}, {"duration": 0.0990566499999943, "durationTicks": 21, "midi": 56, "name": "G#3", "ticks": 48481, "time": 230.05702298333335, "velocity": 0.6299212598425197}, {"duration": 0.1320755333333068, "durationTicks": 28, "midi": 64, "name": "E4", "ticks": 48481, "time": 230.05702298333335, "velocity": 0.6141732283464567}, {"duration": 0.11792458333334821, "durationTicks": 25, "midi": 59, "name": "B3", "ticks": 48600, "time": 230.618344, "velocity": 0.6141732283464567}, {"duration": 0.11320759999998131, "durationTicks": 24, "midi": 56, "name": "G#3", "ticks": 48600, "time": 230.618344, "velocity": 0.6692913385826772}, {"duration": 0.14150950000001217, "durationTicks": 30, "midi": 64, "name": "E4", "ticks": 48600, "time": 230.618344, "velocity": 0.6141732283464567}]}, {"channel": 0, "controlChanges": {"0": [{"number": 0, "ticks": 145, "time": 0.6839625833333334, "value": 0}], "6": [{"number": 6, "ticks": 137, "time": 0.6462267166666666, "value": 0.015748031496062992}], "91": [{"number": 91, "ticks": 140, "time": 0.6603776666666668, "value": 0.7874015748031497}], "93": [{"number": 93, "ticks": 141, "time": 0.6650946500000001, "value": 0.31496062992125984}], "100": [{"number": 100, "ticks": 135, "time": 0.63679275, "value": 0}], "101": [{"number": 101, "ticks": 136, "time": 0.6415097333333334, "value": 0}], "121": [{"number": 121, "ticks": 131, "time": 0.6179248166666667, "value": 0}]}, "pitchBends": [], "instrument": {"family": "piano", "number": 0, "name": "acoustic grand piano"}, "name": "ChoirAah", "notes": [], "endOfTrackTicks": 48714}, {"channel": 5, "controlChanges": {"7": [{"number": 7, "ticks": 148, "time": 0.6981135333333334, "value": 0.7086614173228346}], "10": [{"number": 10, "ticks": 148, "time": 0.6981135333333334, "value": 0.3937007874015748}]}, "pitchBends": [], "instrument": {"family": "ensemble", "number": 52, "name": "choir aahs"}, "name": "", "notes": [{"duration": 2.2358500999999933, "durationTicks": 474, "midi": 67, "name": "G4", "ticks": 21122, "time": 99.63212196666669, "velocity": 0.7874015748031497}, {"duration": 2.17452931666665, "durationTicks": 461, "midi": 71, "name": "B4", "ticks": 21122, "time": 99.63212196666669, "velocity": 0.7716535433070866}, {"duration": 2.160378366666663, "durationTicks": 458, "midi": 62, "name": "D4", "ticks": 21123, "time": 99.63683895000001, "velocity": 0.7480314960629921}, {"duration": 1.1226420333333493, "durationTicks": 238, "midi": 71, "name": "B4", "ticks": 21601, "time": 101.89155698333333, "velocity": 0.7559055118110236}, {"duration": 2.2358501000000217, "durationTicks": 474, "midi": 66, "name": "F#4", "ticks": 21601, "time": 101.89155698333333, "velocity": 0.7952755905511811}, {"duration": 2.231133116666669, "durationTicks": 473, "midi": 62, "name": "D4", "ticks": 21602, "time": 101.89627396666668, "velocity": 0.7952755905511811}, {"duration": 0.3915096166666814, "durationTicks": 83, "midi": 69, "name": "A4", "ticks": 21834, "time": 102.9906141, "velocity": 0.8582677165354331}, {"duration": 0.3820756499999902, "durationTicks": 81, "midi": 72, "name": "C5", "ticks": 21917, "time": 103.38212371666668, "velocity": 0.8582677165354331}, {"duration": 0.3254718500000138, "durationTicks": 69, "midi": 71, "name": "B4", "ticks": 21999, "time": 103.76891635, "velocity": 0.84251968503937}, {"duration": 4.4669832166666765, "durationTicks": 947, "midi": 67, "name": "G4", "ticks": 22073, "time": 104.11797311666668, "velocity": 0.7952755905511811}, {"duration": 4.448115283333323, "durationTicks": 943, "midi": 64, "name": "E4", "ticks": 22075, "time": 104.12740708333335, "velocity": 0.8110236220472441}, {"duration": 2.3207558000000006, "durationTicks": 492, "midi": 59, "name": "B3", "ticks": 22076, "time": 104.13212406666668, "velocity": 0.7322834645669292}, {"duration": 2.1415104333333232, "durationTicks": 454, "midi": 60, "name": "C4", "ticks": 22560, "time": 106.41514400000001, "velocity": 0.7165354330708661}, {"duration": 2.2641519999999957, "durationTicks": 480, "midi": 67, "name": "G4", "ticks": 23037, "time": 108.66514505, "velocity": 0.7559055118110236}, {"duration": 2.2358501000000075, "durationTicks": 474, "midi": 59, "name": "B3", "ticks": 23038, "time": 108.66986203333333, "velocity": 0.7637795275590551}, {"duration": 2.2216991500000063, "durationTicks": 471, "midi": 62, "name": "D4", "ticks": 23038, "time": 108.66986203333333, "velocity": 0.7322834645669292}, {"duration": 0.34905676666667773, "durationTicks": 74, "midi": 69, "name": "A4", "ticks": 23517, "time": 110.92929705, "velocity": 0.84251968503937}, {"duration": 1.1132080666666582, "durationTicks": 236, "midi": 64, "name": "E4", "ticks": 23521, "time": 110.94816498333334, "velocity": 0.7086614173228346}, {"duration": 1.0518872833333432, "durationTicks": 223, "midi": 55, "name": "G3", "ticks": 23521, "time": 110.94816498333334, "velocity": 0.6141732283464567}, {"duration": 1.1132080666666582, "durationTicks": 236, "midi": 60, "name": "C4", "ticks": 23521, "time": 110.94816498333334, "velocity": 0.7086614173228346}, {"duration": 0.34905676666667773, "durationTicks": 74, "midi": 72, "name": "C5", "ticks": 23592, "time": 111.2830708, "velocity": 0.8582677165354331}, {"duration": 0.37735866666666595, "durationTicks": 80, "midi": 71, "name": "B4", "ticks": 23670, "time": 111.65099550000001, "velocity": 0.9133858267716536}, {"duration": 0.36320771666666474, "durationTicks": 77, "midi": 69, "name": "A4", "ticks": 23750, "time": 112.02835416666667, "velocity": 0.8582677165354331}, {"duration": 0.698113533333327, "durationTicks": 148, "midi": 66, "name": "F#4", "ticks": 23759, "time": 112.07080701666668, "velocity": 0.7086614173228346}, {"duration": 2.1792463000000026, "durationTicks": 462, "midi": 57, "name": "A3", "ticks": 23760, "time": 112.075524, "velocity": 0.6456692913385826}, {"duration": 2.1792463000000026, "durationTicks": 462, "midi": 62, "name": "D4", "ticks": 23760, "time": 112.075524, "velocity": 0.7086614173228346}, {"duration": 0.4056605666666684, "durationTicks": 86, "midi": 67, "name": "G4", "ticks": 23831, "time": 112.41042981666668, "velocity": 0.8188976377952756}, {"duration": 1.3867930999999913, "durationTicks": 294, "midi": 66, "name": "F#4", "ticks": 23913, "time": 112.79722245, "velocity": 0.7322834645669292}, {"duration": 1.1839628166666785, "durationTicks": 251, "midi": 62, "name": "D4", "ticks": 34317, "time": 163.24567105, "velocity": 0.8740157480314961}, {"duration": 2.216982166666668, "durationTicks": 470, "midi": 67, "name": "G4", "ticks": 34557, "time": 164.37774705, "velocity": 0.889763779527559}, {"duration": 0.5801889500000073, "durationTicks": 123, "midi": 66, "name": "F#4", "ticks": 35037, "time": 166.64189905, "velocity": 0.84251968503937}, {"duration": 0.6226417999999967, "durationTicks": 132, "midi": 69, "name": "A4", "ticks": 35157, "time": 167.20793705, "velocity": 0.9133858267716536}, {"duration": 3.9622659999999996, "durationTicks": 840, "midi": 67, "name": "G4", "ticks": 35277, "time": 167.77397505, "velocity": 0.9606299212598425}, {"duration": 0.4858492833333514, "durationTicks": 103, "midi": 69, "name": "A4", "ticks": 36117, "time": 171.73624105, "velocity": 1}, {"duration": 2.160378366666663, "durationTicks": 458, "midi": 74, "name": "D5", "ticks": 36237, "time": 172.30227905, "velocity": 0.7952755905511811}, {"duration": 2.2358500999999933, "durationTicks": 474, "midi": 67, "name": "G4", "ticks": 36242, "time": 172.32586396666667, "velocity": 0.7874015748031497}, {"duration": 2.17452931666665, "durationTicks": 461, "midi": 71, "name": "B4", "ticks": 36242, "time": 172.32586396666667, "velocity": 0.7716535433070866}, {"duration": 1.1320759999999837, "durationTicks": 240, "midi": 74, "name": "D5", "ticks": 36717, "time": 174.56643105, "velocity": 0.7952755905511811}, {"duration": 1.1226420333333351, "durationTicks": 238, "midi": 71, "name": "B4", "ticks": 36721, "time": 174.58529898333333, "velocity": 0.7559055118110236}, {"duration": 2.2358501000000217, "durationTicks": 474, "midi": 66, "name": "F#4", "ticks": 36721, "time": 174.58529898333333, "velocity": 0.7952755905511811}, {"duration": 0.39150961666666717, "durationTicks": 83, "midi": 69, "name": "A4", "ticks": 36954, "time": 175.6843561, "velocity": 0.8582677165354331}, {"duration": 0.3349058166666907, "durationTicks": 71, "midi": 72, "name": "C5", "ticks": 36957, "time": 175.69850705, "velocity": 0.8582677165354331}, {"duration": 0.3820756499999902, "durationTicks": 81, "midi": 72, "name": "C5", "ticks": 37037, "time": 176.07586571666667, "velocity": 0.8582677165354331}, {"duration": 0.3254718500000138, "durationTicks": 69, "midi": 71, "name": "B4", "ticks": 37119, "time": 176.46265835, "velocity": 0.84251968503937}, {"duration": 4.466983216666648, "durationTicks": 947, "midi": 67, "name": "G4", "ticks": 37193, "time": 176.81171511666668, "velocity": 0.7952755905511811}, {"duration": 4.448115283333323, "durationTicks": 943, "midi": 64, "name": "E4", "ticks": 37195, "time": 176.82114908333335, "velocity": 0.8110236220472441}, {"duration": 2.3207558000000006, "durationTicks": 492, "midi": 59, "name": "B3", "ticks": 37196, "time": 176.82586606666666, "velocity": 0.7322834645669292}, {"duration": 2.141510433333309, "durationTicks": 454, "midi": 60, "name": "C4", "ticks": 37680, "time": 179.108886, "velocity": 0.7165354330708661}, {"duration": 2.2641519999999957, "durationTicks": 480, "midi": 67, "name": "G4", "ticks": 38157, "time": 181.35888705, "velocity": 0.7559055118110236}, {"duration": 2.2358500999999933, "durationTicks": 474, "midi": 59, "name": "B3", "ticks": 38158, "time": 181.36360403333333, "velocity": 0.7637795275590551}, {"duration": 2.2216991500000063, "durationTicks": 471, "midi": 62, "name": "D4", "ticks": 38158, "time": 181.36360403333333, "velocity": 0.7322834645669292}, {"duration": 0.34905676666667773, "durationTicks": 74, "midi": 69, "name": "A4", "ticks": 38637, "time": 183.62303905, "velocity": 0.84251968503937}, {"duration": 1.1132080666666582, "durationTicks": 236, "midi": 64, "name": "E4", "ticks": 38641, "time": 183.64190698333334, "velocity": 0.7086614173228346}, {"duration": 1.0518872833333148, "durationTicks": 223, "midi": 55, "name": "G3", "ticks": 38641, "time": 183.64190698333334, "velocity": 0.6141732283464567}, {"duration": 1.1132080666666582, "durationTicks": 236, "midi": 60, "name": "C4", "ticks": 38641, "time": 183.64190698333334, "velocity": 0.7086614173228346}, {"duration": 0.3490567666666493, "durationTicks": 74, "midi": 72, "name": "C5", "ticks": 38712, "time": 183.9768128, "velocity": 0.8582677165354331}, {"duration": 0.37735866666668016, "durationTicks": 80, "midi": 71, "name": "B4", "ticks": 38790, "time": 184.3447375, "velocity": 0.9133858267716536}, {"duration": 0.3632077166666363, "durationTicks": 77, "midi": 69, "name": "A4", "ticks": 38870, "time": 184.7220961666667, "velocity": 0.8582677165354331}, {"duration": 0.6981135333333555, "durationTicks": 148, "midi": 66, "name": "F#4", "ticks": 38879, "time": 184.76454901666665, "velocity": 0.7086614173228346}, {"duration": 1.1037740999999812, "durationTicks": 234, "midi": 57, "name": "A3", "ticks": 38880, "time": 184.76926600000002, "velocity": 0.6456692913385826}, {"duration": 1.0990571166666427, "durationTicks": 233, "midi": 62, "name": "D4", "ticks": 38880, "time": 184.76926600000002, "velocity": 0.7086614173228346}, {"duration": 0.4056605666666542, "durationTicks": 86, "midi": 67, "name": "G4", "ticks": 38951, "time": 185.10417181666668, "velocity": 0.8188976377952756}, {"duration": 0.3820756499999902, "durationTicks": 81, "midi": 66, "name": "F#4", "ticks": 39033, "time": 185.49096445, "velocity": 0.7322834645669292}, {"duration": 2.231133116666655, "durationTicks": 473, "midi": 61, "name": "C#4", "ticks": 39117, "time": 185.88719105, "velocity": 0.8740157480314961}, {"duration": 2.231133116666655, "durationTicks": 473, "midi": 69, "name": "A4", "ticks": 39117, "time": 185.88719105, "velocity": 0.84251968503937}, {"duration": 2.231133116666655, "durationTicks": 473, "midi": 64, "name": "E4", "ticks": 39117, "time": 185.88719105, "velocity": 0.8740157480314961}, {"duration": 1.155660916666676, "durationTicks": 245, "midi": 69, "name": "A4", "ticks": 39597, "time": 188.15134305, "velocity": 0.8346456692913385}, {"duration": 2.231133116666655, "durationTicks": 473, "midi": 59, "name": "B3", "ticks": 39597, "time": 188.15134305, "velocity": 0.8110236220472441}, {"duration": 2.2452840666666702, "durationTicks": 476, "midi": 64, "name": "E4", "ticks": 39597, "time": 188.15134305, "velocity": 0.8110236220472441}, {"duration": 1.0471703000000048, "durationTicks": 222, "midi": 68, "name": "G#4", "ticks": 39837, "time": 189.28341905, "velocity": 0.7952755905511811}, {"duration": 2.2500010500000087, "durationTicks": 477, "midi": 57, "name": "A3", "ticks": 40077, "time": 190.41549505, "velocity": 0.8031496062992126}, {"duration": 2.2641519999999957, "durationTicks": 480, "midi": 61, "name": "C#4", "ticks": 40077, "time": 190.41549505, "velocity": 0.8031496062992126}, {"duration": 3.8537753833333284, "durationTicks": 817, "midi": 66, "name": "F#4", "ticks": 40077, "time": 190.41549505, "velocity": 0.8031496062992126}, {"duration": 3.8537753833333284, "durationTicks": 817, "midi": 69, "name": "A4", "ticks": 40077, "time": 190.41549505, "velocity": 0.7952755905511811}, {"duration": 1.603774333333348, "durationTicks": 340, "midi": 62, "name": "D4", "ticks": 40557, "time": 192.67964705, "velocity": 0.8031496062992126}, {"duration": 2.2641519999999957, "durationTicks": 480, "midi": 57, "name": "A3", "ticks": 40557, "time": 192.67964705, "velocity": 0.8031496062992126}, {"duration": 0.6603776666666477, "durationTicks": 140, "midi": 62, "name": "D4", "ticks": 40897, "time": 194.28342138333335, "velocity": 0.8031496062992126}, {"duration": 0.6603776666666477, "durationTicks": 140, "midi": 71, "name": "B4", "ticks": 40897, "time": 194.28342138333335, "velocity": 0.7952755905511811}, {"duration": 0.6603776666666477, "durationTicks": 140, "midi": 66, "name": "F#4", "ticks": 40897, "time": 194.28342138333335, "velocity": 0.8031496062992126}, {"duration": 2.2641519999999957, "durationTicks": 480, "midi": 57, "name": "A3", "ticks": 41037, "time": 194.94379905, "velocity": 0.7952755905511811}, {"duration": 2.2500010500000087, "durationTicks": 477, "midi": 64, "name": "E4", "ticks": 41037, "time": 194.94379905, "velocity": 0.7952755905511811}, {"duration": 2.2358501000000217, "durationTicks": 474, "midi": 69, "name": "A4", "ticks": 41042, "time": 194.96738396666666, "velocity": 0.7874015748031497}, {"duration": 3.372643083333344, "durationTicks": 715, "midi": 73, "name": "C#5", "ticks": 41042, "time": 194.96738396666666, "velocity": 0.7716535433070866}, {"duration": 2.2641519999999957, "durationTicks": 480, "midi": 64, "name": "E4", "ticks": 41517, "time": 197.20795105, "velocity": 0.7952755905511811}, {"duration": 2.278302950000011, "durationTicks": 483, "midi": 56, "name": "G#3", "ticks": 41517, "time": 197.20795105, "velocity": 0.7952755905511811}, {"duration": 2.2358500999999933, "durationTicks": 474, "midi": 68, "name": "G#4", "ticks": 41521, "time": 197.22681898333335, "velocity": 0.7952755905511811}, {"duration": 0.39150961666666717, "durationTicks": 83, "midi": 71, "name": "B4", "ticks": 41754, "time": 198.32587610000002, "velocity": 0.8582677165354331}, {"duration": 0.3820756499999902, "durationTicks": 81, "midi": 74, "name": "D5", "ticks": 41837, "time": 198.71738571666668, "velocity": 0.8582677165354331}, {"duration": 0.32547184999998535, "durationTicks": 69, "midi": 73, "name": "C#5", "ticks": 41919, "time": 199.10417835, "velocity": 0.84251968503937}, {"duration": 4.4669832166666765, "durationTicks": 947, "midi": 69, "name": "A4", "ticks": 41993, "time": 199.45323511666666, "velocity": 0.7952755905511811}, {"duration": 4.448115283333323, "durationTicks": 943, "midi": 66, "name": "F#4", "ticks": 41995, "time": 199.46266908333334, "velocity": 0.8110236220472441}, {"duration": 2.3207558000000006, "durationTicks": 492, "midi": 61, "name": "C#4", "ticks": 41996, "time": 199.46738606666668, "velocity": 0.7322834645669292}, {"duration": 4.433964333333336, "durationTicks": 940, "midi": 54, "name": "F#3", "ticks": 41997, "time": 199.47210305, "velocity": 0.7952755905511811}, {"duration": 2.1415104333333375, "durationTicks": 454, "midi": 62, "name": "D4", "ticks": 42480, "time": 201.750406, "velocity": 0.7165354330708661}, {"duration": 2.2358500999999933, "durationTicks": 474, "midi": 57, "name": "A3", "ticks": 42957, "time": 204.00040705, "velocity": 0.7637795275590551}, {"duration": 2.2641519999999957, "durationTicks": 480, "midi": 69, "name": "A4", "ticks": 42957, "time": 204.00040705, "velocity": 0.7559055118110236}, {"duration": 2.2358500999999933, "durationTicks": 474, "midi": 61, "name": "C#4", "ticks": 42958, "time": 204.00512403333335, "velocity": 0.7637795275590551}, {"duration": 2.2216991500000063, "durationTicks": 471, "midi": 64, "name": "E4", "ticks": 42958, "time": 204.00512403333335, "velocity": 0.7322834645669292}, {"duration": 2.2358500999999933, "durationTicks": 474, "midi": 59, "name": "B3", "ticks": 43437, "time": 206.26455905, "velocity": 0.7637795275590551}, {"duration": 1.0518872833333148, "durationTicks": 223, "midi": 54, "name": "F#3", "ticks": 43437, "time": 206.26455905, "velocity": 0.6141732283464567}, {"duration": 0.3490567666666493, "durationTicks": 74, "midi": 71, "name": "B4", "ticks": 43437, "time": 206.26455905, "velocity": 0.84251968503937}, {"duration": 1.1132080666666297, "durationTicks": 236, "midi": 66, "name": "F#4", "ticks": 43441, "time": 206.28342698333336, "velocity": 0.7086614173228346}, {"duration": 1.1132080666666297, "durationTicks": 236, "midi": 62, "name": "D4", "ticks": 43441, "time": 206.28342698333336, "velocity": 0.7086614173228346}, {"duration": 0.3490567666666493, "durationTicks": 74, "midi": 74, "name": "D5", "ticks": 43512, "time": 206.61833280000002, "velocity": 0.8582677165354331}, {"duration": 0.37735866666665174, "durationTicks": 80, "midi": 73, "name": "C#5", "ticks": 43590, "time": 206.98625750000002, "velocity": 0.9133858267716536}, {"duration": 0.36320771666666474, "durationTicks": 77, "midi": 71, "name": "B4", "ticks": 43670, "time": 207.36361616666667, "velocity": 0.8582677165354331}, {"duration": 1.117925050000025, "durationTicks": 237, "midi": 56, "name": "G#3", "ticks": 43677, "time": 207.39663505, "velocity": 0.6456692913385826}, {"duration": 0.6981135333333555, "durationTicks": 148, "midi": 68, "name": "G#4", "ticks": 43679, "time": 207.40606901666666, "velocity": 0.7086614173228346}, {"duration": 1.0990571166666712, "durationTicks": 233, "midi": 64, "name": "E4", "ticks": 43680, "time": 207.410786, "velocity": 0.7086614173228346}, {"duration": 0.4056605666666542, "durationTicks": 86, "midi": 69, "name": "A4", "ticks": 43751, "time": 207.7456918166667, "velocity": 0.8188976377952756}, {"duration": 0.38207565000001864, "durationTicks": 81, "midi": 68, "name": "G#4", "ticks": 43833, "time": 208.13248445, "velocity": 0.7322834645669292}, {"duration": 2.231133116666655, "durationTicks": 473, "midi": 61, "name": "C#4", "ticks": 43917, "time": 208.52871105, "velocity": 0.8740157480314961}, {"duration": 2.231133116666655, "durationTicks": 473, "midi": 69, "name": "A4", "ticks": 43917, "time": 208.52871105, "velocity": 0.84251968503937}, {"duration": 2.231133116666655, "durationTicks": 473, "midi": 64, "name": "E4", "ticks": 43917, "time": 208.52871105, "velocity": 0.8740157480314961}, {"duration": 1.155660916666676, "durationTicks": 245, "midi": 69, "name": "A4", "ticks": 44397, "time": 210.79286305, "velocity": 0.8346456692913385}, {"duration": 2.2311331166666832, "durationTicks": 473, "midi": 59, "name": "B3", "ticks": 44397, "time": 210.79286305, "velocity": 0.8110236220472441}, {"duration": 2.2452840666666702, "durationTicks": 476, "midi": 64, "name": "E4", "ticks": 44397, "time": 210.79286305, "velocity": 0.8110236220472441}, {"duration": 1.0471703000000048, "durationTicks": 222, "midi": 68, "name": "G#4", "ticks": 44637, "time": 211.92493905, "velocity": 0.7952755905511811}, {"duration": 2.2500010499999803, "durationTicks": 477, "midi": 57, "name": "A3", "ticks": 44877, "time": 213.05701505000002, "velocity": 0.8031496062992126}, {"duration": 2.2641519999999673, "durationTicks": 480, "midi": 61, "name": "C#4", "ticks": 44877, "time": 213.05701505000002, "velocity": 0.8031496062992126}, {"duration": 3.8537753833333, "durationTicks": 817, "midi": 66, "name": "F#4", "ticks": 44877, "time": 213.05701505000002, "velocity": 0.8031496062992126}, {"duration": 3.8537753833333, "durationTicks": 817, "midi": 69, "name": "A4", "ticks": 44877, "time": 213.05701505000002, "velocity": 0.7952755905511811}, {"duration": 1.6037743333333765, "durationTicks": 340, "midi": 62, "name": "D4", "ticks": 45357, "time": 215.32116704999999, "velocity": 0.8031496062992126}, {"duration": 2.264152000000024, "durationTicks": 480, "midi": 57, "name": "A3", "ticks": 45357, "time": 215.32116704999999, "velocity": 0.8031496062992126}, {"duration": 0.6603776666666477, "durationTicks": 140, "midi": 62, "name": "D4", "ticks": 45697, "time": 216.92494138333336, "velocity": 0.8031496062992126}, {"duration": 0.6603776666666477, "durationTicks": 140, "midi": 71, "name": "B4", "ticks": 45697, "time": 216.92494138333336, "velocity": 0.7952755905511811}, {"duration": 0.6603776666666477, "durationTicks": 140, "midi": 66, "name": "F#4", "ticks": 45697, "time": 216.92494138333336, "velocity": 0.8031496062992126}, {"duration": 2.2641519999999957, "durationTicks": 480, "midi": 57, "name": "A3", "ticks": 45837, "time": 217.58531905, "velocity": 0.7952755905511811}, {"duration": 2.2500010499999803, "durationTicks": 477, "midi": 64, "name": "E4", "ticks": 45837, "time": 217.58531905, "velocity": 0.7952755905511811}, {"duration": 2.2358500999999933, "durationTicks": 474, "midi": 69, "name": "A4", "ticks": 45842, "time": 217.60890396666667, "velocity": 0.7874015748031497}, {"duration": 3.372643083333344, "durationTicks": 715, "midi": 73, "name": "C#5", "ticks": 45842, "time": 217.60890396666667, "velocity": 0.7716535433070866}, {"duration": 2.2641519999999957, "durationTicks": 480, "midi": 64, "name": "E4", "ticks": 46317, "time": 219.84947105, "velocity": 0.7952755905511811}, {"duration": 2.2783029499999827, "durationTicks": 483, "midi": 56, "name": "G#3", "ticks": 46317, "time": 219.84947105, "velocity": 0.7952755905511811}, {"duration": 2.2358500999999933, "durationTicks": 474, "midi": 68, "name": "G#4", "ticks": 46321, "time": 219.86833898333333, "velocity": 0.7952755905511811}, {"duration": 0.3915096166666956, "durationTicks": 83, "midi": 71, "name": "B4", "ticks": 46554, "time": 220.9673961, "velocity": 0.8582677165354331}, {"duration": 0.3820756499999902, "durationTicks": 81, "midi": 74, "name": "D5", "ticks": 46637, "time": 221.3589057166667, "velocity": 0.8582677165354331}, {"duration": 0.3254718500000138, "durationTicks": 69, "midi": 73, "name": "C#5", "ticks": 46719, "time": 221.74569835, "velocity": 0.84251968503937}, {"duration": 4.466983216666648, "durationTicks": 947, "midi": 69, "name": "A4", "ticks": 46793, "time": 222.09475511666668, "velocity": 0.7952755905511811}, {"duration": 4.448115283333351, "durationTicks": 943, "midi": 66, "name": "F#4", "ticks": 46795, "time": 222.10418908333332, "velocity": 0.8110236220472441}, {"duration": 2.320755799999972, "durationTicks": 492, "midi": 61, "name": "C#4", "ticks": 46796, "time": 222.1089060666667, "velocity": 0.7322834645669292}, {"duration": 4.433964333333336, "durationTicks": 940, "midi": 54, "name": "F#3", "ticks": 46797, "time": 222.11362305, "velocity": 0.7952755905511811}, {"duration": 2.1415104333333375, "durationTicks": 454, "midi": 62, "name": "D4", "ticks": 47280, "time": 224.391926, "velocity": 0.7165354330708661}, {"duration": 2.2358501000000217, "durationTicks": 474, "midi": 57, "name": "A3", "ticks": 47757, "time": 226.64192705, "velocity": 0.7637795275590551}, {"duration": 2.264152000000024, "durationTicks": 480, "midi": 69, "name": "A4", "ticks": 47757, "time": 226.64192705, "velocity": 0.7559055118110236}, {"duration": 2.2358501000000217, "durationTicks": 474, "midi": 61, "name": "C#4", "ticks": 47758, "time": 226.64664403333333, "velocity": 0.7637795275590551}, {"duration": 2.2216991500000063, "durationTicks": 471, "midi": 64, "name": "E4", "ticks": 47758, "time": 226.64664403333333, "velocity": 0.7322834645669292}, {"duration": 2.2358500999999933, "durationTicks": 474, "midi": 59, "name": "B3", "ticks": 48237, "time": 228.90607905000002, "velocity": 0.7637795275590551}, {"duration": 1.0518872833333148, "durationTicks": 223, "midi": 54, "name": "F#3", "ticks": 48237, "time": 228.90607905000002, "velocity": 0.6141732283464567}, {"duration": 0.3490567666666493, "durationTicks": 74, "midi": 71, "name": "B4", "ticks": 48237, "time": 228.90607905000002, "velocity": 0.84251968503937}, {"duration": 1.1132080666666582, "durationTicks": 236, "midi": 66, "name": "F#4", "ticks": 48241, "time": 228.92494698333334, "velocity": 0.7086614173228346}, {"duration": 1.1132080666666582, "durationTicks": 236, "midi": 62, "name": "D4", "ticks": 48241, "time": 228.92494698333334, "velocity": 0.7086614173228346}, {"duration": 0.34905676666667773, "durationTicks": 74, "midi": 74, "name": "D5", "ticks": 48312, "time": 229.2598528, "velocity": 0.8582677165354331}, {"duration": 0.37735866666665174, "durationTicks": 80, "midi": 73, "name": "C#5", "ticks": 48390, "time": 229.6277775, "velocity": 0.9133858267716536}, {"duration": 0.36320771666669316, "durationTicks": 77, "midi": 71, "name": "B4", "ticks": 48470, "time": 230.00513616666666, "velocity": 0.8582677165354331}, {"duration": 1.1179250499999966, "durationTicks": 237, "midi": 56, "name": "G#3", "ticks": 48477, "time": 230.03815505, "velocity": 0.6456692913385826}, {"duration": 0.698113533333327, "durationTicks": 148, "midi": 68, "name": "G#4", "ticks": 48479, "time": 230.04758901666668, "velocity": 0.7086614173228346}, {"duration": 1.0990571166666996, "durationTicks": 233, "midi": 64, "name": "E4", "ticks": 48480, "time": 230.052306, "velocity": 0.7086614173228346}, {"duration": 0.4056605666666826, "durationTicks": 86, "midi": 69, "name": "A4", "ticks": 48551, "time": 230.38721181666668, "velocity": 0.8188976377952756}, {"duration": 0.3820756499999902, "durationTicks": 81, "midi": 68, "name": "G#4", "ticks": 48633, "time": 230.77400445, "velocity": 0.7322834645669292}]}, {"channel": 0, "controlChanges": {"0": [{"number": 0, "ticks": 150, "time": 0.7075475, "value": 0}]}, "pitchBends": [], "instrument": {"family": "piano", "number": 0, "name": "acoustic grand piano"}, "name": "Oboe", "notes": [], "endOfTrackTicks": 27480}, {"channel": 6, "controlChanges": {"6": [{"number": 6, "ticks": 181, "time": 0.8537739833333334, "value": 0.015748031496062992}], "7": [{"number": 7, "ticks": 153, "time": 0.72169845, "value": 0.7086614173228346}], "10": [{"number": 10, "ticks": 153, "time": 0.72169845, "value": 0.31496062992125984}], "91": [{"number": 91, "ticks": 182, "time": 0.8584909666666667, "value": 0.6299212598425197}], "93": [{"number": 93, "ticks": 183, "time": 0.8632079500000001, "value": 0.23622047244094488}], "100": [{"number": 100, "ticks": 179, "time": 0.8443400166666667, "value": 0}], "101": [{"number": 101, "ticks": 180, "time": 0.8490570000000001, "value": 0}], "121": [{"number": 121, "ticks": 174, "time": 0.8207551000000001, "value": 0}]}, "pitchBends": [], "instrument": {"family": "reed", "number": 68, "name": "oboe"}, "name": "", "notes": [{"duration": 0.25471710000000414, "durationTicks": 54, "midi": 60, "name": "C4", "ticks": 5520, "time": 26.037748, "velocity": 0.6929133858267716}, {"duration": 0.24528313333333074, "durationTicks": 52, "midi": 62, "name": "D4", "ticks": 5579, "time": 26.31605001666667, "velocity": 0.6299212598425197}, {"duration": 0.3396228000000008, "durationTicks": 72, "midi": 64, "name": "E4", "ticks": 5638, "time": 26.594352033333337, "velocity": 0.6299212598425197}, {"duration": 0.2688680500000018, "durationTicks": 57, "midi": 62, "name": "D4", "ticks": 5698, "time": 26.877371033333336, "velocity": 0.5905511811023622}, {"duration": 0.31603788333333327, "durationTicks": 67, "midi": 64, "name": "E4", "ticks": 5758, "time": 27.160390033333336, "velocity": 0.5669291338582677}, {"duration": 0.27358503333333317, "durationTicks": 58, "midi": 66, "name": "F#4", "ticks": 5818, "time": 27.443409033333335, "velocity": 0.6535433070866141}, {"duration": 0.32075486666666464, "durationTicks": 68, "midi": 64, "name": "E4", "ticks": 5877, "time": 27.721711050000003, "velocity": 0.5905511811023622}, {"duration": 0.27830201666666454, "durationTicks": 59, "midi": 66, "name": "F#4", "ticks": 5938, "time": 28.009447033333338, "velocity": 0.6535433070866141}, {"duration": 0.325471849999996, "durationTicks": 69, "midi": 67, "name": "G4", "ticks": 5998, "time": 28.292466033333337, "velocity": 0.6377952755905512}, {"duration": 0.2783020166666681, "durationTicks": 59, "midi": 66, "name": "F#4", "ticks": 6058, "time": 28.575485033333337, "velocity": 0.5748031496062992}, {"duration": 0.2971699500000007, "durationTicks": 63, "midi": 67, "name": "G4", "ticks": 6119, "time": 28.863221016666667, "velocity": 0.6929133858267716}, {"duration": 0.35377374999999844, "durationTicks": 75, "midi": 69, "name": "A4", "ticks": 6179, "time": 29.14624001666667, "velocity": 0.6771653543307087}, {"duration": 0.3066039166666634, "durationTicks": 65, "midi": 67, "name": "G4", "ticks": 6239, "time": 29.42925901666667, "velocity": 0.7480314960629921}, {"duration": 0.28301899999999947, "durationTicks": 60, "midi": 66, "name": "F#4", "ticks": 6299, "time": 29.71227801666667, "velocity": 0.6299212598425197}, {"duration": 0.31132089999999835, "durationTicks": 66, "midi": 64, "name": "E4", "ticks": 6360, "time": 30.000014000000004, "velocity": 0.6929133858267716}, {"duration": 0.27830201666666454, "durationTicks": 59, "midi": 66, "name": "F#4", "ticks": 6420, "time": 30.283033000000003, "velocity": 0.7322834645669292}, {"duration": 1.6981140000000003, "durationTicks": 360, "midi": 67, "name": "G4", "ticks": 6480, "time": 30.566052000000003, "velocity": 0.7322834645669292}, {"duration": 0.2547171000000006, "durationTicks": 54, "midi": 60, "name": "C4", "ticks": 6960, "time": 32.830204, "velocity": 0.6929133858267716}, {"duration": 0.24528313333333784, "durationTicks": 52, "midi": 62, "name": "D4", "ticks": 7019, "time": 33.10850601666667, "velocity": 0.6299212598425197}, {"duration": 0.3396228000000008, "durationTicks": 72, "midi": 64, "name": "E4", "ticks": 7078, "time": 33.38680803333334, "velocity": 0.6299212598425197}, {"duration": 0.2688680500000018, "durationTicks": 57, "midi": 62, "name": "D4", "ticks": 7138, "time": 33.669827033333334, "velocity": 0.5905511811023622}, {"duration": 0.3160378833333297, "durationTicks": 67, "midi": 64, "name": "E4", "ticks": 7198, "time": 33.95284603333334, "velocity": 0.5669291338582677}, {"duration": 0.2735850333333403, "durationTicks": 58, "midi": 66, "name": "F#4", "ticks": 7258, "time": 34.23586503333333, "velocity": 0.6535433070866141}, {"duration": 0.3207548666666611, "durationTicks": 68, "midi": 64, "name": "E4", "ticks": 7317, "time": 34.514167050000005, "velocity": 0.5905511811023622}, {"duration": 0.27830201666666454, "durationTicks": 59, "midi": 66, "name": "F#4", "ticks": 7378, "time": 34.80190303333334, "velocity": 0.6535433070866141}, {"duration": 0.32547184999999956, "durationTicks": 69, "midi": 67, "name": "G4", "ticks": 7438, "time": 35.084922033333335, "velocity": 0.6377952755905512}, {"duration": 0.27830201666666454, "durationTicks": 59, "midi": 66, "name": "F#4", "ticks": 7498, "time": 35.36794103333334, "velocity": 0.5748031496062992}, {"duration": 0.29716994999999713, "durationTicks": 63, "midi": 67, "name": "G4", "ticks": 7559, "time": 35.65567701666667, "velocity": 0.6929133858267716}, {"duration": 0.2877359833333344, "durationTicks": 61, "midi": 69, "name": "A4", "ticks": 7619, "time": 35.93869601666667, "velocity": 0.6771653543307087}, {"duration": 0.306603916666667, "durationTicks": 65, "midi": 67, "name": "G4", "ticks": 7679, "time": 36.22171501666667, "velocity": 0.7480314960629921}, {"duration": 0.2830189999999959, "durationTicks": 60, "midi": 66, "name": "F#4", "ticks": 7739, "time": 36.50473401666667, "velocity": 0.6299212598425197}, {"duration": 0.31132089999999835, "durationTicks": 66, "midi": 67, "name": "G4", "ticks": 7800, "time": 36.79247, "velocity": 0.6929133858267716}, {"duration": 0.27830201666666454, "durationTicks": 59, "midi": 69, "name": "A4", "ticks": 7860, "time": 37.075489000000005, "velocity": 0.7322834645669292}, {"duration": 1.132076000000005, "durationTicks": 240, "midi": 72, "name": "C5", "ticks": 7920, "time": 37.358508, "velocity": 0.7322834645669292}, {"duration": 1.1320759999999979, "durationTicks": 240, "midi": 71, "name": "B4", "ticks": 8160, "time": 38.490584000000005, "velocity": 0.7322834645669292}, {"duration": 2.264152000000003, "durationTicks": 480, "midi": 69, "name": "A4", "ticks": 8400, "time": 39.62266, "velocity": 0.7322834645669292}, {"duration": 1.146226949999992, "durationTicks": 243, "midi": 72, "name": "C5", "ticks": 8883, "time": 41.90096295000001, "velocity": 0.6299212598425197}, {"duration": 1.1509439333333304, "durationTicks": 244, "midi": 71, "name": "B4", "ticks": 9121, "time": 43.02360498333334, "velocity": 0.6377952755905512}, {"duration": 1.1886797999999956, "durationTicks": 252, "midi": 67, "name": "G4", "ticks": 9362, "time": 44.16039796666667, "velocity": 0.5196850393700787}, {"duration": 1.028302366666665, "durationTicks": 218, "midi": 69, "name": "A4", "ticks": 9605, "time": 45.30662491666667, "velocity": 0.3464566929133858}, {"duration": 0.2547170999999935, "durationTicks": 54, "midi": 60, "name": "C4", "ticks": 24240, "time": 114.33967600000001, "velocity": 0.6929133858267716}, {"duration": 0.24528313333333074, "durationTicks": 52, "midi": 62, "name": "D4", "ticks": 24299, "time": 114.61797801666668, "velocity": 0.6299212598425197}, {"duration": 0.3396228000000008, "durationTicks": 72, "midi": 64, "name": "E4", "ticks": 24358, "time": 114.89628003333334, "velocity": 0.6299212598425197}, {"duration": 0.2688680500000089, "durationTicks": 57, "midi": 62, "name": "D4", "ticks": 24418, "time": 115.17929903333334, "velocity": 0.5905511811023622}, {"duration": 0.3160378833333368, "durationTicks": 67, "midi": 64, "name": "E4", "ticks": 24478, "time": 115.46231803333333, "velocity": 0.5669291338582677}, {"duration": 0.2735850333333474, "durationTicks": 58, "midi": 66, "name": "F#4", "ticks": 24538, "time": 115.74533703333333, "velocity": 0.6535433070866141}, {"duration": 0.3207548666666753, "durationTicks": 68, "midi": 64, "name": "E4", "ticks": 24597, "time": 116.02363905, "velocity": 0.5905511811023622}, {"duration": 0.27830201666667165, "durationTicks": 59, "midi": 66, "name": "F#4", "ticks": 24658, "time": 116.31137503333333, "velocity": 0.6535433070866141}, {"duration": 0.3254718500000138, "durationTicks": 69, "midi": 67, "name": "G4", "ticks": 24718, "time": 116.59439403333333, "velocity": 0.6377952755905512}, {"duration": 0.27830201666667165, "durationTicks": 59, "midi": 66, "name": "F#4", "ticks": 24778, "time": 116.87741303333334, "velocity": 0.5748031496062992}, {"duration": 0.29716995000001134, "durationTicks": 63, "midi": 67, "name": "G4", "ticks": 24839, "time": 117.16514901666667, "velocity": 0.6929133858267716}, {"duration": 0.3537737499999878, "durationTicks": 75, "midi": 69, "name": "A4", "ticks": 24899, "time": 117.44816801666668, "velocity": 0.6771653543307087}, {"duration": 0.30660391666665987, "durationTicks": 65, "midi": 67, "name": "G4", "ticks": 24959, "time": 117.73118701666668, "velocity": 0.7480314960629921}, {"duration": 0.2830189999999959, "durationTicks": 60, "midi": 66, "name": "F#4", "ticks": 25019, "time": 118.01420601666668, "velocity": 0.6299212598425197}, {"duration": 0.31132089999999835, "durationTicks": 66, "midi": 64, "name": "E4", "ticks": 25080, "time": 118.30194200000001, "velocity": 0.6929133858267716}, {"duration": 0.27830201666667165, "durationTicks": 59, "midi": 66, "name": "F#4", "ticks": 25140, "time": 118.584961, "velocity": 0.7322834645669292}, {"duration": 1.698114000000004, "durationTicks": 360, "midi": 67, "name": "G4", "ticks": 25200, "time": 118.86798, "velocity": 0.7322834645669292}, {"duration": 0.3018869333333214, "durationTicks": 64, "midi": 60, "name": "C4", "ticks": 25680, "time": 121.13213200000001, "velocity": 0.6929133858267716}, {"duration": 0.23113218333332952, "durationTicks": 49, "midi": 62, "name": "D4", "ticks": 25740, "time": 121.41515100000001, "velocity": 0.6299212598425197}, {"duration": 0.30660391666665987, "durationTicks": 65, "midi": 64, "name": "E4", "ticks": 25799, "time": 121.69345301666668, "velocity": 0.6299212598425197}, {"duration": 0.2830189999999959, "durationTicks": 60, "midi": 62, "name": "D4", "ticks": 25858, "time": 121.97175503333334, "velocity": 0.6929133858267716}, {"duration": 0.27830201666667165, "durationTicks": 59, "midi": 64, "name": "E4", "ticks": 25918, "time": 122.25477403333333, "velocity": 0.6299212598425197}, {"duration": 0.27830201666665744, "durationTicks": 59, "midi": 66, "name": "F#4", "ticks": 25979, "time": 122.54251001666668, "velocity": 0.6456692913385826}, {"duration": 0.2688680499999947, "durationTicks": 57, "midi": 64, "name": "E4", "ticks": 26039, "time": 122.82552901666668, "velocity": 0.7086614173228346}, {"duration": 0.2877359833333344, "durationTicks": 61, "midi": 62, "name": "D4", "ticks": 26099, "time": 123.10854801666667, "velocity": 0.7480314960629921}, {"duration": 1.1367929833333363, "durationTicks": 241, "midi": 60, "name": "C4", "ticks": 26160, "time": 123.39628400000001, "velocity": 0.7086614173228346}, {"duration": 1.08490616666667, "durationTicks": 230, "midi": 62, "name": "D4", "ticks": 26400, "time": 124.52836, "velocity": 0.6535433070866141}, {"duration": 0.2547170999999935, "durationTicks": 54, "midi": 60, "name": "C4", "ticks": 26640, "time": 125.660436, "velocity": 0.6929133858267716}, {"duration": 0.24528313333334495, "durationTicks": 52, "midi": 62, "name": "D4", "ticks": 26699, "time": 125.93873801666668, "velocity": 0.6299212598425197}, {"duration": 0.339622800000015, "durationTicks": 72, "midi": 64, "name": "E4", "ticks": 26758, "time": 126.21704003333333, "velocity": 0.6299212598425197}, {"duration": 0.2688680500000231, "durationTicks": 57, "midi": 62, "name": "D4", "ticks": 26818, "time": 126.50005903333333, "velocity": 0.5905511811023622}, {"duration": 0.3160378833333368, "durationTicks": 67, "midi": 64, "name": "E4", "ticks": 26878, "time": 126.78307803333334, "velocity": 0.5669291338582677}, {"duration": 0.2735850333333474, "durationTicks": 58, "midi": 66, "name": "F#4", "ticks": 26938, "time": 127.06609703333334, "velocity": 0.6535433070866141}, {"duration": 0.3207548666666611, "durationTicks": 68, "midi": 64, "name": "E4", "ticks": 26997, "time": 127.34439905, "velocity": 0.5905511811023622}, {"duration": 0.27830201666667165, "durationTicks": 59, "midi": 66, "name": "F#4", "ticks": 27058, "time": 127.63213503333334, "velocity": 0.6535433070866141}, {"duration": 1.6981139999999897, "durationTicks": 360, "midi": 67, "name": "G4", "ticks": 27120, "time": 127.92458800000001, "velocity": 0.7322834645669292}]}, {"channel": 0, "controlChanges": {"0": [{"number": 0, "ticks": 155, "time": 0.7311324166666667, "value": 0}]}, "pitchBends": [], "instrument": {"family": "piano", "number": 0, "name": "acoustic grand piano"}, "name": "Fr.Horn", "notes": [], "endOfTrackTicks": 48716}, {"channel": 7, "controlChanges": {"1": [{"number": 1, "ticks": 20791, "time": 98.07080048333333, "value": 0.015748031496062992}, {"number": 1, "ticks": 20802, "time": 98.12268730000001, "value": 0.031496062992125984}, {"number": 1, "ticks": 20812, "time": 98.16985713333334, "value": 0.047244094488188976}, {"number": 1, "ticks": 20819, "time": 98.20287601666668, "value": 0.06299212598425197}, {"number": 1, "ticks": 20826, "time": 98.23589490000002, "value": 0.07874015748031496}, {"number": 1, "ticks": 20831, "time": 98.25947981666667, "value": 0.09448818897637795}, {"number": 1, "ticks": 20834, "time": 98.27363076666668, "value": 0.11023622047244094}, {"number": 1, "ticks": 20839, "time": 98.29721568333333, "value": 0.12598425196850394}, {"number": 1, "ticks": 20849, "time": 98.34438551666668, "value": 0.14173228346456693}, {"number": 1, "ticks": 20860, "time": 98.39627233333334, "value": 0.15748031496062992}, {"number": 1, "ticks": 20865, "time": 98.41985725, "value": 0.1732283464566929}, {"number": 1, "ticks": 20926, "time": 98.70759323333334, "value": 0.1889763779527559}, {"number": 1, "ticks": 20994, "time": 99.0283481, "value": 0.1732283464566929}, {"number": 1, "ticks": 20996, "time": 99.03778206666668, "value": 0.12598425196850394}, {"number": 1, "ticks": 20999, "time": 99.05193301666668, "value": 0.06299212598425197}, {"number": 1, "ticks": 21001, "time": 99.06136698333334, "value": 0.007874015748031496}, {"number": 1, "ticks": 21002, "time": 99.06608396666668, "value": 0}, {"number": 1, "ticks": 35909, "time": 170.75510851666667, "value": 0.007874015748031496}, {"number": 1, "ticks": 35915, "time": 170.78341041666667, "value": 0.023622047244094488}, {"number": 1, "ticks": 35927, "time": 170.84001421666667, "value": 0.03937007874015748}, {"number": 1, "ticks": 35935, "time": 170.87775008333332, "value": 0.05511811023622047}, {"number": 1, "ticks": 35943, "time": 170.91548595, "value": 0.07086614173228346}, {"number": 1, "ticks": 35949, "time": 170.94378785, "value": 0.08661417322834646}, {"number": 1, "ticks": 35952, "time": 170.9579388, "value": 0.10236220472440945}, {"number": 1, "ticks": 35956, "time": 170.97680673333332, "value": 0.11811023622047244}, {"number": 1, "ticks": 35963, "time": 171.00982561666666, "value": 0.13385826771653545}, {"number": 1, "ticks": 35976, "time": 171.0711464, "value": 0.14960629921259844}, {"number": 1, "ticks": 35982, "time": 171.0994483, "value": 0.16535433070866143}, {"number": 1, "ticks": 36009, "time": 171.22680685, "value": 0.18110236220472442}, {"number": 1, "ticks": 36065, "time": 171.49095791666667, "value": 0.1968503937007874}, {"number": 1, "ticks": 36115, "time": 171.72680708333334, "value": 0.14960629921259844}, {"number": 1, "ticks": 36117, "time": 171.73624105, "value": 0.09448818897637795}, {"number": 1, "ticks": 36120, "time": 171.750392, "value": 0.031496062992125984}, {"number": 1, "ticks": 36122, "time": 171.75982596666665, "value": 0}, {"number": 1, "ticks": 40711, "time": 193.40606248333336, "value": 0.015748031496062992}, {"number": 1, "ticks": 40722, "time": 193.4579493, "value": 0.031496062992125984}, {"number": 1, "ticks": 40732, "time": 193.50511913333332, "value": 0.047244094488188976}, {"number": 1, "ticks": 40739, "time": 193.53813801666666, "value": 0.06299212598425197}, {"number": 1, "ticks": 40746, "time": 193.5711569, "value": 0.07874015748031496}, {"number": 1, "ticks": 40751, "time": 193.59474181666667, "value": 0.09448818897637795}, {"number": 1, "ticks": 40754, "time": 193.60889276666666, "value": 0.11023622047244094}, {"number": 1, "ticks": 40759, "time": 193.63247768333332, "value": 0.12598425196850394}, {"number": 1, "ticks": 40769, "time": 193.67964751666668, "value": 0.14173228346456693}, {"number": 1, "ticks": 40780, "time": 193.73153433333334, "value": 0.15748031496062992}, {"number": 1, "ticks": 40785, "time": 193.75511925, "value": 0.1732283464566929}, {"number": 1, "ticks": 40846, "time": 194.04285523333334, "value": 0.1889763779527559}, {"number": 1, "ticks": 40914, "time": 194.36361010000002, "value": 0.1732283464566929}, {"number": 1, "ticks": 40916, "time": 194.37304406666667, "value": 0.12598425196850394}, {"number": 1, "ticks": 40919, "time": 194.38719501666668, "value": 0.06299212598425197}, {"number": 1, "ticks": 40921, "time": 194.39662898333336, "value": 0.007874015748031496}, {"number": 1, "ticks": 40922, "time": 194.40134596666667, "value": 0}], "6": [{"number": 6, "ticks": 207, "time": 0.9764155500000001, "value": 0.015748031496062992}], "7": [{"number": 7, "ticks": 158, "time": 0.7452833666666667, "value": 0.7874015748031497}], "10": [{"number": 10, "ticks": 158, "time": 0.7452833666666667, "value": 0.2755905511811024}], "91": [{"number": 91, "ticks": 208, "time": 0.9811325333333334, "value": 0.6299212598425197}], "93": [{"number": 93, "ticks": 209, "time": 0.9858495166666668, "value": 0.23622047244094488}], "100": [{"number": 100, "ticks": 205, "time": 0.9669815833333334, "value": 0}], "101": [{"number": 101, "ticks": 206, "time": 0.9716985666666667, "value": 0}], "121": [{"number": 121, "ticks": 199, "time": 0.9386796833333335, "value": 0}]}, "pitchBends": [], "instrument": {"family": "brass", "number": 60, "name": "french horn"}, "name": "", "notes": [{"duration": 1.1226420333333333, "durationTicks": 238, "midi": 62, "name": "D4", "ticks": 722, "time": 3.405661966666667, "velocity": 0.6929133858267716}, {"duration": 1.0754721999999992, "durationTicks": 228, "midi": 67, "name": "G4", "ticks": 962, "time": 4.5377379666666675, "velocity": 0.7086614173228346}, {"duration": 1.1226420333333333, "durationTicks": 238, "midi": 67, "name": "G4", "ticks": 1194, "time": 5.6320781, "velocity": 0.6929133858267716}, {"duration": 0.5943398999999996, "durationTicks": 126, "midi": 66, "name": "F#4", "ticks": 1430, "time": 6.745286166666667, "velocity": 0.6535433070866141}, {"duration": 0.5707549833333339, "durationTicks": 121, "midi": 69, "name": "A4", "ticks": 1554, "time": 7.3301921000000005, "velocity": 0.7086614173228346}, {"duration": 4.000001866666666, "durationTicks": 848, "midi": 67, "name": "G4", "ticks": 1675, "time": 7.900947083333334, "velocity": 0.6771653543307087}, {"duration": 0.5660380000000007, "durationTicks": 120, "midi": 69, "name": "A4", "ticks": 2524, "time": 11.905665933333335, "velocity": 0.6850393700787402}, {"duration": 3.3773600666666663, "durationTicks": 716, "midi": 71, "name": "B4", "ticks": 2644, "time": 12.471703933333336, "velocity": 0.7086614173228346}, {"duration": 0.353773750000002, "durationTicks": 75, "midi": 69, "name": "A4", "ticks": 3364, "time": 15.867931933333335, "velocity": 0.6929133858267716}, {"duration": 0.3443397833333357, "durationTicks": 73, "midi": 72, "name": "C5", "ticks": 3446, "time": 16.254724566666667, "velocity": 0.6929133858267716}, {"duration": 0.3632077166666683, "durationTicks": 77, "midi": 71, "name": "B4", "ticks": 3522, "time": 16.6132153, "velocity": 0.7007874015748031}, {"duration": 1.5660384666666651, "durationTicks": 332, "midi": 67, "name": "G4", "ticks": 3601, "time": 16.985856983333335, "velocity": 0.6456692913385826}, {"duration": 0.5377361000000036, "durationTicks": 114, "midi": 67, "name": "G4", "ticks": 3952, "time": 18.64151813333333, "velocity": 0.7952755905511811}, {"duration": 0.4056605666666684, "durationTicks": 86, "midi": 66, "name": "F#4", "ticks": 4071, "time": 19.20283915, "velocity": 0.7007874015748031}, {"duration": 0.3679246999999961, "durationTicks": 78, "midi": 62, "name": "D4", "ticks": 4156, "time": 19.603782733333336, "velocity": 0.7007874015748031}, {"duration": 0.3443397833333357, "durationTicks": 73, "midi": 67, "name": "G4", "ticks": 4234, "time": 19.971707433333332, "velocity": 0.7007874015748031}, {"duration": 0.4150945333333347, "durationTicks": 88, "midi": 66, "name": "F#4", "ticks": 4311, "time": 20.33491515, "velocity": 0.6062992125984252}, {"duration": 0.36792469999999966, "durationTicks": 78, "midi": 62, "name": "D4", "ticks": 4397, "time": 20.74057571666667, "velocity": 0.6929133858267716}, {"duration": 0.4339624666666708, "durationTicks": 92, "midi": 59, "name": "B3", "ticks": 4476, "time": 21.1132174, "velocity": 0.6062992125984252}, {"duration": 1.8207555666666693, "durationTicks": 386, "midi": 62, "name": "D4", "ticks": 4561, "time": 21.514160983333333, "velocity": 0.6535433070866141}, {"duration": 2.278302950000004, "durationTicks": 483, "midi": 59, "name": "B3", "ticks": 9844, "time": 46.43398393333334, "velocity": 0.6929133858267716}, {"duration": 1.099057116666664, "durationTicks": 233, "midi": 57, "name": "A3", "ticks": 10325, "time": 48.70285291666667, "velocity": 0.7401574803149606}, {"duration": 1.0188683999999952, "durationTicks": 216, "midi": 62, "name": "D4", "ticks": 10563, "time": 49.82549495000001, "velocity": 0.7401574803149606}, {"duration": 2.183963283333334, "durationTicks": 463, "midi": 55, "name": "G3", "ticks": 10802, "time": 50.95285396666667, "velocity": 0.6535433070866141}, {"duration": 2.278302950000004, "durationTicks": 483, "midi": 59, "name": "B3", "ticks": 11764, "time": 55.490591933333334, "velocity": 0.6929133858267716}, {"duration": 1.099057116666664, "durationTicks": 233, "midi": 57, "name": "A3", "ticks": 12245, "time": 57.759460916666676, "velocity": 0.7401574803149606}, {"duration": 1.0188683999999952, "durationTicks": 216, "midi": 62, "name": "D4", "ticks": 12483, "time": 58.88210295000001, "velocity": 0.7401574803149606}, {"duration": 2.183963283333334, "durationTicks": 463, "midi": 55, "name": "G3", "ticks": 12722, "time": 60.00946196666667, "velocity": 0.6535433070866141}, {"duration": 0.3726416833333275, "durationTicks": 79, "midi": 62, "name": "D4", "ticks": 15664, "time": 73.88682693333334, "velocity": 0.7401574803149606}, {"duration": 0.4386794500000093, "durationTicks": 93, "midi": 59, "name": "B3", "ticks": 15753, "time": 74.30663845000001, "velocity": 0.7401574803149606}, {"duration": 2.1556613833333387, "durationTicks": 457, "midi": 64, "name": "E4", "ticks": 15850, "time": 74.76418583333334, "velocity": 0.6929133858267716}, {"duration": 0.47641531666666026, "durationTicks": 101, "midi": 62, "name": "D4", "ticks": 20425, "time": 96.34438458333335, "velocity": 0.6141732283464567}, {"duration": 0.575471966666683, "durationTicks": 122, "midi": 59, "name": "B3", "ticks": 20524, "time": 96.81136593333333, "velocity": 0.6771653543307087}, {"duration": 1.7547177999999946, "durationTicks": 372, "midi": 64, "name": "E4", "ticks": 20641, "time": 97.36325298333334, "velocity": 0.7559055118110236}, {"duration": 0.3726416833333417, "durationTicks": 79, "midi": 62, "name": "D4", "ticks": 30784, "time": 146.58056893333332, "velocity": 0.7401574803149606}, {"duration": 0.4386794499999951, "durationTicks": 93, "midi": 59, "name": "B3", "ticks": 30873, "time": 147.00038045, "velocity": 0.7401574803149606}, {"duration": 2.1556613833333245, "durationTicks": 457, "midi": 64, "name": "E4", "ticks": 30970, "time": 147.45792783333334, "velocity": 0.6929133858267716}, {"duration": 0.47641531666667447, "durationTicks": 101, "midi": 62, "name": "D4", "ticks": 35545, "time": 169.03812658333334, "velocity": 0.6141732283464567}, {"duration": 0.5754719666666688, "durationTicks": 122, "midi": 59, "name": "B3", "ticks": 35644, "time": 169.50510793333333, "velocity": 0.6771653543307087}, {"duration": 1.7547178000000088, "durationTicks": 372, "midi": 64, "name": "E4", "ticks": 35761, "time": 170.05699498333334, "velocity": 0.7559055118110236}, {"duration": 0.47641531666664605, "durationTicks": 101, "midi": 64, "name": "E4", "ticks": 40345, "time": 191.67964658333335, "velocity": 0.6141732283464567}, {"duration": 0.5754719666666688, "durationTicks": 122, "midi": 61, "name": "C#4", "ticks": 40444, "time": 192.14662793333332, "velocity": 0.6771653543307087}, {"duration": 1.7547178000000088, "durationTicks": 372, "midi": 66, "name": "F#4", "ticks": 40561, "time": 192.69851498333333, "velocity": 0.7559055118110236}, {"duration": 1.0990571166666427, "durationTicks": 233, "midi": 64, "name": "E4", "ticks": 43920, "time": 208.542862, "velocity": 0.7795275590551181}, {"duration": 2.297170883333365, "durationTicks": 487, "midi": 69, "name": "A4", "ticks": 44153, "time": 209.64191911666666, "velocity": 0.7795275590551181}, {"duration": 0.5801889500000073, "durationTicks": 123, "midi": 68, "name": "G#4", "ticks": 44632, "time": 211.90135413333334, "velocity": 0.7480314960629921}, {"duration": 0.5801889500000073, "durationTicks": 123, "midi": 71, "name": "B4", "ticks": 44754, "time": 212.4768261, "velocity": 0.8031496062992126}, {"duration": 3.9056621999999948, "durationTicks": 828, "midi": 69, "name": "A4", "ticks": 44880, "time": 213.071166, "velocity": 0.7480314960629921}, {"duration": 0.509434199999987, "durationTicks": 108, "midi": 71, "name": "B4", "ticks": 45718, "time": 217.02399803333333, "velocity": 0.8031496062992126}, {"duration": 3.344341183333313, "durationTicks": 709, "midi": 73, "name": "C#5", "ticks": 45844, "time": 217.61833793333335, "velocity": 0.6456692913385826}, {"duration": 0.3867926333333571, "durationTicks": 82, "midi": 71, "name": "B4", "ticks": 46555, "time": 220.97211308333334, "velocity": 0.7165354330708661}, {"duration": 0.37735866666668016, "durationTicks": 80, "midi": 74, "name": "D5", "ticks": 46638, "time": 221.3636227, "velocity": 0.7795275590551181}, {"duration": 0.39622660000000565, "durationTicks": 84, "midi": 73, "name": "C#5", "ticks": 46719, "time": 221.74569835, "velocity": 0.7401574803149606}, {"duration": 1.6462271833333375, "durationTicks": 349, "midi": 69, "name": "A4", "ticks": 46805, "time": 222.15135891666665, "velocity": 0.7244094488188977}, {"duration": 0.5518870499999764, "durationTicks": 117, "midi": 81, "name": "A5", "ticks": 47152, "time": 223.78815213333334, "velocity": 0.7952755905511811}, {"duration": 0.419811516666698, "durationTicks": 89, "midi": 80, "name": "G#5", "ticks": 47269, "time": 224.34003918333332, "velocity": 0.6456692913385826}, {"duration": 0.3867926333333287, "durationTicks": 82, "midi": 76, "name": "E5", "ticks": 47356, "time": 224.75041673333334, "velocity": 0.7244094488188977}, {"duration": 0.39150961666666717, "durationTicks": 83, "midi": 81, "name": "A5", "ticks": 47437, "time": 225.13249238333333, "velocity": 0.7874015748031497}, {"duration": 0.4009435833333441, "durationTicks": 85, "midi": 80, "name": "G#5", "ticks": 47515, "time": 225.50041708333333, "velocity": 0.7244094488188977}, {"duration": 0.3867926333333571, "durationTicks": 82, "midi": 76, "name": "E5", "ticks": 47598, "time": 225.8919267, "velocity": 0.7480314960629921}, {"duration": 0.34905676666667773, "durationTicks": 74, "midi": 73, "name": "C#5", "ticks": 47682, "time": 226.2881533, "velocity": 0.7165354330708661}, {"duration": 2.2358500999999933, "durationTicks": 474, "midi": 76, "name": "E5", "ticks": 47760, "time": 226.656078, "velocity": 0.6850393700787402}, {"duration": 0.3396228000000292, "durationTicks": 72, "midi": 71, "name": "B4", "ticks": 48245, "time": 228.94381491666667, "velocity": 0.6929133858267716}, {"duration": 0.3396228000000008, "durationTicks": 72, "midi": 74, "name": "D5", "ticks": 48320, "time": 229.29758866666668, "velocity": 0.7007874015748031}, {"duration": 0.3820756499999902, "durationTicks": 81, "midi": 73, "name": "C#5", "ticks": 48397, "time": 229.66079638333335, "velocity": 0.7007874015748031}, {"duration": 0.39150961666663875, "durationTicks": 83, "midi": 71, "name": "B4", "ticks": 48475, "time": 230.02872108333335, "velocity": 0.7244094488188977}, {"duration": 0.41509453333333113, "durationTicks": 88, "midi": 69, "name": "A4", "ticks": 48557, "time": 230.41551371666668, "velocity": 0.7007874015748031}, {"duration": 0.36320771666669316, "durationTicks": 77, "midi": 68, "name": "G#4", "ticks": 48639, "time": 230.80230634999998, "velocity": 0.6299212598425197}]}, {"channel": 0, "controlChanges": {"0": [{"number": 0, "ticks": 160, "time": 0.7547173333333334, "value": 0}]}, "pitchBends": [], "instrument": {"family": "piano", "number": 0, "name": "acoustic grand piano"}, "name": "Timpani", "notes": [], "endOfTrackTicks": 48683}, {"channel": 8, "controlChanges": {"6": [{"number": 6, "ticks": 228, "time": 1.0754722, "value": 0.015748031496062992}, {"number": 6, "ticks": 18963, "time": 89.44815495, "value": 0.5511811023622047}], "7": [{"number": 7, "ticks": 163, "time": 0.7688682833333335, "value": 0.6299212598425197}], "10": [{"number": 10, "ticks": 163, "time": 0.7688682833333335, "value": 0.5039370078740157}], "72": [{"number": 72, "ticks": 18960, "time": 89.434004, "value": 0.5511811023622047}], "91": [{"number": 91, "ticks": 229, "time": 1.0801891833333335, "value": 0.3937007874015748}], "93": [{"number": 93, "ticks": 230, "time": 1.0849061666666668, "value": 0.3937007874015748}], "98": [{"number": 98, "ticks": 18961, "time": 89.43872098333334, "value": 0.8031496062992126}], "99": [{"number": 99, "ticks": 18962, "time": 89.44343796666668, "value": 0.007874015748031496}], "100": [{"number": 100, "ticks": 226, "time": 1.0660382333333334, "value": 0}], "101": [{"number": 101, "ticks": 227, "time": 1.0707552166666667, "value": 0}], "121": [{"number": 121, "ticks": 223, "time": 1.0518872833333335, "value": 0}]}, "pitchBends": [], "instrument": {"family": "strings", "number": 47, "name": "timpani"}, "name": "", "notes": [{"duration": 0.014150950000001217, "durationTicks": 3, "midi": 36, "name": "C2", "ticks": 19560, "time": 92.264194, "velocity": 0.5669291338582677}, {"duration": 0.014150950000001217, "durationTicks": 3, "midi": 36, "name": "C2", "ticks": 19604, "time": 92.47174126666668, "velocity": 0.6062992125984252}, {"duration": 0.014150949999987006, "durationTicks": 3, "midi": 36, "name": "C2", "ticks": 19637, "time": 92.62740171666668, "velocity": 0.6771653543307087}, {"duration": 0.014150950000001217, "durationTicks": 3, "midi": 38, "name": "D2", "ticks": 19680, "time": 92.83023200000001, "velocity": 0.7637795275590551}, {"duration": 0.014150950000015428, "durationTicks": 3, "midi": 36, "name": "C2", "ticks": 34680, "time": 164.957936, "velocity": 0.5669291338582677}, {"duration": 0.014150949999987006, "durationTicks": 3, "midi": 36, "name": "C2", "ticks": 34724, "time": 165.16548326666668, "velocity": 0.6062992125984252}, {"duration": 0.014150950000015428, "durationTicks": 3, "midi": 36, "name": "C2", "ticks": 34757, "time": 165.32114371666665, "velocity": 0.6771653543307087}, {"duration": 0.014150949999987006, "durationTicks": 3, "midi": 38, "name": "D2", "ticks": 34800, "time": 165.523974, "velocity": 0.7637795275590551}, {"duration": 0.014150949999987006, "durationTicks": 3, "midi": 40, "name": "E2", "ticks": 39000, "time": 185.335304, "velocity": 0.6771653543307087}, {"duration": 0.014150949999987006, "durationTicks": 3, "midi": 40, "name": "E2", "ticks": 39020, "time": 185.42964366666666, "velocity": 0.6771653543307087}, {"duration": 0.014150950000015428, "durationTicks": 3, "midi": 40, "name": "E2", "ticks": 39043, "time": 185.53813428333333, "velocity": 0.6771653543307087}, {"duration": 0.014150949999987006, "durationTicks": 3, "midi": 40, "name": "E2", "ticks": 39063, "time": 185.63247395000002, "velocity": 0.6771653543307087}, {"duration": 0.014150949999987006, "durationTicks": 3, "midi": 40, "name": "E2", "ticks": 39076, "time": 185.69379473333333, "velocity": 0.7322834645669292}, {"duration": 0.014150950000015428, "durationTicks": 3, "midi": 40, "name": "E2", "ticks": 39096, "time": 185.7881344, "velocity": 0.84251968503937}, {"duration": 0.014150950000015428, "durationTicks": 3, "midi": 45, "name": "A2", "ticks": 39120, "time": 185.901342, "velocity": 0.8976377952755905}, {"duration": 0.014150950000015428, "durationTicks": 3, "midi": 37, "name": "C#2", "ticks": 39480, "time": 187.599456, "velocity": 0.6771653543307087}, {"duration": 0.014150950000015428, "durationTicks": 3, "midi": 37, "name": "C#2", "ticks": 39523, "time": 187.80228628333333, "velocity": 0.6771653543307087}, {"duration": 0.014150950000015428, "durationTicks": 3, "midi": 37, "name": "C#2", "ticks": 39556, "time": 187.95794673333333, "velocity": 0.7322834645669292}, {"duration": 0.014150950000015428, "durationTicks": 3, "midi": 40, "name": "E2", "ticks": 39600, "time": 188.165494, "velocity": 0.7716535433070866}, {"duration": 0.014150949999987006, "durationTicks": 3, "midi": 40, "name": "E2", "ticks": 39720, "time": 188.73153200000002, "velocity": 0.7637795275590551}, {"duration": 0.014150949999987006, "durationTicks": 3, "midi": 40, "name": "E2", "ticks": 39840, "time": 189.29757, "velocity": 0.6377952755905512}, {"duration": 0.014150950000015428, "durationTicks": 3, "midi": 40, "name": "E2", "ticks": 39880, "time": 189.48624933333332, "velocity": 0.7637795275590551}, {"duration": 0.014150950000015428, "durationTicks": 3, "midi": 40, "name": "E2", "ticks": 39960, "time": 189.863608, "velocity": 0.7874015748031497}, {"duration": 0.014150949999987006, "durationTicks": 3, "midi": 40, "name": "E2", "ticks": 40040, "time": 190.24096666666668, "velocity": 0.7874015748031497}, {"duration": 0.014150950000015428, "durationTicks": 3, "midi": 42, "name": "F#2", "ticks": 40080, "time": 190.429646, "velocity": 0.7874015748031497}, {"duration": 0.014150949999987006, "durationTicks": 3, "midi": 42, "name": "F#2", "ticks": 40200, "time": 190.995684, "velocity": 0.6771653543307087}, {"duration": 0.014150949999987006, "durationTicks": 3, "midi": 42, "name": "F#2", "ticks": 40243, "time": 191.19851428333334, "velocity": 0.6771653543307087}, {"duration": 0.014150950000015428, "durationTicks": 3, "midi": 42, "name": "F#2", "ticks": 40276, "time": 191.35417473333334, "velocity": 0.7322834645669292}, {"duration": 0.014150950000015428, "durationTicks": 3, "midi": 42, "name": "F#2", "ticks": 40320, "time": 191.561722, "velocity": 0.7716535433070866}, {"duration": 0.014150950000015428, "durationTicks": 3, "midi": 42, "name": "F#2", "ticks": 40440, "time": 192.12776, "velocity": 0.7637795275590551}, {"duration": 0.014150949999987006, "durationTicks": 3, "midi": 38, "name": "D2", "ticks": 40560, "time": 192.69379800000002, "velocity": 0.7874015748031497}, {"duration": 0.014150949999987006, "durationTicks": 3, "midi": 38, "name": "D2", "ticks": 40680, "time": 193.259836, "velocity": 0.6771653543307087}, {"duration": 0.014150950000015428, "durationTicks": 3, "midi": 38, "name": "D2", "ticks": 40723, "time": 193.46266628333333, "velocity": 0.6771653543307087}, {"duration": 0.014150949999987006, "durationTicks": 3, "midi": 38, "name": "D2", "ticks": 40756, "time": 193.61832673333333, "velocity": 0.7322834645669292}, {"duration": 0.014150950000015428, "durationTicks": 3, "midi": 38, "name": "D2", "ticks": 40800, "time": 193.825874, "velocity": 0.7716535433070866}, {"duration": 0.014150950000015428, "durationTicks": 3, "midi": 38, "name": "D2", "ticks": 40920, "time": 194.391912, "velocity": 0.7637795275590551}, {"duration": 0.014150949999987006, "durationTicks": 3, "midi": 38, "name": "D2", "ticks": 41000, "time": 194.76927066666667, "velocity": 0.7637795275590551}, {"duration": 0.014150949999987006, "durationTicks": 3, "midi": 45, "name": "A2", "ticks": 41040, "time": 194.95795, "velocity": 0.7874015748031497}, {"duration": 0.014150950000015428, "durationTicks": 3, "midi": 45, "name": "A2", "ticks": 41160, "time": 195.523988, "velocity": 0.6771653543307087}, {"duration": 0.014150950000015428, "durationTicks": 3, "midi": 45, "name": "A2", "ticks": 41203, "time": 195.72681828333333, "velocity": 0.6771653543307087}, {"duration": 0.014150949999987006, "durationTicks": 3, "midi": 45, "name": "A2", "ticks": 41236, "time": 195.88247873333336, "velocity": 0.7322834645669292}, {"duration": 0.014150950000015428, "durationTicks": 3, "midi": 45, "name": "A2", "ticks": 41280, "time": 196.090026, "velocity": 0.7716535433070866}, {"duration": 0.014150949999987006, "durationTicks": 3, "midi": 45, "name": "A2", "ticks": 41400, "time": 196.65606400000001, "velocity": 0.7637795275590551}, {"duration": 0.014150949999987006, "durationTicks": 3, "midi": 40, "name": "E2", "ticks": 41520, "time": 197.222102, "velocity": 0.7874015748031497}, {"duration": 0.014150950000015428, "durationTicks": 3, "midi": 40, "name": "E2", "ticks": 41640, "time": 197.78814, "velocity": 0.7874015748031497}, {"duration": 0.014150950000015428, "durationTicks": 3, "midi": 40, "name": "E2", "ticks": 41760, "time": 198.354178, "velocity": 0.6771653543307087}, {"duration": 0.014150949999987006, "durationTicks": 3, "midi": 40, "name": "E2", "ticks": 41803, "time": 198.55700828333335, "velocity": 0.6771653543307087}, {"duration": 0.014150949999987006, "durationTicks": 3, "midi": 40, "name": "E2", "ticks": 41836, "time": 198.71266873333335, "velocity": 0.7322834645669292}, {"duration": 0.014150949999987006, "durationTicks": 3, "midi": 40, "name": "E2", "ticks": 41880, "time": 198.920216, "velocity": 0.7716535433070866}, {"duration": 0.014150950000015428, "durationTicks": 3, "midi": 40, "name": "E2", "ticks": 41960, "time": 199.29757466666666, "velocity": 0.7716535433070866}, {"duration": 0.014150950000015428, "durationTicks": 3, "midi": 42, "name": "F#2", "ticks": 42000, "time": 199.486254, "velocity": 0.7637795275590551}, {"duration": 0.014150950000015428, "durationTicks": 3, "midi": 42, "name": "F#2", "ticks": 42120, "time": 200.052292, "velocity": 0.7637795275590551}, {"duration": 0.014150949999987006, "durationTicks": 3, "midi": 42, "name": "F#2", "ticks": 42200, "time": 200.42965066666667, "velocity": 0.7637795275590551}, {"duration": 0.014150949999987006, "durationTicks": 3, "midi": 42, "name": "F#2", "ticks": 42240, "time": 200.61833000000001, "velocity": 0.7637795275590551}, {"duration": 0.014150949999987006, "durationTicks": 3, "midi": 42, "name": "F#2", "ticks": 42360, "time": 201.184368, "velocity": 0.7637795275590551}, {"duration": 0.014150950000015428, "durationTicks": 3, "midi": 38, "name": "D2", "ticks": 42480, "time": 201.750406, "velocity": 0.7637795275590551}, {"duration": 0.014150950000015428, "durationTicks": 3, "midi": 38, "name": "D2", "ticks": 42600, "time": 202.316444, "velocity": 0.7637795275590551}, {"duration": 0.014150949999987006, "durationTicks": 3, "midi": 38, "name": "D2", "ticks": 42720, "time": 202.882482, "velocity": 0.7637795275590551}, {"duration": 0.014150949999987006, "durationTicks": 3, "midi": 38, "name": "D2", "ticks": 42760, "time": 203.07116133333335, "velocity": 0.7637795275590551}, {"duration": 0.014150950000015428, "durationTicks": 3, "midi": 38, "name": "D2", "ticks": 42840, "time": 203.44852, "velocity": 0.7637795275590551}, {"duration": 0.014150949999987006, "durationTicks": 3, "midi": 38, "name": "D2", "ticks": 42920, "time": 203.82587866666668, "velocity": 0.7637795275590551}, {"duration": 0.014150949999987006, "durationTicks": 3, "midi": 45, "name": "A2", "ticks": 42960, "time": 204.01455800000002, "velocity": 0.6771653543307087}, {"duration": 0.014150950000015428, "durationTicks": 3, "midi": 45, "name": "A2", "ticks": 43003, "time": 204.21738828333332, "velocity": 0.6771653543307087}, {"duration": 0.014150949999987006, "durationTicks": 3, "midi": 45, "name": "A2", "ticks": 43036, "time": 204.37304873333335, "velocity": 0.7322834645669292}, {"duration": 0.014150949999987006, "durationTicks": 3, "midi": 45, "name": "A2", "ticks": 43080, "time": 204.580596, "velocity": 0.7716535433070866}, {"duration": 0.014150949999987006, "durationTicks": 3, "midi": 45, "name": "A2", "ticks": 43160, "time": 204.9579546666667, "velocity": 0.7716535433070866}, {"duration": 0.014150949999987006, "durationTicks": 3, "midi": 45, "name": "A2", "ticks": 43200, "time": 205.146634, "velocity": 0.7637795275590551}, {"duration": 0.014150950000015428, "durationTicks": 3, "midi": 45, "name": "A2", "ticks": 43320, "time": 205.712672, "velocity": 0.7637795275590551}, {"duration": 0.014150950000015428, "durationTicks": 3, "midi": 40, "name": "E2", "ticks": 43440, "time": 206.27871, "velocity": 0.6771653543307087}, {"duration": 0.014150949999987006, "durationTicks": 3, "midi": 40, "name": "E2", "ticks": 43483, "time": 206.48154028333335, "velocity": 0.6771653543307087}, {"duration": 0.014150949999987006, "durationTicks": 3, "midi": 40, "name": "E2", "ticks": 43516, "time": 206.63720073333334, "velocity": 0.7322834645669292}, {"duration": 0.014150950000015428, "durationTicks": 3, "midi": 40, "name": "E2", "ticks": 43560, "time": 206.844748, "velocity": 0.7716535433070866}, {"duration": 0.014150949999987006, "durationTicks": 3, "midi": 40, "name": "E2", "ticks": 43640, "time": 207.22210666666666, "velocity": 0.7716535433070866}, {"duration": 0.014150950000015428, "durationTicks": 3, "midi": 40, "name": "E2", "ticks": 43680, "time": 207.410786, "velocity": 0.7637795275590551}, {"duration": 0.014150949999987006, "durationTicks": 3, "midi": 40, "name": "E2", "ticks": 43720, "time": 207.59946533333334, "velocity": 0.7637795275590551}, {"duration": 0.014150949999987006, "durationTicks": 3, "midi": 40, "name": "E2", "ticks": 43800, "time": 207.97682400000002, "velocity": 0.6771653543307087}, {"duration": 0.014150949999987006, "durationTicks": 3, "midi": 40, "name": "E2", "ticks": 43820, "time": 208.07116366666668, "velocity": 0.6771653543307087}, {"duration": 0.014150950000015428, "durationTicks": 3, "midi": 40, "name": "E2", "ticks": 43843, "time": 208.17965428333332, "velocity": 0.6771653543307087}, {"duration": 0.014150950000015428, "durationTicks": 3, "midi": 40, "name": "E2", "ticks": 43863, "time": 208.27399395, "velocity": 0.6771653543307087}, {"duration": 0.014150949999987006, "durationTicks": 3, "midi": 40, "name": "E2", "ticks": 43876, "time": 208.33531473333335, "velocity": 0.7322834645669292}, {"duration": 0.014150949999987006, "durationTicks": 3, "midi": 40, "name": "E2", "ticks": 43896, "time": 208.4296544, "velocity": 0.84251968503937}, {"duration": 0.014150949999987006, "durationTicks": 3, "midi": 40, "name": "E2", "ticks": 44040, "time": 209.1089, "velocity": 0.6771653543307087}, {"duration": 0.014150949999987006, "durationTicks": 3, "midi": 40, "name": "E2", "ticks": 44060, "time": 209.20323966666666, "velocity": 0.6771653543307087}, {"duration": 0.014150950000015428, "durationTicks": 3, "midi": 40, "name": "E2", "ticks": 44083, "time": 209.31173028333333, "velocity": 0.6771653543307087}, {"duration": 0.014150949999987006, "durationTicks": 3, "midi": 40, "name": "E2", "ticks": 44103, "time": 209.40606995000002, "velocity": 0.6771653543307087}, {"duration": 0.014150949999987006, "durationTicks": 3, "midi": 40, "name": "E2", "ticks": 44116, "time": 209.46739073333333, "velocity": 0.7322834645669292}, {"duration": 0.014150950000015428, "durationTicks": 3, "midi": 40, "name": "E2", "ticks": 44136, "time": 209.5617304, "velocity": 0.84251968503937}, {"duration": 0.014150950000015428, "durationTicks": 3, "midi": 45, "name": "A2", "ticks": 44160, "time": 209.674938, "velocity": 0.8976377952755905}, {"duration": 0.014150950000015428, "durationTicks": 3, "midi": 37, "name": "C#2", "ticks": 44520, "time": 211.373052, "velocity": 0.6771653543307087}, {"duration": 0.014150950000015428, "durationTicks": 3, "midi": 37, "name": "C#2", "ticks": 44563, "time": 211.57588228333333, "velocity": 0.6771653543307087}, {"duration": 0.014150949999987006, "durationTicks": 3, "midi": 37, "name": "C#2", "ticks": 44596, "time": 211.73154273333336, "velocity": 0.7322834645669292}, {"duration": 0.014150949999987006, "durationTicks": 3, "midi": 40, "name": "E2", "ticks": 44640, "time": 211.93909000000002, "velocity": 0.7716535433070866}, {"duration": 0.014150949999987006, "durationTicks": 3, "midi": 40, "name": "E2", "ticks": 44760, "time": 212.505128, "velocity": 0.7637795275590551}, {"duration": 0.014150949999987006, "durationTicks": 3, "midi": 40, "name": "E2", "ticks": 44880, "time": 213.071166, "velocity": 0.6377952755905512}, {"duration": 0.014150949999987006, "durationTicks": 3, "midi": 40, "name": "E2", "ticks": 44920, "time": 213.25984533333335, "velocity": 0.7637795275590551}, {"duration": 0.014150950000015428, "durationTicks": 3, "midi": 40, "name": "E2", "ticks": 45000, "time": 213.637204, "velocity": 0.7874015748031497}, {"duration": 0.014150949999987006, "durationTicks": 3, "midi": 40, "name": "E2", "ticks": 45080, "time": 214.01456266666668, "velocity": 0.7874015748031497}, {"duration": 0.014150950000015428, "durationTicks": 3, "midi": 42, "name": "F#2", "ticks": 45120, "time": 214.203242, "velocity": 0.7874015748031497}, {"duration": 0.014150950000015428, "durationTicks": 3, "midi": 42, "name": "F#2", "ticks": 45240, "time": 214.76928, "velocity": 0.6771653543307087}, {"duration": 0.014150949999987006, "durationTicks": 3, "midi": 42, "name": "F#2", "ticks": 45283, "time": 214.97211028333334, "velocity": 0.6771653543307087}, {"duration": 0.014150950000015428, "durationTicks": 3, "midi": 42, "name": "F#2", "ticks": 45316, "time": 215.12777073333334, "velocity": 0.7322834645669292}, {"duration": 0.014150950000015428, "durationTicks": 3, "midi": 42, "name": "F#2", "ticks": 45360, "time": 215.335318, "velocity": 0.7716535433070866}, {"duration": 0.014150949999987006, "durationTicks": 3, "midi": 42, "name": "F#2", "ticks": 45480, "time": 215.90135600000002, "velocity": 0.7637795275590551}, {"duration": 0.014150949999987006, "durationTicks": 3, "midi": 38, "name": "D2", "ticks": 45600, "time": 216.467394, "velocity": 0.7874015748031497}, {"duration": 0.014150949999987006, "durationTicks": 3, "midi": 38, "name": "D2", "ticks": 45720, "time": 217.033432, "velocity": 0.6771653543307087}, {"duration": 0.014150950000015428, "durationTicks": 3, "midi": 38, "name": "D2", "ticks": 45763, "time": 217.23626228333333, "velocity": 0.6771653543307087}, {"duration": 0.014150949999987006, "durationTicks": 3, "midi": 38, "name": "D2", "ticks": 45796, "time": 217.39192273333333, "velocity": 0.7322834645669292}, {"duration": 0.014150950000015428, "durationTicks": 3, "midi": 38, "name": "D2", "ticks": 45840, "time": 217.59947, "velocity": 0.7716535433070866}, {"duration": 0.014150950000015428, "durationTicks": 3, "midi": 38, "name": "D2", "ticks": 45960, "time": 218.165508, "velocity": 0.7637795275590551}, {"duration": 0.014150949999987006, "durationTicks": 3, "midi": 38, "name": "D2", "ticks": 46040, "time": 218.54286666666667, "velocity": 0.7637795275590551}, {"duration": 0.014150950000015428, "durationTicks": 3, "midi": 45, "name": "A2", "ticks": 46080, "time": 218.731546, "velocity": 0.7874015748031497}, {"duration": 0.014150950000015428, "durationTicks": 3, "midi": 45, "name": "A2", "ticks": 46200, "time": 219.297584, "velocity": 0.6771653543307087}, {"duration": 0.014150949999987006, "durationTicks": 3, "midi": 45, "name": "A2", "ticks": 46243, "time": 219.50041428333333, "velocity": 0.6771653543307087}, {"duration": 0.014150949999987006, "durationTicks": 3, "midi": 45, "name": "A2", "ticks": 46276, "time": 219.65607473333336, "velocity": 0.7322834645669292}, {"duration": 0.014150949999987006, "durationTicks": 3, "midi": 45, "name": "A2", "ticks": 46320, "time": 219.86362200000002, "velocity": 0.7716535433070866}, {"duration": 0.014150949999987006, "durationTicks": 3, "midi": 45, "name": "A2", "ticks": 46440, "time": 220.42966, "velocity": 0.7637795275590551}, {"duration": 0.014150949999987006, "durationTicks": 3, "midi": 40, "name": "E2", "ticks": 46560, "time": 220.995698, "velocity": 0.7874015748031497}, {"duration": 0.014150950000015428, "durationTicks": 3, "midi": 40, "name": "E2", "ticks": 46680, "time": 221.561736, "velocity": 0.7874015748031497}, {"duration": 0.014150950000015428, "durationTicks": 3, "midi": 40, "name": "E2", "ticks": 46800, "time": 222.127774, "velocity": 0.6771653543307087}, {"duration": 0.014150949999987006, "durationTicks": 3, "midi": 40, "name": "E2", "ticks": 46843, "time": 222.33060428333334, "velocity": 0.6771653543307087}, {"duration": 0.01415095000004385, "durationTicks": 3, "midi": 40, "name": "E2", "ticks": 46876, "time": 222.48626473333331, "velocity": 0.7322834645669292}, {"duration": 0.014150950000015428, "durationTicks": 3, "midi": 40, "name": "E2", "ticks": 46920, "time": 222.693812, "velocity": 0.7716535433070866}, {"duration": 0.014150950000015428, "durationTicks": 3, "midi": 40, "name": "E2", "ticks": 47000, "time": 223.07117066666666, "velocity": 0.7716535433070866}, {"duration": 0.014150950000015428, "durationTicks": 3, "midi": 42, "name": "F#2", "ticks": 47040, "time": 223.25985, "velocity": 0.7637795275590551}, {"duration": 0.014150949999987006, "durationTicks": 3, "midi": 42, "name": "F#2", "ticks": 47160, "time": 223.82588800000002, "velocity": 0.7637795275590551}, {"duration": 0.014150950000015428, "durationTicks": 3, "midi": 42, "name": "F#2", "ticks": 47240, "time": 224.20324666666667, "velocity": 0.7637795275590551}, {"duration": 0.014150949999987006, "durationTicks": 3, "midi": 42, "name": "F#2", "ticks": 47280, "time": 224.391926, "velocity": 0.7637795275590551}, {"duration": 0.014150949999987006, "durationTicks": 3, "midi": 42, "name": "F#2", "ticks": 47400, "time": 224.957964, "velocity": 0.7637795275590551}, {"duration": 0.014150950000015428, "durationTicks": 3, "midi": 38, "name": "D2", "ticks": 47520, "time": 225.524002, "velocity": 0.7637795275590551}, {"duration": 0.014150950000015428, "durationTicks": 3, "midi": 38, "name": "D2", "ticks": 47640, "time": 226.09004, "velocity": 0.7637795275590551}, {"duration": 0.014150950000015428, "durationTicks": 3, "midi": 38, "name": "D2", "ticks": 47760, "time": 226.656078, "velocity": 0.7637795275590551}, {"duration": 0.014150949999987006, "durationTicks": 3, "midi": 38, "name": "D2", "ticks": 47800, "time": 226.84475733333335, "velocity": 0.7637795275590551}, {"duration": 0.014150950000015428, "durationTicks": 3, "midi": 38, "name": "D2", "ticks": 47880, "time": 227.222116, "velocity": 0.7637795275590551}, {"duration": 0.014150950000015428, "durationTicks": 3, "midi": 38, "name": "D2", "ticks": 47960, "time": 227.59947466666665, "velocity": 0.7637795275590551}, {"duration": 0.014150949999987006, "durationTicks": 3, "midi": 45, "name": "A2", "ticks": 48000, "time": 227.78815400000002, "velocity": 0.6771653543307087}, {"duration": 0.014150950000015428, "durationTicks": 3, "midi": 45, "name": "A2", "ticks": 48043, "time": 227.99098428333332, "velocity": 0.6771653543307087}, {"duration": 0.014150949999987006, "durationTicks": 3, "midi": 45, "name": "A2", "ticks": 48076, "time": 228.14664473333335, "velocity": 0.7322834645669292}, {"duration": 0.014150949999987006, "durationTicks": 3, "midi": 45, "name": "A2", "ticks": 48120, "time": 228.354192, "velocity": 0.7716535433070866}, {"duration": 0.014150950000015428, "durationTicks": 3, "midi": 45, "name": "A2", "ticks": 48200, "time": 228.73155066666666, "velocity": 0.7716535433070866}, {"duration": 0.014150949999987006, "durationTicks": 3, "midi": 45, "name": "A2", "ticks": 48240, "time": 228.92023, "velocity": 0.7637795275590551}, {"duration": 0.014150950000015428, "durationTicks": 3, "midi": 45, "name": "A2", "ticks": 48360, "time": 229.486268, "velocity": 0.7637795275590551}, {"duration": 0.014150950000015428, "durationTicks": 3, "midi": 40, "name": "E2", "ticks": 48480, "time": 230.052306, "velocity": 0.6771653543307087}, {"duration": 0.014150949999987006, "durationTicks": 3, "midi": 40, "name": "E2", "ticks": 48523, "time": 230.25513628333334, "velocity": 0.6771653543307087}, {"duration": 0.014150950000015428, "durationTicks": 3, "midi": 40, "name": "E2", "ticks": 48556, "time": 230.41079673333334, "velocity": 0.7322834645669292}, {"duration": 0.014150950000015428, "durationTicks": 3, "midi": 40, "name": "E2", "ticks": 48600, "time": 230.618344, "velocity": 0.7716535433070866}, {"duration": 0.014150950000015428, "durationTicks": 3, "midi": 40, "name": "E2", "ticks": 48680, "time": 230.99570266666666, "velocity": 0.7716535433070866}]}, {"channel": 0, "controlChanges": {"0": [{"number": 0, "ticks": 165, "time": 0.7783022500000001, "value": 0}], "32": [{"number": 32, "ticks": 166, "time": 0.7830192333333333, "value": 0}]}, "pitchBends": [], "instrument": {"family": "piano", "number": 0, "name": "acoustic grand piano"}, "name": "Drums", "notes": [], "endOfTrackTicks": 48681}, {"channel": 9, "controlChanges": {"6": [{"number": 6, "ticks": 193, "time": 0.9103777833333334, "value": 0.015748031496062992}, {"number": 6, "ticks": 205, "time": 0.9669815833333334, "value": 0}, {"number": 6, "ticks": 207, "time": 0.9764155500000001, "value": 0.5275590551181102}, {"number": 6, "ticks": 35283, "time": 167.80227695, "value": 0}, {"number": 6, "ticks": 35287, "time": 167.82114488333332, "value": 0.5039370078740157}, {"number": 6, "ticks": 35291, "time": 167.84001281666667, "value": 0.5039370078740157}, {"number": 6, "ticks": 38883, "time": 184.78341695, "value": 0.7874015748031497}, {"number": 6, "ticks": 38887, "time": 184.80228488333333, "value": 0.5039370078740157}, {"number": 6, "ticks": 48003, "time": 227.80230495, "value": 1}, {"number": 6, "ticks": 48007, "time": 227.82117288333336, "value": 0.4330708661417323}, {"number": 6, "ticks": 48011, "time": 227.84004081666666, "value": 0.7874015748031497}], "7": [{"number": 7, "ticks": 168, "time": 0.7924532, "value": 1}], "10": [{"number": 10, "ticks": 168, "time": 0.7924532, "value": 0.5039370078740157}], "91": [{"number": 91, "ticks": 194, "time": 0.9150947666666668, "value": 0.23622047244094488}], "93": [{"number": 93, "ticks": 195, "time": 0.91981175, "value": 0}], "98": [{"number": 98, "ticks": 202, "time": 0.9528306333333334, "value": 0.2992125984251969}, {"number": 98, "ticks": 205, "time": 0.9669815833333334, "value": 0.2992125984251969}, {"number": 98, "ticks": 35280, "time": 167.788126, "value": 0.33858267716535434}, {"number": 98, "ticks": 35283, "time": 167.80227695, "value": 0.33858267716535434}, {"number": 98, "ticks": 35287, "time": 167.82114488333332, "value": 0.33858267716535434}, {"number": 98, "ticks": 38880, "time": 184.76926600000002, "value": 0.30708661417322836}, {"number": 98, "ticks": 38883, "time": 184.78341695, "value": 0.30708661417322836}, {"number": 98, "ticks": 48000, "time": 227.78815400000002, "value": 0.4094488188976378}, {"number": 98, "ticks": 48003, "time": 227.80230495, "value": 0.4094488188976378}, {"number": 98, "ticks": 48007, "time": 227.82117288333336, "value": 0.4094488188976378}], "99": [{"number": 99, "ticks": 203, "time": 0.9575476166666668, "value": 0.2283464566929134}, {"number": 99, "ticks": 206, "time": 0.9716985666666667, "value": 0.1889763779527559}, {"number": 99, "ticks": 35281, "time": 167.79284298333334, "value": 0.2283464566929134}, {"number": 99, "ticks": 35285, "time": 167.81171091666667, "value": 0.1889763779527559}, {"number": 99, "ticks": 35289, "time": 167.83057885, "value": 0.2204724409448819}, {"number": 99, "ticks": 38881, "time": 184.77398298333333, "value": 0.2283464566929134}, {"number": 99, "ticks": 38885, "time": 184.79285091666668, "value": 0.2204724409448819}, {"number": 99, "ticks": 48001, "time": 227.79287098333333, "value": 0.2283464566929134}, {"number": 99, "ticks": 48005, "time": 227.81173891666668, "value": 0.1889763779527559}, {"number": 99, "ticks": 48009, "time": 227.83060684999998, "value": 0.2204724409448819}], "100": [{"number": 100, "ticks": 191, "time": 0.9009438166666667, "value": 0}], "101": [{"number": 101, "ticks": 193, "time": 0.9103777833333334, "value": 0}], "121": [{"number": 121, "ticks": 188, "time": 0.8867928666666667, "value": 0}]}, "pitchBends": [], "instrument": {"family": "drums", "number": 40, "name": "brush kit"}, "name": "", "notes": [{"duration": 0.004716983333333147, "durationTicks": 1, "midi": 38, "name": "D2", "ticks": 721, "time": 3.400944983333334, "velocity": 0.29133858267716534}, {"duration": 0.004716983333333591, "durationTicks": 1, "midi": 38, "name": "D2", "ticks": 839, "time": 3.957549016666667, "velocity": 0.2125984251968504}, {"duration": 0.004716983333333147, "durationTicks": 1, "midi": 38, "name": "D2", "ticks": 959, "time": 4.523587016666667, "velocity": 0.31496062992125984}, {"duration": 0.004716983333333147, "durationTicks": 1, "midi": 38, "name": "D2", "ticks": 1079, "time": 5.089625016666667, "velocity": 0.30708661417322836}, {"duration": 0.004716983333333147, "durationTicks": 1, "midi": 38, "name": "D2", "ticks": 1200, "time": 5.66038, "velocity": 0.28346456692913385}, {"duration": 0.004716983333334035, "durationTicks": 1, "midi": 38, "name": "D2", "ticks": 1321, "time": 6.231134983333334, "velocity": 0.2440944881889764}, {"duration": 0.004716983333333147, "durationTicks": 1, "midi": 38, "name": "D2", "ticks": 1440, "time": 6.7924560000000005, "velocity": 0.2677165354330709}, {"duration": 0.004716983333333147, "durationTicks": 1, "midi": 38, "name": "D2", "ticks": 1559, "time": 7.353777016666667, "velocity": 0.25196850393700787}, {"duration": 0.004716983333333147, "durationTicks": 1, "midi": 38, "name": "D2", "ticks": 1679, "time": 7.919815016666668, "velocity": 0.2755905511811024}, {"duration": 0.004716983333333147, "durationTicks": 1, "midi": 38, "name": "D2", "ticks": 1799, "time": 8.485853016666667, "velocity": 0.25196850393700787}, {"duration": 0.004716983333333147, "durationTicks": 1, "midi": 38, "name": "D2", "ticks": 1920, "time": 9.056608, "velocity": 0.25196850393700787}, {"duration": 0.004716983333333147, "durationTicks": 1, "midi": 38, "name": "D2", "ticks": 2039, "time": 9.617929016666668, "velocity": 0.25984251968503935}, {"duration": 0.004716983333333147, "durationTicks": 1, "midi": 38, "name": "D2", "ticks": 2161, "time": 10.193400983333333, "velocity": 0.25196850393700787}, {"duration": 0.004716983333333147, "durationTicks": 1, "midi": 38, "name": "D2", "ticks": 2281, "time": 10.759438983333334, "velocity": 0.25196850393700787}, {"duration": 0.004716983333333147, "durationTicks": 1, "midi": 38, "name": "D2", "ticks": 2402, "time": 11.330193966666666, "velocity": 0.2755905511811024}, {"duration": 0.004716983333333147, "durationTicks": 1, "midi": 38, "name": "D2", "ticks": 2521, "time": 11.891514983333334, "velocity": 0.2755905511811024}, {"duration": 0.004716983333333147, "durationTicks": 1, "midi": 38, "name": "D2", "ticks": 2642, "time": 12.462269966666668, "velocity": 0.28346456692913385}, {"duration": 0, "durationTicks": 0, "midi": 127, "name": "G9", "ticks": 2658, "time": 12.5377417, "velocity": 0.007874015748031496}, {"duration": 0.004716983333333147, "durationTicks": 1, "midi": 38, "name": "D2", "ticks": 2762, "time": 13.028307966666667, "velocity": 0.28346456692913385}, {"duration": 0.004716983333333147, "durationTicks": 1, "midi": 38, "name": "D2", "ticks": 2882, "time": 13.594345966666667, "velocity": 0.2755905511811024}, {"duration": 0.004716983333333147, "durationTicks": 1, "midi": 38, "name": "D2", "ticks": 3000, "time": 14.150950000000002, "velocity": 0.28346456692913385}, {"duration": 0.004716983333333147, "durationTicks": 1, "midi": 38, "name": "D2", "ticks": 3120, "time": 14.716988, "velocity": 0.25984251968503935}, {"duration": 0.004716983333333147, "durationTicks": 1, "midi": 38, "name": "D2", "ticks": 3240, "time": 15.283026000000001, "velocity": 0.25196850393700787}, {"duration": 0.004716983333333147, "durationTicks": 1, "midi": 38, "name": "D2", "ticks": 3361, "time": 15.853780983333333, "velocity": 0.28346456692913385}, {"duration": 0.00471698333333137, "durationTicks": 1, "midi": 38, "name": "D2", "ticks": 3481, "time": 16.419818983333336, "velocity": 0.2440944881889764}, {"duration": 0.00471698333333137, "durationTicks": 1, "midi": 38, "name": "D2", "ticks": 3601, "time": 16.985856983333335, "velocity": 0.25196850393700787}, {"duration": 0.004716983333334923, "durationTicks": 1, "midi": 38, "name": "D2", "ticks": 3721, "time": 17.551894983333334, "velocity": 0.2677165354330709}, {"duration": 0.00471698333333137, "durationTicks": 1, "midi": 38, "name": "D2", "ticks": 3842, "time": 18.122649966666668, "velocity": 0.2755905511811024}, {"duration": 0.00471698333333137, "durationTicks": 1, "midi": 38, "name": "D2", "ticks": 3961, "time": 18.683970983333335, "velocity": 0.25984251968503935}, {"duration": 0.004716983333334923, "durationTicks": 1, "midi": 38, "name": "D2", "ticks": 4081, "time": 19.250008983333334, "velocity": 0.28346456692913385}, {"duration": 0.00471698333333137, "durationTicks": 1, "midi": 38, "name": "D2", "ticks": 4200, "time": 19.81133, "velocity": 0.25196850393700787}, {"duration": 0.00471698333333137, "durationTicks": 1, "midi": 38, "name": "D2", "ticks": 4319, "time": 20.37265101666667, "velocity": 0.25196850393700787}, {"duration": 0.00471698333333137, "durationTicks": 1, "midi": 38, "name": "D2", "ticks": 4438, "time": 20.933972033333337, "velocity": 0.23622047244094488}, {"duration": 0.004716983333334923, "durationTicks": 1, "midi": 38, "name": "D2", "ticks": 4559, "time": 21.504727016666667, "velocity": 0.28346456692913385}, {"duration": 0.004716983333334923, "durationTicks": 1, "midi": 38, "name": "D2", "ticks": 4680, "time": 22.075482, "velocity": 0.29133858267716534}, {"duration": 0.004716983333334923, "durationTicks": 1, "midi": 38, "name": "D2", "ticks": 4800, "time": 22.64152, "velocity": 0.28346456692913385}, {"duration": 0.00471698333333137, "durationTicks": 1, "midi": 38, "name": "D2", "ticks": 4920, "time": 23.207558000000002, "velocity": 0.25196850393700787}, {"duration": 0.00471698333333137, "durationTicks": 1, "midi": 38, "name": "D2", "ticks": 5039, "time": 23.76887901666667, "velocity": 0.29133858267716534}, {"duration": 0.00471698333333137, "durationTicks": 1, "midi": 38, "name": "D2", "ticks": 5159, "time": 24.33491701666667, "velocity": 0.28346456692913385}, {"duration": 0.00471698333333137, "durationTicks": 1, "midi": 38, "name": "D2", "ticks": 5280, "time": 24.905672000000003, "velocity": 0.29133858267716534}, {"duration": 0.004716983333334923, "durationTicks": 1, "midi": 38, "name": "D2", "ticks": 5400, "time": 25.47171, "velocity": 0.25196850393700787}, {"duration": 0.004716983333338476, "durationTicks": 1, "midi": 38, "name": "D2", "ticks": 14401, "time": 67.92927698333334, "velocity": 0.33858267716535434}, {"duration": 0.004716983333338476, "durationTicks": 1, "midi": 38, "name": "D2", "ticks": 14519, "time": 68.48588101666667, "velocity": 0.2283464566929134}, {"duration": 0.004716983333338476, "durationTicks": 1, "midi": 38, "name": "D2", "ticks": 14639, "time": 69.05191901666667, "velocity": 0.3779527559055118}, {"duration": 0.004716983333338476, "durationTicks": 1, "midi": 38, "name": "D2", "ticks": 14759, "time": 69.61795701666667, "velocity": 0.36220472440944884}, {"duration": 0.004716983333338476, "durationTicks": 1, "midi": 38, "name": "D2", "ticks": 14880, "time": 70.18871200000001, "velocity": 0.33070866141732286}, {"duration": 0.004716983333338476, "durationTicks": 1, "midi": 38, "name": "D2", "ticks": 15001, "time": 70.75946698333334, "velocity": 0.2677165354330709}, {"duration": 0.004716983333338476, "durationTicks": 1, "midi": 38, "name": "D2", "ticks": 15120, "time": 71.32078800000001, "velocity": 0.30708661417322836}, {"duration": 0.004716983333324265, "durationTicks": 1, "midi": 38, "name": "D2", "ticks": 15239, "time": 71.88210901666667, "velocity": 0.28346456692913385}, {"duration": 0.004716983333338476, "durationTicks": 1, "midi": 38, "name": "D2", "ticks": 15359, "time": 72.44814701666667, "velocity": 0.31496062992125984}, {"duration": 0.004716983333338476, "durationTicks": 1, "midi": 38, "name": "D2", "ticks": 15479, "time": 73.01418501666667, "velocity": 0.28346456692913385}, {"duration": 0.004716983333324265, "durationTicks": 1, "midi": 38, "name": "D2", "ticks": 15600, "time": 73.58494, "velocity": 0.28346456692913385}, {"duration": 0.004716983333338476, "durationTicks": 1, "midi": 38, "name": "D2", "ticks": 15719, "time": 74.14626101666667, "velocity": 0.29133858267716534}, {"duration": 0.004716983333338476, "durationTicks": 1, "midi": 38, "name": "D2", "ticks": 15841, "time": 74.72173298333334, "velocity": 0.28346456692913385}, {"duration": 0.004716983333352687, "durationTicks": 1, "midi": 38, "name": "D2", "ticks": 15961, "time": 75.28777098333333, "velocity": 0.28346456692913385}, {"duration": 0.004716983333338476, "durationTicks": 1, "midi": 38, "name": "D2", "ticks": 16082, "time": 75.85852596666668, "velocity": 0.31496062992125984}, {"duration": 0.004716983333352687, "durationTicks": 1, "midi": 38, "name": "D2", "ticks": 16201, "time": 76.41984698333333, "velocity": 0.31496062992125984}, {"duration": 0.004716983333338476, "durationTicks": 1, "midi": 38, "name": "D2", "ticks": 16322, "time": 76.99060196666667, "velocity": 0.33070866141732286}, {"duration": 0.004716983333324265, "durationTicks": 1, "midi": 38, "name": "D2", "ticks": 16442, "time": 77.55663996666668, "velocity": 0.33070866141732286}, {"duration": 0.004716983333324265, "durationTicks": 1, "midi": 38, "name": "D2", "ticks": 16562, "time": 78.12267796666669, "velocity": 0.31496062992125984}, {"duration": 0.004716983333338476, "durationTicks": 1, "midi": 38, "name": "D2", "ticks": 16680, "time": 78.679282, "velocity": 0.33070866141732286}, {"duration": 0.004716983333324265, "durationTicks": 1, "midi": 38, "name": "D2", "ticks": 16800, "time": 79.24532, "velocity": 0.29133858267716534}, {"duration": 0.004716983333324265, "durationTicks": 1, "midi": 38, "name": "D2", "ticks": 16920, "time": 79.81135800000001, "velocity": 0.28346456692913385}, {"duration": 0.004716983333352687, "durationTicks": 1, "midi": 38, "name": "D2", "ticks": 17041, "time": 80.38211298333333, "velocity": 0.33070866141732286}, {"duration": 0.004716983333338476, "durationTicks": 1, "midi": 38, "name": "D2", "ticks": 17161, "time": 80.94815098333333, "velocity": 0.2677165354330709}, {"duration": 0.004716983333338476, "durationTicks": 1, "midi": 38, "name": "D2", "ticks": 17281, "time": 81.51418898333334, "velocity": 0.28346456692913385}, {"duration": 0.004716983333352687, "durationTicks": 1, "midi": 38, "name": "D2", "ticks": 17401, "time": 82.08022698333333, "velocity": 0.30708661417322836}, {"duration": 0.004716983333338476, "durationTicks": 1, "midi": 38, "name": "D2", "ticks": 17522, "time": 82.65098196666668, "velocity": 0.31496062992125984}, {"duration": 0.004716983333352687, "durationTicks": 1, "midi": 38, "name": "D2", "ticks": 17641, "time": 83.21230298333333, "velocity": 0.29133858267716534}, {"duration": 0.004716983333338476, "durationTicks": 1, "midi": 38, "name": "D2", "ticks": 17761, "time": 83.77834098333334, "velocity": 0.33070866141732286}, {"duration": 0.004716983333324265, "durationTicks": 1, "midi": 38, "name": "D2", "ticks": 17880, "time": 84.339662, "velocity": 0.28346456692913385}, {"duration": 0.004716983333338476, "durationTicks": 1, "midi": 38, "name": "D2", "ticks": 17999, "time": 84.90098301666667, "velocity": 0.28346456692913385}, {"duration": 0.004716983333352687, "durationTicks": 1, "midi": 38, "name": "D2", "ticks": 18118, "time": 85.46230403333333, "velocity": 0.2677165354330709}, {"duration": 0.004716983333324265, "durationTicks": 1, "midi": 38, "name": "D2", "ticks": 18239, "time": 86.03305901666668, "velocity": 0.33070866141732286}, {"duration": 0.004716983333338476, "durationTicks": 1, "midi": 38, "name": "D2", "ticks": 18360, "time": 86.603814, "velocity": 0.33858267716535434}, {"duration": 0.004716983333324265, "durationTicks": 1, "midi": 38, "name": "D2", "ticks": 18480, "time": 87.169852, "velocity": 0.33070866141732286}, {"duration": 0.004716983333324265, "durationTicks": 1, "midi": 38, "name": "D2", "ticks": 18600, "time": 87.73589000000001, "velocity": 0.28346456692913385}, {"duration": 0.004716983333324265, "durationTicks": 1, "midi": 38, "name": "D2", "ticks": 18719, "time": 88.29721101666668, "velocity": 0.33858267716535434}, {"duration": 0.004716983333338476, "durationTicks": 1, "midi": 38, "name": "D2", "ticks": 18839, "time": 88.86324901666667, "velocity": 0.33070866141732286}, {"duration": 0.004716983333338476, "durationTicks": 1, "midi": 38, "name": "D2", "ticks": 18960, "time": 89.434004, "velocity": 0.33858267716535434}, {"duration": 0.004716983333324265, "durationTicks": 1, "midi": 38, "name": "D2", "ticks": 19080, "time": 90.00004200000001, "velocity": 0.28346456692913385}, {"duration": 0.004716983333338476, "durationTicks": 1, "midi": 38, "name": "D2", "ticks": 19201, "time": 90.57079698333334, "velocity": 0.33858267716535434}, {"duration": 0.004716983333324265, "durationTicks": 1, "midi": 38, "name": "D2", "ticks": 19319, "time": 91.12740101666668, "velocity": 0.2283464566929134}, {"duration": 0.004716983333338476, "durationTicks": 1, "midi": 38, "name": "D2", "ticks": 19439, "time": 91.69343901666667, "velocity": 0.3779527559055118}, {"duration": 0.004716983333324265, "durationTicks": 1, "midi": 38, "name": "D2", "ticks": 19559, "time": 92.25947701666668, "velocity": 0.36220472440944884}, {"duration": 0.004716983333324265, "durationTicks": 1, "midi": 38, "name": "D2", "ticks": 19680, "time": 92.83023200000001, "velocity": 0.33070866141732286}, {"duration": 0.004716983333338476, "durationTicks": 1, "midi": 38, "name": "D2", "ticks": 19801, "time": 93.40098698333334, "velocity": 0.2677165354330709}, {"duration": 0.004716983333324265, "durationTicks": 1, "midi": 38, "name": "D2", "ticks": 19920, "time": 93.96230800000001, "velocity": 0.30708661417322836}, {"duration": 0.004716983333338476, "durationTicks": 1, "midi": 38, "name": "D2", "ticks": 20039, "time": 94.52362901666667, "velocity": 0.28346456692913385}, {"duration": 0.004716983333324265, "durationTicks": 1, "midi": 38, "name": "D2", "ticks": 20159, "time": 95.08966701666668, "velocity": 0.31496062992125984}, {"duration": 0.004716983333338476, "durationTicks": 1, "midi": 38, "name": "D2", "ticks": 20279, "time": 95.65570501666667, "velocity": 0.28346456692913385}, {"duration": 0.004716983333338476, "durationTicks": 1, "midi": 38, "name": "D2", "ticks": 20400, "time": 96.22646, "velocity": 0.28346456692913385}, {"duration": 0.004716983333324265, "durationTicks": 1, "midi": 38, "name": "D2", "ticks": 20519, "time": 96.78778101666668, "velocity": 0.29133858267716534}, {"duration": 0.004716983333338476, "durationTicks": 1, "midi": 38, "name": "D2", "ticks": 20641, "time": 97.36325298333334, "velocity": 0.28346456692913385}, {"duration": 0.004716983333352687, "durationTicks": 1, "midi": 38, "name": "D2", "ticks": 20761, "time": 97.92929098333333, "velocity": 0.28346456692913385}, {"duration": 0.004716983333338476, "durationTicks": 1, "midi": 38, "name": "D2", "ticks": 20882, "time": 98.50004596666668, "velocity": 0.31496062992125984}, {"duration": 0.004716983333338476, "durationTicks": 1, "midi": 38, "name": "D2", "ticks": 21001, "time": 99.06136698333334, "velocity": 0.31496062992125984}, {"duration": 0.004716983333324265, "durationTicks": 1, "midi": 38, "name": "D2", "ticks": 21122, "time": 99.63212196666669, "velocity": 0.33070866141732286}, {"duration": 0.004716983333324265, "durationTicks": 1, "midi": 38, "name": "D2", "ticks": 21242, "time": 100.19815996666668, "velocity": 0.33070866141732286}, {"duration": 0.004716983333324265, "durationTicks": 1, "midi": 38, "name": "D2", "ticks": 21362, "time": 100.76419796666669, "velocity": 0.31496062992125984}, {"duration": 0.004716983333338476, "durationTicks": 1, "midi": 38, "name": "D2", "ticks": 21480, "time": 101.320802, "velocity": 0.33070866141732286}, {"duration": 0.004716983333324265, "durationTicks": 1, "midi": 38, "name": "D2", "ticks": 21600, "time": 101.88684, "velocity": 0.29133858267716534}, {"duration": 0.004716983333324265, "durationTicks": 1, "midi": 38, "name": "D2", "ticks": 21720, "time": 102.45287800000001, "velocity": 0.28346456692913385}, {"duration": 0.004716983333338476, "durationTicks": 1, "midi": 38, "name": "D2", "ticks": 21841, "time": 103.02363298333334, "velocity": 0.33070866141732286}, {"duration": 0.004716983333352687, "durationTicks": 1, "midi": 38, "name": "D2", "ticks": 21961, "time": 103.58967098333333, "velocity": 0.2677165354330709}, {"duration": 0.004716983333338476, "durationTicks": 1, "midi": 38, "name": "D2", "ticks": 22081, "time": 104.15570898333334, "velocity": 0.28346456692913385}, {"duration": 0.004716983333352687, "durationTicks": 1, "midi": 38, "name": "D2", "ticks": 22201, "time": 104.72174698333333, "velocity": 0.30708661417322836}, {"duration": 0.004716983333338476, "durationTicks": 1, "midi": 38, "name": "D2", "ticks": 22322, "time": 105.29250196666668, "velocity": 0.31496062992125984}, {"duration": 0.004716983333352687, "durationTicks": 1, "midi": 38, "name": "D2", "ticks": 22441, "time": 105.85382298333333, "velocity": 0.29133858267716534}, {"duration": 0.004716983333338476, "durationTicks": 1, "midi": 38, "name": "D2", "ticks": 22561, "time": 106.41986098333334, "velocity": 0.33070866141732286}, {"duration": 0.004716983333338476, "durationTicks": 1, "midi": 38, "name": "D2", "ticks": 22680, "time": 106.981182, "velocity": 0.28346456692913385}, {"duration": 0.004716983333324265, "durationTicks": 1, "midi": 38, "name": "D2", "ticks": 22799, "time": 107.54250301666669, "velocity": 0.28346456692913385}, {"duration": 0.004716983333338476, "durationTicks": 1, "midi": 38, "name": "D2", "ticks": 22918, "time": 108.10382403333334, "velocity": 0.2677165354330709}, {"duration": 0.004716983333324265, "durationTicks": 1, "midi": 38, "name": "D2", "ticks": 23039, "time": 108.67457901666668, "velocity": 0.33070866141732286}, {"duration": 0.004716983333324265, "durationTicks": 1, "midi": 38, "name": "D2", "ticks": 23160, "time": 109.24533400000001, "velocity": 0.33858267716535434}, {"duration": 0.004716983333324265, "durationTicks": 1, "midi": 38, "name": "D2", "ticks": 23280, "time": 109.811372, "velocity": 0.33070866141732286}, {"duration": 0.004716983333324265, "durationTicks": 1, "midi": 38, "name": "D2", "ticks": 23400, "time": 110.37741000000001, "velocity": 0.28346456692913385}, {"duration": 0.004716983333324265, "durationTicks": 1, "midi": 38, "name": "D2", "ticks": 23519, "time": 110.93873101666668, "velocity": 0.33858267716535434}, {"duration": 0.004716983333324265, "durationTicks": 1, "midi": 38, "name": "D2", "ticks": 23639, "time": 111.50476901666669, "velocity": 0.33070866141732286}, {"duration": 0.004716983333338476, "durationTicks": 1, "midi": 38, "name": "D2", "ticks": 23760, "time": 112.075524, "velocity": 0.33858267716535434}, {"duration": 0.004716983333324265, "durationTicks": 1, "midi": 38, "name": "D2", "ticks": 23880, "time": 112.64156200000001, "velocity": 0.28346456692913385}, {"duration": 0.004716983333324265, "durationTicks": 1, "midi": 38, "name": "D2", "ticks": 24000, "time": 113.20760000000001, "velocity": 0.2125984251968504}, {"duration": 0.004716983333338476, "durationTicks": 1, "midi": 38, "name": "D2", "ticks": 29521, "time": 140.62301898333334, "velocity": 0.33858267716535434}, {"duration": 0.004716983333338476, "durationTicks": 1, "midi": 38, "name": "D2", "ticks": 29639, "time": 141.17962301666665, "velocity": 0.2283464566929134}, {"duration": 0.004716983333338476, "durationTicks": 1, "midi": 38, "name": "D2", "ticks": 29759, "time": 141.74566101666667, "velocity": 0.3779527559055118}, {"duration": 0.004716983333338476, "durationTicks": 1, "midi": 38, "name": "D2", "ticks": 29879, "time": 142.31169901666667, "velocity": 0.36220472440944884}, {"duration": 0.004716983333338476, "durationTicks": 1, "midi": 38, "name": "D2", "ticks": 30000, "time": 142.882454, "velocity": 0.33070866141732286}, {"duration": 0.004716983333338476, "durationTicks": 1, "midi": 38, "name": "D2", "ticks": 30121, "time": 143.45320898333333, "velocity": 0.2677165354330709}, {"duration": 0.004716983333338476, "durationTicks": 1, "midi": 38, "name": "D2", "ticks": 30240, "time": 144.01453, "velocity": 0.30708661417322836}, {"duration": 0.004716983333338476, "durationTicks": 1, "midi": 38, "name": "D2", "ticks": 30359, "time": 144.57585101666666, "velocity": 0.28346456692913385}, {"duration": 0.004716983333338476, "durationTicks": 1, "midi": 38, "name": "D2", "ticks": 30479, "time": 145.14188901666665, "velocity": 0.31496062992125984}, {"duration": 0.004716983333338476, "durationTicks": 1, "midi": 38, "name": "D2", "ticks": 30599, "time": 145.70792701666667, "velocity": 0.28346456692913385}, {"duration": 0.004716983333338476, "durationTicks": 1, "midi": 38, "name": "D2", "ticks": 30720, "time": 146.278682, "velocity": 0.28346456692913385}, {"duration": 0.004716983333338476, "durationTicks": 1, "midi": 38, "name": "D2", "ticks": 30839, "time": 146.84000301666666, "velocity": 0.29133858267716534}, {"duration": 0.004716983333338476, "durationTicks": 1, "midi": 38, "name": "D2", "ticks": 30961, "time": 147.41547498333333, "velocity": 0.28346456692913385}, {"duration": 0.004716983333310054, "durationTicks": 1, "midi": 38, "name": "D2", "ticks": 31081, "time": 147.98151298333335, "velocity": 0.28346456692913385}, {"duration": 0.004716983333338476, "durationTicks": 1, "midi": 38, "name": "D2", "ticks": 31202, "time": 148.55226796666668, "velocity": 0.31496062992125984}, {"duration": 0.004716983333338476, "durationTicks": 1, "midi": 38, "name": "D2", "ticks": 31321, "time": 149.11358898333333, "velocity": 0.31496062992125984}, {"duration": 0.004716983333338476, "durationTicks": 1, "midi": 38, "name": "D2", "ticks": 31442, "time": 149.68434396666666, "velocity": 0.33070866141732286}, {"duration": 0.004716983333310054, "durationTicks": 1, "midi": 38, "name": "D2", "ticks": 31562, "time": 150.25038196666668, "velocity": 0.33070866141732286}, {"duration": 0.004716983333338476, "durationTicks": 1, "midi": 38, "name": "D2", "ticks": 31682, "time": 150.81641996666667, "velocity": 0.31496062992125984}, {"duration": 0.004716983333338476, "durationTicks": 1, "midi": 38, "name": "D2", "ticks": 31800, "time": 151.373024, "velocity": 0.33070866141732286}, {"duration": 0.004716983333338476, "durationTicks": 1, "midi": 38, "name": "D2", "ticks": 31920, "time": 151.939062, "velocity": 0.29133858267716534}, {"duration": 0.004716983333338476, "durationTicks": 1, "midi": 38, "name": "D2", "ticks": 32040, "time": 152.5051, "velocity": 0.28346456692913385}, {"duration": 0.004716983333338476, "durationTicks": 1, "midi": 38, "name": "D2", "ticks": 32161, "time": 153.07585498333333, "velocity": 0.33070866141732286}, {"duration": 0.004716983333338476, "durationTicks": 1, "midi": 38, "name": "D2", "ticks": 32281, "time": 153.64189298333332, "velocity": 0.2677165354330709}, {"duration": 0.004716983333338476, "durationTicks": 1, "midi": 38, "name": "D2", "ticks": 32401, "time": 154.20793098333334, "velocity": 0.28346456692913385}, {"duration": 0.004716983333338476, "durationTicks": 1, "midi": 38, "name": "D2", "ticks": 32521, "time": 154.77396898333333, "velocity": 0.30708661417322836}, {"duration": 0.004716983333338476, "durationTicks": 1, "midi": 38, "name": "D2", "ticks": 32642, "time": 155.34472396666666, "velocity": 0.31496062992125984}, {"duration": 0.004716983333310054, "durationTicks": 1, "midi": 38, "name": "D2", "ticks": 32761, "time": 155.90604498333335, "velocity": 0.29133858267716534}, {"duration": 0.004716983333338476, "durationTicks": 1, "midi": 38, "name": "D2", "ticks": 32881, "time": 156.47208298333334, "velocity": 0.33070866141732286}, {"duration": 0.004716983333338476, "durationTicks": 1, "midi": 38, "name": "D2", "ticks": 33000, "time": 157.033404, "velocity": 0.28346456692913385}, {"duration": 0.004716983333338476, "durationTicks": 1, "midi": 38, "name": "D2", "ticks": 33119, "time": 157.59472501666667, "velocity": 0.28346456692913385}, {"duration": 0.004716983333338476, "durationTicks": 1, "midi": 38, "name": "D2", "ticks": 33238, "time": 158.15604603333333, "velocity": 0.2677165354330709}, {"duration": 0.004716983333310054, "durationTicks": 1, "midi": 38, "name": "D2", "ticks": 33359, "time": 158.72680101666668, "velocity": 0.33070866141732286}, {"duration": 0.004716983333338476, "durationTicks": 1, "midi": 38, "name": "D2", "ticks": 33480, "time": 159.297556, "velocity": 0.33858267716535434}, {"duration": 0.004716983333338476, "durationTicks": 1, "midi": 38, "name": "D2", "ticks": 33600, "time": 159.863594, "velocity": 0.33070866141732286}, {"duration": 0.004716983333338476, "durationTicks": 1, "midi": 38, "name": "D2", "ticks": 33720, "time": 160.429632, "velocity": 0.28346456692913385}, {"duration": 0.004716983333310054, "durationTicks": 1, "midi": 38, "name": "D2", "ticks": 33839, "time": 160.99095301666668, "velocity": 0.33858267716535434}, {"duration": 0.004716983333338476, "durationTicks": 1, "midi": 38, "name": "D2", "ticks": 33959, "time": 161.55699101666667, "velocity": 0.33070866141732286}, {"duration": 0.004716983333338476, "durationTicks": 1, "midi": 38, "name": "D2", "ticks": 34080, "time": 162.127746, "velocity": 0.33858267716535434}, {"duration": 0.004716983333338476, "durationTicks": 1, "midi": 38, "name": "D2", "ticks": 34200, "time": 162.693784, "velocity": 0.28346456692913385}, {"duration": 0.004716983333338476, "durationTicks": 1, "midi": 38, "name": "D2", "ticks": 34321, "time": 163.26453898333332, "velocity": 0.33858267716535434}, {"duration": 0.004716983333338476, "durationTicks": 1, "midi": 38, "name": "D2", "ticks": 34439, "time": 163.82114301666667, "velocity": 0.2283464566929134}, {"duration": 0.004716983333338476, "durationTicks": 1, "midi": 38, "name": "D2", "ticks": 34559, "time": 164.38718101666666, "velocity": 0.3779527559055118}, {"duration": 0.004716983333310054, "durationTicks": 1, "midi": 38, "name": "D2", "ticks": 34679, "time": 164.95321901666668, "velocity": 0.36220472440944884}, {"duration": 0.004716983333310054, "durationTicks": 1, "midi": 38, "name": "D2", "ticks": 34800, "time": 165.523974, "velocity": 0.33070866141732286}, {"duration": 0.004716983333338476, "durationTicks": 1, "midi": 38, "name": "D2", "ticks": 34921, "time": 166.09472898333334, "velocity": 0.2677165354330709}, {"duration": 0.004716983333338476, "durationTicks": 1, "midi": 38, "name": "D2", "ticks": 35040, "time": 166.65605, "velocity": 0.30708661417322836}, {"duration": 0.004716983333338476, "durationTicks": 1, "midi": 38, "name": "D2", "ticks": 35159, "time": 167.21737101666668, "velocity": 0.28346456692913385}, {"duration": 0.004716983333338476, "durationTicks": 1, "midi": 38, "name": "D2", "ticks": 35279, "time": 167.78340901666667, "velocity": 0.31496062992125984}, {"duration": 0.004716983333338476, "durationTicks": 1, "midi": 38, "name": "D2", "ticks": 35399, "time": 168.34944701666666, "velocity": 0.28346456692913385}, {"duration": 0.004716983333338476, "durationTicks": 1, "midi": 43, "name": "G2", "ticks": 35400, "time": 168.354164, "velocity": 0.15748031496062992}, {"duration": 0.004716983333310054, "durationTicks": 1, "midi": 43, "name": "G2", "ticks": 35442, "time": 168.55227730000001, "velocity": 0.2283464566929134}, {"duration": 0.004716983333338476, "durationTicks": 1, "midi": 43, "name": "G2", "ticks": 35482, "time": 168.74095663333333, "velocity": 0.3779527559055118}, {"duration": 0.004716983333310054, "durationTicks": 1, "midi": 38, "name": "D2", "ticks": 35520, "time": 168.92020200000002, "velocity": 0.28346456692913385}, {"duration": 0.004716983333338476, "durationTicks": 1, "midi": 43, "name": "G2", "ticks": 35523, "time": 168.93435295, "velocity": 0.4409448818897638}, {"duration": 0.004716983333338476, "durationTicks": 1, "midi": 38, "name": "D2", "ticks": 35639, "time": 169.48152301666667, "velocity": 0.29133858267716534}, {"duration": 0.004716983333338476, "durationTicks": 1, "midi": 43, "name": "G2", "ticks": 35641, "time": 169.49095698333332, "velocity": 0.3464566929133858}, {"duration": 0.004716983333338476, "durationTicks": 1, "midi": 38, "name": "D2", "ticks": 35761, "time": 170.05699498333334, "velocity": 0.28346456692913385}, {"duration": 0.004716983333338476, "durationTicks": 1, "midi": 43, "name": "G2", "ticks": 35880, "time": 170.618316, "velocity": 0.15748031496062992}, {"duration": 0.004716983333338476, "durationTicks": 1, "midi": 38, "name": "D2", "ticks": 35881, "time": 170.62303298333333, "velocity": 0.28346456692913385}, {"duration": 0.004716983333338476, "durationTicks": 1, "midi": 43, "name": "G2", "ticks": 35922, "time": 170.8164293, "velocity": 0.2283464566929134}, {"duration": 0.004716983333338476, "durationTicks": 1, "midi": 43, "name": "G2", "ticks": 35962, "time": 171.00510863333332, "velocity": 0.3779527559055118}, {"duration": 0.004716983333338476, "durationTicks": 1, "midi": 38, "name": "D2", "ticks": 36002, "time": 171.19378796666666, "velocity": 0.31496062992125984}, {"duration": 0.004716983333338476, "durationTicks": 1, "midi": 43, "name": "G2", "ticks": 36003, "time": 171.19850495, "velocity": 0.4409448818897638}, {"duration": 0.004716983333338476, "durationTicks": 1, "midi": 43, "name": "G2", "ticks": 36075, "time": 171.53812775, "velocity": 0.2283464566929134}, {"duration": 0.004716983333310054, "durationTicks": 1, "midi": 43, "name": "G2", "ticks": 36121, "time": 171.75510898333334, "velocity": 0.3464566929133858}, {"duration": 0.004716983333310054, "durationTicks": 1, "midi": 38, "name": "D2", "ticks": 36121, "time": 171.75510898333334, "velocity": 0.31496062992125984}, {"duration": 0.004716983333338476, "durationTicks": 1, "midi": 38, "name": "D2", "ticks": 36242, "time": 172.32586396666667, "velocity": 0.33070866141732286}, {"duration": 0.004716983333310054, "durationTicks": 1, "midi": 43, "name": "G2", "ticks": 36360, "time": 172.88246800000002, "velocity": 0.15748031496062992}, {"duration": 0.004716983333338476, "durationTicks": 1, "midi": 38, "name": "D2", "ticks": 36362, "time": 172.89190196666667, "velocity": 0.33070866141732286}, {"duration": 0.004716983333338476, "durationTicks": 1, "midi": 43, "name": "G2", "ticks": 36402, "time": 173.0805813, "velocity": 0.2283464566929134}, {"duration": 0.004716983333366898, "durationTicks": 1, "midi": 43, "name": "G2", "ticks": 36442, "time": 173.26926063333332, "velocity": 0.3779527559055118}, {"duration": 0.004716983333310054, "durationTicks": 1, "midi": 38, "name": "D2", "ticks": 36482, "time": 173.4579399666667, "velocity": 0.31496062992125984}, {"duration": 0.004716983333338476, "durationTicks": 1, "midi": 43, "name": "G2", "ticks": 36483, "time": 173.46265695, "velocity": 0.4409448818897638}, {"duration": 0.004716983333338476, "durationTicks": 1, "midi": 38, "name": "D2", "ticks": 36600, "time": 174.014544, "velocity": 0.33070866141732286}, {"duration": 0.004716983333338476, "durationTicks": 1, "midi": 43, "name": "G2", "ticks": 36601, "time": 174.01926098333334, "velocity": 0.3464566929133858}, {"duration": 0.004716983333338476, "durationTicks": 1, "midi": 43, "name": "G2", "ticks": 36720, "time": 174.580582, "velocity": 0.4409448818897638}, {"duration": 0.004716983333338476, "durationTicks": 1, "midi": 38, "name": "D2", "ticks": 36720, "time": 174.580582, "velocity": 0.29133858267716534}, {"duration": 0.004716983333338476, "durationTicks": 1, "midi": 43, "name": "G2", "ticks": 36840, "time": 175.14662, "velocity": 0.3779527559055118}, {"duration": 0.004716983333338476, "durationTicks": 1, "midi": 38, "name": "D2", "ticks": 36840, "time": 175.14662, "velocity": 0.28346456692913385}, {"duration": 0.004716983333338476, "durationTicks": 1, "midi": 43, "name": "G2", "ticks": 36960, "time": 175.712658, "velocity": 0.15748031496062992}, {"duration": 0.004716983333310054, "durationTicks": 1, "midi": 38, "name": "D2", "ticks": 36961, "time": 175.71737498333334, "velocity": 0.33070866141732286}, {"duration": 0.004716983333338476, "durationTicks": 1, "midi": 43, "name": "G2", "ticks": 37002, "time": 175.9107713, "velocity": 0.2283464566929134}, {"duration": 0.004716983333338476, "durationTicks": 1, "midi": 43, "name": "G2", "ticks": 37080, "time": 176.278696, "velocity": 0.3779527559055118}, {"duration": 0.004716983333338476, "durationTicks": 1, "midi": 38, "name": "D2", "ticks": 37081, "time": 176.28341298333333, "velocity": 0.2677165354330709}, {"duration": 0.004716983333338476, "durationTicks": 1, "midi": 43, "name": "G2", "ticks": 37160, "time": 176.65605466666668, "velocity": 0.2283464566929134}, {"duration": 0.004716983333310054, "durationTicks": 1, "midi": 43, "name": "G2", "ticks": 37200, "time": 176.84473400000002, "velocity": 0.4409448818897638}, {"duration": 0.004716983333338476, "durationTicks": 1, "midi": 38, "name": "D2", "ticks": 37201, "time": 176.84945098333333, "velocity": 0.28346456692913385}, {"duration": 0.004716983333338476, "durationTicks": 1, "midi": 43, "name": "G2", "ticks": 37320, "time": 177.410772, "velocity": 0.15748031496062992}, {"duration": 0.004716983333338476, "durationTicks": 1, "midi": 38, "name": "D2", "ticks": 37321, "time": 177.41548898333335, "velocity": 0.30708661417322836}, {"duration": 0.004716983333338476, "durationTicks": 1, "midi": 43, "name": "G2", "ticks": 37362, "time": 177.6088853, "velocity": 0.2283464566929134}, {"duration": 0.004716983333338476, "durationTicks": 1, "midi": 43, "name": "G2", "ticks": 37402, "time": 177.79756463333334, "velocity": 0.3779527559055118}, {"duration": 0.004716983333338476, "durationTicks": 1, "midi": 38, "name": "D2", "ticks": 37442, "time": 177.98624396666668, "velocity": 0.31496062992125984}, {"duration": 0.004716983333310054, "durationTicks": 1, "midi": 43, "name": "G2", "ticks": 37443, "time": 177.99096095000002, "velocity": 0.4409448818897638}, {"duration": 0.004716983333338476, "durationTicks": 1, "midi": 38, "name": "D2", "ticks": 37561, "time": 178.54756498333333, "velocity": 0.29133858267716534}, {"duration": 0.004716983333338476, "durationTicks": 1, "midi": 43, "name": "G2", "ticks": 37561, "time": 178.54756498333333, "velocity": 0.3464566929133858}, {"duration": 0.004716983333338476, "durationTicks": 1, "midi": 43, "name": "G2", "ticks": 37680, "time": 179.108886, "velocity": 0.3464566929133858}, {"duration": 0.004716983333310054, "durationTicks": 1, "midi": 38, "name": "D2", "ticks": 37681, "time": 179.11360298333335, "velocity": 0.33070866141732286}, {"duration": 0.004716983333338476, "durationTicks": 1, "midi": 43, "name": "G2", "ticks": 37800, "time": 179.674924, "velocity": 0.3464566929133858}, {"duration": 0.004716983333338476, "durationTicks": 1, "midi": 38, "name": "D2", "ticks": 37800, "time": 179.674924, "velocity": 0.28346456692913385}, {"duration": 0.004716983333338476, "durationTicks": 1, "midi": 38, "name": "D2", "ticks": 37919, "time": 180.23624501666666, "velocity": 0.28346456692913385}, {"duration": 0.004716983333338476, "durationTicks": 1, "midi": 43, "name": "G2", "ticks": 37920, "time": 180.240962, "velocity": 0.3464566929133858}, {"duration": 0.004716983333310054, "durationTicks": 1, "midi": 38, "name": "D2", "ticks": 38038, "time": 180.79756603333334, "velocity": 0.2677165354330709}, {"duration": 0.004716983333310054, "durationTicks": 1, "midi": 43, "name": "G2", "ticks": 38040, "time": 180.80700000000002, "velocity": 0.3464566929133858}, {"duration": 0.004716983333338476, "durationTicks": 1, "midi": 43, "name": "G2", "ticks": 38120, "time": 181.18435866666667, "velocity": 0.3779527559055118}, {"duration": 0.004716983333338476, "durationTicks": 1, "midi": 38, "name": "D2", "ticks": 38159, "time": 181.36832101666667, "velocity": 0.33070866141732286}, {"duration": 0.004716983333338476, "durationTicks": 1, "midi": 43, "name": "G2", "ticks": 38161, "time": 181.37775498333335, "velocity": 0.4409448818897638}, {"duration": 0.004716983333338476, "durationTicks": 1, "midi": 43, "name": "G2", "ticks": 38280, "time": 181.939076, "velocity": 0.15748031496062992}, {"duration": 0.004716983333338476, "durationTicks": 1, "midi": 38, "name": "D2", "ticks": 38280, "time": 181.939076, "velocity": 0.33858267716535434}, {"duration": 0.004716983333338476, "durationTicks": 1, "midi": 43, "name": "G2", "ticks": 38322, "time": 182.1371893, "velocity": 0.2283464566929134}, {"duration": 0.004716983333338476, "durationTicks": 1, "midi": 43, "name": "G2", "ticks": 38362, "time": 182.32586863333333, "velocity": 0.3779527559055118}, {"duration": 0.004716983333338476, "durationTicks": 1, "midi": 38, "name": "D2", "ticks": 38400, "time": 182.505114, "velocity": 0.33070866141732286}, {"duration": 0.004716983333338476, "durationTicks": 1, "midi": 43, "name": "G2", "ticks": 38403, "time": 182.51926495, "velocity": 0.4409448818897638}, {"duration": 0.004716983333338476, "durationTicks": 1, "midi": 38, "name": "D2", "ticks": 38520, "time": 183.071152, "velocity": 0.28346456692913385}, {"duration": 0.004716983333310054, "durationTicks": 1, "midi": 43, "name": "G2", "ticks": 38521, "time": 183.07586898333335, "velocity": 0.3464566929133858}, {"duration": 0.004716983333338476, "durationTicks": 1, "midi": 38, "name": "D2", "ticks": 38639, "time": 183.63247301666667, "velocity": 0.33858267716535434}, {"duration": 0.004716983333338476, "durationTicks": 1, "midi": 43, "name": "G2", "ticks": 38640, "time": 183.63719, "velocity": 0.4409448818897638}, {"duration": 0.004716983333338476, "durationTicks": 1, "midi": 38, "name": "D2", "ticks": 38759, "time": 184.19851101666666, "velocity": 0.33070866141732286}, {"duration": 0.004716983333338476, "durationTicks": 1, "midi": 43, "name": "G2", "ticks": 38801, "time": 184.39662431666667, "velocity": 0.2283464566929134}, {"duration": 0.004716983333310054, "durationTicks": 1, "midi": 43, "name": "G2", "ticks": 38841, "time": 184.58530365000001, "velocity": 0.3779527559055118}, {"duration": 0.004716983333310054, "durationTicks": 1, "midi": 38, "name": "D2", "ticks": 38880, "time": 184.76926600000002, "velocity": 0.33858267716535434}, {"duration": 0.004716983333338476, "durationTicks": 1, "midi": 43, "name": "G2", "ticks": 38882, "time": 184.77869996666666, "velocity": 0.4409448818897638}, {"duration": 0.004716983333338476, "durationTicks": 1, "midi": 43, "name": "G2", "ticks": 39000, "time": 185.335304, "velocity": 0.3464566929133858}, {"duration": 0.004716983333338476, "durationTicks": 1, "midi": 38, "name": "D2", "ticks": 39000, "time": 185.335304, "velocity": 0.28346456692913385}, {"duration": 0.004716983333338476, "durationTicks": 1, "midi": 57, "name": "A3", "ticks": 39120, "time": 185.901342, "velocity": 0.5984251968503937}, {"duration": 0.004716983333338476, "durationTicks": 1, "midi": 39, "name": "D#2", "ticks": 39120, "time": 185.901342, "velocity": 0.4409448818897638}, {"duration": 0.004716983333338476, "durationTicks": 1, "midi": 38, "name": "D2", "ticks": 39121, "time": 185.90605898333334, "velocity": 0.33858267716535434}, {"duration": 0.004716983333310054, "durationTicks": 1, "midi": 38, "name": "D2", "ticks": 39239, "time": 186.46266301666668, "velocity": 0.2283464566929134}, {"duration": 0.004716983333338476, "durationTicks": 1, "midi": 43, "name": "G2", "ticks": 39240, "time": 186.46738, "velocity": 0.15748031496062992}, {"duration": 0.004716983333338476, "durationTicks": 1, "midi": 39, "name": "D#2", "ticks": 39240, "time": 186.46738, "velocity": 0.33858267716535434}, {"duration": 0.004716983333338476, "durationTicks": 1, "midi": 39, "name": "D#2", "ticks": 39280, "time": 186.65605933333333, "velocity": 0.3858267716535433}, {"duration": 0.004716983333338476, "durationTicks": 1, "midi": 43, "name": "G2", "ticks": 39282, "time": 186.6654933, "velocity": 0.2283464566929134}, {"duration": 0.004716983333338476, "durationTicks": 1, "midi": 39, "name": "D#2", "ticks": 39320, "time": 186.84473866666667, "velocity": 0.3858267716535433}, {"duration": 0.004716983333310054, "durationTicks": 1, "midi": 43, "name": "G2", "ticks": 39322, "time": 186.85417263333335, "velocity": 0.3779527559055118}, {"duration": 0.004716983333338476, "durationTicks": 1, "midi": 38, "name": "D2", "ticks": 39359, "time": 187.02870101666667, "velocity": 0.3779527559055118}, {"duration": 0.004716983333338476, "durationTicks": 1, "midi": 39, "name": "D#2", "ticks": 39360, "time": 187.033418, "velocity": 0.4566929133858268}, {"duration": 0.004716983333338476, "durationTicks": 1, "midi": 43, "name": "G2", "ticks": 39363, "time": 187.04756895, "velocity": 0.4409448818897638}, {"duration": 0.004716983333338476, "durationTicks": 1, "midi": 38, "name": "D2", "ticks": 39479, "time": 187.59473901666667, "velocity": 0.36220472440944884}, {"duration": 0.004716983333338476, "durationTicks": 1, "midi": 39, "name": "D#2", "ticks": 39480, "time": 187.599456, "velocity": 0.4566929133858268}, {"duration": 0.004716983333310054, "durationTicks": 1, "midi": 43, "name": "G2", "ticks": 39481, "time": 187.60417298333334, "velocity": 0.3464566929133858}, {"duration": 0.004716983333338476, "durationTicks": 1, "midi": 39, "name": "D#2", "ticks": 39600, "time": 188.165494, "velocity": 0.4330708661417323}, {"duration": 0.004716983333338476, "durationTicks": 1, "midi": 38, "name": "D2", "ticks": 39600, "time": 188.165494, "velocity": 0.33070866141732286}, {"duration": 0.004716983333310054, "durationTicks": 1, "midi": 43, "name": "G2", "ticks": 39720, "time": 188.73153200000002, "velocity": 0.15748031496062992}, {"duration": 0.004716983333310054, "durationTicks": 1, "midi": 39, "name": "D#2", "ticks": 39720, "time": 188.73153200000002, "velocity": 0.2677165354330709}, {"duration": 0.004716983333338476, "durationTicks": 1, "midi": 38, "name": "D2", "ticks": 39721, "time": 188.73624898333333, "velocity": 0.2677165354330709}, {"duration": 0.004716983333338476, "durationTicks": 1, "midi": 39, "name": "D#2", "ticks": 39760, "time": 188.92021133333333, "velocity": 0.36220472440944884}, {"duration": 0.004716983333338476, "durationTicks": 1, "midi": 43, "name": "G2", "ticks": 39762, "time": 188.9296453, "velocity": 0.2283464566929134}, {"duration": 0.004716983333338476, "durationTicks": 1, "midi": 39, "name": "D#2", "ticks": 39800, "time": 189.10889066666667, "velocity": 0.3858267716535433}, {"duration": 0.004716983333338476, "durationTicks": 1, "midi": 43, "name": "G2", "ticks": 39802, "time": 189.11832463333334, "velocity": 0.3779527559055118}, {"duration": 0.004716983333338476, "durationTicks": 1, "midi": 39, "name": "D#2", "ticks": 39840, "time": 189.29757, "velocity": 0.4566929133858268}, {"duration": 0.004716983333338476, "durationTicks": 1, "midi": 38, "name": "D2", "ticks": 39840, "time": 189.29757, "velocity": 0.30708661417322836}, {"duration": 0.004716983333338476, "durationTicks": 1, "midi": 43, "name": "G2", "ticks": 39843, "time": 189.31172095, "velocity": 0.4409448818897638}, {"duration": 0.004716983333338476, "durationTicks": 1, "midi": 43, "name": "G2", "ticks": 39915, "time": 189.65134375, "velocity": 0.2283464566929134}, {"duration": 0.004716983333338476, "durationTicks": 1, "midi": 38, "name": "D2", "ticks": 39959, "time": 189.85889101666666, "velocity": 0.28346456692913385}, {"duration": 0.004716983333338476, "durationTicks": 1, "midi": 39, "name": "D#2", "ticks": 39960, "time": 189.863608, "velocity": 0.4330708661417323}, {"duration": 0.004716983333338476, "durationTicks": 1, "midi": 43, "name": "G2", "ticks": 39961, "time": 189.86832498333334, "velocity": 0.3464566929133858}, {"duration": 0.004716983333310054, "durationTicks": 1, "midi": 38, "name": "D2", "ticks": 40079, "time": 190.42492901666668, "velocity": 0.31496062992125984}, {"duration": 0.004716983333366898, "durationTicks": 1, "midi": 39, "name": "D#2", "ticks": 40080, "time": 190.429646, "velocity": 0.4409448818897638}, {"duration": 0.004716983333338476, "durationTicks": 1, "midi": 38, "name": "D2", "ticks": 40199, "time": 190.99096701666667, "velocity": 0.28346456692913385}, {"duration": 0.004716983333338476, "durationTicks": 1, "midi": 43, "name": "G2", "ticks": 40200, "time": 190.995684, "velocity": 0.15748031496062992}, {"duration": 0.004716983333338476, "durationTicks": 1, "midi": 39, "name": "D#2", "ticks": 40200, "time": 190.995684, "velocity": 0.30708661417322836}, {"duration": 0.004716983333310054, "durationTicks": 1, "midi": 39, "name": "D#2", "ticks": 40240, "time": 191.18436333333335, "velocity": 0.2440944881889764}, {"duration": 0.004716983333338476, "durationTicks": 1, "midi": 43, "name": "G2", "ticks": 40242, "time": 191.1937973, "velocity": 0.2283464566929134}, {"duration": 0.004716983333338476, "durationTicks": 1, "midi": 39, "name": "D#2", "ticks": 40280, "time": 191.37304266666666, "velocity": 0.3228346456692913}, {"duration": 0.004716983333338476, "durationTicks": 1, "midi": 43, "name": "G2", "ticks": 40282, "time": 191.38247663333334, "velocity": 0.3779527559055118}, {"duration": 0.004716983333338476, "durationTicks": 1, "midi": 39, "name": "D#2", "ticks": 40320, "time": 191.561722, "velocity": 0.4566929133858268}, {"duration": 0.004716983333338476, "durationTicks": 1, "midi": 38, "name": "D2", "ticks": 40320, "time": 191.561722, "velocity": 0.28346456692913385}, {"duration": 0.004716983333310054, "durationTicks": 1, "midi": 43, "name": "G2", "ticks": 40323, "time": 191.57587295000002, "velocity": 0.4409448818897638}, {"duration": 0.004716983333338476, "durationTicks": 1, "midi": 38, "name": "D2", "ticks": 40439, "time": 192.12304301666666, "velocity": 0.29133858267716534}, {"duration": 0.004716983333338476, "durationTicks": 1, "midi": 39, "name": "D#2", "ticks": 40440, "time": 192.12776, "velocity": 0.3937007874015748}, {"duration": 0.004716983333338476, "durationTicks": 1, "midi": 43, "name": "G2", "ticks": 40441, "time": 192.13247698333333, "velocity": 0.3464566929133858}, {"duration": 0.004716983333310054, "durationTicks": 1, "midi": 43, "name": "G2", "ticks": 40560, "time": 192.69379800000002, "velocity": 0.4409448818897638}, {"duration": 0.004716983333310054, "durationTicks": 1, "midi": 39, "name": "D#2", "ticks": 40560, "time": 192.69379800000002, "velocity": 0.4566929133858268}, {"duration": 0.004716983333338476, "durationTicks": 1, "midi": 38, "name": "D2", "ticks": 40561, "time": 192.69851498333333, "velocity": 0.28346456692913385}, {"duration": 0.004716983333338476, "durationTicks": 1, "midi": 43, "name": "G2", "ticks": 40680, "time": 193.259836, "velocity": 0.3779527559055118}, {"duration": 0.004716983333338476, "durationTicks": 1, "midi": 39, "name": "D#2", "ticks": 40680, "time": 193.259836, "velocity": 0.29133858267716534}, {"duration": 0.004716983333338476, "durationTicks": 1, "midi": 38, "name": "D2", "ticks": 40681, "time": 193.26455298333335, "velocity": 0.28346456692913385}, {"duration": 0.004716983333366898, "durationTicks": 1, "midi": 39, "name": "D#2", "ticks": 40720, "time": 193.44851533333332, "velocity": 0.3228346456692913}, {"duration": 0.004716983333310054, "durationTicks": 1, "midi": 39, "name": "D#2", "ticks": 40760, "time": 193.6371946666667, "velocity": 0.3858267716535433}, {"duration": 0.004716983333338476, "durationTicks": 1, "midi": 43, "name": "G2", "ticks": 40800, "time": 193.825874, "velocity": 0.15748031496062992}, {"duration": 0.004716983333338476, "durationTicks": 1, "midi": 39, "name": "D#2", "ticks": 40800, "time": 193.825874, "velocity": 0.4881889763779528}, {"duration": 0.004716983333338476, "durationTicks": 1, "midi": 38, "name": "D2", "ticks": 40802, "time": 193.83530796666668, "velocity": 0.31496062992125984}, {"duration": 0.004716983333338476, "durationTicks": 1, "midi": 39, "name": "D#2", "ticks": 40840, "time": 194.01455333333334, "velocity": 0.3228346456692913}, {"duration": 0.004716983333366898, "durationTicks": 1, "midi": 43, "name": "G2", "ticks": 40842, "time": 194.0239873, "velocity": 0.2283464566929134}, {"duration": 0.004716983333310054, "durationTicks": 1, "midi": 39, "name": "D#2", "ticks": 40880, "time": 194.20323266666668, "velocity": 0.3858267716535433}, {"duration": 0.004716983333366898, "durationTicks": 1, "midi": 43, "name": "G2", "ticks": 40920, "time": 194.391912, "velocity": 0.3779527559055118}, {"duration": 0.004716983333366898, "durationTicks": 1, "midi": 39, "name": "D#2", "ticks": 40920, "time": 194.391912, "velocity": 0.4409448818897638}, {"duration": 0.004716983333310054, "durationTicks": 1, "midi": 38, "name": "D2", "ticks": 40921, "time": 194.39662898333336, "velocity": 0.31496062992125984}, {"duration": 0.004716983333338476, "durationTicks": 1, "midi": 39, "name": "D#2", "ticks": 40960, "time": 194.58059133333333, "velocity": 0.3228346456692913}, {"duration": 0.004716983333338476, "durationTicks": 1, "midi": 43, "name": "G2", "ticks": 41000, "time": 194.76927066666667, "velocity": 0.2283464566929134}, {"duration": 0.004716983333338476, "durationTicks": 1, "midi": 39, "name": "D#2", "ticks": 41000, "time": 194.76927066666667, "velocity": 0.3858267716535433}, {"duration": 0.004716983333338476, "durationTicks": 1, "midi": 43, "name": "G2", "ticks": 41040, "time": 194.95795, "velocity": 0.4409448818897638}, {"duration": 0.004716983333338476, "durationTicks": 1, "midi": 39, "name": "D#2", "ticks": 41040, "time": 194.95795, "velocity": 0.3937007874015748}, {"duration": 0.004716983333338476, "durationTicks": 1, "midi": 38, "name": "D2", "ticks": 41042, "time": 194.96738396666666, "velocity": 0.33070866141732286}, {"duration": 0.004716983333338476, "durationTicks": 1, "midi": 43, "name": "G2", "ticks": 41160, "time": 195.523988, "velocity": 0.15748031496062992}, {"duration": 0.004716983333338476, "durationTicks": 1, "midi": 39, "name": "D#2", "ticks": 41160, "time": 195.523988, "velocity": 0.33858267716535434}, {"duration": 0.004716983333338476, "durationTicks": 1, "midi": 38, "name": "D2", "ticks": 41162, "time": 195.53342196666668, "velocity": 0.33070866141732286}, {"duration": 0.004716983333338476, "durationTicks": 1, "midi": 39, "name": "D#2", "ticks": 41200, "time": 195.71266733333334, "velocity": 0.4015748031496063}, {"duration": 0.004716983333338476, "durationTicks": 1, "midi": 43, "name": "G2", "ticks": 41202, "time": 195.7221013, "velocity": 0.2283464566929134}, {"duration": 0.004716983333310054, "durationTicks": 1, "midi": 39, "name": "D#2", "ticks": 41240, "time": 195.90134666666668, "velocity": 0.3937007874015748}, {"duration": 0.004716983333338476, "durationTicks": 1, "midi": 43, "name": "G2", "ticks": 41242, "time": 195.91078063333333, "velocity": 0.3779527559055118}, {"duration": 0.004716983333338476, "durationTicks": 1, "midi": 39, "name": "D#2", "ticks": 41280, "time": 196.090026, "velocity": 0.4409448818897638}, {"duration": 0.004716983333338476, "durationTicks": 1, "midi": 38, "name": "D2", "ticks": 41282, "time": 196.09945996666667, "velocity": 0.31496062992125984}, {"duration": 0.004716983333310054, "durationTicks": 1, "midi": 43, "name": "G2", "ticks": 41283, "time": 196.10417695, "velocity": 0.4409448818897638}, {"duration": 0.004716983333310054, "durationTicks": 1, "midi": 39, "name": "D#2", "ticks": 41400, "time": 196.65606400000001, "velocity": 0.3937007874015748}, {"duration": 0.004716983333310054, "durationTicks": 1, "midi": 38, "name": "D2", "ticks": 41400, "time": 196.65606400000001, "velocity": 0.33070866141732286}, {"duration": 0.004716983333338476, "durationTicks": 1, "midi": 43, "name": "G2", "ticks": 41401, "time": 196.66078098333332, "velocity": 0.3464566929133858}, {"duration": 0.004716983333338476, "durationTicks": 1, "midi": 43, "name": "G2", "ticks": 41520, "time": 197.222102, "velocity": 0.3464566929133858}, {"duration": 0.004716983333338476, "durationTicks": 1, "midi": 39, "name": "D#2", "ticks": 41520, "time": 197.222102, "velocity": 0.3858267716535433}, {"duration": 0.004716983333338476, "durationTicks": 1, "midi": 38, "name": "D2", "ticks": 41520, "time": 197.222102, "velocity": 0.29133858267716534}, {"duration": 0.004716983333338476, "durationTicks": 1, "midi": 43, "name": "G2", "ticks": 41640, "time": 197.78814, "velocity": 0.3464566929133858}, {"duration": 0.004716983333338476, "durationTicks": 1, "midi": 39, "name": "D#2", "ticks": 41640, "time": 197.78814, "velocity": 0.36220472440944884}, {"duration": 0.004716983333338476, "durationTicks": 1, "midi": 38, "name": "D2", "ticks": 41640, "time": 197.78814, "velocity": 0.28346456692913385}, {"duration": 0.004716983333338476, "durationTicks": 1, "midi": 39, "name": "D#2", "ticks": 41680, "time": 197.97681933333334, "velocity": 0.36220472440944884}, {"duration": 0.004716983333310054, "durationTicks": 1, "midi": 39, "name": "D#2", "ticks": 41720, "time": 198.16549866666668, "velocity": 0.41732283464566927}, {"duration": 0.004716983333366898, "durationTicks": 1, "midi": 43, "name": "G2", "ticks": 41760, "time": 198.354178, "velocity": 0.3464566929133858}, {"duration": 0.004716983333366898, "durationTicks": 1, "midi": 39, "name": "D#2", "ticks": 41760, "time": 198.354178, "velocity": 0.5118110236220472}, {"duration": 0.004716983333310054, "durationTicks": 1, "midi": 38, "name": "D2", "ticks": 41761, "time": 198.35889498333336, "velocity": 0.33070866141732286}, {"duration": 0.004716983333338476, "durationTicks": 1, "midi": 43, "name": "G2", "ticks": 41880, "time": 198.920216, "velocity": 0.3464566929133858}, {"duration": 0.004716983333338476, "durationTicks": 1, "midi": 39, "name": "D#2", "ticks": 41880, "time": 198.920216, "velocity": 0.4251968503937008}, {"duration": 0.004716983333310054, "durationTicks": 1, "midi": 38, "name": "D2", "ticks": 41881, "time": 198.92493298333335, "velocity": 0.2677165354330709}, {"duration": 0.004716983333338476, "durationTicks": 1, "midi": 43, "name": "G2", "ticks": 41960, "time": 199.29757466666666, "velocity": 0.3779527559055118}, {"duration": 0.004716983333338476, "durationTicks": 1, "midi": 39, "name": "D#2", "ticks": 42000, "time": 199.486254, "velocity": 0.3858267716535433}, {"duration": 0.004716983333338476, "durationTicks": 1, "midi": 43, "name": "G2", "ticks": 42001, "time": 199.49097098333334, "velocity": 0.4409448818897638}, {"duration": 0.004716983333338476, "durationTicks": 1, "midi": 38, "name": "D2", "ticks": 42001, "time": 199.49097098333334, "velocity": 0.28346456692913385}, {"duration": 0.004716983333338476, "durationTicks": 1, "midi": 43, "name": "G2", "ticks": 42120, "time": 200.052292, "velocity": 0.15748031496062992}, {"duration": 0.004716983333338476, "durationTicks": 1, "midi": 39, "name": "D#2", "ticks": 42120, "time": 200.052292, "velocity": 0.29133858267716534}, {"duration": 0.004716983333338476, "durationTicks": 1, "midi": 38, "name": "D2", "ticks": 42121, "time": 200.05700898333333, "velocity": 0.30708661417322836}, {"duration": 0.004716983333338476, "durationTicks": 1, "midi": 39, "name": "D#2", "ticks": 42160, "time": 200.24097133333333, "velocity": 0.3543307086614173}, {"duration": 0.004716983333310054, "durationTicks": 1, "midi": 43, "name": "G2", "ticks": 42162, "time": 200.2504053, "velocity": 0.2283464566929134}, {"duration": 0.004716983333338476, "durationTicks": 1, "midi": 39, "name": "D#2", "ticks": 42200, "time": 200.42965066666667, "velocity": 0.4409448818897638}, {"duration": 0.004716983333338476, "durationTicks": 1, "midi": 43, "name": "G2", "ticks": 42202, "time": 200.43908463333332, "velocity": 0.3779527559055118}, {"duration": 0.004716983333310054, "durationTicks": 1, "midi": 39, "name": "D#2", "ticks": 42240, "time": 200.61833000000001, "velocity": 0.49606299212598426}, {"duration": 0.004716983333338476, "durationTicks": 1, "midi": 38, "name": "D2", "ticks": 42242, "time": 200.62776396666666, "velocity": 0.31496062992125984}, {"duration": 0.004716983333338476, "durationTicks": 1, "midi": 43, "name": "G2", "ticks": 42243, "time": 200.63248095, "velocity": 0.4409448818897638}, {"duration": 0.004716983333338476, "durationTicks": 1, "midi": 39, "name": "D#2", "ticks": 42360, "time": 201.184368, "velocity": 0.4251968503937008}, {"duration": 0.004716983333338476, "durationTicks": 1, "midi": 38, "name": "D2", "ticks": 42361, "time": 201.18908498333334, "velocity": 0.29133858267716534}, {"duration": 0.004716983333338476, "durationTicks": 1, "midi": 43, "name": "G2", "ticks": 42361, "time": 201.18908498333334, "velocity": 0.3464566929133858}, {"duration": 0.004716983333338476, "durationTicks": 1, "midi": 43, "name": "G2", "ticks": 42480, "time": 201.750406, "velocity": 0.4409448818897638}, {"duration": 0.004716983333338476, "durationTicks": 1, "midi": 39, "name": "D#2", "ticks": 42480, "time": 201.750406, "velocity": 0.4409448818897638}, {"duration": 0.004716983333338476, "durationTicks": 1, "midi": 38, "name": "D2", "ticks": 42481, "time": 201.75512298333334, "velocity": 0.33070866141732286}, {"duration": 0.004716983333366898, "durationTicks": 1, "midi": 39, "name": "D#2", "ticks": 42600, "time": 202.316444, "velocity": 0.2992125984251969}, {"duration": 0.004716983333366898, "durationTicks": 1, "midi": 38, "name": "D2", "ticks": 42600, "time": 202.316444, "velocity": 0.28346456692913385}, {"duration": 0.004716983333338476, "durationTicks": 1, "midi": 39, "name": "D#2", "ticks": 42640, "time": 202.50512333333333, "velocity": 0.2755905511811024}, {"duration": 0.004716983333338476, "durationTicks": 1, "midi": 43, "name": "G2", "ticks": 42641, "time": 202.50984031666667, "velocity": 0.2283464566929134}, {"duration": 0.004716983333338476, "durationTicks": 1, "midi": 39, "name": "D#2", "ticks": 42680, "time": 202.69380266666667, "velocity": 0.4409448818897638}, {"duration": 0.004716983333338476, "durationTicks": 1, "midi": 43, "name": "G2", "ticks": 42681, "time": 202.69851965, "velocity": 0.3779527559055118}, {"duration": 0.004716983333338476, "durationTicks": 1, "midi": 38, "name": "D2", "ticks": 42719, "time": 202.87776501666667, "velocity": 0.28346456692913385}, {"duration": 0.004716983333338476, "durationTicks": 1, "midi": 39, "name": "D#2", "ticks": 42720, "time": 202.882482, "velocity": 0.4881889763779528}, {"duration": 0.004716983333338476, "durationTicks": 1, "midi": 43, "name": "G2", "ticks": 42722, "time": 202.89191596666666, "velocity": 0.4409448818897638}, {"duration": 0.004716983333310054, "durationTicks": 1, "midi": 39, "name": "D#2", "ticks": 42760, "time": 203.07116133333335, "velocity": 0.2992125984251969}, {"duration": 0.004716983333338476, "durationTicks": 1, "midi": 39, "name": "D#2", "ticks": 42800, "time": 203.25984066666666, "velocity": 0.2755905511811024}, {"duration": 0.004716983333310054, "durationTicks": 1, "midi": 38, "name": "D2", "ticks": 42838, "time": 203.43908603333335, "velocity": 0.2677165354330709}, {"duration": 0.004716983333338476, "durationTicks": 1, "midi": 39, "name": "D#2", "ticks": 42840, "time": 203.44852, "velocity": 0.3937007874015748}, {"duration": 0.004716983333338476, "durationTicks": 1, "midi": 43, "name": "G2", "ticks": 42840, "time": 203.44852, "velocity": 0.3464566929133858}, {"duration": 0.004716983333338476, "durationTicks": 1, "midi": 39, "name": "D#2", "ticks": 42880, "time": 203.63719933333334, "velocity": 0.2992125984251969}, {"duration": 0.004716983333310054, "durationTicks": 1, "midi": 39, "name": "D#2", "ticks": 42920, "time": 203.82587866666668, "velocity": 0.2755905511811024}, {"duration": 0.004716983333366898, "durationTicks": 1, "midi": 38, "name": "D2", "ticks": 42959, "time": 204.00984101666666, "velocity": 0.33070866141732286}, {"duration": 0.004716983333310054, "durationTicks": 1, "midi": 39, "name": "D#2", "ticks": 42960, "time": 204.01455800000002, "velocity": 0.4409448818897638}, {"duration": 0.004716983333310054, "durationTicks": 1, "midi": 39, "name": "D#2", "ticks": 43080, "time": 204.580596, "velocity": 0.2992125984251969}, {"duration": 0.004716983333310054, "durationTicks": 1, "midi": 38, "name": "D2", "ticks": 43080, "time": 204.580596, "velocity": 0.33858267716535434}, {"duration": 0.004716983333366898, "durationTicks": 1, "midi": 39, "name": "D#2", "ticks": 43120, "time": 204.76927533333333, "velocity": 0.25196850393700787}, {"duration": 0.004716983333310054, "durationTicks": 1, "midi": 39, "name": "D#2", "ticks": 43160, "time": 204.9579546666667, "velocity": 0.25984251968503935}, {"duration": 0.004716983333338476, "durationTicks": 1, "midi": 39, "name": "D#2", "ticks": 43200, "time": 205.146634, "velocity": 0.5118110236220472}, {"duration": 0.004716983333338476, "durationTicks": 1, "midi": 38, "name": "D2", "ticks": 43200, "time": 205.146634, "velocity": 0.33070866141732286}, {"duration": 0.004716983333338476, "durationTicks": 1, "midi": 39, "name": "D#2", "ticks": 43320, "time": 205.712672, "velocity": 0.4566929133858268}, {"duration": 0.004716983333338476, "durationTicks": 1, "midi": 38, "name": "D2", "ticks": 43320, "time": 205.712672, "velocity": 0.28346456692913385}, {"duration": 0.004716983333310054, "durationTicks": 1, "midi": 38, "name": "D2", "ticks": 43439, "time": 206.27399301666668, "velocity": 0.33858267716535434}, {"duration": 0.004716983333366898, "durationTicks": 1, "midi": 39, "name": "D#2", "ticks": 43440, "time": 206.27871, "velocity": 0.4566929133858268}, {"duration": 0.004716983333338476, "durationTicks": 1, "midi": 38, "name": "D2", "ticks": 43559, "time": 206.84003101666667, "velocity": 0.33070866141732286}, {"duration": 0.004716983333338476, "durationTicks": 1, "midi": 39, "name": "D#2", "ticks": 43560, "time": 206.844748, "velocity": 0.2992125984251969}, {"duration": 0.004716983333310054, "durationTicks": 1, "midi": 39, "name": "D#2", "ticks": 43600, "time": 207.03342733333335, "velocity": 0.33858267716535434}, {"duration": 0.004716983333338476, "durationTicks": 1, "midi": 39, "name": "D#2", "ticks": 43640, "time": 207.22210666666666, "velocity": 0.36220472440944884}, {"duration": 0.004716983333338476, "durationTicks": 1, "midi": 39, "name": "D#2", "ticks": 43680, "time": 207.410786, "velocity": 0.47244094488188976}, {"duration": 0.004716983333338476, "durationTicks": 1, "midi": 38, "name": "D2", "ticks": 43680, "time": 207.410786, "velocity": 0.33858267716535434}, {"duration": 0.004716983333310054, "durationTicks": 1, "midi": 39, "name": "D#2", "ticks": 43800, "time": 207.97682400000002, "velocity": 0.4881889763779528}, {"duration": 0.004716983333310054, "durationTicks": 1, "midi": 38, "name": "D2", "ticks": 43800, "time": 207.97682400000002, "velocity": 0.28346456692913385}, {"duration": 0.004716983333310054, "durationTicks": 1, "midi": 57, "name": "A3", "ticks": 43920, "time": 208.542862, "velocity": 0.5984251968503937}, {"duration": 0.004716983333310054, "durationTicks": 1, "midi": 39, "name": "D#2", "ticks": 43920, "time": 208.542862, "velocity": 0.4409448818897638}, {"duration": 0.004716983333366898, "durationTicks": 1, "midi": 38, "name": "D2", "ticks": 43921, "time": 208.54757898333332, "velocity": 0.33858267716535434}, {"duration": 0.004716983333338476, "durationTicks": 1, "midi": 38, "name": "D2", "ticks": 44039, "time": 209.10418301666667, "velocity": 0.2283464566929134}, {"duration": 0.004716983333338476, "durationTicks": 1, "midi": 43, "name": "G2", "ticks": 44040, "time": 209.1089, "velocity": 0.15748031496062992}, {"duration": 0.004716983333338476, "durationTicks": 1, "midi": 39, "name": "D#2", "ticks": 44040, "time": 209.1089, "velocity": 0.33858267716535434}, {"duration": 0.004716983333366898, "durationTicks": 1, "midi": 39, "name": "D#2", "ticks": 44080, "time": 209.29757933333332, "velocity": 0.3858267716535433}, {"duration": 0.004716983333338476, "durationTicks": 1, "midi": 43, "name": "G2", "ticks": 44082, "time": 209.3070133, "velocity": 0.2283464566929134}, {"duration": 0.004716983333310054, "durationTicks": 1, "midi": 39, "name": "D#2", "ticks": 44120, "time": 209.48625866666669, "velocity": 0.3858267716535433}, {"duration": 0.004716983333338476, "durationTicks": 1, "midi": 43, "name": "G2", "ticks": 44122, "time": 209.49569263333333, "velocity": 0.3779527559055118}, {"duration": 0.004716983333310054, "durationTicks": 1, "midi": 38, "name": "D2", "ticks": 44159, "time": 209.6702210166667, "velocity": 0.3779527559055118}, {"duration": 0.004716983333338476, "durationTicks": 1, "midi": 39, "name": "D#2", "ticks": 44160, "time": 209.674938, "velocity": 0.4566929133858268}, {"duration": 0.004716983333338476, "durationTicks": 1, "midi": 43, "name": "G2", "ticks": 44163, "time": 209.68908895, "velocity": 0.4409448818897638}, {"duration": 0.004716983333310054, "durationTicks": 1, "midi": 38, "name": "D2", "ticks": 44279, "time": 210.23625901666668, "velocity": 0.36220472440944884}, {"duration": 0.004716983333366898, "durationTicks": 1, "midi": 39, "name": "D#2", "ticks": 44280, "time": 210.240976, "velocity": 0.4566929133858268}, {"duration": 0.004716983333310054, "durationTicks": 1, "midi": 43, "name": "G2", "ticks": 44281, "time": 210.24569298333336, "velocity": 0.3464566929133858}, {"duration": 0.004716983333338476, "durationTicks": 1, "midi": 39, "name": "D#2", "ticks": 44400, "time": 210.807014, "velocity": 0.4330708661417323}, {"duration": 0.004716983333338476, "durationTicks": 1, "midi": 38, "name": "D2", "ticks": 44400, "time": 210.807014, "velocity": 0.33070866141732286}, {"duration": 0.004716983333338476, "durationTicks": 1, "midi": 43, "name": "G2", "ticks": 44520, "time": 211.373052, "velocity": 0.15748031496062992}, {"duration": 0.004716983333338476, "durationTicks": 1, "midi": 39, "name": "D#2", "ticks": 44520, "time": 211.373052, "velocity": 0.2677165354330709}, {"duration": 0.004716983333338476, "durationTicks": 1, "midi": 38, "name": "D2", "ticks": 44521, "time": 211.37776898333334, "velocity": 0.2677165354330709}, {"duration": 0.004716983333338476, "durationTicks": 1, "midi": 39, "name": "D#2", "ticks": 44560, "time": 211.56173133333334, "velocity": 0.36220472440944884}, {"duration": 0.004716983333310054, "durationTicks": 1, "midi": 43, "name": "G2", "ticks": 44562, "time": 211.57116530000002, "velocity": 0.2283464566929134}, {"duration": 0.004716983333338476, "durationTicks": 1, "midi": 39, "name": "D#2", "ticks": 44600, "time": 211.75041066666668, "velocity": 0.3858267716535433}, {"duration": 0.004716983333338476, "durationTicks": 1, "midi": 43, "name": "G2", "ticks": 44602, "time": 211.75984463333333, "velocity": 0.3779527559055118}, {"duration": 0.004716983333310054, "durationTicks": 1, "midi": 57, "name": "A3", "ticks": 44640, "time": 211.93909000000002, "velocity": 0.5984251968503937}, {"duration": 0.004716983333310054, "durationTicks": 1, "midi": 39, "name": "D#2", "ticks": 44640, "time": 211.93909000000002, "velocity": 0.4566929133858268}, {"duration": 0.004716983333310054, "durationTicks": 1, "midi": 38, "name": "D2", "ticks": 44640, "time": 211.93909000000002, "velocity": 0.30708661417322836}, {"duration": 0.004716983333310054, "durationTicks": 1, "midi": 43, "name": "G2", "ticks": 44643, "time": 211.95324095, "velocity": 0.4409448818897638}, {"duration": 0.004716983333338476, "durationTicks": 1, "midi": 39, "name": "D#2", "ticks": 44680, "time": 212.12776933333333, "velocity": 0.2677165354330709}, {"duration": 0.004716983333338476, "durationTicks": 1, "midi": 43, "name": "G2", "ticks": 44715, "time": 212.29286375, "velocity": 0.2283464566929134}, {"duration": 0.004716983333338476, "durationTicks": 1, "midi": 39, "name": "D#2", "ticks": 44720, "time": 212.31644866666667, "velocity": 0.36220472440944884}, {"duration": 0.004716983333338476, "durationTicks": 1, "midi": 38, "name": "D2", "ticks": 44759, "time": 212.50041101666667, "velocity": 0.28346456692913385}, {"duration": 0.004716983333310054, "durationTicks": 1, "midi": 39, "name": "D#2", "ticks": 44760, "time": 212.505128, "velocity": 0.4330708661417323}, {"duration": 0.004716983333366898, "durationTicks": 1, "midi": 43, "name": "G2", "ticks": 44761, "time": 212.50984498333332, "velocity": 0.3464566929133858}, {"duration": 0.004716983333366898, "durationTicks": 1, "midi": 39, "name": "D#2", "ticks": 44800, "time": 212.69380733333333, "velocity": 0.2677165354330709}, {"duration": 0.004716983333310054, "durationTicks": 1, "midi": 39, "name": "D#2", "ticks": 44840, "time": 212.8824866666667, "velocity": 0.36220472440944884}, {"duration": 0.004716983333338476, "durationTicks": 1, "midi": 38, "name": "D2", "ticks": 44879, "time": 213.06644901666667, "velocity": 0.31496062992125984}, {"duration": 0.004716983333310054, "durationTicks": 1, "midi": 39, "name": "D#2", "ticks": 44880, "time": 213.071166, "velocity": 0.4409448818897638}, {"duration": 0.004716983333310054, "durationTicks": 1, "midi": 38, "name": "D2", "ticks": 44999, "time": 213.6324870166667, "velocity": 0.28346456692913385}, {"duration": 0.004716983333338476, "durationTicks": 1, "midi": 43, "name": "G2", "ticks": 45000, "time": 213.637204, "velocity": 0.15748031496062992}, {"duration": 0.004716983333338476, "durationTicks": 1, "midi": 39, "name": "D#2", "ticks": 45000, "time": 213.637204, "velocity": 0.30708661417322836}, {"duration": 0.004716983333338476, "durationTicks": 1, "midi": 39, "name": "D#2", "ticks": 45040, "time": 213.82588333333334, "velocity": 0.2440944881889764}, {"duration": 0.004716983333338476, "durationTicks": 1, "midi": 43, "name": "G2", "ticks": 45042, "time": 213.83531729999999, "velocity": 0.2283464566929134}, {"duration": 0.004716983333338476, "durationTicks": 1, "midi": 39, "name": "D#2", "ticks": 45080, "time": 214.01456266666668, "velocity": 0.3228346456692913}, {"duration": 0.004716983333310054, "durationTicks": 1, "midi": 43, "name": "G2", "ticks": 45082, "time": 214.02399663333335, "velocity": 0.3779527559055118}, {"duration": 0.004716983333338476, "durationTicks": 1, "midi": 39, "name": "D#2", "ticks": 45120, "time": 214.203242, "velocity": 0.4566929133858268}, {"duration": 0.004716983333338476, "durationTicks": 1, "midi": 38, "name": "D2", "ticks": 45120, "time": 214.203242, "velocity": 0.28346456692913385}, {"duration": 0.004716983333338476, "durationTicks": 1, "midi": 43, "name": "G2", "ticks": 45123, "time": 214.21739295, "velocity": 0.4409448818897638}, {"duration": 0.004716983333338476, "durationTicks": 1, "midi": 38, "name": "D2", "ticks": 45239, "time": 214.76456301666667, "velocity": 0.29133858267716534}, {"duration": 0.004716983333338476, "durationTicks": 1, "midi": 39, "name": "D#2", "ticks": 45240, "time": 214.76928, "velocity": 0.3937007874015748}, {"duration": 0.004716983333338476, "durationTicks": 1, "midi": 43, "name": "G2", "ticks": 45241, "time": 214.77399698333335, "velocity": 0.3464566929133858}, {"duration": 0.004716983333338476, "durationTicks": 1, "midi": 43, "name": "G2", "ticks": 45360, "time": 215.335318, "velocity": 0.4409448818897638}, {"duration": 0.004716983333338476, "durationTicks": 1, "midi": 39, "name": "D#2", "ticks": 45360, "time": 215.335318, "velocity": 0.4566929133858268}, {"duration": 0.004716983333338476, "durationTicks": 1, "midi": 38, "name": "D2", "ticks": 45361, "time": 215.34003498333334, "velocity": 0.28346456692913385}, {"duration": 0.004716983333310054, "durationTicks": 1, "midi": 43, "name": "G2", "ticks": 45480, "time": 215.90135600000002, "velocity": 0.3779527559055118}, {"duration": 0.004716983333310054, "durationTicks": 1, "midi": 39, "name": "D#2", "ticks": 45480, "time": 215.90135600000002, "velocity": 0.29133858267716534}, {"duration": 0.004716983333366898, "durationTicks": 1, "midi": 38, "name": "D2", "ticks": 45481, "time": 215.90607298333333, "velocity": 0.28346456692913385}, {"duration": 0.004716983333338476, "durationTicks": 1, "midi": 39, "name": "D#2", "ticks": 45520, "time": 216.09003533333333, "velocity": 0.3228346456692913}, {"duration": 0.004716983333338476, "durationTicks": 1, "midi": 39, "name": "D#2", "ticks": 45560, "time": 216.27871466666667, "velocity": 0.3858267716535433}, {"duration": 0.004716983333310054, "durationTicks": 1, "midi": 43, "name": "G2", "ticks": 45600, "time": 216.467394, "velocity": 0.15748031496062992}, {"duration": 0.004716983333310054, "durationTicks": 1, "midi": 57, "name": "A3", "ticks": 45600, "time": 216.467394, "velocity": 0.5984251968503937}, {"duration": 0.004716983333310054, "durationTicks": 1, "midi": 39, "name": "D#2", "ticks": 45600, "time": 216.467394, "velocity": 0.4881889763779528}, {"duration": 0.004716983333310054, "durationTicks": 1, "midi": 38, "name": "D2", "ticks": 45602, "time": 216.4768279666667, "velocity": 0.31496062992125984}, {"duration": 0.004716983333366898, "durationTicks": 1, "midi": 39, "name": "D#2", "ticks": 45640, "time": 216.65607333333332, "velocity": 0.3228346456692913}, {"duration": 0.004716983333310054, "durationTicks": 1, "midi": 43, "name": "G2", "ticks": 45642, "time": 216.6655073, "velocity": 0.2283464566929134}, {"duration": 0.004716983333338476, "durationTicks": 1, "midi": 39, "name": "D#2", "ticks": 45680, "time": 216.84475266666666, "velocity": 0.3858267716535433}, {"duration": 0.004716983333310054, "durationTicks": 1, "midi": 43, "name": "G2", "ticks": 45720, "time": 217.033432, "velocity": 0.3779527559055118}, {"duration": 0.004716983333310054, "durationTicks": 1, "midi": 39, "name": "D#2", "ticks": 45720, "time": 217.033432, "velocity": 0.4409448818897638}, {"duration": 0.004716983333366898, "durationTicks": 1, "midi": 38, "name": "D2", "ticks": 45721, "time": 217.03814898333331, "velocity": 0.31496062992125984}, {"duration": 0.004716983333338476, "durationTicks": 1, "midi": 39, "name": "D#2", "ticks": 45760, "time": 217.22211133333334, "velocity": 0.2677165354330709}, {"duration": 0.004716983333338476, "durationTicks": 1, "midi": 39, "name": "D#2", "ticks": 45760, "time": 217.22211133333334, "velocity": 0.3228346456692913}, {"duration": 0.004716983333310054, "durationTicks": 1, "midi": 43, "name": "G2", "ticks": 45800, "time": 217.41079066666668, "velocity": 0.2283464566929134}, {"duration": 0.004716983333310054, "durationTicks": 1, "midi": 39, "name": "D#2", "ticks": 45800, "time": 217.41079066666668, "velocity": 0.36220472440944884}, {"duration": 0.004716983333310054, "durationTicks": 1, "midi": 39, "name": "D#2", "ticks": 45800, "time": 217.41079066666668, "velocity": 0.3858267716535433}, {"duration": 0.004716983333338476, "durationTicks": 1, "midi": 43, "name": "G2", "ticks": 45840, "time": 217.59947, "velocity": 0.4409448818897638}, {"duration": 0.004716983333338476, "durationTicks": 1, "midi": 39, "name": "D#2", "ticks": 45840, "time": 217.59947, "velocity": 0.3937007874015748}, {"duration": 0.004716983333338476, "durationTicks": 1, "midi": 38, "name": "D2", "ticks": 45842, "time": 217.60890396666667, "velocity": 0.33070866141732286}, {"duration": 0.004716983333366898, "durationTicks": 1, "midi": 43, "name": "G2", "ticks": 45960, "time": 218.165508, "velocity": 0.15748031496062992}, {"duration": 0.004716983333366898, "durationTicks": 1, "midi": 39, "name": "D#2", "ticks": 45960, "time": 218.165508, "velocity": 0.33858267716535434}, {"duration": 0.004716983333338476, "durationTicks": 1, "midi": 38, "name": "D2", "ticks": 45962, "time": 218.17494196666667, "velocity": 0.33070866141732286}, {"duration": 0.004716983333310054, "durationTicks": 1, "midi": 39, "name": "D#2", "ticks": 46000, "time": 218.35418733333336, "velocity": 0.4015748031496063}, {"duration": 0.004716983333338476, "durationTicks": 1, "midi": 43, "name": "G2", "ticks": 46002, "time": 218.3636213, "velocity": 0.2283464566929134}, {"duration": 0.004716983333338476, "durationTicks": 1, "midi": 39, "name": "D#2", "ticks": 46040, "time": 218.54286666666667, "velocity": 0.3937007874015748}, {"duration": 0.004716983333310054, "durationTicks": 1, "midi": 43, "name": "G2", "ticks": 46042, "time": 218.55230063333335, "velocity": 0.3779527559055118}, {"duration": 0.004716983333338476, "durationTicks": 1, "midi": 39, "name": "D#2", "ticks": 46080, "time": 218.731546, "velocity": 0.4409448818897638}, {"duration": 0.004716983333338476, "durationTicks": 1, "midi": 38, "name": "D2", "ticks": 46082, "time": 218.74097996666669, "velocity": 0.31496062992125984}, {"duration": 0.004716983333310054, "durationTicks": 1, "midi": 43, "name": "G2", "ticks": 46083, "time": 218.74569695000002, "velocity": 0.4409448818897638}, {"duration": 0.004716983333338476, "durationTicks": 1, "midi": 39, "name": "D#2", "ticks": 46200, "time": 219.297584, "velocity": 0.3937007874015748}, {"duration": 0.004716983333338476, "durationTicks": 1, "midi": 38, "name": "D2", "ticks": 46200, "time": 219.297584, "velocity": 0.33070866141732286}, {"duration": 0.004716983333338476, "durationTicks": 1, "midi": 43, "name": "G2", "ticks": 46201, "time": 219.30230098333334, "velocity": 0.3464566929133858}, {"duration": 0.004716983333310054, "durationTicks": 1, "midi": 43, "name": "G2", "ticks": 46320, "time": 219.86362200000002, "velocity": 0.3464566929133858}, {"duration": 0.004716983333310054, "durationTicks": 1, "midi": 39, "name": "D#2", "ticks": 46320, "time": 219.86362200000002, "velocity": 0.3858267716535433}, {"duration": 0.004716983333310054, "durationTicks": 1, "midi": 38, "name": "D2", "ticks": 46320, "time": 219.86362200000002, "velocity": 0.29133858267716534}, {"duration": 0.004716983333310054, "durationTicks": 1, "midi": 43, "name": "G2", "ticks": 46440, "time": 220.42966, "velocity": 0.3464566929133858}, {"duration": 0.004716983333310054, "durationTicks": 1, "midi": 39, "name": "D#2", "ticks": 46440, "time": 220.42966, "velocity": 0.36220472440944884}, {"duration": 0.004716983333310054, "durationTicks": 1, "midi": 38, "name": "D2", "ticks": 46440, "time": 220.42966, "velocity": 0.28346456692913385}, {"duration": 0.004716983333366898, "durationTicks": 1, "midi": 39, "name": "D#2", "ticks": 46480, "time": 220.61833933333332, "velocity": 0.36220472440944884}, {"duration": 0.004716983333338476, "durationTicks": 1, "midi": 39, "name": "D#2", "ticks": 46520, "time": 220.80701866666666, "velocity": 0.41732283464566927}, {"duration": 0.004716983333310054, "durationTicks": 1, "midi": 43, "name": "G2", "ticks": 46560, "time": 220.995698, "velocity": 0.3464566929133858}, {"duration": 0.004716983333310054, "durationTicks": 1, "midi": 57, "name": "A3", "ticks": 46560, "time": 220.995698, "velocity": 0.5984251968503937}, {"duration": 0.004716983333310054, "durationTicks": 1, "midi": 39, "name": "D#2", "ticks": 46560, "time": 220.995698, "velocity": 0.5118110236220472}, {"duration": 0.004716983333366898, "durationTicks": 1, "midi": 38, "name": "D2", "ticks": 46561, "time": 221.00041498333331, "velocity": 0.33070866141732286}, {"duration": 0.004716983333338476, "durationTicks": 1, "midi": 43, "name": "G2", "ticks": 46680, "time": 221.561736, "velocity": 0.3464566929133858}, {"duration": 0.004716983333338476, "durationTicks": 1, "midi": 39, "name": "D#2", "ticks": 46680, "time": 221.561736, "velocity": 0.4251968503937008}, {"duration": 0.004716983333338476, "durationTicks": 1, "midi": 38, "name": "D2", "ticks": 46681, "time": 221.56645298333333, "velocity": 0.2677165354330709}, {"duration": 0.004716983333310054, "durationTicks": 1, "midi": 39, "name": "D#2", "ticks": 46720, "time": 221.75041533333336, "velocity": 0.2677165354330709}, {"duration": 0.004716983333338476, "durationTicks": 1, "midi": 43, "name": "G2", "ticks": 46760, "time": 221.93909466666668, "velocity": 0.3779527559055118}, {"duration": 0.004716983333338476, "durationTicks": 1, "midi": 39, "name": "D#2", "ticks": 46760, "time": 221.93909466666668, "velocity": 0.36220472440944884}, {"duration": 0.004716983333366898, "durationTicks": 1, "midi": 39, "name": "D#2", "ticks": 46800, "time": 222.127774, "velocity": 0.3858267716535433}, {"duration": 0.004716983333310054, "durationTicks": 1, "midi": 43, "name": "G2", "ticks": 46801, "time": 222.13249098333335, "velocity": 0.4409448818897638}, {"duration": 0.004716983333310054, "durationTicks": 1, "midi": 38, "name": "D2", "ticks": 46801, "time": 222.13249098333335, "velocity": 0.28346456692913385}, {"duration": 0.004716983333338476, "durationTicks": 1, "midi": 43, "name": "G2", "ticks": 46920, "time": 222.693812, "velocity": 0.15748031496062992}, {"duration": 0.004716983333338476, "durationTicks": 1, "midi": 39, "name": "D#2", "ticks": 46920, "time": 222.693812, "velocity": 0.29133858267716534}, {"duration": 0.004716983333338476, "durationTicks": 1, "midi": 38, "name": "D2", "ticks": 46921, "time": 222.69852898333335, "velocity": 0.30708661417322836}, {"duration": 0.004716983333310054, "durationTicks": 1, "midi": 39, "name": "D#2", "ticks": 46960, "time": 222.88249133333335, "velocity": 0.3543307086614173}, {"duration": 0.004716983333338476, "durationTicks": 1, "midi": 43, "name": "G2", "ticks": 46962, "time": 222.8919253, "velocity": 0.2283464566929134}, {"duration": 0.004716983333366898, "durationTicks": 1, "midi": 39, "name": "D#2", "ticks": 47000, "time": 223.07117066666666, "velocity": 0.4409448818897638}, {"duration": 0.004716983333338476, "durationTicks": 1, "midi": 43, "name": "G2", "ticks": 47002, "time": 223.08060463333334, "velocity": 0.3779527559055118}, {"duration": 0.004716983333338476, "durationTicks": 1, "midi": 39, "name": "D#2", "ticks": 47040, "time": 223.25985, "velocity": 0.49606299212598426}, {"duration": 0.004716983333338476, "durationTicks": 1, "midi": 38, "name": "D2", "ticks": 47042, "time": 223.26928396666668, "velocity": 0.31496062992125984}, {"duration": 0.004716983333310054, "durationTicks": 1, "midi": 43, "name": "G2", "ticks": 47043, "time": 223.27400095000002, "velocity": 0.4409448818897638}, {"duration": 0.004716983333310054, "durationTicks": 1, "midi": 39, "name": "D#2", "ticks": 47160, "time": 223.82588800000002, "velocity": 0.4251968503937008}, {"duration": 0.004716983333366898, "durationTicks": 1, "midi": 38, "name": "D2", "ticks": 47161, "time": 223.83060498333333, "velocity": 0.29133858267716534}, {"duration": 0.004716983333366898, "durationTicks": 1, "midi": 43, "name": "G2", "ticks": 47161, "time": 223.83060498333333, "velocity": 0.3464566929133858}, {"duration": 0.004716983333310054, "durationTicks": 1, "midi": 43, "name": "G2", "ticks": 47280, "time": 224.391926, "velocity": 0.4409448818897638}, {"duration": 0.004716983333310054, "durationTicks": 1, "midi": 39, "name": "D#2", "ticks": 47280, "time": 224.391926, "velocity": 0.4409448818897638}, {"duration": 0.004716983333366898, "durationTicks": 1, "midi": 38, "name": "D2", "ticks": 47281, "time": 224.39664298333332, "velocity": 0.33070866141732286}, {"duration": 0.004716983333310054, "durationTicks": 1, "midi": 39, "name": "D#2", "ticks": 47400, "time": 224.957964, "velocity": 0.2992125984251969}, {"duration": 0.004716983333310054, "durationTicks": 1, "midi": 38, "name": "D2", "ticks": 47400, "time": 224.957964, "velocity": 0.28346456692913385}, {"duration": 0.004716983333338476, "durationTicks": 1, "midi": 39, "name": "D#2", "ticks": 47440, "time": 225.14664333333334, "velocity": 0.2755905511811024}, {"duration": 0.004716983333310054, "durationTicks": 1, "midi": 43, "name": "G2", "ticks": 47441, "time": 225.15136031666668, "velocity": 0.2283464566929134}, {"duration": 0.004716983333310054, "durationTicks": 1, "midi": 39, "name": "D#2", "ticks": 47480, "time": 225.33532266666668, "velocity": 0.4409448818897638}, {"duration": 0.004716983333366898, "durationTicks": 1, "midi": 43, "name": "G2", "ticks": 47481, "time": 225.34003965, "velocity": 0.3779527559055118}, {"duration": 0.004716983333310054, "durationTicks": 1, "midi": 38, "name": "D2", "ticks": 47519, "time": 225.5192850166667, "velocity": 0.28346456692913385}, {"duration": 0.004716983333338476, "durationTicks": 1, "midi": 57, "name": "A3", "ticks": 47520, "time": 225.524002, "velocity": 0.5984251968503937}, {"duration": 0.004716983333338476, "durationTicks": 1, "midi": 39, "name": "D#2", "ticks": 47520, "time": 225.524002, "velocity": 0.4881889763779528}, {"duration": 0.004716983333338476, "durationTicks": 1, "midi": 43, "name": "G2", "ticks": 47522, "time": 225.53343596666667, "velocity": 0.4409448818897638}, {"duration": 0.004716983333310054, "durationTicks": 1, "midi": 39, "name": "D#2", "ticks": 47560, "time": 225.71268133333336, "velocity": 0.2992125984251969}, {"duration": 0.004716983333338476, "durationTicks": 1, "midi": 39, "name": "D#2", "ticks": 47600, "time": 225.90136066666668, "velocity": 0.2755905511811024}, {"duration": 0.004716983333366898, "durationTicks": 1, "midi": 38, "name": "D2", "ticks": 47638, "time": 226.0806060333333, "velocity": 0.2677165354330709}, {"duration": 0.004716983333366898, "durationTicks": 1, "midi": 39, "name": "D#2", "ticks": 47640, "time": 226.09004, "velocity": 0.3937007874015748}, {"duration": 0.004716983333366898, "durationTicks": 1, "midi": 43, "name": "G2", "ticks": 47640, "time": 226.09004, "velocity": 0.3464566929133858}, {"duration": 0.004716983333310054, "durationTicks": 1, "midi": 39, "name": "D#2", "ticks": 47680, "time": 226.27871933333336, "velocity": 0.2677165354330709}, {"duration": 0.004716983333310054, "durationTicks": 1, "midi": 39, "name": "D#2", "ticks": 47680, "time": 226.27871933333336, "velocity": 0.2992125984251969}, {"duration": 0.004716983333338476, "durationTicks": 1, "midi": 39, "name": "D#2", "ticks": 47720, "time": 226.46739866666667, "velocity": 0.36220472440944884}, {"duration": 0.004716983333338476, "durationTicks": 1, "midi": 39, "name": "D#2", "ticks": 47720, "time": 226.46739866666667, "velocity": 0.2755905511811024}, {"duration": 0.004716983333338476, "durationTicks": 1, "midi": 38, "name": "D2", "ticks": 47759, "time": 226.65136101666667, "velocity": 0.33070866141732286}, {"duration": 0.004716983333338476, "durationTicks": 1, "midi": 39, "name": "D#2", "ticks": 47760, "time": 226.656078, "velocity": 0.4409448818897638}, {"duration": 0.004716983333338476, "durationTicks": 1, "midi": 39, "name": "D#2", "ticks": 47880, "time": 227.222116, "velocity": 0.2992125984251969}, {"duration": 0.004716983333338476, "durationTicks": 1, "midi": 38, "name": "D2", "ticks": 47880, "time": 227.222116, "velocity": 0.33858267716535434}, {"duration": 0.004716983333338476, "durationTicks": 1, "midi": 39, "name": "D#2", "ticks": 47920, "time": 227.41079533333334, "velocity": 0.25196850393700787}, {"duration": 0.004716983333366898, "durationTicks": 1, "midi": 39, "name": "D#2", "ticks": 47960, "time": 227.59947466666665, "velocity": 0.25984251968503935}, {"duration": 0.004716983333310054, "durationTicks": 1, "midi": 39, "name": "D#2", "ticks": 48000, "time": 227.78815400000002, "velocity": 0.5118110236220472}, {"duration": 0.004716983333310054, "durationTicks": 1, "midi": 38, "name": "D2", "ticks": 48000, "time": 227.78815400000002, "velocity": 0.33070866141732286}, {"duration": 0.004716983333310054, "durationTicks": 1, "midi": 39, "name": "D#2", "ticks": 48120, "time": 228.354192, "velocity": 0.4566929133858268}, {"duration": 0.004716983333310054, "durationTicks": 1, "midi": 38, "name": "D2", "ticks": 48120, "time": 228.354192, "velocity": 0.28346456692913385}, {"duration": 0.004716983333310054, "durationTicks": 1, "midi": 38, "name": "D2", "ticks": 48239, "time": 228.9155130166667, "velocity": 0.33858267716535434}, {"duration": 0.004716983333338476, "durationTicks": 1, "midi": 52, "name": "E3", "ticks": 48240, "time": 228.92023, "velocity": 0.6299212598425197}, {"duration": 0.004716983333338476, "durationTicks": 1, "midi": 39, "name": "D#2", "ticks": 48240, "time": 228.92023, "velocity": 0.4566929133858268}, {"duration": 0.004716983333310054, "durationTicks": 1, "midi": 38, "name": "D2", "ticks": 48359, "time": 229.48155101666669, "velocity": 0.33070866141732286}, {"duration": 0.004716983333338476, "durationTicks": 1, "midi": 39, "name": "D#2", "ticks": 48360, "time": 229.486268, "velocity": 0.2992125984251969}, {"duration": 0.004716983333310054, "durationTicks": 1, "midi": 39, "name": "D#2", "ticks": 48400, "time": 229.67494733333336, "velocity": 0.33858267716535434}, {"duration": 0.004716983333338476, "durationTicks": 1, "midi": 39, "name": "D#2", "ticks": 48440, "time": 229.86362666666668, "velocity": 0.36220472440944884}, {"duration": 0.004716983333366898, "durationTicks": 1, "midi": 52, "name": "E3", "ticks": 48480, "time": 230.052306, "velocity": 0.6850393700787402}, {"duration": 0.004716983333366898, "durationTicks": 1, "midi": 39, "name": "D#2", "ticks": 48480, "time": 230.052306, "velocity": 0.47244094488188976}, {"duration": 0.004716983333366898, "durationTicks": 1, "midi": 38, "name": "D2", "ticks": 48480, "time": 230.052306, "velocity": 0.33858267716535434}, {"duration": 0.004716983333338476, "durationTicks": 1, "midi": 39, "name": "D#2", "ticks": 48600, "time": 230.618344, "velocity": 0.4881889763779528}, {"duration": 0.004716983333338476, "durationTicks": 1, "midi": 38, "name": "D2", "ticks": 48600, "time": 230.618344, "velocity": 0.28346456692913385}, {"duration": 0.004716983333310054, "durationTicks": 1, "midi": 39, "name": "D#2", "ticks": 48640, "time": 230.80702333333335, "velocity": 0.2677165354330709}, {"duration": 0.004716983333366898, "durationTicks": 1, "midi": 39, "name": "D#2", "ticks": 48680, "time": 230.99570266666666, "velocity": 0.36220472440944884}]}, {"channel": 0, "controlChanges": {"0": [{"number": 0, "ticks": 170, "time": 0.8018871666666668, "value": 0}]}, "pitchBends": [], "instrument": {"family": "piano", "number": 0, "name": "acoustic grand piano"}, "name": "Flute", "notes": [], "endOfTrackTicks": 28580}, {"channel": 10, "controlChanges": {"6": [{"number": 6, "ticks": 243, "time": 1.14622695, "value": 0.015748031496062992}], "7": [{"number": 7, "ticks": 173, "time": 0.8160381166666667, "value": 0.6299212598425197}], "10": [{"number": 10, "ticks": 173, "time": 0.8160381166666667, "value": 0.8188976377952756}], "91": [{"number": 91, "ticks": 244, "time": 1.1509439333333333, "value": 0.905511811023622}], "93": [{"number": 93, "ticks": 245, "time": 1.1556609166666667, "value": 0.23622047244094488}], "100": [{"number": 100, "ticks": 240, "time": 1.132076, "value": 0}], "101": [{"number": 101, "ticks": 241, "time": 1.1367929833333335, "value": 0}], "121": [{"number": 121, "ticks": 237, "time": 1.1179250500000002, "value": 0}]}, "pitchBends": [], "instrument": {"family": "pipe", "number": 73, "name": "flute"}, "name": "", "notes": [{"duration": 0.31132090000002677, "durationTicks": 66, "midi": 74, "name": "D5", "ticks": 27600, "time": 130.18874, "velocity": 0.6614173228346457}, {"duration": 0.2547171000000219, "durationTicks": 54, "midi": 71, "name": "B4", "ticks": 27661, "time": 130.47647598333333, "velocity": 0.6377952755905512}, {"duration": 0.2547170999999935, "durationTicks": 54, "midi": 74, "name": "D5", "ticks": 27722, "time": 130.7642119666667, "velocity": 0.6614173228346457}, {"duration": 0.22641519999999105, "durationTicks": 48, "midi": 76, "name": "E5", "ticks": 27782, "time": 131.0472309666667, "velocity": 0.6614173228346457}, {"duration": 0.28301900000002433, "durationTicks": 60, "midi": 74, "name": "D5", "ticks": 27839, "time": 131.31609901666667, "velocity": 0.6377952755905512}, {"duration": 0.30660391666665987, "durationTicks": 65, "midi": 71, "name": "B4", "ticks": 27901, "time": 131.60855198333334, "velocity": 0.6850393700787402}, {"duration": 0.2830189999999959, "durationTicks": 60, "midi": 69, "name": "A4", "ticks": 27963, "time": 131.90100495000002, "velocity": 0.7007874015748031}, {"duration": 0.221698216666681, "durationTicks": 47, "midi": 67, "name": "G4", "ticks": 28021, "time": 132.17458998333333, "velocity": 0.6614173228346457}, {"duration": 0.25943408333333196, "durationTicks": 55, "midi": 69, "name": "A4", "ticks": 28078, "time": 132.44345803333334, "velocity": 0.6614173228346457}, {"duration": 0.26415106666667043, "durationTicks": 56, "midi": 67, "name": "G4", "ticks": 28132, "time": 132.69817513333334, "velocity": 0.6141732283464567}, {"duration": 0.26415106666667043, "durationTicks": 56, "midi": 69, "name": "A4", "ticks": 28195, "time": 132.99534508333335, "velocity": 0.6850393700787402}, {"duration": 0.2688680499999805, "durationTicks": 57, "midi": 71, "name": "B4", "ticks": 28257, "time": 133.28779805000002, "velocity": 0.6456692913385826}, {"duration": 0.34499999999999886, "durationTicks": 69, "midi": 69, "name": "A4", "ticks": 28320, "time": 133.584968, "velocity": 0.6141732283464567}, {"duration": 0.33500000000000796, "durationTicks": 67, "midi": 67, "name": "G4", "ticks": 28382, "time": 133.894968, "velocity": 0.6535433070866141}, {"duration": 0.32500000000001705, "durationTicks": 65, "midi": 64, "name": "E4", "ticks": 28448, "time": 134.224968, "velocity": 0.6456692913385826}, {"duration": 0.3611111666666602, "durationTicks": 70, "midi": 62, "name": "D4", "ticks": 28510, "time": 134.534968, "velocity": 0.6614173228346457}]}]}